<?xml version="1.0" encoding="UTF-8" standalone="no"?>
<svg
   xmlns:dc="http://purl.org/dc/elements/1.1/"
   xmlns:cc="http://creativecommons.org/ns#"
   xmlns:rdf="http://www.w3.org/1999/02/22-rdf-syntax-ns#"
   xmlns:svg="http://www.w3.org/2000/svg"
   xmlns="http://www.w3.org/2000/svg"
   xmlns:xlink="http://www.w3.org/1999/xlink"
   xmlns:sodipodi="http://sodipodi.sourceforge.net/DTD/sodipodi-0.dtd"
   xmlns:inkscape="http://www.inkscape.org/namespaces/inkscape"
   enable-background="new"
   width="32"
   height="32"
   viewBox="0 0 8.4666666 8.4666669"
   version="1.1"
   id="svg8"
   inkscape:version="1.0.1 (3bc2e813f5, 2020-09-07)"
   sodipodi:docname="7DaysToDie.svg">
  <defs
     id="defs2">
    <linearGradient
       gradientTransform="matrix(0.0077439,0,0,0.0077439,-0.05678487,-0.08653876)"
       gradientUnits="userSpaceOnUse"
       y2="813.84167"
       x2="170"
       y1="301.84164"
       x1="938"
       id="linearGradient1158"
       xlink:href="#linearGradient1156"
       inkscape:collect="always" />
    <linearGradient
       id="linearGradient1156"
       inkscape:collect="always">
      <stop
         id="stop1152"
         offset="0"
         style="stop-color:#333333;stop-opacity:1" />
      <stop
         id="stop1154"
         offset="1"
         style="stop-color:#252525;stop-opacity:1" />
    </linearGradient>
    <mask
       id="mask862"
       maskUnits="userSpaceOnUse">
      <rect
         inkscape:export-ydpi="96"
         inkscape:export-xdpi="96"
         style="display:inline;opacity:1;fill:url(#radialGradient866);fill-opacity:1;stroke:none;stroke-width:4.34110594;stroke-opacity:1"
         id="rect864"
         width="30"
         height="30.000025"
         x="1"
         y="0.9999876"
         inkscape:label="Faded mask" />
    </mask>
    <radialGradient
       r="15"
       fy="16.600925"
       fx="-3.1699476"
       cy="16.600925"
       cx="-3.1699476"
       gradientTransform="matrix(1.2438841,1.2021521,-1.0766625,1.1139429,29.163729,-6.6607255)"
       gradientUnits="userSpaceOnUse"
       id="radialGradient866"
       xlink:href="#linearGradient1961"
       inkscape:collect="always" />
    <linearGradient
       id="linearGradient1961"
       inkscape:collect="always">
      <stop
         id="stop1957"
         offset="0"
         style="stop-color:#696969;stop-opacity:1" />
      <stop
         id="stop1959"
         offset="1"
         style="stop-color:#ffffff;stop-opacity:0" />
    </linearGradient>
    <clipPath
       clipPathUnits="userSpaceOnUse"
       id="clipPath1839">
      <path
         id="path1841"
         style="display:inline;fill:#f9f9f9;fill-opacity:1;stroke-width:0.0259766"
         d="m 4.2457357,1.5049659 c -0.4884301,3.413e-4 -0.9771536,0.00125 -1.4655437,0.00879 -0.0922,0.00206 -0.1844288,0.00253 -0.2764688,0.00879 -0.01918,-0.00258 -0.00685,0.020639 -0.00672,0.030489 0.02147,0.09323 0.050111,0.1845021 0.078031,0.2759521 0.04529,0.14326 0.091719,0.2863112 0.1374592,0.4294312 l 1.3322184,1.3322184 c -0.00161,0.00254 -0.00372,0.00558 -0.00517,0.00775 -0.01474,0.025942 -0.024445,0.054374 -0.03669,0.081649 l -0.065629,-0.06563 c -0.00185,-0.00185 -0.0043,-0.00346 -0.00775,-0.00414 -0.03995,0.00513 -0.040062,0.053319 -0.031522,0.083199 l -0.028421,0.1384943 c -0.013912,-0.00853 -0.031202,0.00209 -0.03359,0.018603 -0.00259,0.00623 -0.00135,0.010546 0.00156,0.013435 l 0.019637,0.019637 c 5.027e-4,0.00185 1.947e-4,0.0038 5.291e-4,0.00568 l -0.013435,0.065629 c -0.00303,0.00183 -0.0058,0.00206 -0.00827,0.00103 l -0.018082,-0.018084 c -0.00169,-0.00167 -0.0038,-0.00297 -0.00569,-0.00362 -0.01365,0.01383 -0.00666,0.037831 -0.00827,0.055811 0.00243,0.031034 0.00576,0.063278 0.01447,0.093534 l -0.01292,0.063562 -0.011885,-0.011885 c -0.01061,-0.01061 -0.035291,-0.00894 -0.041341,0.00775 -0.00582,0.04801 -0.042881,0.083935 -0.076481,0.1157552 -0.016309,0.015351 -0.034319,0.029205 -0.048059,0.047025 l 0.034106,0.034107 -0.011885,0.070797 -0.015502,-0.015502 c -0.02721,0.01274 -0.05222,0.036205 -0.06873,0.061495 l -0.068213,0.4826576 c -0.00501,0.00101 -0.010562,0.0018 -0.01447,0.0031 -0.00356,0.0027 -0.013338,0.0031 -0.011369,0.010329 l 0.00878,0.0088 -0.044442,0.3312459 c -0.015999,0.01723 -0.031772,0.03467 -0.045475,0.05374 -0.00453,0.0065 -0.00355,0.01143 0,0.014989 l 0.032039,0.03204 -0.026872,0.2015382 c -0.00225,0.0044 -0.00547,0.0081 -0.00775,0.012401 l -0.067171,-0.067185 c -0.013189,-0.01319 -0.037779,-0.00209 -0.049609,0.010329 -0.03631,0.03299 -0.05971,0.07845 -0.07183,0.1255739 -0.0071,0.03794 -0.013242,0.08123 0.00517,0.1167892 l 0.1441773,0.144177 -0.00827,0.06098 c -0.00988,0.016751 -0.019547,0.03385 -0.029972,0.05013 -0.011441,0.021079 -0.034696,0.05367 -0.013436,0.07493 l 0.01292,0.01292 c 0.00475,0.0055 0.00669,0.012671 0.00982,0.019121 l -0.072347,0.5389851 -0.034623,-0.03462 -0.00156,-0.00159 c -0.018939,0.0052 -0.03343,0.02472 -0.03514,0.04393 v 0.5234818 c 0.00132,0.004 -0.00106,0.014441 0.00259,0.01809 L 131.58887,135.65386 c 0.001,0.001 0.002,0.002 0.004,0.002 0.03,-0.036 0.0472,-0.081 0.0682,-0.12196 0.002,-0.009 0.008,-0.0198 0.0108,-0.03 l 0.0377,-0.0574 c 0.019,-0.0103 0.0291,-0.0326 0.0393,-0.0512 0.004,-0.008 0.007,-0.0168 0.0103,-0.0253 l 0.0543,-0.0837 c 0.003,-0.002 0.005,-0.004 0.008,-0.006 0.023,0.008 0.047,-0.001 0.063,-0.0171 0.044,-0.04 0.0738,-0.0922 0.10284,-0.14315 0.046,-0.083 0.079,-0.1718 0.12402,-0.2558 0.023,-0.043 0.045,-0.087 0.077,-0.12402 0.0202,-0.0188 0.0275,-0.046 0.0269,-0.0734 l 0.0284,-0.0439 c 0.023,0.008 0.0549,0.0102 0.061,-0.0165 0,-0.005 -0.002,-0.008 -0.004,-0.0104 l -0.0238,-0.0238 0.003,-0.004 c 0.0177,-0.0134 0.0316,-0.0308 0.0372,-0.0532 2.4e-4,-0.002 7.9e-4,-0.004 0.001,-0.006 l 0.0512,-0.0791 c 0.0278,-0.0121 0.0602,-0.0211 0.0899,-0.0176 0.035,-0.014 0.0607,-0.0509 0.0687,-0.0889 0.013,-0.052 0.001,-0.10913 0.0284,-0.15814 0.011,-0.028 0.0515,-0.0559 0.0325,-0.0899 0.005,-0.043 0.0524,-0.0611 0.0724,-0.0961 0.028,-0.032 0.006,-0.0731 0.0139,-0.11007 0.001,-0.025 0.0291,-0.0317 0.0481,-0.0207 0.007,0 0.0298,0.016 0.0258,-0.001 -0.015,-0.018 -1.8e-4,-0.0408 0.01,-0.0568 0.017,-0.043 0.0213,-0.0894 0.0253,-0.13539 2.6e-4,-0.0152 0.005,-0.0298 0.006,-0.045 l 0.0739,0.0739 c 0.004,0.004 0.007,0.006 0.0108,0.009 0.03,-0.006 0.043,-0.042 0.061,-0.0631 0.038,-0.061 0.0648,-0.12785 0.0848,-0.19585 0.03,-0.091 0.0723,-0.17697 0.11731,-0.26097 0.022,-0.038 0.0429,-0.077 0.0729,-0.10903 0.021,-0.009 0.0329,-0.028 0.0439,-0.047 0.032,-0.057 0.0589,-0.11738 0.0739,-0.18138 0.004,-0.025 0.0143,-0.0616 -0.006,-0.0806 l -0.047,-0.047 0.17002,-0.29508 0.0181,0.0181 c 0.002,0.002 0.005,0.003 0.009,0 0.013,-0.02 0.0331,-0.0493 0.0181,-0.0724 l -0.11369,-0.11368 c 0.002,-0.002 0.004,-0.003 0.007,-0.005 l 0.0558,0.0558 c 0.012,0.013 0.036,0.003 0.047,-0.008 0.034,-0.02 0.0451,-0.0702 0.017,-0.0971 l -0.0672,-0.0672 c -0.007,-0.0181 -0.0181,-0.0358 -0.0253,-0.0537 l 0.12971,-0.25321 c 0.0161,-0.0149 0.0253,-0.0348 0.0367,-0.0537 0.0142,-0.0278 0.0264,-0.0573 0.0357,-0.0879 l 0.10232,-0.19947 0.0103,0.0104 c 0.004,0.004 0.009,0.006 0.0139,0.004 l 0.002,-0.009 c 0.006,-0.043 0.0456,-0.0678 0.0656,-0.10283 0.016,-0.032 -0.0258,-0.049 -0.0248,-0.077 0.013,-0.024 0.0539,-0.0218 0.0579,-0.0548 -0.002,-0.018 2.4e-4,-0.0363 0.007,-0.0543 0.037,-0.115 0.0977,-0.21973 0.14572,-0.33073 0.018,-0.043 0.0392,-0.0852 0.0512,-0.13022 0.014,-0.047 0.0349,-0.0919 0.0568,-0.13592 0.031,-0.06 0.0608,-0.12093 0.0879,-0.18293 0.07,-0.153 0.1293,-0.31012 0.1943,-0.46613 l -0.002,-0.002 L 5.9717284,1.5364885 c -0.014279,-0.01428 -0.040408,-0.0096 -0.059428,-0.013953 -0.1144297,-0.00878 -0.2294647,-0.00963 -0.3441647,-0.011886 -0.44083,-0.0059 -0.8815401,-0.00525 -1.3224,-0.00568 z" />
    </clipPath>
  </defs>
  <sodipodi:namedview
     inkscape:document-rotation="0"
     inkscape:guide-bbox="true"
     showguides="true"
     inkscape:snap-object-midpoints="true"
     units="px"
     inkscape:pagecheckerboard="true"
     inkscape:window-maximized="1"
     inkscape:window-y="30"
     inkscape:window-x="0"
     inkscape:window-height="1020"
     inkscape:window-width="1920"
     showgrid="true"
     inkscape:current-layer="layer1"
     inkscape:document-units="px"
     inkscape:cy="35.80836"
     inkscape:cx="134.56114"
     inkscape:zoom="3.959798"
     inkscape:pageshadow="2"
     inkscape:pageopacity="0"
     borderopacity="1.0"
     bordercolor="#666666"
     pagecolor="#737373"
     id="base">
    <inkscape:grid
       type="xygrid"
       id="grid945"
       units="px"
       spacingx="0.26458334"
       spacingy="0.26458334"
       empspacing="8" />
    <sodipodi:guide
       position="8.2020834,8.2020837"
       orientation="0,1"
       id="guide1116"
       inkscape:locked="false" />
    <sodipodi:guide
       position="8.2020834,8.2020837"
       orientation="1,0"
       id="guide1118"
       inkscape:locked="false" />
    <sodipodi:guide
       position="0.26458334,0"
       orientation="1,0"
       id="guide1120"
       inkscape:locked="false" />
    <sodipodi:guide
       position="0.26458334,0.26458334"
       orientation="0,1"
       id="guide1122"
       inkscape:locked="false" />
    <sodipodi:guide
       position="0.52916667,0"
       orientation="0,1"
       id="guide1126"
       inkscape:locked="false" />
  </sodipodi:namedview>
  <metadata
     id="metadata5">
    <rdf:RDF>
      <cc:Work
         rdf:about="">
        <dc:format>image/svg+xml</dc:format>
        <dc:type
           rdf:resource="http://purl.org/dc/dcmitype/StillImage" />
        <dc:title />
      </cc:Work>
    </rdf:RDF>
  </metadata>
  <g
     style="display:inline"
     inkscape:label="Main"
     id="layer1"
     inkscape:groupmode="layer">
    <rect
       inkscape:label="Background"
       y="0.26458016"
       x="0.2645832"
       height="7.9375067"
       width="7.9375"
       id="rect922"
       style="display:inline;opacity:1;fill:#a51d17;fill-opacity:1;stroke:none;stroke-width:1.14858;stroke-opacity:1"
       inkscape:export-xdpi="96"
       inkscape:export-ydpi="96" />
    <rect
       clip-path="url(#clipPath1839)"
       inkscape:export-ydpi="96"
       inkscape:export-xdpi="96"
       style="display:inline;opacity:0.214286;fill:#000000;fill-opacity:1;stroke:none;stroke-width:1.14858;stroke-opacity:1"
       id="rect943"
       width="7.9375"
       height="7.9375067"
       x="0.26458332"
       y="0.26458016"
       inkscape:label="Opaque mask"
       sodipodi:insensitive="true" />
    <path
       id="path871"
       style="display:inline;fill:#f9f9f9;fill-opacity:1;stroke-width:0.0259766"
       d="m 3.1762428,7.2254979 c 0.00352,-0.04414 0.02427,-0.08495 0.045896,-0.12284 0.010089,-0.01422 0.018973,-0.03328 0.036871,-0.03857 0.01344,0.01741 -0.00373,0.04104 -0.00875,0.05939 -0.020801,0.04116 -0.038262,0.08575 -0.067986,0.121228 -0.00896,2.36e-4 -0.00441,-0.01428 -0.00603,-0.01921 z m 0.1039064,-0.217787 c 0.0095,-0.04565 0.029739,-0.08837 0.046412,-0.131749 0.042003,-0.100313 0.087705,-0.199026 0.1312592,-0.298668 0.061689,-0.141014 0.1259183,-0.280895 0.1887867,-0.421378 0.022145,-0.05219 0.044382,-0.104642 0.059335,-0.159426 0.00898,-0.01664 -0.00883,-0.03878 0.010481,-0.05045 0.011634,-0.0079 0.04037,-0.01319 0.030433,-0.03306 -0.029394,-0.01615 -0.061605,0.01051 -0.086459,0.02521 -0.040211,0.02818 -0.075083,0.06526 -0.094982,0.110594 -0.057571,0.114368 -0.1104978,0.230983 -0.1659912,0.346352 -0.027342,0.0544 -0.054223,0.109359 -0.088161,0.160028 -0.00445,0.0072 -0.016112,0.02267 -0.022996,0.0091 -0.00876,-0.04326 0.010332,-0.08751 0.028618,-0.126068 0.00756,-0.01917 0.026061,-0.02875 0.039091,-0.04312 -0.022529,-0.01255 -0.00216,-0.03687 0.00591,-0.05249 0.017561,-0.03014 0.047456,-0.05926 0.045448,-0.09633 -0.012556,-0.01893 -0.040872,0.0043 -0.053326,-0.01758 -0.024266,-0.03139 -0.019884,-0.07949 -0.055337,-0.104003 -0.023755,-0.0212 -1.804e-4,-0.05489 0.011509,-0.07643 0.031607,-0.04936 0.063322,-0.100128 0.079438,-0.156966 0.00553,-0.01266 0.00421,-0.04176 -0.016328,-0.03234 -0.041695,0.01333 -0.069508,-0.02532 -0.1019977,-0.0423 -0.020183,-0.01494 -0.049702,-0.0054 -0.067049,-0.02355 -0.018412,-0.03556 -0.011938,-0.07897 -0.00483,-0.116908 0.012113,-0.04712 0.035535,-0.09262 0.071847,-0.125615 0.013754,-0.0145 0.044855,-0.02713 0.055106,-0.0019 0.012556,0.02669 -0.0047,0.07049 0.028293,0.08523 0.038907,-9.14e-4 0.033663,-0.05638 0.067183,-0.06815 0.018334,-0.01357 0.042748,-0.0063 0.062094,-0.0153 -0.02032,-0.01778 -0.052436,-0.01817 -0.070616,-0.03867 0.011332,-0.02019 0.046979,-0.01757 0.053036,-0.04494 0.015003,-0.03886 -0.010523,-0.08891 -0.052204,-0.0966 -0.011655,-0.0014 -0.034868,-0.0073 -0.023526,-0.02351 0.025052,-0.03488 0.05907,-0.06244 0.08329,-0.09815 0.025602,-0.03825 0.059245,-0.08051 0.054065,-0.12917 -0.018844,-0.02978 0.011671,-0.05714 0.031889,-0.07577 0.025233,-0.03599 0.0311,-0.08104 0.039613,-0.12316 0.010556,-0.05971 0.01723,-0.1200208 0.025036,-0.1801206 0.00977,-0.04123 0.059193,-0.042153 0.093249,-0.044025 0.00672,0.0013 0.028677,-0.0088 0.00938,-0.013655 -0.013967,-0.00292 -0.026802,-0.018247 -0.016215,-0.031756 0.00823,-0.016636 0.026244,-0.028016 0.029858,-0.046847 -0.00629,-0.016802 -0.040627,0.00247 -0.037192,-0.020556 0.016685,-0.027073 0.047709,-0.056891 0.030829,-0.091588 -0.0097,-0.038998 0.023062,-0.074256 0.048571,-0.1002009 0.012815,-0.011335 0.03138,-0.024565 0.048426,-0.013735 0.030177,-0.00554 0.036246,-0.044563 0.045377,-0.069158 0.010251,-0.045683 0.021109,-0.094742 0.01226,-0.1410794 -0.00874,0.018838 -0.027086,0.046878 -0.051546,0.03592 -0.02051,-0.025429 0.019972,-0.061156 -0.00757,-0.085254 -0.023455,-0.037436 -0.022568,-0.085095 -0.025959,-0.1281652 0.00161,-0.017975 -0.00527,-0.042173 0.00838,-0.056003 0.01197,0.00415 0.0187,0.034609 0.034366,0.02028 0.011782,-0.024231 0.022637,-0.055626 0.00954,-0.081275 -0.00924,-0.00514 -0.027043,-0.0066 -0.020407,-0.022571 0.00279,-0.019292 0.026611,-0.0342 0.04069,-0.015077 0.017804,0.014624 0.025155,0.042036 0.048013,0.049514 0.02402,-0.016816 0.034739,-0.048785 0.043244,-0.076249 0.005,-0.017627 -0.00854,-0.034572 0.00112,-0.052091 0.01692,-0.055323 0.041985,-0.1079661 0.070516,-0.1581804 0.013011,-0.019533 0.032292,-0.058251 0.06041,-0.040126 0.022658,0.020574 0.044206,-0.010864 0.052607,-0.029621 0.021056,-0.043535 0.038873,-0.090113 0.04253,-0.1386818 -0.00676,-0.019321 0.00293,-0.044221 0.026416,-0.042038 0.040602,-0.027576 0.0524,-0.080637 0.067934,-0.1244376 0.013282,-0.043524 0.019408,-0.088688 0.025773,-0.1335971 0.00569,-0.050462 0.029344,-0.095627 0.042992,-0.1436295 0.010792,-0.05052 0.01304,-0.1023399 0.013507,-0.1538414 0.00494,-0.082964 0.025012,-0.164915 0.056516,-0.2417264 0.016761,-0.034884 0.032921,-0.082197 0.076542,-0.088188 0.02804,-0.024695 0.00984,-0.066387 0.021072,-0.098301 0.00606,-0.036455 0.019681,-0.070887 0.030733,-0.1059833 -0.6146581,0 -1.2293163,0 -1.8439744,0 C 2.6667658,2.1153123 2.6204688,1.9723693 2.5751805,1.8291057 2.5472555,1.7376597 2.5186125,1.6462672 2.4971435,1.553038 c -1.309e-4,-0.00985 -0.012578,-0.033014 0.00661,-0.030431 0.092035,-0.00625 0.1843601,-0.00654 0.2765598,-0.0086 0.4883855,-0.00753 0.9768454,-0.00856 1.4652801,-0.0089 0.4408564,4.321e-4 0.881739,-4.272e-4 1.322566,0.00548 0.1146989,0.00226 0.2295572,0.00307 0.3439921,0.011851 0.019567,0.00447 0.047098,-7.189e-4 0.061046,0.015145 -0.064738,0.1552819 -0.1236794,0.3130131 -0.193789,0.4660243 -0.02744,0.061742 -0.057448,0.1222761 -0.088346,0.1823436 -0.021179,0.044438 -0.042765,0.089056 -0.057082,0.1362755 -0.011105,0.045212 -0.032228,0.08718 -0.050254,0.1298952 -0.048434,0.1106663 -0.1092632,0.2160947 -0.146655,0.3314004 -0.00643,0.017418 -0.00888,0.035764 -0.00639,0.053976 -0.00391,0.032678 -0.045197,0.030505 -0.058563,0.054538 -8.281e-4,0.028353 0.041115,0.045599 0.025277,0.076785 -0.02012,0.035208 -0.060313,0.059923 -0.065494,0.1032383 l -0.00202,0.00948 c -0.015899,0.00435 -0.022,-0.01949 -0.030934,-0.028929 -0.00268,-0.00362 -0.015991,-0.024655 -0.017142,-0.00639 0.00232,0.038432 -0.015614,0.076141 -0.045631,0.099963 -0.021773,0.018991 -0.030002,0.049 -0.022181,0.076451 -0.00525,0.046752 -0.025255,0.090421 -0.046852,0.1317039 -0.011586,0.019675 -0.021221,0.041732 -0.038687,0.056995 -0.007,-0.011843 -0.00769,-0.032369 -0.025952,-0.035264 -0.013433,-0.00543 -0.030035,0.00935 -0.0188,0.022391 0.011776,0.040486 -0.039248,0.058946 -0.054986,0.08989 -0.030782,0.046931 -0.047173,0.1065632 -0.033749,0.1620718 0.00769,0.034916 0.052076,0.066993 0.030184,0.1046208 0.014204,0.018412 0.044018,0.00331 0.060684,0.020473 0.036915,0.025401 0.027018,0.082377 -0.00923,0.1034138 -0.013892,0.013528 -0.045084,0.024557 -0.052975,-0.00141 -0.00432,-0.021387 -4.4e-4,-0.059182 -0.031751,-0.059653 -0.033408,0.00281 -0.051482,0.043238 -0.032403,0.070643 0.00956,0.029784 0.050329,0.046387 0.046053,0.080068 -0.025454,0.040252 -0.074813,0.056931 -0.1057205,0.09263 -0.018521,0.017931 -0.035296,0.039267 -0.03829,0.065572 -0.021542,0.043705 -0.068329,0.06405 -0.1021827,0.096054 -0.010869,0.00852 -0.019551,0.02786 1.592e-4,0.032315 0.0237,0.03088 0.00106,0.072308 -0.00551,0.1059383 -0.00385,0.022429 -0.016155,0.047941 -0.00575,0.069882 0.026344,0.00345 0.043643,-0.025699 0.062371,-0.040292 0.025685,-0.022965 0.054452,-0.055839 0.092152,-0.05184 0.03182,0.016347 0.020442,0.059917 0.0157,0.088599 -0.015071,0.063694 -0.042457,0.1239388 -0.0743,0.180891 -0.010509,0.019021 -0.022875,0.038152 -0.043559,0.046454 -0.030247,0.032099 -0.050838,0.071753 -0.072733,0.1096807 -0.045348,0.083856 -0.087098,0.1701963 -0.117136,0.2608253 -0.020021,0.06835 -0.047354,0.135047 -0.084911,0.195696 -0.018605,0.02145 -0.031113,0.05679 -0.061129,0.06321 -0.03806,-0.02361 -0.037689,-0.07945 -0.014398,-0.113831 0.024439,-0.03774 0.047524,-0.08536 0.033007,-0.130946 -0.0021,-0.0075 -0.0053,-0.01494 -0.00451,-0.02295 0.017245,0.0084 0.025455,0.04848 0.049409,0.03332 0.026075,-0.03386 0.048467,-0.0756 0.049196,-0.119237 0.00227,-0.02302 -0.042067,-0.03354 -0.041555,-0.0068 0.00187,0.0086 0.01604,0.02623 -0.00208,0.02604 -0.04359,-0.01896 -0.077787,0.02515 -0.097289,0.05846 -0.041724,0.07184 -0.060998,0.155147 -0.06341,0.237752 -0.00402,0.04568 -0.00815,0.09227 -0.024201,0.135564 -0.010611,0.01557 -0.025667,0.0385 -0.010729,0.05627 0.00417,0.0173 -0.019138,0.0017 -0.026203,0.0013 -0.018582,-0.01103 -0.046816,-0.0039 -0.047826,0.02068 -0.0081,0.03698 0.013974,0.07872 -0.014072,0.110621 -0.019499,0.03493 -0.06642,0.05306 -0.071313,0.09559 0.018965,0.03382 -0.022058,0.06174 -0.033779,0.09046 -0.02686,0.04911 -0.014849,0.105931 -0.027519,0.15811 -0.00824,0.03736 -0.03375,0.07465 -0.069103,0.08882 -0.034346,-0.0038 -0.07155,0.0064 -0.1023816,0.02212 -0.030224,0.01549 -0.035444,0.05 -0.039883,0.07997 -0.00687,0.02722 -0.024677,0.05033 -0.049172,0.06393 l -0.00515,0.0066 c 0.012513,0.01004 0.04031,-0.0032 0.042852,0.02002 -0.00733,0.03158 -0.049809,0.02465 -0.072095,0.01446 -0.00848,-0.0048 -0.025061,-0.0023 -0.020906,0.01099 0.017773,0.03701 0.00625,0.0813 -0.02364,0.108578 -0.031623,0.03706 -0.053108,0.08144 -0.076395,0.123914 -0.044674,0.08378 -0.078167,0.173004 -0.1244371,0.255985 -0.028794,0.05097 -0.058379,0.103321 -0.1022443,0.14303 -0.01678,0.01603 -0.040723,0.02557 -0.063395,0.01734 -0.045658,0.01823 -0.052031,0.07579 -0.072732,0.114855 -0.010985,0.01984 -0.021134,0.04471 -0.043486,0.05384 -0.01571,-1.34e-4 -0.014374,-0.02051 -0.015103,-0.03131 z m 0.7233319,-1.072257 c 0.0042,-0.01409 0.00254,-0.04017 -0.018207,-0.03652 -0.036542,0.0088 -0.062307,0.05577 -0.049244,0.09103 0.030172,0.02098 0.063076,-0.02825 0.067451,-0.0545 z m 0.059322,-0.07333 c -0.010742,-0.01278 -0.038619,-0.02933 -0.046993,-0.0055 -0.00346,0.03248 0.021752,0.06348 0.04874,0.07846 0.027246,-0.0037 0.018841,-0.04286 0.00848,-0.05945 l -0.00473,-0.0071 -0.0055,-0.0064 z m 0.2434221,-0.48652 c 0.010488,-0.01149 0.00102,-0.03151 -0.015466,-0.02545 -0.019929,0.004 -0.052021,0.02799 -0.035385,0.04937 0.019629,0.007 0.040215,-0.0085 0.050851,-0.02393 z M 3.9144116,4.0832704 c 0.016036,-0.018304 0.042529,-0.014901 0.061649,-0.02519 0.029129,-0.035553 0.014007,-0.084686 0.027222,-0.1257704 0.00612,-0.028786 0.035274,-0.048958 0.029571,-0.081236 0.00242,-0.01734 -0.016572,-0.046655 -0.033793,-0.027401 -0.036679,0.039345 -0.048284,0.093948 -0.075382,0.1392476 -0.016954,0.043169 -0.062527,0.06954 -0.072042,0.1157122 0.00147,0.037117 0.047567,0.02309 0.062775,0.00464 z M 4.4579827,3.2338595 c 0.00392,-0.00825 0.00893,-0.029032 -0.00761,-0.027184 -0.026568,0.0023 -0.069715,0.031901 -0.045945,0.060905 0.023153,0.012841 0.046326,-0.014231 0.05355,-0.033721 z M 5.3582779,2.9597822 c 0.00155,-0.03008 -0.04684,-0.035707 -0.051423,-0.00522 -0.00748,0.028782 0.03888,0.044604 0.049373,0.015305 l 0.00152,-0.00487 z M 3.1762428,6.7019469 c 0.00171,-0.01921 0.015798,-0.03842 0.034735,-0.04358 0.013824,0.01017 -0.00144,0.0304 -0.00535,0.04285 -0.00561,0.0087 -0.012554,0.03095 -0.026209,0.02035 -0.00287,-0.0061 -0.00309,-0.01299 -0.00318,-0.01961 z m 0.3068488,-1.759711 c 0.015621,-0.0053 0.044317,-0.01151 0.051954,0.008 -0.01751,0.01286 -0.043717,0.0088 -0.063224,0.0025 -0.00197,-0.0072 0.00771,-0.0077 0.01127,-0.01048 z m 0.043836,-0.1640912 c 0.010696,-0.016255 0.039024,-0.036962 0.055661,-0.018346 0.00238,0.026039 -0.030187,0.049533 -0.054561,0.042274 -0.00894,-0.00523 -0.00558,-0.017095 -0.0011,-0.023927 z m 0.038965,-0.3215272 c 0.016506,-0.02529 0.041475,-0.048656 0.068692,-0.061399 3.356e-4,0.032846 -0.025818,0.071663 -0.060853,0.07367 l -0.00572,-0.00383 -0.00212,-0.00844 z M 3.6755135,4.2586126 c 0.033601,-0.031826 0.070942,-0.06752 0.076771,-0.1155348 0.00842,-0.023241 0.052863,-0.017064 0.045328,0.010316 -0.011105,0.042535 -0.042289,0.075486 -0.064644,0.1122964 -0.0062,0.00658 -0.011057,0.025184 0.00539,0.019594 0.027163,-0.00381 0.055505,-0.018729 0.082846,-0.00797 0.01356,0.017325 -0.015391,0.029568 -0.028453,0.034971 -0.036036,0.011262 -0.07972,0.023793 -0.1148583,0.00457 -0.00514,-0.01946 -0.028538,-0.027051 -0.044111,-0.013867 l -0.00629,0.00286 c 0.013741,-0.017812 0.031703,-0.031887 0.048015,-0.04724 z M 5.0465586,3.9858582 c -0.00145,-0.017326 0.012381,-0.047647 0.033751,-0.035891 0.014936,0.023562 -0.00451,0.052252 -0.018398,0.071781 -0.011677,0.0098 -0.013355,-0.013513 -0.014548,-0.020761 l -5.976e-4,-0.0073 -2.086e-4,-0.00783 z M 3.8980657,3.6936474 c -0.00854,-0.029872 -0.00878,-0.078183 0.031175,-0.083312 0.020555,0.004 0.00923,0.032278 0.00822,0.046346 -0.0071,0.026624 -0.010246,0.055718 -0.023669,0.079749 -0.010288,-0.010381 -0.01074,-0.029222 -0.015723,-0.042782 z M 4.1382034,3.2275755 c 2.362e-4,-0.029393 0.00782,-0.072834 0.041985,-0.078548 0.031953,0.00637 0.02216,0.045314 0.00953,0.065259 -0.012826,0.01988 -0.025536,0.042971 -0.045679,0.055619 -0.00888,-0.011024 -0.00392,-0.029144 -0.00584,-0.04233 z M 4.2590558,3.0442062 c -0.00847,-0.032952 0.00719,-0.06673 0.020655,-0.096296 l 0.00658,-0.00579 c 0.00665,0.037723 0.00951,0.079625 -0.00213,0.1168053 -0.00937,0.013341 -0.020608,-0.00779 -0.025107,-0.014716 z" />
  </g>
  <g
     style="display:none"
     sodipodi:insensitive="true"
     inkscape:label="Overlay"
     id="layer2"
     inkscape:groupmode="layer">
    <circle
       sodipodi:insensitive="true"
       inkscape:export-ydpi="96"
       inkscape:export-xdpi="96"
       clip-path="none"
       inkscape:highlight-color="4278255615"
       inkscape:label="Circle silhouette"
       r="3.9648747"
       cy="4.2333331"
       cx="4.2333336"
       id="path29"
       style="display:inline;opacity:0.1;fill:url(#linearGradient1158);fill-opacity:1;stroke:#414548;stroke-width:0.0077439;stroke-opacity:1" />
  </g>
</svg>
