<?xml version="1.0" encoding="UTF-8" standalone="no"?>
<!-- Created with Inkscape (http://www.inkscape.org/) -->

<svg
   xmlns:dc="http://purl.org/dc/elements/1.1/"
   xmlns:cc="http://creativecommons.org/ns#"
   xmlns:rdf="http://www.w3.org/1999/02/22-rdf-syntax-ns#"
   xmlns:svg="http://www.w3.org/2000/svg"
   xmlns="http://www.w3.org/2000/svg"
   xmlns:xlink="http://www.w3.org/1999/xlink"
   xmlns:sodipodi="http://sodipodi.sourceforge.net/DTD/sodipodi-0.dtd"
   xmlns:inkscape="http://www.inkscape.org/namespaces/inkscape"
   sodipodi:docname="AzureDataStudio.svg"
   inkscape:version="0.92.4 5da689c313, 2019-01-14"
   id="svg8"
   version="1.1"
   viewBox="0 0 8.4666666 8.4666669"
   height="32"
   width="32"
   enable-background="new">
  <defs
     id="defs2">
    <linearGradient
       inkscape:collect="always"
       xlink:href="#linearGradient1156"
       id="linearGradient1158"
       x1="938"
       y1="301.84164"
       x2="170"
       y2="813.84167"
       gradientUnits="userSpaceOnUse"
       gradientTransform="matrix(0.0077439,0,0,0.0077439,-0.05678487,-0.08653876)" />
    <linearGradient
       inkscape:collect="always"
       id="linearGradient1156">
      <stop
         style="stop-color:#333333;stop-opacity:1"
         offset="0"
         id="stop1152" />
      <stop
         style="stop-color:#252525;stop-opacity:1"
         offset="1"
         id="stop1154" />
    </linearGradient>
    <mask
       maskUnits="userSpaceOnUse"
       id="mask862">
      <rect
         inkscape:label="Faded mask"
         y="0.9999876"
         x="1"
         height="30.000025"
         width="30"
         id="rect864"
         style="display:inline;opacity:1;fill:url(#radialGradient866);fill-opacity:1;stroke:none;stroke-width:4.34110594;stroke-opacity:1"
         inkscape:export-xdpi="96"
         inkscape:export-ydpi="96" />
    </mask>
    <radialGradient
       inkscape:collect="always"
       xlink:href="#linearGradient1961"
       id="radialGradient866"
       gradientUnits="userSpaceOnUse"
       gradientTransform="matrix(1.2438841,1.2021521,-1.0766625,1.1139429,29.163729,-6.6607255)"
       cx="-3.1699476"
       cy="16.600925"
       fx="-3.1699476"
       fy="16.600925"
       r="15" />
    <linearGradient
       inkscape:collect="always"
       id="linearGradient1961">
      <stop
         style="stop-color:#696969;stop-opacity:1"
         offset="0"
         id="stop1957" />
      <stop
         style="stop-color:#ffffff;stop-opacity:0"
         offset="1"
         id="stop1959" />
    </linearGradient>
    <clipPath
       clipPathUnits="userSpaceOnUse"
       id="clipPath2696">
      <rect
         sodipodi:insensitive="true"
         inkscape:label="Opaque mask"
         y="0.99998802"
         x="0.99999994"
         height="30.000025"
         width="30"
         id="rect2698"
         style="display:inline;opacity:1;fill:#808080;fill-opacity:1;stroke:none;stroke-width:4.34110641;stroke-opacity:1"
         inkscape:export-xdpi="96"
         inkscape:export-ydpi="96" />
    </clipPath>
  </defs>
  <sodipodi:namedview
     id="base"
     pagecolor="#ffffff"
     bordercolor="#666666"
     borderopacity="1.0"
     inkscape:pageopacity="0.0"
     inkscape:pageshadow="2"
     inkscape:zoom="15.839192"
     inkscape:cx="19.552116"
     inkscape:cy="16.998003"
     inkscape:document-units="px"
     inkscape:current-layer="layer1"
     showgrid="true"
     inkscape:window-width="1366"
     inkscape:window-height="712"
     inkscape:window-x="0"
     inkscape:window-y="26"
     inkscape:window-maximized="1"
     inkscape:pagecheckerboard="true"
     units="px"
     inkscape:snap-object-midpoints="true"
     showguides="true"
     inkscape:guide-bbox="true"
     inkscape:snap-global="true">
    <inkscape:grid
       type="xygrid"
       id="grid945"
       units="px"
       spacingx="0.26458334"
       spacingy="0.26458334"
       empspacing="8" />
    <sodipodi:guide
       position="8.2020834,8.2020837"
       orientation="0,1"
       id="guide1116"
       inkscape:locked="false" />
    <sodipodi:guide
       position="8.2020834,8.2020837"
       orientation="1,0"
       id="guide1118"
       inkscape:locked="false" />
    <sodipodi:guide
       position="0.26458334,0"
       orientation="1,0"
       id="guide1120"
       inkscape:locked="false" />
    <sodipodi:guide
       position="0.26458334,0.26458334"
       orientation="0,1"
       id="guide1122"
       inkscape:locked="false" />
    <sodipodi:guide
       position="0.52916667,0"
       orientation="0,1"
       id="guide1126"
       inkscape:locked="false" />
  </sodipodi:namedview>
  <metadata
     id="metadata5">
    <rdf:RDF>
      <cc:Work
         rdf:about="">
        <dc:format>image/svg+xml</dc:format>
        <dc:type
           rdf:resource="http://purl.org/dc/dcmitype/StillImage" />
        <dc:title />
      </cc:Work>
    </rdf:RDF>
  </metadata>
  <g
     inkscape:groupmode="layer"
     id="layer1"
     inkscape:label="Main"
     style="display:inline">
    <rect
       inkscape:export-ydpi="96"
       inkscape:export-xdpi="96"
       style="display:inline;opacity:1;fill:#1570b4;fill-opacity:1;stroke:none;stroke-width:1.14858425;stroke-opacity:1"
       id="rect922"
       width="7.9375"
       height="7.9375067"
       x="0.2645832"
       y="0.26458016"
       inkscape:label="Square" />
    <path
       style="display:inline;opacity:0.22000002;fill:#000000;stroke-width:0.0372418"
       d="m 18.779297,6.3339844 c -0.258635,0.00308 -0.51398,0.023928 -0.671875,0.058594 -0.881099,0.1934491 -1.623887,0.6679936 -2.158203,1.3808594 l -0.138672,0.1835937 -0.564453,0.00391 c -0.682406,0.00447 -0.934492,0.058674 -1.458985,0.3144531 -0.83466,0.4070362 -1.455123,1.1635627 -1.699218,2.0703124 -0.110383,0.410099 -0.111294,1.174513 -0.002,1.585938 0.106433,0.400479 0.29376,0.77134 0.533203,1.099609 l -1.449219,-1.449219 c -0.01432,-0.01432 -0.03172,-0.01352 -0.05859,-0.0078 -0.04363,0.0093 -0.22238,0.04272 -0.396484,0.07617 -0.674742,0.129619 -1.452175,0.427543 -1.9355471,0.740234 -0.5555535,0.359385 -0.7989603,0.670663 -0.8007813,1.025391 -0.00134,0.262835 0.08409,0.437606 0.34375,0.697265 L 10.115234,15.90625 C 9.6322379,15.777391 9.1780909,15.629033 8.796875,15.4375 L 7.1972656,13.837891 c -0.00586,-0.0059 -0.013963,-0.0098 -0.021484,-0.0098 -0.024895,0 -0.033618,1.169278 -0.027344,3.490234 l 0.00977,3.492188 0.8300781,0.830078 h -0.039062 l -0.8085938,0.0098 v 0.585937 c 1.519e-4,0.322206 0.016288,0.694986 0.037109,0.828125 0.0568,0.363227 0.2600177,0.719002 0.5820312,1.041016 L 93.279297,109.62695 c 0.259918,0.25992 0.599293,0.49728 1.001953,0.69727 1.052319,0.52268 1.955882,0.73545 3.574219,0.8418 0.102425,0.007 0.220748,0.0157 0.261719,0.0195 0.161574,0.0151 1.398681,-0.0767 1.767578,-0.13086 0.570264,-0.0838 1.256304,-0.25392 1.728514,-0.42969 0.47992,-0.17862 1.13801,-0.50518 1.16602,-0.57812 0.0223,-0.0579 -0.013,-0.15694 -0.38477,-1.07032 -0.21135,-0.51955 -0.26179,-0.68069 -0.22656,-0.71289 0.008,-0.007 0.11126,-0.0495 0.15039,-0.0684 l 1.16406,1.16407 c 5.1e-4,5.1e-4 0.0356,-0.013 0.0391,-0.0137 l 1.51368,1.51368 c 0.0359,0.0359 0.12622,0.0832 0.28515,0.15234 0.17564,0.0764 0.33858,0.13964 0.36133,0.14062 0.037,0.001 0.34961,-0.69383 0.34961,-0.77734 0,-0.0593 0.0804,-0.0642 0.3125,-0.0156 0.24088,0.0504 0.4786,0.0495 0.7207,0.0156 l 0.77539,0.77539 c 0.0291,0.0291 0.72187,-0.27724 0.70704,-0.3125 -0.17375,-0.41266 -0.31836,-0.77514 -0.31836,-0.79687 0,-0.0151 0.12214,-0.12562 0.27343,-0.24414 0.1513,-0.11849 0.37319,-0.34024 0.49219,-0.49219 0.11902,-0.15194 0.23424,-0.26846 0.25586,-0.25977 0.65818,0.26366 0.81239,0.32345 0.81836,0.31446 0.0355,-0.0543 0.28781,-0.70245 0.27734,-0.7129 l -0.8164,-0.8164 c 0.0101,-0.27963 0.0306,-0.59104 0.0117,-0.70703 -0.0395,-0.24159 -0.0328,-0.25657 0.19726,-0.3418 0.22258,-0.0825 0.57439,-0.23259 0.5957,-0.25391 0.028,-0.028 -0.22561,-0.63186 -0.2871,-0.69336 l -0.008,-0.006 -5.96484,-5.964839 c 0.11772,2.26e-4 0.1087,0.0018 0.22851,0.002 3.85516,0.0042 3.99783,0.0026 4.27539,-0.06836 0.87847,-0.224693 1.55911,-0.928128 1.75586,-1.8125 0.0797,-0.358224 0.0559,-0.891682 -0.0547,-1.242187 -0.1143,-0.362117 -0.3138,-0.684876 -0.57618,-0.947266 l -2.39257,-2.392578 c -0.12535,-0.182173 -0.26116,-0.356862 -0.41602,-0.511719 L 21.373047,7.3710938 C 20.866388,6.8644349 20.211814,6.5119958 19.466797,6.375 19.299327,6.344201 19.037932,6.330907 18.779297,6.3339844 Z"
       id="path2098"
       inkscape:connector-curvature="0"
       transform="scale(0.26458334)"
       clip-path="url(#clipPath2696)" />
    <path
       inkscape:connector-curvature="0"
       id="path826"
       d="M 3.2636082,6.7852117 C 2.8354233,6.7570745 2.5960928,6.7007048 2.3176669,6.5624134 2.0791485,6.4439436 1.9263609,6.2759322 1.8992015,6.1022525 1.8936925,6.067026 1.8891525,5.9684536 1.8891123,5.8832032 l -7.44e-5,-0.1550014 0.2142756,-0.00265 0.2142755,-0.00265 0.026255,-0.068975 c 0.035895,-0.094301 0.085533,-0.2289677 0.1470956,-0.3990691 0.02844,-0.078582 0.053431,-0.1449651 0.055534,-0.1475181 0.007,-0.00849 0.021602,0.023326 0.06096,0.1327379 0.021444,0.059614 0.055095,0.1527301 0.074779,0.2069247 0.040702,0.1120608 0.053191,0.1466099 0.1175338,0.3251673 0.025387,0.070453 0.05209,0.1436173 0.05934,0.162588 0.00725,0.018971 0.042802,0.1165204 0.079008,0.2167778 0.1377648,0.3814905 0.1361935,0.3776699 0.1484275,0.3609385 0.00987,-0.013494 0.032043,-0.072201 0.1475093,-0.3905035 0.01278,-0.035226 0.038603,-0.1061718 0.057387,-0.1576566 0.018784,-0.051485 0.045192,-0.1246476 0.058683,-0.1625835 l 0.024528,-0.068975 0.5463344,-0.00254 0.5463343,-0.00254 0.092831,0.038822 0.092831,0.038822 0.00265,0.052405 0.00265,0.052405 -0.1208975,0.048197 c -0.066493,0.026509 -0.1263076,0.053139 -0.1329202,0.059179 -0.00932,0.00852 0.00418,0.050823 0.060098,0.1882887 0.098309,0.2416675 0.1078308,0.2681423 0.1019553,0.2834542 -0.00741,0.0193 -0.181748,0.1056564 -0.3087273,0.152919 C 4.1328278,6.6886711 3.951507,6.7338141 3.800624,6.7559817 3.70302,6.7703217 3.3753247,6.7943677 3.33258,6.7903257 3.321741,6.7893057 3.290702,6.7870057 3.263605,6.7852257 Z m 1.9748987,-0.040701 c -0.060285,-0.026223 -0.083218,-0.040919 -0.08004,-0.05129 0.00246,-0.00799 0.021627,-0.055325 0.042617,-0.1051778 0.020989,-0.049854 0.038163,-0.094948 0.038163,-0.1002086 0,-0.00526 -0.031137,-0.032213 -0.069195,-0.059894 -0.038057,-0.02768 -0.090158,-0.07751 -0.1157797,-0.1107329 -0.025621,-0.033223 -0.053422,-0.06903 -0.061781,-0.079568 -0.014857,-0.018736 -0.017684,-0.018136 -0.1266788,0.026784 -0.061316,0.02527 -0.1124055,0.04457 -0.113532,0.042887 -0.00853,-0.012737 -0.076105,-0.1870194 -0.073319,-0.1890903 0.00195,-0.00145 0.052333,-0.022791 0.111947,-0.047415 0.087067,-0.035963 0.1079846,-0.04842 0.106333,-0.063319 -0.00113,-0.010201 -0.00678,-0.052097 -0.012539,-0.093101 -0.00961,-0.068354 -0.00249,-0.1805463 0.015036,-0.2369074 0.00609,-0.019563 -0.010359,-0.033818 -0.060414,-0.052374 -0.086133,-0.031931 -0.156806,-0.064236 -0.156806,-0.07168 0,-0.023473 0.068727,-0.1803337 0.079012,-0.1803337 0.00668,0 0.038192,0.011522 0.070029,0.025604 0.031836,0.014083 0.078521,0.033449 0.1037457,0.043036 l 0.045862,0.017432 0.044864,-0.061102 c 0.05,-0.068096 0.1108898,-0.1273852 0.1731155,-0.1685643 0.048219,-0.03191 0.048156,-0.033859 -0.005,-0.1549537 -0.018551,-0.042263 -0.033731,-0.084529 -0.033731,-0.093924 0,-0.01233 0.025195,-0.027195 0.090595,-0.053447 0.049828,-0.020002 0.091476,-0.035378 0.092554,-0.034173 0.00107,0.00121 0.022111,0.050968 0.046741,0.1105823 l 0.044783,0.1083888 0.047417,-0.00487 c 0.061496,-0.00631 0.2101954,-0.00634 0.2779226,-7.82e-5 l 0.053141,0.00493 0.04382,-0.1083894 c 0.024103,-0.059614 0.044837,-0.1094357 0.046079,-0.110715 0.00123,-0.00129 0.044074,0.0149 0.095183,0.035955 0.060189,0.024793 0.091839,0.042971 0.089843,0.051594 -0.00168,0.00732 -0.021648,0.059325 -0.044342,0.1155629 l -0.041258,0.1022494 0.024178,0.015992 c 0.058877,0.038947 0.1373401,0.112882 0.1827473,0.1722016 0.027097,0.0354 0.055092,0.064619 0.062209,0.06493 0.00712,2.944e-4 0.056195,-0.01717 0.1090594,-0.038848 0.052865,-0.021678 0.1004919,-0.039414 0.1058372,-0.039414 0.011021,0 0.085926,0.1772708 0.078178,0.1850194 -0.00564,0.00564 -0.098477,0.045165 -0.1573622,0.066994 -0.060834,0.022553 -0.063106,0.026451 -0.052659,0.09037 0.00783,0.047899 0.00504,0.2298534 -0.00447,0.2920129 -0.0023,0.015106 0.017279,0.026858 0.1055499,0.063319 0.059614,0.024625 0.1101441,0.046114 0.1122893,0.047757 0.00297,0.00228 -0.06399,0.1741835 -0.073449,0.1885633 -0.00158,0.00238 -0.042596,-0.013336 -0.2167393,-0.083097 -0.00572,-0.0023 -0.03615,0.028729 -0.067637,0.068928 -0.031486,0.040199 -0.089998,0.098742 -0.1300248,0.1300929 -0.040026,0.031352 -0.072776,0.060303 -0.072776,0.064336 0,0.00575 0.038435,0.1018231 0.084409,0.2110067 0.00393,0.00934 -0.1798733,0.09042 -0.1871519,0.082556 -0.0019,-0.00206 -0.02217,-0.048069 -0.04505,-0.102263 -0.022879,-0.054195 -0.045477,-0.103341 -0.050213,-0.1092142 -0.00615,-0.00763 -0.026242,-0.00699 -0.070351,0.00225 -0.077932,0.016329 -0.1534168,0.016439 -0.2302406,3.48e-4 -0.061402,-0.012873 -0.082763,-0.011893 -0.082763,0.00379 0,0.022095 -0.082755,0.206244 -0.092508,0.2058511 -0.00602,-2.608e-4 -0.048977,-0.016982 -0.095449,-0.037197 z M 5.7502398,6.3581685 C 5.8813234,6.3218432 5.973355,6.2609119 6.0488046,6.1604975 6.1266259,6.0569277 6.1560825,5.969336 6.1568548,5.8392008 6.1585947,5.5483052 5.9153554,5.304406 5.623535,5.304406 c -0.1435509,0 -0.2692733,0.052755 -0.3750237,0.1573654 -0.092746,0.091746 -0.1320446,0.1702397 -0.1578654,0.3153137 -0.024154,0.1357107 0.03767,0.3180593 0.1459079,0.4303449 0.1381769,0.1433447 0.333516,0.2006659 0.513686,0.1507385 z M 3.0427097,5.7937577 C 3.0003132,5.675544 2.9468614,5.5285577 2.9237744,5.4666979 2.9136611,5.439601 2.8759202,5.3353997 2.8399052,5.2351396 2.8038905,5.1348797 2.7661229,5.0306783 2.7559777,5.0035814 2.7458322,4.9764839 2.6981981,4.8459507 2.6501244,4.7135075 2.6020505,4.5810646 2.5578843,4.4710908 2.5519772,4.4691219 c -0.00591,-0.00198 -0.016139,0.013277 -0.022735,0.033881 -0.0066,0.020604 -0.024362,0.070717 -0.039477,0.1113626 -0.015116,0.040646 -0.090196,0.2468318 -0.1668476,0.4581906 -0.076651,0.2113588 -0.1441417,0.3966036 -0.1499801,0.4116553 l -0.010614,0.027367 -0.1341795,-0.00274 -0.1341792,-0.00274 -0.00252,-0.9237709 c -0.00166,-0.6140864 8.031e-4,-0.923771 0.00739,-0.923771 0.00545,0 0.0099,0.00678 0.0099,0.01506 0,0.033557 0.060942,0.1323095 0.1230441,0.1993856 0.2190957,0.23665 0.6437679,0.3896938 1.1835961,0.4265521 0.4262737,0.029105 0.9199134,-0.060245 1.2344574,-0.2234399 l 0.122049,-0.063322 0.1489241,0.00271 0.1489235,0.00271 0.00254,0.5838234 c 0.00193,0.4461809 -2.235e-4,0.5838232 -0.00918,0.5838232 -0.00645,0 -0.055607,-0.017994 -0.1092414,-0.039987 -0.053635,-0.021994 -0.1041235,-0.038622 -0.1121984,-0.036951 -0.00882,0.00182 -0.045856,0.079558 -0.09271,0.1945629 -0.042915,0.1053395 -0.081597,0.1950963 -0.08596,0.1994592 -0.00436,0.00436 -0.2846577,0.00907 -0.6228765,0.010472 L 3.2251592,5.515955 3.2033502,5.57015 c -0.011995,0.029807 -0.030683,0.078582 -0.041527,0.1083888 -0.057899,0.1591443 -0.072977,0.1973411 -0.079484,0.2013626 -0.00393,0.00244 -0.021768,-0.036338 -0.039636,-0.086155 z M 3.0027452,4.0574749 C 2.6397474,4.0033306 2.3626755,3.8925023 2.206921,3.7391474 2.1344019,3.6677456 2.1107223,3.6209595 2.1110845,3.5497949 2.1115663,3.4559395 2.1760239,3.3733482 2.3230137,3.2782609 2.4509059,3.1955281 2.6564531,3.1170245 2.8349786,3.0827293 c 0.046065,-0.00885 0.0932,-0.018096 0.104744,-0.020548 0.019233,-0.00409 0.021899,0.00166 0.031887,0.068817 0.047759,0.3211082 0.2679761,0.6197439 0.5669956,0.7689011 0.1174529,0.058588 0.253054,0.0995 0.3654839,0.1102694 0.084456,0.00809 0.071259,0.012512 -0.1280962,0.042922 -0.1027256,0.01567 -0.1983344,0.022007 -0.3744351,0.02482 -0.2125723,0.0034 -0.2528998,0.00134 -0.3988126,-0.020436 z M 3.8622916,3.7856077 C 3.5541674,3.7342505 3.2830425,3.4777554 3.1977866,3.1569596 3.1688569,3.0481036 3.1691167,2.8457687 3.198322,2.7372634 3.2629055,2.4973525 3.4270558,2.2974378 3.6478929,2.1897428 c 0.138772,-0.067675 0.205305,-0.082021 0.3858583,-0.083204 l 0.1493733,-9.878e-4 0.036525,-0.04873 c 0.1413712,-0.1886124 0.3379789,-0.3145028 0.571103,-0.3656862 0.083553,-0.018344 0.2711892,-0.020578 0.3598085,-0.00428 0.3929727,0.072261 0.6918543,0.3699926 0.7721193,0.7691505 l 0.012795,0.063625 0.085082,0.012284 c 0.2520905,0.036389 0.4571688,0.2053671 0.530237,0.4368955 0.029268,0.092738 0.035432,0.2340739 0.014346,0.3288587 -0.052058,0.2339893 -0.2323614,0.4199647 -0.464788,0.4794093 -0.07344,0.018784 -0.1111824,0.019394 -1.1311931,0.01828 -0.5803697,-6.424e-4 -1.0784611,-0.00503 -1.1068694,-0.00976 z"
       style="display:inline;fill:#f9f9f9;stroke-width:0.00985356" />
    <circle
       style="display:none;opacity:0.1;fill:url(#linearGradient1158);fill-opacity:1;stroke:#414548;stroke-width:0.0077439;stroke-opacity:1"
       id="path29"
       cx="4.2333336"
       cy="4.2333331"
       r="3.9648747"
       inkscape:label="Circle silhouette"
       inkscape:highlight-color="4278255615"
       clip-path="none"
       inkscape:export-xdpi="96"
       inkscape:export-ydpi="96" />
  </g>
</svg>
