<?xml version="1.0" encoding="UTF-8" standalone="no"?>
<!-- Created with Inkscape (http://www.inkscape.org/) -->

<svg
   xmlns:dc="http://purl.org/dc/elements/1.1/"
   xmlns:cc="http://creativecommons.org/ns#"
   xmlns:rdf="http://www.w3.org/1999/02/22-rdf-syntax-ns#"
   xmlns:svg="http://www.w3.org/2000/svg"
   xmlns="http://www.w3.org/2000/svg"
   xmlns:xlink="http://www.w3.org/1999/xlink"
   xmlns:sodipodi="http://sodipodi.sourceforge.net/DTD/sodipodi-0.dtd"
   xmlns:inkscape="http://www.inkscape.org/namespaces/inkscape"
   sodipodi:docname="AzureStorageExplorer.svg"
   inkscape:version="0.92.4 5da689c313, 2019-01-14"
   id="svg8"
   version="1.1"
   viewBox="0 0 8.4666666 8.4666669"
   height="32"
   width="32"
   enable-background="new">
  <defs
     id="defs2">
    <linearGradient
       inkscape:collect="always"
       xlink:href="#linearGradient1156"
       id="linearGradient1158"
       x1="938"
       y1="301.84164"
       x2="170"
       y2="813.84167"
       gradientUnits="userSpaceOnUse"
       gradientTransform="matrix(0.0077439,0,0,0.0077439,-0.05678487,-0.08653876)" />
    <linearGradient
       inkscape:collect="always"
       id="linearGradient1156">
      <stop
         style="stop-color:#333333;stop-opacity:1"
         offset="0"
         id="stop1152" />
      <stop
         style="stop-color:#252525;stop-opacity:1"
         offset="1"
         id="stop1154" />
    </linearGradient>
    <mask
       maskUnits="userSpaceOnUse"
       id="mask862">
      <rect
         inkscape:label="Faded mask"
         y="0.9999876"
         x="1"
         height="30.000025"
         width="30"
         id="rect864"
         style="display:inline;opacity:1;fill:url(#radialGradient866);fill-opacity:1;stroke:none;stroke-width:4.34110594;stroke-opacity:1"
         inkscape:export-xdpi="96"
         inkscape:export-ydpi="96" />
    </mask>
    <radialGradient
       inkscape:collect="always"
       xlink:href="#linearGradient1961"
       id="radialGradient866"
       gradientUnits="userSpaceOnUse"
       gradientTransform="matrix(1.2438841,1.2021521,-1.0766625,1.1139429,29.163729,-6.6607255)"
       cx="-3.1699476"
       cy="16.600925"
       fx="-3.1699476"
       fy="16.600925"
       r="15" />
    <linearGradient
       inkscape:collect="always"
       id="linearGradient1961">
      <stop
         style="stop-color:#696969;stop-opacity:1"
         offset="0"
         id="stop1957" />
      <stop
         style="stop-color:#ffffff;stop-opacity:0"
         offset="1"
         id="stop1959" />
    </linearGradient>
    <clipPath
       clipPathUnits="userSpaceOnUse"
       id="clipPath836">
      <rect
         inkscape:export-ydpi="96"
         inkscape:export-xdpi="96"
         style="display:inline;opacity:1;fill:#808080;fill-opacity:1;stroke:none;stroke-width:1.14858449;stroke-opacity:1"
         id="rect838"
         width="7.9375"
         height="7.9375067"
         x="0.26458332"
         y="0.26458016"
         inkscape:label="Opaque mask"
         sodipodi:insensitive="true" />
    </clipPath>
  </defs>
  <sodipodi:namedview
     id="base"
     pagecolor="#ffffff"
     bordercolor="#666666"
     borderopacity="1.0"
     inkscape:pageopacity="0.0"
     inkscape:pageshadow="2"
     inkscape:zoom="11.2"
     inkscape:cx="14.061061"
     inkscape:cy="10.908157"
     inkscape:document-units="px"
     inkscape:current-layer="layer1"
     showgrid="true"
     inkscape:window-width="1366"
     inkscape:window-height="712"
     inkscape:window-x="0"
     inkscape:window-y="26"
     inkscape:window-maximized="1"
     inkscape:pagecheckerboard="true"
     units="px"
     inkscape:snap-object-midpoints="true"
     showguides="true"
     inkscape:guide-bbox="true"
     inkscape:object-nodes="false"
     inkscape:snap-global="false">
    <inkscape:grid
       type="xygrid"
       id="grid945"
       units="px"
       spacingx="0.26458334"
       spacingy="0.26458334"
       empspacing="8" />
    <sodipodi:guide
       position="8.2020834,8.2020837"
       orientation="0,1"
       id="guide1116"
       inkscape:locked="false" />
    <sodipodi:guide
       position="8.2020834,8.2020837"
       orientation="1,0"
       id="guide1118"
       inkscape:locked="false" />
    <sodipodi:guide
       position="0.26458334,0"
       orientation="1,0"
       id="guide1120"
       inkscape:locked="false" />
    <sodipodi:guide
       position="0.26458334,0.26458334"
       orientation="0,1"
       id="guide1122"
       inkscape:locked="false" />
    <sodipodi:guide
       position="0.52916667,0"
       orientation="0,1"
       id="guide1126"
       inkscape:locked="false" />
  </sodipodi:namedview>
  <metadata
     id="metadata5">
    <rdf:RDF>
      <cc:Work
         rdf:about="">
        <dc:format>image/svg+xml</dc:format>
        <dc:type
           rdf:resource="http://purl.org/dc/dcmitype/StillImage" />
        <dc:title />
      </cc:Work>
    </rdf:RDF>
  </metadata>
  <g
     inkscape:groupmode="layer"
     id="layer1"
     inkscape:label="Main"
     style="display:inline">
    <rect
       inkscape:export-ydpi="96"
       inkscape:export-xdpi="96"
       style="display:inline;opacity:1;fill:#00b0ff;fill-opacity:1;stroke:none;stroke-width:1.14858425;stroke-opacity:1"
       id="rect922"
       width="7.9375"
       height="7.9375067"
       x="0.2645832"
       y="0.26458016"
       inkscape:label="Background" />
    <path
       style="display:inline;opacity:0.18999999;fill:#000000;stroke-width:0.01841923"
       d="M 1.9720986,1.9699602 V 2.4392786 L 2.441885,2.9090649 H 1.9720986 l 0.773931,0.773931 H 2.5429546 V 4.0512447 L 2.9112035,4.4194938 H 2.5429546 l 0.202607,0.202607 H 2.5429546 2.1747057 V 4.8986384 L 2.4507754,5.1747082 H 2.1747057 l 0.3869655,0.3869654 h -0.018717 v 0.4201873 c 0,0.3482436 0.00166,0.4293294 0.04258,0.4702544 L 23.458274,27.324855 c 0.01059,0.01059 0.02372,0.01852 0.04024,0.02761 0.02629,0.01449 0.573336,0.0189 1.910495,0.01591 l 1.873532,-0.0042 0.04211,-0.04164 0.04211,-0.04211 V 25.443369 23.606805 L 6.4940264,2.7340649 5.93674,2.7293857 5.3794535,2.7242387 V 3.314279 L 4.992956,2.9277815 H 4.6247072 L 3.6668858,1.9699602 H 2.8194921 Z"
       id="path863"
       inkscape:connector-curvature="0"
       clip-path="url(#clipPath836)"
       inkscape:transform-center-x="-10.438963"
       inkscape:transform-center-y="10.437015" />
    <path
       inkscape:connector-curvature="0"
       id="path826"
       d="M 2.6259843,6.4797808 C 2.5456782,6.4355413 2.5430976,6.4200342 2.5430976,5.9816464 V 5.5615247 H 3.0127881 3.4824783 V 5.1842413 4.8069581 l 0.4742952,-0.00492 0.4742951,-0.00492 0.00326,-0.092096 c 0.00179,-0.050653 0.00387,-0.2184982 0.0046,-0.3729894 l 0.00134,-0.2808875 H 4.9099698 5.37966 V 3.387786 2.7244238 l 0.5571816,0.00488 0.5571817,0.00488 v 1.836798 1.8368087 l -0.041951,0.041953 -0.041952,0.041953 -1.8736479,0.00419 C 3.1993123,6.4988781 2.6522757,6.4942693 2.6259853,6.4797854 Z M 3.4824783,6.0312149 V 5.745717 H 3.1048842 2.7272901 v 0.2854979 0.285498 h 0.3775941 0.3775941 z m 0.9536749,-0.0046 0.00508,-0.2808932 H 4.0539546 3.666671 v 0.2858718 0.2858717 l 0.382199,-0.00498 0.3821989,-0.00498 z m 0.9435056,0.0046 V 5.745717 H 4.9928551 4.6060512 v 0.2854979 0.285498 h 0.3868039 0.3868037 z m 0.9393805,0 V 5.745717 H 5.9322356 5.5454318 v 0.2732185 c 0,0.1502703 0.00552,0.2787443 0.012279,0.2854979 0.00675,0.00675 0.1808154,0.012279 0.3868038,0.012279 H 6.3190393 Z M 4.4361532,5.2714218 4.441238,4.9905286 H 4.0539546 3.666671 v 0.2858717 0.2858718 l 0.382199,-0.00498 0.3821989,-0.00498 z m 0.9435056,0.0046 V 4.9905281 H 4.9928551 4.6060512 v 0.2854981 0.2854979 h 0.3868039 0.3868037 z m 0.9393805,0 V 4.9905281 H 5.9322356 5.5454318 v 0.2732185 c 0,0.1502704 0.00552,0.2787445 0.012279,0.285498 0.00675,0.00675 0.1808154,0.012279 0.3868038,0.012279 H 6.3190393 Z M 5.3796588,4.5208382 V 4.2353401 H 4.9928551 4.6060512 v 0.2854981 0.2854981 h 0.3868039 0.3868037 z m 0.9393805,0 V 4.2353401 H 5.9322356 5.5454318 v 0.2732186 c 0,0.1502704 0.00552,0.2787445 0.012279,0.285498 0.00675,0.00675 0.1808154,0.012279 0.3868038,0.012279 h 0.3745242 z m 0,-0.7551883 V 3.480152 H 5.9322356 5.5454318 v 0.2732184 c 0,0.1502703 0.00552,0.2787444 0.012279,0.285498 0.00675,0.00675 0.1808154,0.012279 0.3868038,0.012279 H 6.3190393 Z M 2.1747133,4.8984324 V 4.622144 H 2.5430978 2.9114824 V 4.8984324 5.1747208 H 2.5430978 2.1747133 Z M 2.5430978,4.051148 V 3.6827633 H 3.1048842 3.6666707 V 4.051148 4.4195325 H 3.1048842 2.5430978 Z M 3.6850899,3.2959595 V 2.9275751 H 4.3389725 4.9928551 V 3.2959595 3.6643442 H 4.3389725 3.6850899 Z M 1.9721018,2.4394655 V 1.9697753 H 2.8193862 3.6666707 V 2.4394655 2.9091559 H 2.8193862 1.9721018 Z"
       style="display:inline;fill:#f9f9f9;stroke-width:0.01841923"
       inkscape:transform-center-x="-0.0025949106"
       inkscape:transform-center-y="0.00066899858" />
  </g>
  <g
     inkscape:groupmode="layer"
     id="layer2"
     inkscape:label="Overlay"
     style="display:none">
    <circle
       style="display:inline;opacity:0.20499998;fill:url(#linearGradient1158);fill-opacity:1;stroke:#414548;stroke-width:0.0077439;stroke-opacity:1"
       id="path29"
       cx="4.2333336"
       cy="4.2333331"
       r="3.9648747"
       inkscape:label="Circle silhouette"
       inkscape:highlight-color="4278255615"
       clip-path="none"
       inkscape:export-xdpi="96"
       inkscape:export-ydpi="96"
       sodipodi:insensitive="true" />
  </g>
</svg>
