<?xml version="1.0" encoding="UTF-8" standalone="no"?>
<!-- Created with Inkscape (http://www.inkscape.org/) -->

<svg
   xmlns:dc="http://purl.org/dc/elements/1.1/"
   xmlns:cc="http://creativecommons.org/ns#"
   xmlns:rdf="http://www.w3.org/1999/02/22-rdf-syntax-ns#"
   xmlns:svg="http://www.w3.org/2000/svg"
   xmlns="http://www.w3.org/2000/svg"
   xmlns:xlink="http://www.w3.org/1999/xlink"
   xmlns:sodipodi="http://sodipodi.sourceforge.net/DTD/sodipodi-0.dtd"
   xmlns:inkscape="http://www.inkscape.org/namespaces/inkscape"
   sodipodi:docname="BorderlandsPreSequel.svg"
   inkscape:version="0.92.4 5da689c313, 2019-01-14"
   id="svg8"
   version="1.1"
   viewBox="0 0 8.4666666 8.4666669"
   height="32"
   width="32">
  <defs
     id="defs2">
    <linearGradient
       inkscape:collect="always"
       xlink:href="#linearGradient1156"
       id="linearGradient1158"
       x1="938"
       y1="301.84164"
       x2="170"
       y2="813.84167"
       gradientUnits="userSpaceOnUse"
       gradientTransform="matrix(0.0077439,0,0,0.0077439,-0.05678487,-0.08653876)" />
    <linearGradient
       inkscape:collect="always"
       id="linearGradient1156">
      <stop
         style="stop-color:#333333;stop-opacity:1"
         offset="0"
         id="stop1152" />
      <stop
         style="stop-color:#252525;stop-opacity:1"
         offset="1"
         id="stop1154" />
    </linearGradient>
    <mask
       maskUnits="userSpaceOnUse"
       id="mask862">
      <rect
         inkscape:label="Faded mask"
         y="0.9999876"
         x="1"
         height="30.000025"
         width="30"
         id="rect864"
         style="display:inline;opacity:1;fill:url(#radialGradient866);fill-opacity:1;stroke:none;stroke-width:4.34110594;stroke-opacity:1"
         inkscape:export-xdpi="96"
         inkscape:export-ydpi="96" />
    </mask>
    <radialGradient
       inkscape:collect="always"
       xlink:href="#linearGradient1961"
       id="radialGradient866"
       gradientUnits="userSpaceOnUse"
       gradientTransform="matrix(1.2438841,1.2021521,-1.0766625,1.1139429,29.163729,-6.6607255)"
       cx="-3.1699476"
       cy="16.600925"
       fx="-3.1699476"
       fy="16.600925"
       r="15" />
    <linearGradient
       inkscape:collect="always"
       id="linearGradient1961">
      <stop
         style="stop-color:#696969;stop-opacity:1"
         offset="0"
         id="stop1957" />
      <stop
         style="stop-color:#ffffff;stop-opacity:0"
         offset="1"
         id="stop1959" />
    </linearGradient>
    <radialGradient
       inkscape:collect="always"
       xlink:href="#linearGradient1961"
       id="radialGradient866-7"
       gradientUnits="userSpaceOnUse"
       gradientTransform="matrix(0.32911101,0.31806942,-0.28486696,0.29473073,7.7162368,-1.7623169)"
       cx="-3.1699476"
       cy="16.600925"
       fx="-3.1699476"
       fy="16.600925"
       r="15" />
    <clipPath
       clipPathUnits="userSpaceOnUse"
       id="clipPath1063">
      <rect
         sodipodi:insensitive="true"
         inkscape:label="Opaque mask"
         y="0.99998802"
         x="0.99999994"
         height="30.000025"
         width="30"
         id="rect1065"
         style="display:inline;opacity:1;fill:#808080;fill-opacity:1;stroke:none;stroke-width:4.34110641;stroke-opacity:1"
         inkscape:export-xdpi="96"
         inkscape:export-ydpi="96" />
    </clipPath>
  </defs>
  <sodipodi:namedview
     id="base"
     pagecolor="#ffffff"
     bordercolor="#666666"
     borderopacity="1.0"
     inkscape:pageopacity="0.0"
     inkscape:pageshadow="2"
     inkscape:zoom="7.919596"
     inkscape:cx="10.121201"
     inkscape:cy="8.2012443"
     inkscape:document-units="px"
     inkscape:current-layer="layer3"
     showgrid="true"
     inkscape:window-width="1366"
     inkscape:window-height="712"
     inkscape:window-x="0"
     inkscape:window-y="26"
     inkscape:window-maximized="1"
     inkscape:pagecheckerboard="true"
     units="px"
     inkscape:snap-object-midpoints="true"
     showguides="true"
     inkscape:guide-bbox="true"
     inkscape:snap-others="true"
     inkscape:object-nodes="true"
     inkscape:snap-global="true">
    <inkscape:grid
       type="xygrid"
       id="grid945"
       units="px"
       spacingx="0.26458334"
       spacingy="0.26458334"
       empspacing="8" />
    <sodipodi:guide
       position="8.2020834,8.2020837"
       orientation="0,1"
       id="guide1116"
       inkscape:locked="false" />
    <sodipodi:guide
       position="8.2020834,8.2020837"
       orientation="1,0"
       id="guide1118"
       inkscape:locked="false" />
    <sodipodi:guide
       position="0.26458334,0"
       orientation="1,0"
       id="guide1120"
       inkscape:locked="false" />
    <sodipodi:guide
       position="0.26458334,0.26458334"
       orientation="0,1"
       id="guide1122"
       inkscape:locked="false" />
    <sodipodi:guide
       position="0.52916667,0"
       orientation="0,1"
       id="guide1126"
       inkscape:locked="false" />
  </sodipodi:namedview>
  <metadata
     id="metadata5">
    <rdf:RDF>
      <cc:Work
         rdf:about="">
        <dc:format>image/svg+xml</dc:format>
        <dc:type
           rdf:resource="http://purl.org/dc/dcmitype/StillImage" />
        <dc:title />
      </cc:Work>
    </rdf:RDF>
  </metadata>
  <rect
     inkscape:export-ydpi="96"
     inkscape:export-xdpi="96"
     style="display:inline;opacity:1;fill:#ffcd40;fill-opacity:1;stroke:none;stroke-width:1.14858425;stroke-opacity:1"
     id="rect922"
     width="7.9375"
     height="7.9375067"
     x="0.2645832"
     y="0.26458016"
     inkscape:label="Square"
     sodipodi:insensitive="true" />
  <g
     inkscape:groupmode="layer"
     id="layer2"
     inkscape:label="Background"
     sodipodi:insensitive="true" />
  <g
     inkscape:groupmode="layer"
     id="layer4"
     inkscape:label="Shadow"
     sodipodi:insensitive="true"
     style="display:inline;opacity:0.26767674">
    <path
       style="display:inline;opacity:0.46464646;stroke-width:0.01960785"
       d="m 16.164062,6.2011719 c -0.797146,-0.013492 -1.597363,0.069425 -2.378906,0.25 C 12.369878,6.7781698 11.045766,7.4170761 9.9121094,8.3203125 8.6738832,9.3068678 7.7070506,10.548938 7.0605469,11.980469 6.1875924,13.913414 5.96964,16.13073 6.4511719,18.214844 c 0.3269986,1.415277 0.9659031,2.739391 1.8691406,3.873047 0.2340442,0.293749 0.4873109,0.575201 0.7539063,0.841797 L 46.488281,60.345703 c 0.271408,0.271408 0.559508,0.525668 0.857422,0.761719 1.55994,1.236011 3.465978,1.966748 5.460938,2.089844 2.422276,0.149442 4.811527,-0.601063 6.697265,-2.103516 1.23823,-0.986555 2.205059,-2.228626 2.851563,-3.660156 0.872953,-1.932945 1.088952,-4.150261 0.607422,-6.234375 C 62.637889,49.792543 62.00479,48.473836 61.109375,47.34375 60.869526,47.04101 60.614122,46.754751 60.34375,46.484375 L 22.927734,9.0683594 C 22.087996,8.2286205 21.106549,7.5495113 20.019531,7.0585938 18.811439,6.5129972 17.49264,6.2236581 16.164062,6.2011719 Z"
       transform="scale(0.26458334)"
       id="path894"
       inkscape:connector-curvature="0"
       clip-path="url(#clipPath1063)" />
    <rect
       inkscape:export-ydpi="96"
       inkscape:export-xdpi="96"
       style="display:none;opacity:1;fill:url(#radialGradient866-7);fill-opacity:1;stroke:none;stroke-width:1.14858425;stroke-opacity:1"
       id="rect864-5"
       width="7.9375"
       height="7.9375067"
       x="0.26458335"
       y="0.26458016"
       inkscape:label="Faded mask"
       sodipodi:insensitive="true" />
  </g>
  <g
     inkscape:groupmode="layer"
     id="layer3"
     inkscape:label="Logo"
     style="opacity:1">
    <path
       d="m 2.4130034,2.3811971 0.21431,-0.2645569 h 3.175 l 0.248711,0.2645569 m 0.44185,0.060907 -0.36777,-0.4445 c -0.0714,-0.090011 -0.17991,-0.1455208 -0.30427,-0.1455208 h -3.175001 c -0.12435,0 -0.23283,0.055589 -0.30692,0.1455208 l -0.36512,0.4445265 c -0.0767,0.089879 -0.12171,0.2037027 -0.12171,0.3360208 v 3.3072917 c 0,0.2922323 0.23692,0.5291402 0.529171,0.5291402 h 3.70416 c 0.29226,0 0.529169,-0.2369079 0.529169,-0.5291402 V 2.7781514 c 0,-0.1323181 -0.045,-0.2460625 -0.121709,-0.3360208 z"
       id="path844"
       inkscape:connector-curvature="0"
       sodipodi:nodetypes="ccccccssccssssssc"
       style="display:none;opacity:1;fill:#f9f9f9;fill-opacity:1;stroke-width:0.26458338"
       inkscape:label="Package" />
    <g
       id="g991"
       transform="rotate(-22.079425,4.2333633,4.2327671)"
       style="fill:#b3e5fc;fill-opacity:1">
      <path
         inkscape:connector-curvature="0"
         id="path826"
         d="M 4.0725086,6.8212436 C 3.5446761,6.7886746 3.0399358,6.5957056 2.6272023,6.2686778 2.4709527,6.1448743 2.3265886,6.0008016 2.2016232,5.8439573 1.9626416,5.544011 1.7936152,5.1938038 1.7070968,4.8193451 1.5796915,4.2679232 1.6368796,3.6810164 1.8678488,3.1695912 2.0389029,2.7908321 2.2948731,2.4624265 2.6224871,2.2014004 2.9224338,1.9624191 3.2726406,1.7933928 3.6470997,1.7068746 4.1985216,1.579469 4.7854284,1.6366571 5.296854,1.8676263 5.6770629,2.0393357 6.0083269,2.298116 6.2689,2.6269795 6.5058125,2.9259813 6.6735771,3.2746945 6.7595698,3.6468773 6.8869753,4.1982991 6.829787,4.7852059 6.5988182,5.2966315 6.4277636,5.6753905 6.1717938,6.0037959 5.8441795,6.2648216 5.3452445,6.6623464 4.7134029,6.8607869 4.0725086,6.8212436 Z M 4.4979168,6.4044738 C 4.7549372,6.3726121 5.0102588,6.2963097 5.2242242,6.187415 5.3185503,6.1394084 5.3796338,6.1038948 5.3797519,6.0969902 5.3798065,6.0934938 5.183599,5.3477881 4.9437225,4.4398728 4.5599708,2.9873978 4.50565,2.7862638 4.4914784,2.7653525 4.4244156,2.6663956 4.3355411,2.6144834 4.2331855,2.6144834 c -0.071813,0 -0.1362642,0.027831 -0.1922293,0.083007 C 3.9722432,2.7652337 4.0206876,2.5971566 3.540763,4.4328456 3.3042862,5.3373575 3.1099336,6.0832491 3.1088679,6.0903827 c -0.00173,0.011717 0.00398,0.016335 0.059335,0.047825 0.2691899,0.1531316 0.5773089,0.246022 0.9146824,0.2757545 0.060799,0.00535 0.3482847,-0.0012 0.4150318,-0.00949 z M 2.6264546,5.6948048 c 0.00137,-0.00357 0.2620292,-0.7196929 0.579252,-1.5913916 0.3172221,-0.871698 0.5858412,-1.6036268 0.5969321,-1.6265074 0.053781,-0.110956 0.1654792,-0.1870818 0.3165605,-0.215747 0.04301,-0.00816 0.1636223,-0.00808 0.2075167,1.377e-4 0.1435973,0.026881 0.2583439,0.098147 0.3155679,0.1959881 0.013582,0.023224 0.2275309,0.5804834 0.62602,1.6305665 0.3329605,0.8774054 0.6065487,1.5964497 0.6079733,1.597876 0.00509,0.00509 0.097149,-0.1081224 0.1611257,-0.1981564 C 6.4962561,4.8418305 6.5664259,3.9897512 6.2200675,3.2694519 5.9673941,2.7439818 5.5109865,2.3385387 4.957047,2.147465 4.5578693,2.0097744 4.1259746,1.9908725 3.7121314,2.0929818 3.2878472,2.1976675 2.8997358,2.4323493 2.6055924,2.7620812 2.3023077,3.1020596 2.1187831,3.5105814 2.0612775,3.9737173 c -0.013355,0.1075645 -0.013385,0.3967473 -4.91e-5,0.5006329 0.052086,0.405769 0.190652,0.7525107 0.4262046,1.0665163 0.047416,0.063208 0.1276698,0.1596984 0.1332031,0.1601508 0.00184,1.445e-4 0.00445,-0.00264 0.00582,-0.00621 z"
         style="display:inline;fill:#b3e5fc;fill-opacity:1;stroke-width:0.00518791" />
    </g>
  </g>
  <g
     inkscape:groupmode="layer"
     id="layer1"
     inkscape:label="Overlay"
     sodipodi:insensitive="true"
     style="display:none">
    <circle
       style="display:inline;opacity:0.1;fill:url(#linearGradient1158);fill-opacity:1;stroke:#414548;stroke-width:0.0077439;stroke-opacity:1"
       id="path29"
       cx="4.2333336"
       cy="4.2333331"
       r="3.9648747"
       inkscape:label="Circle silhouette"
       inkscape:highlight-color="4278255615"
       clip-path="none"
       inkscape:export-xdpi="96"
       inkscape:export-ydpi="96"
       sodipodi:insensitive="true" />
  </g>
</svg>
