<?xml version="1.0" encoding="UTF-8" standalone="no"?>
<!-- Created with Inkscape (http://www.inkscape.org/) -->

<svg
   xmlns:dc="http://purl.org/dc/elements/1.1/"
   xmlns:cc="http://creativecommons.org/ns#"
   xmlns:rdf="http://www.w3.org/1999/02/22-rdf-syntax-ns#"
   xmlns:svg="http://www.w3.org/2000/svg"
   xmlns="http://www.w3.org/2000/svg"
   xmlns:xlink="http://www.w3.org/1999/xlink"
   xmlns:sodipodi="http://sodipodi.sourceforge.net/DTD/sodipodi-0.dtd"
   xmlns:inkscape="http://www.inkscape.org/namespaces/inkscape"
   sodipodi:docname="Borderlands2.svg"
   inkscape:version="0.92.4 5da689c313, 2019-01-14"
   id="svg8"
   version="1.1"
   viewBox="0 0 8.4666666 8.4666669"
   height="32"
   width="32">
  <defs
     id="defs2">
    <linearGradient
       inkscape:collect="always"
       xlink:href="#linearGradient1156"
       id="linearGradient1158"
       x1="938"
       y1="301.84164"
       x2="170"
       y2="813.84167"
       gradientUnits="userSpaceOnUse"
       gradientTransform="matrix(0.0077439,0,0,0.0077439,-0.05678487,-0.08653876)" />
    <linearGradient
       inkscape:collect="always"
       id="linearGradient1156">
      <stop
         style="stop-color:#333333;stop-opacity:1"
         offset="0"
         id="stop1152" />
      <stop
         style="stop-color:#252525;stop-opacity:1"
         offset="1"
         id="stop1154" />
    </linearGradient>
    <mask
       maskUnits="userSpaceOnUse"
       id="mask862">
      <rect
         inkscape:label="Faded mask"
         y="0.9999876"
         x="1"
         height="30.000025"
         width="30"
         id="rect864"
         style="display:inline;opacity:1;fill:url(#radialGradient866);fill-opacity:1;stroke:none;stroke-width:4.34110594;stroke-opacity:1"
         inkscape:export-xdpi="96"
         inkscape:export-ydpi="96" />
    </mask>
    <radialGradient
       inkscape:collect="always"
       xlink:href="#linearGradient1961"
       id="radialGradient866"
       gradientUnits="userSpaceOnUse"
       gradientTransform="matrix(1.2438841,1.2021521,-1.0766625,1.1139429,29.163729,-6.6607255)"
       cx="-3.1699476"
       cy="16.600925"
       fx="-3.1699476"
       fy="16.600925"
       r="15" />
    <linearGradient
       inkscape:collect="always"
       id="linearGradient1961">
      <stop
         style="stop-color:#696969;stop-opacity:1"
         offset="0"
         id="stop1957" />
      <stop
         style="stop-color:#ffffff;stop-opacity:0"
         offset="1"
         id="stop1959" />
    </linearGradient>
    <radialGradient
       inkscape:collect="always"
       xlink:href="#linearGradient1961"
       id="radialGradient866-7"
       gradientUnits="userSpaceOnUse"
       gradientTransform="matrix(0.32911101,0.31806942,-0.28486696,0.29473073,7.7162368,-1.7623169)"
       cx="-3.1699476"
       cy="16.600925"
       fx="-3.1699476"
       fy="16.600925"
       r="15" />
    <clipPath
       clipPathUnits="userSpaceOnUse"
       id="clipPath1063">
      <rect
         sodipodi:insensitive="true"
         inkscape:label="Opaque mask"
         y="0.99998802"
         x="0.99999994"
         height="30.000025"
         width="30"
         id="rect1065"
         style="display:inline;opacity:1;fill:#808080;fill-opacity:1;stroke:none;stroke-width:4.34110641;stroke-opacity:1"
         inkscape:export-xdpi="96"
         inkscape:export-ydpi="96" />
    </clipPath>
  </defs>
  <sodipodi:namedview
     id="base"
     pagecolor="#ffffff"
     bordercolor="#666666"
     borderopacity="1.0"
     inkscape:pageopacity="0.0"
     inkscape:pageshadow="2"
     inkscape:zoom="22.627417"
     inkscape:cx="13.683316"
     inkscape:cy="17.390564"
     inkscape:document-units="px"
     inkscape:current-layer="svg8"
     showgrid="true"
     inkscape:window-width="1366"
     inkscape:window-height="712"
     inkscape:window-x="0"
     inkscape:window-y="26"
     inkscape:window-maximized="1"
     inkscape:pagecheckerboard="true"
     units="px"
     inkscape:snap-object-midpoints="true"
     showguides="true"
     inkscape:guide-bbox="true"
     inkscape:snap-others="true"
     inkscape:object-nodes="true"
     inkscape:snap-global="false">
    <inkscape:grid
       type="xygrid"
       id="grid945"
       units="px"
       spacingx="0.26458334"
       spacingy="0.26458334"
       empspacing="8" />
    <sodipodi:guide
       position="8.2020834,8.2020837"
       orientation="0,1"
       id="guide1116"
       inkscape:locked="false" />
    <sodipodi:guide
       position="8.2020834,8.2020837"
       orientation="1,0"
       id="guide1118"
       inkscape:locked="false" />
    <sodipodi:guide
       position="0.26458334,0"
       orientation="1,0"
       id="guide1120"
       inkscape:locked="false" />
    <sodipodi:guide
       position="0.26458334,0.26458334"
       orientation="0,1"
       id="guide1122"
       inkscape:locked="false" />
    <sodipodi:guide
       position="0.52916667,0"
       orientation="0,1"
       id="guide1126"
       inkscape:locked="false" />
  </sodipodi:namedview>
  <metadata
     id="metadata5">
    <rdf:RDF>
      <cc:Work
         rdf:about="">
        <dc:format>image/svg+xml</dc:format>
        <dc:type
           rdf:resource="http://purl.org/dc/dcmitype/StillImage" />
        <dc:title />
      </cc:Work>
    </rdf:RDF>
  </metadata>
  <rect
     inkscape:export-ydpi="96"
     inkscape:export-xdpi="96"
     style="display:inline;opacity:1;fill:#ffcd40;fill-opacity:1;stroke:none;stroke-width:1.14858425;stroke-opacity:1"
     id="rect922"
     width="7.9375"
     height="7.9375067"
     x="0.2645832"
     y="0.26458016"
     inkscape:label="Square"
     sodipodi:insensitive="true" />
  <g
     inkscape:groupmode="layer"
     id="layer2"
     inkscape:label="Background"
     sodipodi:insensitive="true" />
  <g
     inkscape:groupmode="layer"
     id="layer4"
     inkscape:label="Shadow"
     sodipodi:insensitive="true"
     style="display:inline;opacity:0.26767674">
    <path
       style="display:inline;opacity:0.46464646;stroke-width:0.01960785"
       d="m 16.164062,6.2011719 c -0.797146,-0.013492 -1.597363,0.069425 -2.378906,0.25 C 12.369878,6.7781698 11.045766,7.4170761 9.9121094,8.3203125 8.6738832,9.3068678 7.7070506,10.548938 7.0605469,11.980469 6.1875924,13.913414 5.96964,16.13073 6.4511719,18.214844 c 0.3269986,1.415277 0.9659031,2.739391 1.8691406,3.873047 0.2340442,0.293749 0.4873109,0.575201 0.7539063,0.841797 L 46.488281,60.345703 c 0.271408,0.271408 0.559508,0.525668 0.857422,0.761719 1.55994,1.236011 3.465978,1.966748 5.460938,2.089844 2.422276,0.149442 4.811527,-0.601063 6.697265,-2.103516 1.23823,-0.986555 2.205059,-2.228626 2.851563,-3.660156 0.872953,-1.932945 1.088952,-4.150261 0.607422,-6.234375 C 62.637889,49.792543 62.00479,48.473836 61.109375,47.34375 60.869526,47.04101 60.614122,46.754751 60.34375,46.484375 L 22.927734,9.0683594 C 22.087996,8.2286205 21.106549,7.5495113 20.019531,7.0585938 18.811439,6.5129972 17.49264,6.2236581 16.164062,6.2011719 Z"
       transform="scale(0.26458334)"
       id="path894"
       inkscape:connector-curvature="0"
       clip-path="url(#clipPath1063)" />
    <rect
       inkscape:export-ydpi="96"
       inkscape:export-xdpi="96"
       style="display:none;opacity:1;fill:url(#radialGradient866-7);fill-opacity:1;stroke:none;stroke-width:1.14858425;stroke-opacity:1"
       id="rect864-5"
       width="7.9375"
       height="7.9375067"
       x="0.26458335"
       y="0.26458016"
       inkscape:label="Faded mask"
       sodipodi:insensitive="true" />
  </g>
  <g
     inkscape:groupmode="layer"
     id="layer3"
     inkscape:label="Logo"
     style="opacity:1">
    <path
       inkscape:connector-curvature="0"
       id="path826"
       d="M 3.578262,6.742123 C 3.0665222,6.6087427 2.6082638,6.322388 2.266056,5.9221506 2.1365054,5.770632 2.0225135,5.6015055 1.9300127,5.4235727 1.7531159,5.0832971 1.654528,4.7071383 1.6415704,4.323033 1.6224897,3.7574058 1.791381,3.1924228 2.1163123,2.7349054 2.3569543,2.39607 2.6712552,2.1229658 3.0429186,1.9297513 3.3831946,1.7528549 3.759353,1.654267 4.1434586,1.6413098 4.7090859,1.6222287 5.2740689,1.79112 5.7315867,2.1160514 6.0717189,2.357615 6.3470883,2.6752229 6.5396181,3.0480255 6.7146659,3.3869767 6.8123025,3.7614269 6.8251815,4.1431977 6.8442624,4.7088248 6.675371,5.2738078 6.35044,5.7313256 6.1097975,6.0701608 5.795497,6.3432649 5.4238333,6.5364789 4.8578141,6.830731 4.1996168,6.9040715 3.578262,6.742123 Z M 4.0758222,6.414857 C 4.3341755,6.4329731 4.5994006,6.4071501 4.8303024,6.3413959 4.932095,6.3124077 4.998864,6.2892924 5.0003065,6.2825392 5.0010319,6.2791184 4.9517608,5.5096077 4.8908014,4.5725192 4.7932797,3.0733732 4.7786171,2.8655497 4.7687275,2.842305 4.7219279,2.7323065 4.6446838,2.6642851 4.5442354,2.6446184 4.4737604,2.6308202 4.4051627,2.6457489 4.3396388,2.6891437 4.2591898,2.7424222 4.3390261,2.586785 3.5153329,4.2960571 3.1094687,5.1382787 2.7754211,5.8329293 2.7730046,5.8397253 c -0.00395,0.011166 7.673e-4,0.016795 0.04904,0.058335 0.2347514,0.2020008 0.5192813,0.3523626 0.8446558,0.4463643 0.058638,0.016932 0.3420258,0.065742 0.4091221,0.070431 z M 2.3755866,5.3588267 C 2.377617,5.3555865 2.7710159,4.7028901 3.2498169,3.9083849 3.7286171,3.1138803 4.1328645,2.4472019 4.1481451,2.4268786 4.2222432,2.3283236 4.346487,2.275078 4.500261,2.2759758 c 0.043776,2.56e-4 0.1621261,0.023509 0.2036237,0.040008 0.1357567,0.053971 0.2346722,0.1459567 0.2720307,0.2529698 0.00887,0.025401 0.1117568,0.6133855 0.3010572,1.7204688 0.1581712,0.9250323 0.288504,1.6832464 0.289628,1.6849198 0.00402,0.00597 0.1161136,-0.087441 0.1961974,-0.1635054 C 6.3371747,5.2652924 6.5697563,4.4425721 6.3682503,3.6691443 6.2212492,3.1049162 5.8512478,2.619333 5.3443427,2.3253851 4.9790587,2.1135618 4.5588432,2.0120275 4.1330916,2.032718 3.6965986,2.0539308 3.2706267,2.2096679 2.9186091,2.476739 2.5556516,2.7521094 2.2970529,3.1177568 2.1516314,3.561214 c -0.033774,0.1029943 -0.089367,0.3867831 -0.09624,0.4912954 -0.026849,0.4082163 0.042512,0.7751215 0.213342,1.1285356 0.034388,0.071141 0.094606,0.1812534 0.09995,0.1827605 0.00178,4.954e-4 0.00487,-0.00174 0.0069,-0.00498 z"
       style="display:inline;fill:#d32f2f;fill-opacity:1;stroke-width:0.4873625;stroke-miterlimit:4;stroke-dasharray:none"
       inkscape:label="vault" />
    <path
       inkscape:label="two"
       inkscape:connector-curvature="0"
       id="path890"
       d="m 3.2360643,5.8585319 c -0.022118,-0.016151 -0.025065,-0.04413 -0.024467,-0.2323329 4.084e-4,-0.1278934 0.00162,-0.1378344 0.022162,-0.182515 0.033724,-0.073331 0.064916,-0.1335197 0.099219,-0.1914654 0.017296,-0.029213 0.05343,-0.092391 0.080301,-0.1403934 0.026869,-0.048004 0.069436,-0.1222711 0.094593,-0.1650416 0.025156,-0.042771 0.045838,-0.080115 0.045962,-0.082987 2.546e-4,-0.00627 0.03567,-0.069868 0.04782,-0.085894 0.00474,-0.00627 0.011024,-0.016499 0.013954,-0.022763 0.00949,-0.02027 0.068,-0.1233071 0.138916,-0.2446522 0.01888,-0.032296 0.034399,-0.060659 0.034499,-0.06303 1.1e-4,-0.00236 0.00813,-0.018638 0.017806,-0.036153 0.00967,-0.01751 0.029124,-0.055754 0.043178,-0.084983 0.014055,-0.02923 0.031507,-0.065101 0.038787,-0.079713 0.052729,-0.1058531 0.049335,-0.3384808 -0.0076,-0.5217488 -0.011129,-0.035788 -0.018946,-0.04684 -0.038518,-0.054359 -0.033128,-0.012727 -0.051354,-0.012438 -0.085722,0.00144 -0.024383,0.00983 -0.030608,0.017578 -0.038894,0.048393 -0.00542,0.020179 -0.008,0.060205 -0.00568,0.088953 0.00824,0.1032924 0.015145,0.2961125 0.011156,0.3109498 -0.00801,0.029772 -0.060771,0.039073 -0.3801539,0.067003 -0.2012443,0.017598 -0.2156762,0.017272 -0.2272133,-0.00512 -0.00541,-0.010488 -0.013724,-0.07216 -0.018468,-0.1370493 -0.00476,-0.064889 -0.011187,-0.1505208 -0.014249,-0.1902967 -0.00311,-0.03977 -0.00294,-0.1412774 3.858e-4,-0.2255681 0.00604,-0.152916 0.00606,-0.1533362 0.031198,-0.1900825 0.013841,-0.020256 0.040788,-0.047024 0.059872,-0.059493 0.019082,-0.012463 0.045639,-0.029865 0.059013,-0.038668 0.0408,-0.026848 0.2138202,-0.067277 0.3621774,-0.084635 0.1823236,-0.021316 0.5295425,-0.027686 0.6462923,-0.011842 0.034583,0.0047 0.078231,0.015619 0.097,0.024285 0.041668,0.019236 0.1145451,0.068195 0.1141835,0.076714 -1.328e-4,0.00341 0.00856,0.019018 0.019356,0.034671 0.010792,0.015654 0.023656,0.047316 0.028597,0.070354 0.00497,0.023036 0.011766,0.045328 0.01515,0.049535 0.00616,0.00763 0.012587,0.041112 0.031428,0.1637434 0.025939,0.1687023 0.029631,0.2422197 0.021589,0.4262112 -0.00752,0.1719486 -0.00997,0.1917558 -0.03197,0.2557101 -0.01309,0.038129 -0.031994,0.082554 -0.042008,0.098721 -0.010018,0.016167 -0.02378,0.043065 -0.030609,0.059775 -0.00683,0.016705 -0.018005,0.037107 -0.024857,0.045327 -0.00686,0.00823 -0.012637,0.019468 -0.012867,0.02499 -3.908e-4,0.00909 -0.028187,0.061107 -0.076018,0.1422071 -0.00984,0.016695 -0.041658,0.071331 -0.070696,0.1214158 -0.02904,0.050085 -0.056546,0.096181 -0.061132,0.1024374 -0.00459,0.00625 -0.012634,0.019915 -0.017883,0.030352 -0.00526,0.010438 -0.01652,0.029218 -0.02503,0.041733 -0.00852,0.012521 -0.018783,0.027875 -0.02281,0.034135 -0.00987,0.015351 -0.080082,0.1379489 -0.1086596,0.1897197 -0.01267,0.022957 -0.038332,0.0667 -0.057019,0.097203 -0.040404,0.065941 -0.036885,0.081939 0.017634,0.080191 0.063448,-0.00204 0.2866347,-0.016537 0.4175291,-0.02713 0.1823232,-0.014767 0.2370105,-0.014036 0.2468334,0.00327 0.016176,0.028501 0.03588,0.3374389 0.023167,0.3637583 -0.00247,0.00516 -0.026837,0.011308 -0.054102,0.013633 -0.069787,0.00596 -0.4496572,0.038077 -0.5646689,0.047754 -0.052821,0.00445 -0.1529925,0.012471 -0.2225999,0.017865 -0.06961,0.00539 -0.1442547,0.011522 -0.1658744,0.013647 -0.1259881,0.012351 -0.2179691,0.018621 -0.318463,0.02171 -0.099003,0.00305 -0.1155401,0.0018 -0.131515,-0.00987 z"
       style="display:inline;fill:#d32f2f;fill-opacity:1;stroke:#e0b438;stroke-width:0.46191326;stroke-linecap:square;stroke-linejoin:bevel;stroke-miterlimit:4;stroke-dasharray:none;stroke-opacity:1;paint-order:stroke markers fill" />
    <path
       style="display:none;fill:#d32f2f;fill-opacity:1;stroke-width:0.01960785"
       d="m 16.164062,6.2011719 c -0.797146,-0.013492 -1.597363,0.069425 -2.378906,0.25 C 12.369878,6.7781698 11.045766,7.4170761 9.9121094,8.3203125 8.6738832,9.3068678 7.7070506,10.548938 7.0605469,11.980469 6.1875924,13.913414 5.96964,16.13073 6.4511719,18.214844 c 0.3269986,1.415277 0.9659031,2.739391 1.8691406,3.873047 0.4723102,0.592797 1.0188253,1.13755 1.609375,1.605468 1.5599375,1.236011 3.4679335,1.964796 5.4628905,2.087891 2.422278,0.149455 4.809574,-0.60106 6.695313,-2.103516 1.238227,-0.986553 2.205057,-2.226673 2.851562,-3.658203 0.872953,-1.932947 1.090908,-4.152214 0.609375,-6.236328 C 25.223816,12.376528 24.588777,11.059773 23.693359,9.9296875 22.708516,8.6867389 21.456541,7.7075742 20.019531,7.0585938 18.811439,6.5129972 17.49264,6.2236581 16.164062,6.2011719 Z m 0.240235,1.4726562 c 0.792194,0.03467 1.575726,0.1831567 2.330078,0.4433594 2.09363,0.7221683 3.820405,2.2542055 4.775391,4.2402345 1.309071,2.722391 1.042842,5.94222 -0.691407,8.382812 -0.241801,0.340286 -0.590137,0.769238 -0.609375,0.75 -0.0044,-0.0044 -0.938421,-2.465771 -1.880859,-4.947265 -0.05235,0.21788 -0.140587,0.447925 -0.205078,0.589843 -0.100025,0.220325 -0.102435,0.299617 -0.369141,0.650391 -5e-4,0.005 -0.0402,0.06831 -0.01563,0.02148 -0.03354,0.06392 -0.111152,0.133814 -0.132812,0.177734 -0.0021,0.0048 -0.0039,0.0093 -0.0059,0.01367 -0.0056,0.01254 -0.01053,0.0343 -0.01563,0.04492 -0.0309,0.06496 -0.0537,0.105285 -0.07422,0.140625 -0.04101,0.07065 -0.07741,0.123723 -0.117188,0.183593 -0.05741,0.08642 -0.135881,0.192875 -0.21289,0.298828 0.08345,0.316517 0.109188,0.408907 0.183593,0.691407 0.218163,0.0756 0.654942,0.273823 0.892578,0.804687 0.206423,0.461335 0.124613,0.457105 0.132813,0.552735 0.0083,0.09561 0.01373,0.173625 0.01563,0.259765 0.0037,0.172268 -0.0018,0.35686 -0.0078,0.544922 -0.006,0.188063 -0.01456,0.375988 -0.0293,0.546875 -0.0074,0.08544 -0.01426,0.160943 -0.0293,0.257813 -0.0075,0.04843 -0.01791,0.100024 -0.03711,0.177734 -0.0096,0.03886 -0.02251,0.09043 -0.04492,0.154297 -0.003,0.0085 -0.01024,0.02428 -0.01563,0.03711 0.0046,0.01802 0.09181,0.350821 0.0918,0.351563 -4.46e-4,0.0261 -0.231382,0.160354 -0.58789,0.341797 -0.808688,0.41157 -1.772725,0.69989 -2.744141,0.820312 C 16.747686,24.2364 15.661391,24.2624 15.4316,24.24218 14.156528,24.129813 12.99202,23.777984 11.974609,23.199219 11.765394,23.080201 11.743461,23.063816 11.75,23.019531 c 2.06e-4,-0.0014 0.08003,-0.304621 0.08398,-0.320312 -0.0538,-0.09433 -0.1116,-0.191101 -0.140625,-0.28125 -0.08144,-0.252917 -0.08854,-0.421831 -0.08984,-0.560547 -0.0026,-0.27743 0.02283,-0.490066 0.06055,-0.871094 0.02555,-0.258102 0.03565,-0.410773 0.08789,-0.648437 0.05223,-0.237666 0.193753,-0.532363 0.257813,-0.642579 0.180575,-0.310662 0.357003,-0.589203 0.546875,-0.849609 0.06174,-0.08466 0.235167,-0.32329 0.353515,-0.494141 0.02643,-0.03815 0.05985,-0.08376 0.08984,-0.126953 0.171824,-0.6581 0.161655,-0.625793 0.355469,-1.367187 -0.0365,-0.0028 -0.07634,4.72e-4 -0.113281,-0.0039 -0.14593,-0.0173 -0.35482,-0.02975 -0.677735,-0.222657 -0.300167,-0.179317 -0.52754,-0.535985 -0.603515,-0.695312 -1.08243,2.974345 -2.0303452,5.575352 -2.0351568,5.587891 -0.00518,0.01349 -0.01453,0.02398 -0.021484,0.02344 -0.020913,-0.0017 -0.3246962,-0.366572 -0.5039063,-0.605469 -0.8902775,-1.186793 -1.4125145,-2.497635 -1.609375,-4.03125 -0.050403,-0.392638 -0.050476,-1.484082 0,-1.890625 0.217344,-1.750435 0.9103678,-3.29512 2.0566406,-4.580078 1.1117225,-1.2462307 2.5780465,-2.1336343 4.1816405,-2.5292968 0.782066,-0.1929624 1.582806,-0.2709982 2.375,-0.2363281 z M 15.568359,8.546875 c -0.571016,0.1083409 -0.992045,0.3950919 -1.195312,0.8144531 -0.0083,0.017222 -0.369902,1.0118129 -0.449219,1.2246099 0.183498,-0.04289 0.30881,-0.03281 0.5,-0.05859 0.204391,-0.02756 0.43329,-0.03622 0.65625,-0.05078 0.06432,-0.145829 0.115289,-0.204281 0.19336,-0.28125 C 15.484959,9.9867733 15.728581,9.8808594 16,9.8808594 c 0.386856,0 0.723097,0.1963026 0.976562,0.5703126 2.33e-4,3.43e-4 0.0076,0.02698 0.0078,0.02734 0.370632,0.02556 0.728234,0.07237 1.068359,0.132812 -0.08035,-0.203652 -0.496783,-1.3053601 -0.507812,-1.3242186 -0.21628,-0.3697932 -0.648676,-0.6386369 -1.191406,-0.7402344 -0.1659,-0.031059 -0.622599,-0.030841 -0.785157,0 z m 4.140625,9.058594 c -3.1e-4,0.0022 -0.04903,0.227552 -0.07227,0.294922 0.0072,-0.01864 0.01388,-0.02773 0.02148,-0.05078 0.01932,-0.05848 0.05116,-0.24684 0.05078,-0.24414 z"
       transform="scale(0.26458334)"
       id="path886"
       inkscape:connector-curvature="0" />
  </g>
  <g
     inkscape:groupmode="layer"
     id="layer1"
     inkscape:label="Overlay"
     sodipodi:insensitive="true"
     style="display:none">
    <circle
       style="display:inline;opacity:0.1;fill:url(#linearGradient1158);fill-opacity:1;stroke:#414548;stroke-width:0.0077439;stroke-opacity:1"
       id="path29"
       cx="4.2333336"
       cy="4.2333331"
       r="3.9648747"
       inkscape:label="Circle silhouette"
       inkscape:highlight-color="4278255615"
       clip-path="none"
       inkscape:export-xdpi="96"
       inkscape:export-ydpi="96"
       sodipodi:insensitive="true" />
  </g>
</svg>
