<?xml version="1.0" encoding="UTF-8" standalone="no"?>
<svg
   xmlns:osb="http://www.openswatchbook.org/uri/2009/osb"
   xmlns:dc="http://purl.org/dc/elements/1.1/"
   xmlns:cc="http://creativecommons.org/ns#"
   xmlns:rdf="http://www.w3.org/1999/02/22-rdf-syntax-ns#"
   xmlns:svg="http://www.w3.org/2000/svg"
   xmlns="http://www.w3.org/2000/svg"
   xmlns:xlink="http://www.w3.org/1999/xlink"
   xmlns:sodipodi="http://sodipodi.sourceforge.net/DTD/sodipodi-0.dtd"
   xmlns:inkscape="http://www.inkscape.org/namespaces/inkscape"
   enable-background="new"
   width="32"
   height="32"
   viewBox="0 0 8.4666666 8.4666669"
   version="1.1"
   id="svg8"
   inkscape:version="1.0.1 (3bc2e813f5, 2020-09-07)"
   sodipodi:docname="Destiny2.svg">
  <defs
     id="defs2">
    <linearGradient
       id="linearGradient1108"
       osb:paint="solid">
      <stop
         style="stop-color:#6ea3c6;stop-opacity:1;"
         offset="0"
         id="stop1106" />
    </linearGradient>
    <linearGradient
       gradientTransform="matrix(0.0077439,0,0,0.0077439,-0.05678487,-0.08653876)"
       gradientUnits="userSpaceOnUse"
       y2="813.84167"
       x2="170"
       y1="301.84164"
       x1="938"
       id="linearGradient1158"
       xlink:href="#linearGradient1156"
       inkscape:collect="always" />
    <linearGradient
       id="linearGradient1156"
       inkscape:collect="always">
      <stop
         id="stop1152"
         offset="0"
         style="stop-color:#333333;stop-opacity:1" />
      <stop
         id="stop1154"
         offset="1"
         style="stop-color:#252525;stop-opacity:1" />
    </linearGradient>
    <mask
       id="mask862"
       maskUnits="userSpaceOnUse">
      <rect
         inkscape:export-ydpi="96"
         inkscape:export-xdpi="96"
         style="display:inline;opacity:1;fill:url(#radialGradient866);fill-opacity:1;stroke:none;stroke-width:4.34110594;stroke-opacity:1"
         id="rect864"
         width="30"
         height="30.000025"
         x="1"
         y="0.9999876"
         inkscape:label="Faded mask" />
    </mask>
    <radialGradient
       r="15"
       fy="16.600925"
       fx="-3.1699476"
       cy="16.600925"
       cx="-3.1699476"
       gradientTransform="matrix(1.2438841,1.2021521,-1.0766625,1.1139429,29.163729,-6.6607255)"
       gradientUnits="userSpaceOnUse"
       id="radialGradient866"
       xlink:href="#linearGradient1961"
       inkscape:collect="always" />
    <linearGradient
       id="linearGradient1961"
       inkscape:collect="always">
      <stop
         id="stop1957"
         offset="0"
         style="stop-color:#696969;stop-opacity:1" />
      <stop
         id="stop1959"
         offset="1"
         style="stop-color:#ffffff;stop-opacity:0" />
    </linearGradient>
    <clipPath
       clipPathUnits="userSpaceOnUse"
       id="clipPath1469">
      <path
         id="path1471"
         style="display:inline;fill:#f9f9f9;fill-opacity:1;stroke-width:0.00524031"
         d="m 2.3610962,2.2205565 c -0.28717,0.02023 -0.5393547,0.1788126 -0.6955647,0.4371826 -0.03425,0.05666 -0.07295,0.1441077 -0.08785,0.1984377 -0.06047,0.2203998 -0.044001,0.4316871 0.048059,0.620117 0.02479,0.05075 0.08307,0.1418349 0.1069702,0.166915 0.00835,0.00876 0.02344,0.02527 0.03359,0.03669 0.00398,0.00447 0.0086,0.00963 0.013953,0.014986 l 1.2392009,1.2392009 c 0.1400675,0.2622661 0.2483366,0.5690233 0.2981727,0.8516276 0.02871,0.1628101 0.05765,0.3985543 0.07028,0.5694744 0.017589,0.2382401 0.082299,0.4180652 0.2061887,0.5741252 0.018262,0.023011 0.037784,0.045019 0.058395,0.065629 L 132.06326,135.40522 c 0.133,0.133 0.31091,0.21496 0.50591,0.22996 0.072,0.006 0.0748,0.006 0.14676,0 0.157,-0.012 0.30093,-0.0611 0.41393,-0.14108 0.094,-0.067 0.20322,-0.19297 0.25322,-0.29197 0.078,-0.154 0.1,-0.24821 0.12195,-0.51521 0.003,-0.036 0.006,-0.0689 0.007,-0.0739 10e-4,-0.004 0.004,-0.0239 0.005,-0.0439 0.006,-0.073 0.025,-0.2128 0.045,-0.3328 0.032,-0.186 0.0844,-0.37894 0.15038,-0.55294 0.025,-0.067 0.0336,-0.0892 0.0656,-0.16019 0.02,-0.043 0.0943,-0.19003 0.11834,-0.23203 0.166,-0.295 0.40183,-0.57103 0.67282,-0.78703 0.078,-0.063 0.19992,-0.14915 0.24392,-0.17415 0.04,-0.022 0.16384,-0.11086 0.21084,-0.14986 0.107,-0.092 0.17441,-0.17399 0.22841,-0.27699 0.095,-0.184 0.11859,-0.405 0.0646,-0.601 -0.02,-0.077 -0.033,-0.11005 -0.062,-0.17105 -0.045,-0.09 -0.10466,-0.17391 -0.17467,-0.24391 L 6.6693606,2.4763548 c -0.03998,-0.03998 -0.083241,-0.075873 -0.1291913,-0.1064535 -0.1071999,-0.07136 -0.1685848,-0.098631 -0.2899047,-0.129191 -0.05531,-0.01393 -0.07624,-0.01658 -0.1565796,-0.01912 -0.1075397,-0.00341 -0.1641195,0.00247 -0.2444293,0.025321 -0.07729,0.02199 -0.1407072,0.047753 -0.2129073,0.085783 -0.06248,0.03292 -0.083115,0.044999 -0.2930054,0.1725993 -0.06021,0.03661 -0.140807,0.081859 -0.1793171,0.100769 l -0.07028,0.034623 V 3.2778563 L 4.6369264,2.8210365 c -0.05113,-0.05113 -0.1110543,-0.090746 -0.1813843,-0.1204061 -0.03886,-0.016391 -0.063625,-0.023021 -0.1508953,-0.039791 -0.014629,-0.00281 -0.05338,-0.00393 -0.0863,-0.00259 -0.1459399,0.00599 -0.2829396,0.065672 -0.3865395,0.1689819 -0.043948,0.043826 -0.080288,0.097482 -0.107487,0.1565796 l -0.344165,-0.3441513 -0.07183,-0.03669 c -0.08169,-0.04158 -0.120052,-0.062774 -0.1689822,-0.093534 -0.01874,-0.01178 -0.047185,-0.028981 -0.063045,-0.038241 -0.015849,-0.00925 -0.045903,-0.028485 -0.066663,-0.042375 -0.02077,-0.0139 -0.038678,-0.025322 -0.040308,-0.025322 -0.00164,0 -0.030795,-0.01556 -0.064595,-0.03514 -0.0338,-0.01959 -0.069858,-0.039662 -0.080099,-0.044442 -0.0697,-0.03253 -0.098589,-0.044369 -0.151929,-0.062528 -0.1032196,-0.03513 -0.2036085,-0.048434 -0.3116086,-0.040824 z" />
    </clipPath>
  </defs>
  <sodipodi:namedview
     inkscape:document-rotation="0"
     inkscape:guide-bbox="true"
     showguides="true"
     inkscape:snap-object-midpoints="true"
     units="px"
     inkscape:pagecheckerboard="true"
     inkscape:window-maximized="1"
     inkscape:window-y="30"
     inkscape:window-x="0"
     inkscape:window-height="1020"
     inkscape:window-width="1920"
     showgrid="true"
     inkscape:current-layer="layer1"
     inkscape:document-units="px"
     inkscape:cy="24.298786"
     inkscape:cx="7.5457183"
     inkscape:zoom="11.313708"
     inkscape:pageshadow="2"
     inkscape:pageopacity="0.0"
     borderopacity="1.0"
     bordercolor="#666666"
     pagecolor="#ffffff"
     id="base">
    <inkscape:grid
       type="xygrid"
       id="grid945"
       units="px"
       spacingx="0.26458334"
       spacingy="0.26458334"
       empspacing="8" />
    <sodipodi:guide
       position="8.2020834,8.2020837"
       orientation="0,1"
       id="guide1116"
       inkscape:locked="false" />
    <sodipodi:guide
       position="8.2020834,8.2020837"
       orientation="1,0"
       id="guide1118"
       inkscape:locked="false" />
    <sodipodi:guide
       position="0.26458334,0"
       orientation="1,0"
       id="guide1120"
       inkscape:locked="false" />
    <sodipodi:guide
       position="0.26458334,0.26458334"
       orientation="0,1"
       id="guide1122"
       inkscape:locked="false" />
    <sodipodi:guide
       position="0.52916667,0"
       orientation="0,1"
       id="guide1126"
       inkscape:locked="false" />
  </sodipodi:namedview>
  <metadata
     id="metadata5">
    <rdf:RDF>
      <cc:Work
         rdf:about="">
        <dc:format>image/svg+xml</dc:format>
        <dc:type
           rdf:resource="http://purl.org/dc/dcmitype/StillImage" />
        <dc:title />
      </cc:Work>
    </rdf:RDF>
  </metadata>
  <g
     style="display:inline"
     inkscape:label="Main"
     id="layer1"
     inkscape:groupmode="layer">
    <rect
       inkscape:label="Background"
       y="0.26458016"
       x="0.2645832"
       height="7.9375067"
       width="7.9375"
       id="rect922"
       style="display:inline;opacity:1;fill:#4d4d4d;fill-opacity:1;stroke:none;stroke-width:1.14858;stroke-opacity:1"
       inkscape:export-xdpi="96"
       inkscape:export-ydpi="96" />
    <rect
       clip-path="url(#clipPath1469)"
       inkscape:export-ydpi="96"
       inkscape:export-xdpi="96"
       style="display:inline;opacity:0.214286;fill:#000000;fill-opacity:1;stroke:none;stroke-width:1.14858;stroke-opacity:1"
       id="rect943"
       width="7.9375"
       height="7.9375067"
       x="0.26458332"
       y="0.26458016"
       inkscape:label="Opaque mask"
       sodipodi:insensitive="true" />
    <path
       inkscape:label="Logo"
       style="display:none;opacity:1;fill:#f9f9f9;fill-opacity:1;stroke-width:0.264583"
       sodipodi:nodetypes="ccccccssccssssssc"
       inkscape:connector-curvature="0"
       id="path844"
       d="m 2.4130034,2.3811971 0.21431,-0.2645569 h 3.175 l 0.248711,0.2645569 m 0.44185,0.060907 -0.36777,-0.4445 c -0.0714,-0.090011 -0.17991,-0.1455208 -0.30427,-0.1455208 h -3.175001 c -0.12435,0 -0.23283,0.055589 -0.30692,0.1455208 l -0.36512,0.4445265 c -0.0767,0.089879 -0.12171,0.2037027 -0.12171,0.3360208 v 3.3072917 c 0,0.2922323 0.23692,0.5291402 0.529171,0.5291402 h 3.70416 c 0.29226,0 0.529169,-0.2369079 0.529169,-0.5291402 V 2.7781514 c 0,-0.1323181 -0.045,-0.2460625 -0.121709,-0.3360208 z" />
    <path
       style="display:inline;fill:#f9f9f9;fill-opacity:1;stroke-width:0.00524032"
       d="M 4.1585075,7.2247425 C 3.9335789,7.2068525 3.7299177,7.1002478 3.5943012,6.9294131 3.4704057,6.773344 3.4057538,6.5931767 3.3881554,6.3549405 3.3755296,6.1840199 3.3463336,5.9483223 3.3176205,5.7855133 3.2660967,5.4933631 3.1530526,5.1745603 3.0059973,4.9066835 2.9209548,4.7517698 2.8061822,4.5868142 2.6862239,4.4470922 2.6425413,4.396212 2.5012238,4.251975 2.4475282,4.2034645 2.4079963,4.1677499 2.3254835,4.0991002 2.3060571,4.0857619 c -0.010088,-0.00693 -0.020699,-0.015397 -0.023581,-0.018825 -0.00288,-0.00343 -0.032359,-0.025372 -0.065504,-0.048767 -0.033145,-0.023394 -0.06498,-0.046264 -0.070745,-0.050823 -0.00576,-0.00456 -0.02286,-0.016304 -0.037992,-0.0261 -0.015132,-0.0098 -0.041071,-0.026655 -0.057644,-0.037463 -0.016571,-0.010807 -0.032489,-0.020628 -0.035371,-0.021824 -0.00288,-0.00119 -0.036174,-0.025104 -0.073981,-0.053131 C 1.8675115,3.7741731 1.7963079,3.7135362 1.7664345,3.6799642 1.7562757,3.6685476 1.7411359,3.6520406 1.732791,3.6432821 1.7088918,3.6181988 1.6503339,3.5270056 1.6255436,3.4762632 1.5334833,3.2878276 1.5171424,3.07638 1.5776076,2.8559816 1.592515,2.8016463 1.6310886,2.7145546 1.6653409,2.6578998 1.8215453,2.3995325 2.0739129,2.2409517 2.3610803,2.2207162 c 0.1079999,-0.00761 0.2085749,0.0055 0.3117989,0.040637 0.053344,0.018159 0.081988,0.029958 0.1516908,0.062482 0.010241,0.00478 0.046277,0.024713 0.080081,0.044299 0.033804,0.019586 0.062798,0.035611 0.064431,0.035611 0.00163,0 0.019959,0.011368 0.040724,0.025263 0.020767,0.013895 0.050726,0.032837 0.066578,0.042095 0.015853,0.00926 0.04415,0.026469 0.062884,0.038247 0.048928,0.030761 0.087309,0.052018 0.1690005,0.093602 l 0.072054,0.036677 5.118e-4,0.040578 c 2.925e-4,0.022318 2.681e-4,0.3671797 -1.56e-5,0.7663607 -5.361e-4,0.7495022 0.00119,0.8269383 0.020732,0.9183373 0.074202,0.3472222 0.3583457,0.6155058 0.707052,0.6675839 0.070927,0.010591 0.2066856,0.010053 0.267372,-0.00107 0.1176564,-0.021551 0.2375004,-0.066542 0.3114427,-0.1169198 0.011725,-0.00799 0.036645,-0.024945 0.055379,-0.037684 0.048302,-0.032844 0.149661,-0.1353498 0.1885551,-0.1906899 0.087764,-0.1248625 0.1429107,-0.2690729 0.1571092,-0.4108329 0.00349,-0.034843 0.00544,-0.3371342 0.00544,-0.8445157 V 2.6405286 l 0.070013,-0.034387 c 0.038504,-0.018913 0.1192698,-0.064335 0.1794775,-0.1009379 0.2098839,-0.1276001 0.2303955,-0.1396881 0.2928785,-0.172603 0.072199,-0.038033 0.1357905,-0.063565 0.2130825,-0.085552 0.08031,-0.022846 0.1366386,-0.028676 0.2441781,-0.025272 0.080337,0.00254 0.1016704,0.00513 0.1569796,0.019066 0.1213182,0.030561 0.1825055,0.057849 0.2897139,0.1292063 0.1267735,0.084381 0.2341705,0.2083858 0.3037611,0.3507352 0.029665,0.060686 0.042001,0.094125 0.062837,0.1703102 0.053709,0.1964314 0.029665,0.4178898 -0.06525,0.6009244 C 6.7877475,3.5958135 6.72,3.6779734 6.6131284,3.7690639 6.5666675,3.8086661 6.4427208,3.897452 6.402736,3.9197752 6.3583602,3.9445462 6.2368263,4.0309464 6.1586067,4.0933232 5.8872869,4.3096898 5.6515672,4.5852013 5.4853966,4.8801767 c -0.024042,0.042679 -0.09822,0.1891783 -0.1178792,0.2328099 -0.031948,0.070906 -0.041072,0.092821 -0.066536,0.1598297 -0.065891,0.1733949 -0.1180727,0.3668219 -0.1491456,0.5528532 -0.020047,0.1200224 -0.038952,0.2596352 -0.045057,0.3327597 -0.00168,0.020176 -0.00402,0.040219 -0.00519,0.044543 -0.00117,0.00432 -0.00453,0.037338 -0.00745,0.073365 C 5.0724108,6.5438766 5.0503468,6.637439 4.9726466,6.7915095 4.9227636,6.8904235 4.8130109,7.0167442 4.7192157,7.0831991 4.6065769,7.1630051 4.4619949,7.2125133 4.3057803,7.2247712 c -0.072381,0.00568 -0.075528,0.00568 -0.1472781,-5.96e-5 z M 4.1139648,4.7434687 C 3.9542717,4.707841 3.8178081,4.6051453 3.7393504,4.4615526 3.7164201,4.4195854 3.702768,4.3842495 3.6855114,4.3222015 L 3.6715274,4.2719165 3.6697474,3.7426449 C 3.6685774,3.3987312 3.66987,3.1968563 3.6733974,3.1662105 3.6884074,3.0361186 3.7459094,2.9133352 3.8320482,2.8274389 3.935648,2.7241313 4.0724405,2.6642183 4.218377,2.6582334 c 0.032922,-0.00135 0.071832,-1.552e-4 0.086466,0.00266 0.087272,0.016765 0.1116513,0.023173 0.1505093,0.039562 0.1261228,0.053192 0.2197542,0.1394121 0.2867006,0.2640069 0.025919,0.048239 0.050894,0.1239331 0.058184,0.1763452 0.0035,0.025135 0.00546,0.2315748 0.00546,0.5736197 0,0.5805147 7.791e-4,0.5632562 -0.02945,0.6539223 -0.037145,0.1114148 -0.1040661,0.204675 -0.198503,0.2766287 -0.036691,0.027956 -0.092048,0.057641 -0.1503192,0.08061 -0.082769,0.032624 -0.2138534,0.040103 -0.3134484,0.017883 z"
       id="path881" />
  </g>
  <g
     style="display:inline"
     sodipodi:insensitive="true"
     inkscape:label="Overlay"
     id="layer2"
     inkscape:groupmode="layer">
    <circle
       sodipodi:insensitive="true"
       inkscape:export-ydpi="96"
       inkscape:export-xdpi="96"
       clip-path="none"
       inkscape:highlight-color="4278255615"
       inkscape:label="Circle silhouette"
       r="3.9648747"
       cy="4.2333331"
       cx="4.2333336"
       id="path29"
       style="display:inline;opacity:0.1;fill:url(#linearGradient1158);fill-opacity:1;stroke:#414548;stroke-width:0.0077439;stroke-opacity:1" />
  </g>
</svg>
