<?xml version="1.0" encoding="UTF-8" standalone="no"?>
<svg
   xmlns:dc="http://purl.org/dc/elements/1.1/"
   xmlns:cc="http://creativecommons.org/ns#"
   xmlns:rdf="http://www.w3.org/1999/02/22-rdf-syntax-ns#"
   xmlns:svg="http://www.w3.org/2000/svg"
   xmlns="http://www.w3.org/2000/svg"
   xmlns:xlink="http://www.w3.org/1999/xlink"
   xmlns:sodipodi="http://sodipodi.sourceforge.net/DTD/sodipodi-0.dtd"
   xmlns:inkscape="http://www.inkscape.org/namespaces/inkscape"
   enable-background="new"
   width="32"
   height="32"
   viewBox="0 0 8.4666666 8.4666669"
   version="1.1"
   id="svg8"
   inkscape:version="1.0 (4035a4fb49, 2020-05-01)"
   sodipodi:docname="EpicGamesStore.svg">
  <defs
     id="defs2">
    <linearGradient
       inkscape:collect="always"
       xlink:href="#linearGradient1156"
       id="linearGradient1158"
       x1="938"
       y1="301.84164"
       x2="170"
       y2="813.84167"
       gradientUnits="userSpaceOnUse"
       gradientTransform="matrix(0.0077439,0,0,0.0077439,-0.05678487,-0.08653876)" />
    <linearGradient
       inkscape:collect="always"
       id="linearGradient1156">
      <stop
         style="stop-color:#333333;stop-opacity:1"
         offset="0"
         id="stop1152" />
      <stop
         style="stop-color:#252525;stop-opacity:1"
         offset="1"
         id="stop1154" />
    </linearGradient>
    <mask
       maskUnits="userSpaceOnUse"
       id="mask862">
      <rect
         inkscape:label="Faded mask"
         y="0.9999876"
         x="1"
         height="30.000025"
         width="30"
         id="rect864"
         style="display:inline;opacity:1;fill:url(#radialGradient866);fill-opacity:1;stroke:none;stroke-width:4.34110594;stroke-opacity:1"
         inkscape:export-xdpi="96"
         inkscape:export-ydpi="96" />
    </mask>
    <radialGradient
       inkscape:collect="always"
       xlink:href="#linearGradient1961"
       id="radialGradient866"
       gradientUnits="userSpaceOnUse"
       gradientTransform="matrix(1.2438841,1.2021521,-1.0766625,1.1139429,29.163729,-6.6607255)"
       cx="-3.1699476"
       cy="16.600925"
       fx="-3.1699476"
       fy="16.600925"
       r="15" />
    <linearGradient
       inkscape:collect="always"
       id="linearGradient1961">
      <stop
         style="stop-color:#696969;stop-opacity:1"
         offset="0"
         id="stop1957" />
      <stop
         style="stop-color:#ffffff;stop-opacity:0"
         offset="1"
         id="stop1959" />
    </linearGradient>
    <clipPath
       id="clipPath1928"
       clipPathUnits="userSpaceOnUse">
      <path
         d="m 4.5304729,1.3296346 c -0.5171276,3.175e-4 -1.0341727,-8.069e-4 -1.5513264,0.00103 -0.1725084,0.00126 -0.3448392,6.111e-4 -0.5172812,0.0062 -0.056311,0.00304 -0.1164333,4.075e-4 -0.1674317,0.028422 C 2.2465366,1.3958646 2.1948296,1.4307496 2.172994,1.4856927 2.16149,1.5319767 2.15701,1.5792587 2.154391,1.6267694 2.144104,1.8461854 2.144781,2.06604 2.144056,2.2856439 c -0.00119,0.9862118 -2.636e-4,1.972269 -5.159e-4,2.9584756 0.00621,0.010266 0.012394,0.020741 0.018603,0.031006 0.013081,0.024156 0.029601,0.046646 0.049093,0.066146 L 3.3548349,6.4848764 H 3.0768155 c -0.057652,0.00201 -0.1196504,0.014473 -0.1607137,0.058394 -0.0381,0.043153 -0.061619,0.1016571 -0.056327,0.15968 0.0031,0.03765 0.021812,0.070905 0.048059,0.097152 l 0.1777669,0.1777669 c -0.0085,-9.525e-4 -0.015674,-0.0027 -0.02377,-0.00517 l -0.055811,-0.055811 c -0.039502,-0.019976 -0.085466,-0.014909 -0.1276409,-0.00827 -0.030745,-0.00251 -0.042321,0.032158 -0.03359,0.056844 0.011483,0.036433 0.032573,0.069236 0.059428,0.096118 L 36.879403,41.036772 c 0.02275,0.02302 0.04996,0.04128 0.07907,0.05478 0.02064,0.0087 0.04289,0.01416 0.06511,0.01707 0.07329,0.0079 0.152244,0.0016 0.216009,-0.03824 0.05106,-0.0291 0.0801,-0.08778 0.0801,-0.145727 0.0019,-0.01633 -0.0016,-0.03299 -0.0041,-0.04961 l 0.224274,0.224276 h 0.16795 v -0.345715 l 0.280601,0.280601 c 0.02143,0.02143 0.04719,0.03894 0.07338,0.05323 0.07699,0.0344 0.167953,0.03156 0.244946,-0.0016 0.05309,-0.02262 0.101709,-0.0636 0.121439,-0.118856 l 0.132292,0.132291 h 0.167949 v -0.09147 c 0.0011,-0.03038 7.94e-4,-0.06039 0.0031,-0.09043 l 0.170532,0.170532 c 0.0024,0.0024 0.0048,0.0041 0.0078,0.0057 0.04366,-7.94e-4 0.0876,0.0073 0.131257,0.0036 0.02672,7.93e-4 0.02601,-0.03317 0.0186,-0.05116 -0.01582,-0.04099 -0.03968,-0.07821 -0.06149,-0.116273 l 0.1695,0.1695 H 39.59405 V 40.95718 l -0.103351,-0.103354 h 0.0646 v -0.14211 l -0.09043,-0.09043 h 0.129191 v -0.15503 l -0.605129,-0.605131 c 0.170387,-0.07115 0.341101,-0.141624 0.511596,-0.212389 0.179388,-0.07514 0.359648,-0.146958 0.536919,-0.226862 0.05662,-0.02672 0.114779,-0.05137 0.167431,-0.0863 0.0426,-0.02619 0.07818,-0.06881 0.08268,-0.120407 0.0053,-0.100012 0.007,-0.200226 0.0078,-0.300238 0.004,-0.604309 0.0034,-1.208503 0.0031,-1.812809 -5.29e-4,-0.407194 2.65e-4,-0.814438 -0.0036,-1.221632 -0.0016,-0.104245 -0.0013,-0.208661 -0.0072,-0.312642 -2.64e-4,-0.0508 -0.01296,-0.101616 -0.04393,-0.142629 -0.01032,-0.01429 -0.02193,-0.02812 -0.03462,-0.04082 L 6.2332114,1.4092164 C 6.1995828,1.3755746 6.1583367,1.3493112 6.1107381,1.3425538 6.0404648,1.338294 5.9697607,1.3364382 5.8993816,1.335319 5.4431081,1.3299321 4.9867728,1.3298014 4.5304729,1.3296346 Z"
         style="display:inline;fill:#f9f9f9;fill-opacity:1;stroke-width:0.0129197"
         id="path1930" />
    </clipPath>
  </defs>
  <sodipodi:namedview
     inkscape:snap-global="false"
     inkscape:snap-nodes="true"
     id="base"
     pagecolor="#ffffff"
     bordercolor="#666666"
     borderopacity="1.0"
     inkscape:pageopacity="0.0"
     inkscape:pageshadow="2"
     inkscape:zoom="8"
     inkscape:cx="-0.9086339"
     inkscape:cy="22.177211"
     inkscape:document-units="px"
     inkscape:current-layer="layer1"
     showgrid="true"
     inkscape:window-width="1366"
     inkscape:window-height="712"
     inkscape:window-x="0"
     inkscape:window-y="670"
     inkscape:window-maximized="1"
     inkscape:pagecheckerboard="true"
     units="px"
     inkscape:snap-object-midpoints="true"
     showguides="true"
     inkscape:guide-bbox="true"
     inkscape:document-rotation="0">
    <inkscape:grid
       empspacing="8"
       spacingy="0.26458334"
       spacingx="0.26458334"
       units="px"
       id="grid945"
       type="xygrid" />
    <sodipodi:guide
       inkscape:locked="false"
       id="guide1116"
       orientation="0,1"
       position="8.2020834,8.2020837" />
    <sodipodi:guide
       inkscape:locked="false"
       id="guide1118"
       orientation="1,0"
       position="8.2020834,8.2020837" />
    <sodipodi:guide
       inkscape:locked="false"
       id="guide1120"
       orientation="1,0"
       position="0.26458334,0" />
    <sodipodi:guide
       inkscape:locked="false"
       id="guide1122"
       orientation="0,1"
       position="0.26458334,0.26458334" />
    <sodipodi:guide
       inkscape:locked="false"
       id="guide1126"
       orientation="0,1"
       position="0.52916667,0" />
  </sodipodi:namedview>
  <metadata
     id="metadata5">
    <rdf:RDF>
      <cc:Work
         rdf:about="">
        <dc:format>image/svg+xml</dc:format>
        <dc:type
           rdf:resource="http://purl.org/dc/dcmitype/StillImage" />
        <dc:title />
      </cc:Work>
    </rdf:RDF>
  </metadata>
  <g
     inkscape:groupmode="layer"
     id="layer1"
     inkscape:label="Main"
     style="display:inline">
    <rect
       inkscape:export-ydpi="96"
       inkscape:export-xdpi="96"
       style="display:inline;opacity:1;fill:#343033;fill-opacity:1;stroke:none;stroke-width:1.14858;stroke-opacity:1"
       id="rect922"
       width="7.9375"
       height="7.9375067"
       x="0.2645832"
       y="0.26458016"
       inkscape:label="Background" />
    <rect
       sodipodi:insensitive="true"
       inkscape:label="Opaque mask"
       y="0.26458016"
       x="0.26458332"
       height="7.9375067"
       width="7.9375"
       id="rect943"
       style="display:inline;opacity:0.370536;fill:#000000;fill-opacity:1;stroke:none;stroke-width:1.14858;stroke-opacity:1"
       inkscape:export-xdpi="96"
       inkscape:export-ydpi="96"
       clip-path="url(#clipPath1928)" />
    <path
       d="m 17.123047,5.0253906 c -1.954595,0.0012 -3.908695,-0.00305 -5.863281,0.00391 -0.652003,0.00476 -1.3033262,0.00231 -1.9550785,0.023437 -0.212832,0.011497 -0.4400604,0.00154 -0.6328125,0.1074218 -0.181025,0.1155701 -0.3764508,0.2474234 -0.4589844,0.4550782 -0.043476,0.1749358 -0.06041,0.353634 -0.070312,0.5332031 -0.03888,0.8292922 -0.036312,1.6602354 -0.039063,2.4902344 -0.00449,3.7273959 -9.825e-4,7.4542419 -0.00195,11.1816399 0.023478,0.03879 0.046842,0.07841 0.070312,0.117188 0.064547,0.119127 0.1505353,0.228507 0.2558594,0.314453 0.1482999,0.129328 0.3342348,0.198964 0.5117187,0.277344 1.7443573,0.743682 3.4971523,1.46643 5.2460943,2.199219 0.512595,0.209051 1.015357,0.438655 1.533203,0.634765 0.119153,0.04331 0.250715,0.03994 0.373047,0.01367 0.291606,-0.0736 0.572323,-0.18649 0.851562,-0.296875 1.317326,-0.536427 2.625692,-1.09166 3.939453,-1.636719 0.67724,-0.284422 1.359824,-0.55487 2.029297,-0.857421 0.214459,-0.101016 0.434569,-0.194785 0.632813,-0.326172 0.161458,-0.09916 0.295908,-0.260323 0.3125,-0.455078 0.01984,-0.377933 0.02606,-0.756315 0.0293,-1.134766 0.01451,-2.283892 0.01224,-4.567637 0.01172,-6.851563 -0.0023,-1.538885 0.0013,-3.0783523 -0.01367,-4.6171869 -0.0064,-0.3937576 -0.0053,-0.7883385 -0.02734,-1.1816407 C 23.856764,5.8275142 23.808897,5.6353349 23.691406,5.4804688 23.548127,5.2834329 23.344075,5.1094817 23.095703,5.0742188 22.830145,5.058118 22.562859,5.0511081 22.296875,5.046875 20.572416,5.0265196 18.847601,5.0260195 17.123047,5.0253906 Z m 2.894531,2.3925782 c 0.270565,0.00711 0.547454,0.00611 0.810547,0.078125 0.216854,0.05607 0.399929,0.2040882 0.525391,0.3867187 0.112509,0.1555166 0.134352,0.3530379 0.146484,0.5390625 0.02683,0.5682542 0.02509,1.1383647 0.03711,1.707031 h -1.033203 c -9.21e-4,-0.2945587 0.0012,-0.5902079 0,-0.8847654 -0.01324,-0.2276232 0.02483,-0.4619471 -0.03906,-0.6835937 -0.08505,-0.2273847 -0.361474,-0.2697645 -0.572266,-0.2304688 -0.233338,-0.00895 -0.403524,0.2216637 -0.382812,0.4433594 -0.02332,0.5805815 -0.02338,1.1612401 -0.02148,1.7421875 0.0051,0.686413 0.0016,1.374199 0.01367,2.060547 0.0079,0.233576 0.0035,0.467413 0.03711,0.699219 0.01191,0.132215 0.06117,0.298315 0.214844,0.320312 0.212365,-0.01654 0.447653,0.04661 0.642578,-0.06055 0.146971,-0.138507 0.116171,-0.356813 0.134766,-0.539062 0.01671,-0.468285 0.01924,-0.937807 0.0293,-1.40625 l 0.994141,0.02734 v 0.58789 c -0.002,0.44359 0.01,0.887249 -0.02148,1.330078 -0.01724,0.403501 -0.30142,0.778768 -0.681641,0.91211 -0.129462,0.04196 -0.265189,0.05633 -0.40039,0.06445 -0.31547,0.01387 -0.632204,0.01397 -0.947266,-0.0098 -0.223193,-0.02234 -0.459514,-0.0579 -0.640625,-0.201172 -0.188956,-0.146533 -0.360765,-0.420211 -0.384765,-0.580078 -6.49e-4,-0.420168 0,-1.023437 0,-1.023437 5.6e-4,-1.098585 -0.0016,-2.196342 0.002,-3.2949222 0.0034,-0.341486 8.98e-4,-0.6842959 0.01953,-1.0253907 -0.0018,-0.2071468 0.07375,-0.4070047 0.205078,-0.5664062 0.119432,-0.1736958 0.313798,-0.2821764 0.515625,-0.3300781 0.261391,-0.057951 0.530131,-0.064034 0.796875,-0.0625 z m -2.15039,0.021484 v 3.5175782 3.517578 h -1.074219 c 0.0084,-2.335715 0.01704,-4.6720969 0.02539,-7.0078124 0.34995,-0.00926 0.698878,-0.018084 1.048829,-0.027344 z m -7.421876,0.00391 h 2.34375 v 0.9765625 h -1.318359 v 2.0019527 h 1.269531 v 0.976563 H 11.46875 c 0.0087,0.708039 0.01854,1.415008 0.02734,2.123046 h 1.292968 v 0.476563 c 2.7e-5,0.158698 4e-6,0.317864 0,0.476562 h -2.34375 z m 2.90625,0.023437 c 0.138518,3.133e-4 0.275547,-1.822e-4 0.414063,0 0.439198,0.0031 0.87943,-0.00507 1.318359,0.013672 0.218226,0.014439 0.446944,0.023215 0.646485,0.1230468 0.147522,0.083862 0.278795,0.1991514 0.376953,0.3378906 0.136798,0.1910865 0.157679,0.434964 0.175781,0.6621094 0.02355,0.4194475 0.01557,0.8398787 0.01172,1.2597656 -0.0067,0.3706168 -0.0042,0.7413318 -0.0293,1.1113278 -0.0042,0.217578 -0.106096,0.421956 -0.246094,0.583985 -0.13724,0.172516 -0.349022,0.265439 -0.560547,0.308594 -0.348586,0.06713 -0.705589,0.05903 -1.058593,0.08008 v 1.263672 c -3e-5,0.421112 8e-6,0.842559 0,1.263671 H 13.32617 c 0.0084,-2.335715 0.01704,-4.672097 0.02539,-7.0078121 z m 1.351563,0.9121093 c -0.09257,0.00508 -0.185802,0.015639 -0.277344,0.015625 -0.0043,0.4354031 -0.0093,0.8712376 -0.01367,1.3066407 -0.0043,0.4353992 -0.0093,0.8712372 -0.01367,1.3066402 0.04655,-3.06e-4 0.09408,-1.52e-4 0.140624,0 0.178413,-0.0064 0.369422,0.02685 0.533204,-0.0625 0.196718,-0.113562 0.174437,-0.37281 0.197265,-0.568359 0.01255,-0.4316738 6.42e-4,-0.8632367 -0.0059,-1.2949219 -0.004,-0.1536812 -0.0039,-0.3082823 -0.0098,-0.4609374 C 15.182164,8.5294957 15.083859,8.4480656 14.97649,8.3984404 14.8867,8.3749224 14.795619,8.3738334 14.703053,8.3789094 Z m 2.724609,7.0175779 v 2.105469 h -0.542968 c 0.004,-0.160365 0.0097,-0.320103 0.01367,-0.480469 0.0019,-0.198833 0.01316,-0.399117 -0.002,-0.597656 -0.0021,-0.0191 -0.0039,-0.122089 -0.03906,-0.06836 -0.190256,0.243929 -0.345762,0.511412 -0.515625,0.769531 -0.147476,-0.231332 -0.286556,-0.468834 -0.447266,-0.691406 -0.03562,-0.02505 -0.04393,-0.102215 -0.09766,-0.08789 -0.02919,0.188523 -0.0265,0.380161 -0.0293,0.570313 6.5e-5,0.195283 -2.1e-5,0.390619 0,0.585937 h -0.53125 l 0.01953,-2.076172 h 0.578125 c 0.148024,0.236258 0.28714,0.47922 0.445313,0.708985 0.03214,0.02242 0.03919,0.10729 0.08984,0.08008 0.18115,-0.253715 0.335144,-0.524825 0.5,-0.789063 0.186104,-0.0098 0.372486,-0.01951 0.558593,-0.0293 z m 0.488282,0.0039 c 0.542106,0.0088 1.084847,0.01651 1.626953,0.02539 0.01749,0.146098 -0.0038,0.292944 0,0.439453 -0.363412,0.0092 -0.726431,0.01816 -1.089844,0.02734 v 0.339844 h 0.976563 v 0.439453 H 18.453125 V 17.0625 h 1.123047 v 0.21875 c 2.4e-5,0.07325 -1.6e-5,0.147448 0,0.220703 h -1.660156 z m -6.207032,0.0078 c 0.223512,0.02403 0.463936,0.08738 0.617188,0.263672 -0.03442,0.07672 -0.07751,0.150096 -0.128906,0.216797 -0.05594,0.05517 -0.111898,0.173355 -0.205078,0.125 -0.149579,-0.07771 -0.308121,-0.162331 -0.484376,-0.132813 -0.213053,0.02557 -0.414161,0.16679 -0.496093,0.367188 -0.05788,0.196617 -0.05626,0.435831 0.08398,0.599609 0.125,0.17884 0.349888,0.242144 0.558594,0.212891 0.129452,0.0097 0.322702,-0.05364 0.300781,-0.214844 -0.05648,-0.175419 -0.278963,-0.0699 -0.398437,-0.154297 -0.07132,-0.100301 -0.02229,-0.243399 -0.03711,-0.361328 h 0.931641 l -0.02734,0.947266 -0.242187,0.123047 c -0.384473,0.192782 -0.871209,0.208195 -1.25,-0.0078 -0.286692,-0.158167 -0.475297,-0.463956 -0.509766,-0.787109 -0.04604,-0.38002 0.128878,-0.776747 0.439453,-1 0.240424,-0.180106 0.554811,-0.227427 0.847656,-0.197266 z m 8.826172,0 c 0.118938,-0.01306 0.242414,-0.0052 0.359375,0.01172 0.143137,0.03022 0.2893,0.05306 0.423828,0.113281 0.05723,0.03918 0.188584,0.07178 0.148438,0.164063 -0.04929,0.11379 -0.126439,0.216568 -0.203125,0.3125 -0.07886,0.0238 -0.163203,-0.05271 -0.242188,-0.07422 -0.161257,-0.06356 -0.355975,-0.138881 -0.521484,-0.05274 -0.116066,0.05723 -0.05771,0.208118 0.04102,0.246094 0.175084,0.09229 0.374817,0.115619 0.55664,0.191406 0.192514,0.07556 0.412062,0.187083 0.46875,0.404297 0.05075,0.261588 -0.05975,0.557298 -0.289062,0.701172 -0.09316,0.05153 -0.195782,0.08043 -0.300782,0.0957 -0.282215,0.03425 -0.576832,0.0089 -0.84375,-0.0918 -0.104613,-0.05816 -0.264824,-0.0878 -0.296874,-0.220704 0.0421,-0.138047 0.17294,-0.234053 0.255859,-0.351562 0.121806,0.07109 0.240111,0.151396 0.376953,0.191406 0.16752,0.04665 0.37633,0.09228 0.525391,-0.02539 0.09028,-0.08402 -0.0097,-0.189586 -0.0957,-0.222657 -0.240764,-0.110989 -0.51173,-0.140342 -0.744141,-0.271484 -0.193935,-0.09863 -0.297917,-0.327213 -0.275391,-0.539063 0.02797,-0.193491 0.15728,-0.36806 0.31836,-0.474609 0.104427,-0.06113 0.218952,-0.09436 0.33789,-0.107422 z m -6.972656,0.01758 h 0.550781 c 0.254794,0.604326 0.511552,1.209003 0.763672,1.814453 0.0158,0.08147 0.100712,0.157043 0.06836,0.242188 -0.17534,0.04025 -0.355553,0.01038 -0.533203,0.01953 l -0.15625,-0.390625 h -0.8125 c -0.07361,0.02078 -0.06204,0.139909 -0.103515,0.195313 -0.02557,0.06511 -0.05058,0.13021 -0.07617,0.195312 h -0.566406 c 0.28989,-0.691347 0.577132,-1.384078 0.865234,-2.076172 z m 0.236328,0.710938 c -0.07457,0.178084 -0.164978,0.352144 -0.203125,0.542969 0.06712,0.0144 0.136748,0.0158 0.205078,0.01172 0.07873,-0.0215 0.180007,0.01156 0.242188,-0.05078 -0.01979,-0.142196 -0.06862,-0.278246 -0.136719,-0.404297 -0.03187,-0.03232 -0.04521,-0.144495 -0.107422,-0.09961 z m -0.740234,4.740234 5.859375,0.0039 -1.441407,0.480469 c -0.25132,0.08365 -0.503273,0.164378 -0.755859,0.244141 -0.207073,0.06798 -0.41597,0.125581 -0.623047,0.193359 -0.222374,0.088 -0.444924,-0.03742 -0.658203,-0.09375 -0.797216,-0.266912 -1.586674,-0.552389 -2.380859,-0.828125 z m -1.429688,3.632827 c -0.217936,0.0076 -0.452234,0.05469 -0.607422,0.220703 -0.144011,0.163085 -0.232846,0.384261 -0.21289,0.603515 0.01775,0.215618 0.170737,0.395063 0.353515,0.498047 0.178105,0.09612 0.375749,0.148069 0.564453,0.21875 0.09769,0.05165 0.264896,0.05269 0.273438,0.19336 0.0086,0.110109 -0.115221,0.123918 -0.195312,0.134765 -0.172865,0.02089 -0.41645,-0.03057 -0.44336,-0.236328 -0.149352,-0.07549 -0.323062,-0.05638 -0.482422,-0.03125 -0.116224,-0.0095 -0.15991,0.121561 -0.126953,0.214844 0.08039,0.254957 0.283293,0.459762 0.523438,0.570312 0.07845,0.03337 0.161689,0.05353 0.246093,0.06445 0.276883,0.03061 0.57508,0.0065 0.816407,-0.144532 0.192926,-0.110482 0.302213,-0.332237 0.302734,-0.550781 0.02027,-0.193348 -0.03312,-0.410379 -0.191406,-0.535156 -0.223856,-0.155622 -0.489451,-0.230215 -0.742188,-0.324219 -0.08872,-0.04952 -0.242,-0.06556 -0.253906,-0.189453 0.06764,-0.156635 0.283349,-0.179094 0.419922,-0.105469 0.107958,0.03252 0.09424,0.166971 0.173828,0.226563 0.199117,0.05201 0.406883,0.01379 0.609375,0.02539 -0.0075,-0.04505 -0.0143,-0.08966 -0.02148,-0.134765 -0.02684,-0.216934 -0.109015,-0.448245 -0.302735,-0.570313 -0.205392,-0.137983 -0.462992,-0.154409 -0.703125,-0.148437 z m 4.351563,0.002 c -0.207862,-2.01e-4 -0.429992,-0.0018 -0.617188,0.101562 -0.178502,0.114096 -0.335435,0.282933 -0.384765,0.494141 -0.01901,0.223285 -0.01651,0.448021 -0.01563,0.671875 0.0073,0.207163 -0.01638,0.416705 0.02734,0.621094 0.07171,0.217785 0.25881,0.375237 0.455078,0.480468 0.291339,0.130405 0.634717,0.119629 0.925782,-0.0059 0.215843,-0.09149 0.41709,-0.262099 0.478515,-0.496094 0.03103,-0.165593 0.03537,-0.333851 0.03711,-0.501953 -0.0019,-0.226427 -0.0034,-0.454012 -0.02344,-0.679687 -0.01011,-0.214313 -0.149537,-0.397239 -0.314453,-0.523438 -0.156598,-0.133916 -0.370252,-0.157612 -0.568359,-0.162109 z m -3.13086,0.01953 c -0.02954,0.171164 0.0153,0.37968 0.01367,0.564453 0.203461,0.0096 0.405916,0.01771 0.609375,0.02734 v 0.902344 0.90039 h 0.634766 v -1.80664 h 0.623047 c 0.02954,-0.170768 -0.01334,-0.376363 -0.01172,-0.560547 z m 4.480469,0.002 v 1.197266 c -3.3e-5,0.398803 9e-6,0.796499 0,1.195312 h 0.634766 v -0.345703 c 0.0046,-0.144323 -0.0098,-0.288676 0.01563,-0.43164 0.01633,-0.149636 0.235309,-0.0801 0.242187,0.03906 0.0906,0.17908 0.192512,0.352893 0.294922,0.525391 0.04839,0.05961 0.06562,0.153648 0.132813,0.191406 0.165197,-0.0034 0.330852,0.02826 0.496093,0.01367 0.100876,0.0037 0.09832,-0.125268 0.07031,-0.19336 -0.09855,-0.254253 -0.246781,-0.484437 -0.380859,-0.720703 0.05563,-0.07301 0.11507,-0.141716 0.167968,-0.216797 0.19835,-0.266185 0.225054,-0.658952 0.03711,-0.9375 -0.120133,-0.18799 -0.343165,-0.280308 -0.558594,-0.298828 -0.383416,-0.02846 -0.768242,-0.01263 -1.152344,-0.01758 z m 2.294922,0 v 1.197266 1.195312 h 1.611328 V 26.388765 H 20.259766 V 25.99814 h 0.830078 v -0.537109 h -0.830078 v -0.341797 h 0.976562 v -0.585938 z m -3.677734,0.541016 c 0.05214,0.0038 0.103186,0.01712 0.146484,0.03906 0.207092,0.09904 0.155659,0.363389 0.160156,0.550781 -0.0146,0.21521 0.04176,0.452761 -0.07422,0.648438 -0.121786,0.09819 -0.29352,0.08655 -0.435547,0.04883 -0.180994,-0.075 -0.163837,-0.29988 -0.169922,-0.460937 -0.0013,-0.202129 -0.0094,-0.404353 0.01172,-0.605469 0.0336,-0.160336 0.204915,-0.232115 0.361329,-0.220703 z m 2.33789,0.04883 c 0.190654,-0.05035 0.356418,0.235939 0.189453,0.359375 -0.145799,0.107478 -0.340601,0.06774 -0.509765,0.07617 v -0.423828 c 0.08841,-0.0367 0.217377,-0.0073 0.320312,-0.01172 z"
       transform="scale(0.264583)"
       style="display:inline;fill:#f9f9f9;fill-opacity:1;stroke-width:0.0488304"
       id="path881" />
  </g>
  <g
     inkscape:groupmode="layer"
     id="layer2"
     inkscape:label="Overlay"
     sodipodi:insensitive="true"
     style="display:none">
    <circle
       style="display:inline;opacity:0.1;fill:url(#linearGradient1158);fill-opacity:1;stroke:#414548;stroke-width:0.0077439;stroke-opacity:1"
       id="path29"
       cx="4.2333336"
       cy="4.2333331"
       r="3.9648747"
       inkscape:label="Circle silhouette"
       inkscape:highlight-color="4278255615"
       clip-path="none"
       inkscape:export-xdpi="96"
       inkscape:export-ydpi="96"
       sodipodi:insensitive="true" />
  </g>
</svg>
