<?xml version="1.0" encoding="UTF-8" standalone="no"?>
<!-- Created with Inkscape (http://www.inkscape.org/) -->

<svg
   xmlns:dc="http://purl.org/dc/elements/1.1/"
   xmlns:cc="http://creativecommons.org/ns#"
   xmlns:rdf="http://www.w3.org/1999/02/22-rdf-syntax-ns#"
   xmlns:svg="http://www.w3.org/2000/svg"
   xmlns="http://www.w3.org/2000/svg"
   xmlns:xlink="http://www.w3.org/1999/xlink"
   xmlns:sodipodi="http://sodipodi.sourceforge.net/DTD/sodipodi-0.dtd"
   xmlns:inkscape="http://www.inkscape.org/namespaces/inkscape"
   sodipodi:docname="Git.svg"
   inkscape:version="0.92.4 5da689c313, 2019-01-14"
   id="svg8"
   version="1.1"
   viewBox="0 0 8.4666666 8.4666669"
   height="32"
   width="32"
   enable-background="new">
  <defs
     id="defs2">
    <linearGradient
       inkscape:collect="always"
       xlink:href="#linearGradient1156"
       id="linearGradient1158"
       x1="938"
       y1="301.84164"
       x2="170"
       y2="813.84167"
       gradientUnits="userSpaceOnUse"
       gradientTransform="matrix(0.0077439,0,0,0.0077439,-0.05678487,-0.08653876)" />
    <linearGradient
       inkscape:collect="always"
       id="linearGradient1156">
      <stop
         style="stop-color:#333333;stop-opacity:1"
         offset="0"
         id="stop1152" />
      <stop
         style="stop-color:#252525;stop-opacity:1"
         offset="1"
         id="stop1154" />
    </linearGradient>
    <mask
       maskUnits="userSpaceOnUse"
       id="mask862">
      <rect
         inkscape:label="Faded mask"
         y="0.9999876"
         x="1"
         height="30.000025"
         width="30"
         id="rect864"
         style="display:inline;opacity:1;fill:url(#radialGradient866);fill-opacity:1;stroke:none;stroke-width:4.34110594;stroke-opacity:1"
         inkscape:export-xdpi="96"
         inkscape:export-ydpi="96" />
    </mask>
    <radialGradient
       inkscape:collect="always"
       xlink:href="#linearGradient1961"
       id="radialGradient866"
       gradientUnits="userSpaceOnUse"
       gradientTransform="matrix(1.2438841,1.2021521,-1.0766625,1.1139429,29.163729,-6.6607255)"
       cx="-3.1699476"
       cy="16.600925"
       fx="-3.1699476"
       fy="16.600925"
       r="15" />
    <linearGradient
       inkscape:collect="always"
       id="linearGradient1961">
      <stop
         style="stop-color:#696969;stop-opacity:1"
         offset="0"
         id="stop1957" />
      <stop
         style="stop-color:#ffffff;stop-opacity:0"
         offset="1"
         id="stop1959" />
    </linearGradient>
    <clipPath
       clipPathUnits="userSpaceOnUse"
       id="clipPath976">
      <rect
         sodipodi:insensitive="true"
         inkscape:label="Opaque mask"
         y="0.99998802"
         x="0.99999994"
         height="30.000025"
         width="30"
         id="rect978"
         style="display:inline;opacity:1;fill:#808080;fill-opacity:1;stroke:none;stroke-width:4.34110641;stroke-opacity:1"
         inkscape:export-xdpi="96"
         inkscape:export-ydpi="96" />
    </clipPath>
  </defs>
  <sodipodi:namedview
     id="base"
     pagecolor="#ffffff"
     bordercolor="#666666"
     borderopacity="1.0"
     inkscape:pageopacity="0.0"
     inkscape:pageshadow="2"
     inkscape:zoom="7.919596"
     inkscape:cx="3.41022"
     inkscape:cy="18.665832"
     inkscape:document-units="px"
     inkscape:current-layer="layer1"
     showgrid="true"
     inkscape:window-width="1366"
     inkscape:window-height="712"
     inkscape:window-x="0"
     inkscape:window-y="26"
     inkscape:window-maximized="1"
     inkscape:pagecheckerboard="true"
     units="px"
     inkscape:snap-object-midpoints="true"
     showguides="true"
     inkscape:guide-bbox="true"
     inkscape:object-nodes="false">
    <inkscape:grid
       type="xygrid"
       id="grid945"
       units="px"
       spacingx="0.26458334"
       spacingy="0.26458334"
       empspacing="8" />
    <sodipodi:guide
       position="8.2020834,8.2020837"
       orientation="0,1"
       id="guide1116"
       inkscape:locked="false" />
    <sodipodi:guide
       position="8.2020834,8.2020837"
       orientation="1,0"
       id="guide1118"
       inkscape:locked="false" />
    <sodipodi:guide
       position="0.26458334,0"
       orientation="1,0"
       id="guide1120"
       inkscape:locked="false" />
    <sodipodi:guide
       position="0.26458334,0.26458334"
       orientation="0,1"
       id="guide1122"
       inkscape:locked="false" />
    <sodipodi:guide
       position="0.52916667,0"
       orientation="0,1"
       id="guide1126"
       inkscape:locked="false" />
  </sodipodi:namedview>
  <metadata
     id="metadata5">
    <rdf:RDF>
      <cc:Work
         rdf:about="">
        <dc:format>image/svg+xml</dc:format>
        <dc:type
           rdf:resource="http://purl.org/dc/dcmitype/StillImage" />
        <dc:title />
      </cc:Work>
    </rdf:RDF>
  </metadata>
  <g
     inkscape:groupmode="layer"
     id="layer1"
     inkscape:label="Main"
     style="display:inline">
    <rect
       inkscape:export-ydpi="96"
       inkscape:export-xdpi="96"
       style="display:inline;opacity:1;fill:#f54d27;fill-opacity:1;stroke:none;stroke-width:1.14858425;stroke-opacity:1"
       id="rect922"
       width="7.9375"
       height="7.9375067"
       x="0.2645832"
       y="0.26458016"
       inkscape:label="Background" />
    <path
       style="display:inline;opacity:0.22000002;fill:#000000;stroke-width:0.97319418"
       d="m 15.994141,6.2753906 c -0.494371,0.00151 -0.989139,0.1932759 -1.367188,0.5761719 l -0.767578,0.7597656 10.525391,10.5253909 -1.376954,1.376953 -6.035156,-6.035156 v 0.0098 L 12.476562,8.9921875 6.8515625,14.626953 c -0.765792,0.756099 -0.7675656,1.976575 -0.00781,2.736328 l 7.7929695,7.792969 51.001953,51.001953 7.792969,7.794922 c 0.759753,0.759753 1.980228,0.756038 2.736328,-0.0098 l 7.77539,-7.77539 c 0.765789,-0.756099 0.769504,-1.976575 0.0098,-2.736328 L 76.158203,65.638672 17.363281,6.84375 C 16.983405,6.4638735 16.488511,6.273881 15.994141,6.2753906 Z"
       id="path868"
       inkscape:connector-curvature="0"
       transform="scale(0.26458334)"
       clip-path="url(#clipPath976)" />
    <path
       style="display:inline;stroke-width:0.25749096;fill:#f2f2f2"
       inkscape:connector-curvature="0"
       d="M 1.8129184,3.870271 3.3012162,2.3793984 3.7363759,2.8171331 C 3.674578,3.0360003 3.774999,3.2754669 3.9758425,3.3913379 v 1.4264999 c -0.1544946,0.087547 -0.257491,0.2549161 -0.257491,0.4454594 a 0.51498192,0.51498192 0 0 0 0.5149819,0.5149819 0.51498192,0.51498192 0 0 0 0.514982,-0.5149819 c 0,-0.1905433 -0.1029964,-0.3579125 -0.257491,-0.4454594 V 3.5664317 l 0.5330063,0.5381562 c -0.018025,0.038623 -0.018025,0.082397 -0.018025,0.1287454 a 0.51498192,0.51498192 0 0 0 0.514982,0.514982 0.51498192,0.51498192 0 0 0 0.514982,-0.514982 0.51498192,0.51498192 0 0 0 -0.514982,-0.5149819 c -0.046348,0 -0.090122,0 -0.1287455,0.018025 L 4.730291,3.074624 C 4.7972386,2.8351574 4.6736429,2.5725166 4.4341764,2.4720951 4.3234553,2.4308966 4.2075843,2.4205969 4.104588,2.4489209 L 3.6668533,2.0137613 3.8702711,1.8129183 c 0.200843,-0.2034178 0.5252816,-0.2034178 0.7261246,0 L 6.6537485,3.870271 c 0.2034178,0.200843 0.2034178,0.5252816 0,0.7261246 L 4.5963957,6.6537484 c -0.200843,0.2034178 -0.5252816,0.2034178 -0.7261246,0 L 1.8129184,4.5963956 c -0.2034178,-0.200843 -0.2034178,-0.5252816 0,-0.7261246 z"
       id="path835" />
  </g>
  <g
     inkscape:groupmode="layer"
     id="layer2"
     inkscape:label="Overlay"
     sodipodi:insensitive="true">
    <circle
       style="display:none;opacity:0.1;fill:url(#linearGradient1158);fill-opacity:1;stroke:#414548;stroke-width:0.0077439;stroke-opacity:1"
       id="path29"
       cx="4.2333336"
       cy="4.2333331"
       r="3.9648747"
       inkscape:label="Circle silhouette"
       inkscape:highlight-color="4278255615"
       clip-path="none"
       inkscape:export-xdpi="96"
       inkscape:export-ydpi="96"
       sodipodi:insensitive="true" />
  </g>
</svg>
