<?xml version="1.0" encoding="UTF-8" standalone="no"?>
<!-- Created with Inkscape (http://www.inkscape.org/) -->

<svg
   xmlns:dc="http://purl.org/dc/elements/1.1/"
   xmlns:cc="http://creativecommons.org/ns#"
   xmlns:rdf="http://www.w3.org/1999/02/22-rdf-syntax-ns#"
   xmlns:svg="http://www.w3.org/2000/svg"
   xmlns="http://www.w3.org/2000/svg"
   xmlns:xlink="http://www.w3.org/1999/xlink"
   xmlns:sodipodi="http://sodipodi.sourceforge.net/DTD/sodipodi-0.dtd"
   xmlns:inkscape="http://www.inkscape.org/namespaces/inkscape"
   sodipodi:docname="GitExtensions.svg"
   inkscape:version="0.92.4 5da689c313, 2019-01-14"
   id="svg8"
   version="1.1"
   viewBox="0 0 8.4666666 8.4666669"
   height="32"
   width="32">
  <defs
     id="defs2">
    <linearGradient
       inkscape:collect="always"
       xlink:href="#linearGradient1156"
       id="linearGradient1158"
       x1="938"
       y1="301.84164"
       x2="170"
       y2="813.84167"
       gradientUnits="userSpaceOnUse"
       gradientTransform="matrix(0.0077439,0,0,0.0077439,-0.05678487,-0.08653876)" />
    <linearGradient
       inkscape:collect="always"
       id="linearGradient1156">
      <stop
         style="stop-color:#333333;stop-opacity:1"
         offset="0"
         id="stop1152" />
      <stop
         style="stop-color:#252525;stop-opacity:1"
         offset="1"
         id="stop1154" />
    </linearGradient>
    <mask
       maskUnits="userSpaceOnUse"
       id="mask862">
      <rect
         inkscape:label="Faded mask"
         y="0.9999876"
         x="1"
         height="30.000025"
         width="30"
         id="rect864"
         style="display:inline;opacity:1;fill:url(#radialGradient866);fill-opacity:1;stroke:none;stroke-width:4.34110594;stroke-opacity:1"
         inkscape:export-xdpi="96"
         inkscape:export-ydpi="96" />
    </mask>
    <radialGradient
       inkscape:collect="always"
       xlink:href="#linearGradient1961"
       id="radialGradient866"
       gradientUnits="userSpaceOnUse"
       gradientTransform="matrix(1.2438841,1.2021521,-1.0766625,1.1139429,29.163729,-6.6607255)"
       cx="-3.1699476"
       cy="16.600925"
       fx="-3.1699476"
       fy="16.600925"
       r="15" />
    <linearGradient
       inkscape:collect="always"
       id="linearGradient1961">
      <stop
         style="stop-color:#696969;stop-opacity:1"
         offset="0"
         id="stop1957" />
      <stop
         style="stop-color:#ffffff;stop-opacity:0"
         offset="1"
         id="stop1959" />
    </linearGradient>
    <clipPath
       clipPathUnits="userSpaceOnUse"
       id="clipPath1245">
      <rect
         inkscape:export-ydpi="96"
         inkscape:export-xdpi="96"
         style="display:inline;opacity:1;fill:#808080;fill-opacity:1;stroke:none;stroke-width:4.34110689;stroke-opacity:1"
         id="rect1247"
         width="30"
         height="30.000025"
         x="0.99999994"
         y="0.99998802"
         inkscape:label="Opaque mask"
         sodipodi:insensitive="true" />
    </clipPath>
  </defs>
  <sodipodi:namedview
     id="base"
     pagecolor="#ffffff"
     bordercolor="#666666"
     borderopacity="1.0"
     inkscape:pageopacity="0.0"
     inkscape:pageshadow="2"
     inkscape:zoom="11.2"
     inkscape:cx="7.0992395"
     inkscape:cy="15.651867"
     inkscape:document-units="px"
     inkscape:current-layer="layer3"
     showgrid="true"
     inkscape:window-width="1366"
     inkscape:window-height="712"
     inkscape:window-x="0"
     inkscape:window-y="26"
     inkscape:window-maximized="1"
     inkscape:pagecheckerboard="true"
     units="px"
     inkscape:snap-object-midpoints="true"
     showguides="true"
     inkscape:guide-bbox="true"
     inkscape:snap-global="false">
    <inkscape:grid
       empspacing="8"
       spacingy="0.26458334"
       spacingx="0.26458334"
       units="px"
       id="grid945"
       type="xygrid" />
    <sodipodi:guide
       inkscape:locked="false"
       id="guide1116"
       orientation="0,1"
       position="8.2020834,8.2020837" />
    <sodipodi:guide
       inkscape:locked="false"
       id="guide1118"
       orientation="1,0"
       position="8.2020834,8.2020837" />
    <sodipodi:guide
       inkscape:locked="false"
       id="guide1120"
       orientation="1,0"
       position="0.26458334,0" />
    <sodipodi:guide
       inkscape:locked="false"
       id="guide1122"
       orientation="0,1"
       position="0.26458334,0.26458334" />
    <sodipodi:guide
       inkscape:locked="false"
       id="guide1126"
       orientation="0,1"
       position="0.52916667,0" />
  </sodipodi:namedview>
  <metadata
     id="metadata5">
    <rdf:RDF>
      <cc:Work
         rdf:about="">
        <dc:format>image/svg+xml</dc:format>
        <dc:type
           rdf:resource="http://purl.org/dc/dcmitype/StillImage" />
        <dc:title />
      </cc:Work>
    </rdf:RDF>
  </metadata>
  <rect
     inkscape:export-ydpi="96"
     inkscape:export-xdpi="96"
     style="display:inline;opacity:1;fill:#1de9b6;fill-opacity:1;stroke:none;stroke-width:1.14858425;stroke-opacity:1"
     id="rect922"
     width="7.9375"
     height="7.9375067"
     x="0.2645832"
     y="0.26458016"
     inkscape:label="Square" />
  <g
     inkscape:groupmode="layer"
     id="layer2"
     inkscape:label="Background"
     sodipodi:insensitive="true" />
  <g
     inkscape:groupmode="layer"
     id="layer4"
     inkscape:label="Shadow"
     sodipodi:insensitive="true"
     style="display:inline">
    <path
       style="display:inline;opacity:0.22999998;fill:#000000;fill-opacity:1;stroke-width:0.04401766"
       d="m 21.84375,4.8710938 c -0.02096,0 -0.81863,0.8028874 -1.771484,1.7832031 L 18.339844,8.4375 19.791016,9.8886719 c -0.42488,1.0981001 -1.358155,2.1262361 -2.972657,3.3339841 L 12.099609,8.5039062 H 10.298828 8.5 L 8.5253906,8.84375 c 0.1577976,2.01332 0.9041169,3.605289 2.4277344,5.128906 l 1.984375,1.984375 c -0.210899,0.155301 -0.467184,0.339022 -0.605469,0.449219 -2.5474886,2.030037 -3.6459428,3.806619 -3.800781,6.150391 l 0.3398438,0.339843 -0.3613282,0.002 485.3300744,485.332036 1.76954,-0.0117 1.76757,-0.0117 0.0352,-0.32422 -0.002,-0.002 c 0.0518,-0.51806 0.15558,-0.87226 0.4082,-1.39063 0.27704,-0.56863 0.62002,-1.03723 1.1543,-1.57812 0.45749,-0.46317 0.99526,-0.90368 1.70117,-1.43164 l 4.74805,4.74805 h 1.77734 1.77734 l -0.002,-0.1211 c -4.2e-4,-0.0665 -0.0173,-0.3074 -0.043,-0.53515 -0.16214,-1.54084 -0.83634,-2.88947 -2.08789,-4.17969 l -0.0996,-0.10156 c -0.006,-0.006 -0.0135,-0.0116 -0.0195,-0.0176 l -2.4043,-2.40625 c 0.9605,-0.70958 1.71239,-1.31177 2.28321,-1.88867 1.48584,-1.50169 2.20267,-2.97089 2.35351,-4.82422 l 0.0312,-0.36133 0.83594,-0.0117 0.83789,-0.0117 v -0.002 l -1.72461,-1.78125 c -0.59992,-0.62 -1.13736,-1.16861 -1.45703,-1.48828 L 22.148438,5.1660156 C 21.962568,4.980146 21.851422,4.8710938 21.84375,4.8710938 Z"
       id="path1077"
       inkscape:connector-curvature="0"
       transform="scale(0.26458334)"
       clip-path="url(#clipPath1245)" />
  </g>
  <g
     inkscape:groupmode="layer"
     id="layer3"
     inkscape:label="Logo"
     style="opacity:1">
    <g
       id="g1176">
      <g
         id="g1173"
         style="display:inline;opacity:1;fill:#f9f9f9;fill-opacity:1;stroke-width:0.01164634" />
    </g>
    <path
       style="display:inline;opacity:1;fill:#f9f9f9;fill-opacity:1;stroke-width:0.01164634"
       d="M 2.2574256,5.9680231 C 2.2983932,5.3479002 2.588886,4.8777286 3.2629091,4.3406147 3.3916299,4.2380395 3.6429552,4.05897 3.990805,3.8219865 4.1445366,3.7172515 4.3174846,3.5973749 4.3751341,3.5555925 5.0000517,3.1026789 5.2651249,2.7511427 5.3077269,2.3188022 L 5.315578,2.2386555 5.0840824,2.2354693 4.8525878,2.232283 5.3109677,1.760607 c 0.2521095,-0.2593752 0.4629195,-0.4716294 0.468465,-0.4716294 0.00552,0 0.2154689,0.2122542 0.4664923,0.4716765 l 0.4564076,0.4716761 -0.2216997,0.00319 -0.221699,0.00319 -0.00785,0.095836 C 6.2111719,2.8249071 6.0216086,3.213409 5.6284754,3.6107231 5.3950506,3.8466305 5.1368836,4.0477976 4.549828,4.4512192 4.0015929,4.827964 3.8140305,4.9734547 3.609065,5.1809614 3.4677087,5.3240701 3.3772567,5.4477451 3.303918,5.5981898 3.2370592,5.735342 3.2094458,5.8293763 3.1957775,5.9664486 l -0.00858,0.085949 -0.4678766,0.00305 -0.4678771,0.00305 z M 5.3019289,5.9504218 C 5.2857096,5.8236292 5.2342218,5.6619317 5.1780117,5.5612452 5.0813204,5.3880466 4.8887797,5.1721389 4.6916027,5.0158037 4.643129,4.9773726 4.6033083,4.9433022 4.6031129,4.9401021 4.6029003,4.9369132 4.7653388,4.8250834 4.9640515,4.6916219 5.2810005,4.47875 5.3277854,4.4508469 5.3452101,4.4642961 c 0.089102,0.068773 0.2494841,0.2142286 0.3465906,0.314334 0.3311484,0.3413745 0.5093308,0.698157 0.5522666,1.1058325 0.00636,0.060298 0.011633,0.1240448 0.011745,0.14166 l 2.123e-4,0.032024 H 5.785875 5.3157224 Z M 3.064545,3.8523005 C 2.5484123,3.4005552 2.3029223,2.9415334 2.2557806,2.3400587 l -0.00707,-0.090259 H 2.725007 3.2013033 l 0.00698,0.078613 C 3.2346152,2.625053 3.4374649,2.9939989 3.7438932,3.3025956 3.8259256,3.385208 3.8888355,3.4565097 3.8836929,3.461045 3.8785491,3.4656161 3.7223582,3.5730301 3.5365991,3.699824 3.3508397,3.8266175 3.1934444,3.9345092 3.1868318,3.9395829 3.1797929,3.9450286 3.129169,3.9088636 3.064545,3.8523005 Z"
       id="path837"
       inkscape:connector-curvature="0" />
  </g>
  <g
     inkscape:groupmode="layer"
     id="layer1"
     inkscape:label="Overlay"
     sodipodi:insensitive="true"
     style="display:none">
    <circle
       style="display:inline;opacity:0.1;fill:url(#linearGradient1158);fill-opacity:1;stroke:#414548;stroke-width:0.0077439;stroke-opacity:1"
       id="path29"
       cx="4.2333336"
       cy="4.2333331"
       r="3.9648747"
       inkscape:label="Circle silhouette"
       inkscape:highlight-color="4278255615"
       clip-path="none"
       inkscape:export-xdpi="96"
       inkscape:export-ydpi="96"
       sodipodi:insensitive="true" />
  </g>
</svg>
