<?xml version="1.0" encoding="UTF-8" standalone="no"?>
<svg
   xmlns:dc="http://purl.org/dc/elements/1.1/"
   xmlns:cc="http://creativecommons.org/ns#"
   xmlns:rdf="http://www.w3.org/1999/02/22-rdf-syntax-ns#"
   xmlns:svg="http://www.w3.org/2000/svg"
   xmlns="http://www.w3.org/2000/svg"
   xmlns:xlink="http://www.w3.org/1999/xlink"
   xmlns:sodipodi="http://sodipodi.sourceforge.net/DTD/sodipodi-0.dtd"
   xmlns:inkscape="http://www.inkscape.org/namespaces/inkscape"
   enable-background="new"
   width="32"
   height="32"
   viewBox="0 0 8.4666666 8.4666669"
   version="1.1"
   id="svg8"
   inkscape:version="1.0 (4035a4fb49, 2020-05-01)"
   sodipodi:docname="KillingFloor2.svg">
  <defs
     id="defs2">
    <linearGradient
       inkscape:collect="always"
       xlink:href="#linearGradient1156"
       id="linearGradient1158"
       x1="938"
       y1="301.84164"
       x2="170"
       y2="813.84167"
       gradientUnits="userSpaceOnUse"
       gradientTransform="matrix(0.0077439,0,0,0.0077439,-0.05678487,-0.08653876)" />
    <linearGradient
       inkscape:collect="always"
       id="linearGradient1156">
      <stop
         style="stop-color:#333333;stop-opacity:1"
         offset="0"
         id="stop1152" />
      <stop
         style="stop-color:#252525;stop-opacity:1"
         offset="1"
         id="stop1154" />
    </linearGradient>
    <mask
       maskUnits="userSpaceOnUse"
       id="mask862">
      <rect
         inkscape:label="Faded mask"
         y="0.9999876"
         x="1"
         height="30.000025"
         width="30"
         id="rect864"
         style="display:inline;opacity:1;fill:url(#radialGradient866);fill-opacity:1;stroke:none;stroke-width:4.34110594;stroke-opacity:1"
         inkscape:export-xdpi="96"
         inkscape:export-ydpi="96" />
    </mask>
    <radialGradient
       inkscape:collect="always"
       xlink:href="#linearGradient1961"
       id="radialGradient866"
       gradientUnits="userSpaceOnUse"
       gradientTransform="matrix(1.2438841,1.2021521,-1.0766625,1.1139429,29.163729,-6.6607255)"
       cx="-3.1699476"
       cy="16.600925"
       fx="-3.1699476"
       fy="16.600925"
       r="15" />
    <linearGradient
       inkscape:collect="always"
       id="linearGradient1961">
      <stop
         style="stop-color:#696969;stop-opacity:1"
         offset="0"
         id="stop1957" />
      <stop
         style="stop-color:#ffffff;stop-opacity:0"
         offset="1"
         id="stop1959" />
    </linearGradient>
    <clipPath
       id="clipPath1712"
       clipPathUnits="userSpaceOnUse">
      <path
         d="M 2.4081218,1.3544393 2.2122681,1.684135 2.0158977,2.0148641 1.9967773,2.2644613 c -0.01029,0.13711 -0.022412,0.2528886 -0.026872,0.2573486 -0.00445,0.00445 -0.02822,-0.01167 -0.05271,-0.03514 -0.02449,-0.02346 -0.049204,-0.042375 -0.055294,-0.042375 -0.00607,0 -0.010829,0.9092818 -0.00982,2.0200318 0.00106,1.1006399 0.00494,1.991887 0.00827,1.9952269 L 130.27112,134.86981 c 0.007,-0.0276 0.11348,-1.33441 0.11627,-1.42524 l 0.10852,0.10852 0.0165,-0.0744 0.15658,0.15658 c 0.001,0 0.001,-4e-5 0.001,-0.001 10e-4,-0.005 0.011,-0.0789 0.0191,-0.14005 l 1.83606,1.83607 v 5.3e-4 h 5.3e-4 c 5.3e-4,0 1.4e-4,-0.26189 5.3e-4,-0.29766 l 0.39377,0.39378 c 0.01,0.009 0.0212,0.0173 0.0362,0.0263 0.046,0.026 0.0818,0.0367 0.13177,0.0367 0.0239,0 0.0429,-0.005 0.0661,-0.016 l 0.047,0.047 c 0.006,0.005 0.0311,-2e-5 0.0791,-0.016 0.042,-0.014 0.0577,-0.0229 0.0517,-0.0289 l -0.0248,-0.0248 0.006,-0.0124 c 0.018,-0.035 0.0702,-0.0845 0.11317,-0.10852 0.0148,-0.008 0.0401,-0.0142 0.0693,-0.0253 l 0.0568,0.0568 0.0687,-0.0346 c 0.107,-0.055 0.20444,-0.0699 0.27544,-0.0429 0.0486,0.0179 0.0734,0.0178 0.12454,-0.004 l 0.21135,0.21136 c 0.002,0.002 0.005,0.003 0.008,0.003 0.015,0 0.0189,-0.0248 0.0139,-0.0879 -0.007,-0.077 0.002,-0.0963 0.0822,-0.17828 0.083,-0.086 0.0939,-0.10872 0.0879,-0.19172 l -0.006,-0.0615 0.0388,-0.0879 c 0.026,-0.059 0.0379,-0.0861 0.0289,-0.0951 l -0.51366,-0.51366 c 0.0264,-0.0827 0.0507,-0.12125 0.11575,-0.1509 0.078,-0.035 0.0983,-0.064 0.10129,-0.13901 0.002,-0.029 0.0107,-0.0682 0.0227,-0.10025 l 0.0191,-0.0532 -0.0129,-0.092 c -0.013,-0.092 -0.0112,-0.12595 0.008,-0.24495 0.003,-0.014 0.003,-0.0207 0,-0.0227 l -0.0258,-0.0258 c 0.002,-0.007 -10e-4,-0.0107 0.007,-0.0232 0.028,-0.045 0.029,-0.08 0,-0.10801 l -0.27906,-0.27905 -0.002,-0.002 -0.44959,-0.44959 0.0522,-0.0222 0.10542,-0.045 -0.0641,-0.0641 c 0.007,-0.005 0.0536,-0.0227 0.10903,-0.0393 l 0.10284,-0.0326 -0.40566,-0.40566 c 0.0889,-0.003 0.15429,-0.007 0.1664,-0.0124 0.038,-0.018 0.0395,-0.0211 0.0145,-0.0491 -0.015,-0.016 -0.022,-0.0343 -0.0171,-0.0393 0.006,-0.006 0.0987,-0.0228 0.20567,-0.0398 0.316,-0.047 0.29621,-0.04 0.33021,-0.108 0.019,-0.036 0.0467,-0.0637 0.0677,-0.0687 0.02,-0.005 0.2274,-0.0363 0.4594,-0.0703 l 0.42167,-0.0609 L 6.6145834,3.1202231 6.1009197,3.116089 C 5.8934409,3.1143692 5.4012047,3.1150306 5.2038168,3.1155598 L 4.0989748,2.01073 c -0.00391,-0.0039 -0.056948,0.025208 -0.1824181,0.097668 -0.07733,0.04466 -0.1465656,0.080615 -0.1539957,0.080615 -0.00132,0 -0.00519,-0.00414 -0.00723,-0.00517 L 3.692802,2.121315 C 3.685522,2.114045 3.67965,2.109946 3.6773,2.109946 c -0.00169,0 -0.033733,0.03752 -0.047543,0.052193 z"
         style="display:inline;fill:#f9f9f9;fill-opacity:1;stroke-width:0.0159332"
         id="path1714" />
    </clipPath>
  </defs>
  <sodipodi:namedview
     inkscape:snap-nodes="true"
     inkscape:snap-global="true"
     id="base"
     pagecolor="#ffffff"
     bordercolor="#666666"
     borderopacity="1.0"
     inkscape:pageopacity="0.0"
     inkscape:pageshadow="2"
     inkscape:zoom="0.9899495"
     inkscape:cx="-189.97098"
     inkscape:cy="102.87427"
     inkscape:document-units="px"
     inkscape:current-layer="layer1"
     showgrid="true"
     inkscape:window-width="1366"
     inkscape:window-height="712"
     inkscape:window-x="0"
     inkscape:window-y="670"
     inkscape:window-maximized="1"
     inkscape:pagecheckerboard="true"
     units="px"
     inkscape:snap-object-midpoints="true"
     showguides="true"
     inkscape:guide-bbox="true"
     inkscape:document-rotation="0">
    <inkscape:grid
       empspacing="8"
       spacingy="0.26458334"
       spacingx="0.26458334"
       units="px"
       id="grid945"
       type="xygrid" />
    <sodipodi:guide
       inkscape:locked="false"
       id="guide1116"
       orientation="0,1"
       position="8.2020834,8.2020837" />
    <sodipodi:guide
       inkscape:locked="false"
       id="guide1118"
       orientation="1,0"
       position="8.2020834,8.2020837" />
    <sodipodi:guide
       inkscape:locked="false"
       id="guide1120"
       orientation="1,0"
       position="0.26458334,0" />
    <sodipodi:guide
       inkscape:locked="false"
       id="guide1122"
       orientation="0,1"
       position="0.26458334,0.26458334" />
    <sodipodi:guide
       inkscape:locked="false"
       id="guide1126"
       orientation="0,1"
       position="0.52916667,0" />
  </sodipodi:namedview>
  <metadata
     id="metadata5">
    <rdf:RDF>
      <cc:Work
         rdf:about="">
        <dc:format>image/svg+xml</dc:format>
        <dc:type
           rdf:resource="http://purl.org/dc/dcmitype/StillImage" />
        <dc:title />
      </cc:Work>
    </rdf:RDF>
  </metadata>
  <g
     inkscape:groupmode="layer"
     id="layer1"
     inkscape:label="Main"
     style="display:inline">
    <rect
       inkscape:export-ydpi="96"
       inkscape:export-xdpi="96"
       style="display:inline;opacity:1;fill:#fe1a1a;fill-opacity:1;stroke:none;stroke-width:1.14858;stroke-opacity:1"
       id="rect922"
       width="7.9375"
       height="7.9375067"
       x="0.2645832"
       y="0.26458016"
       inkscape:label="Background" />
    <rect
       sodipodi:insensitive="true"
       inkscape:label="Opaque mask"
       y="0.26458016"
       x="0.26458332"
       height="7.9375067"
       width="7.9375"
       id="rect943"
       style="display:inline;opacity:0.214286;fill:#000000;fill-opacity:1;stroke:none;stroke-width:1.14858;stroke-opacity:1"
       inkscape:export-xdpi="96"
       inkscape:export-ydpi="96"
       clip-path="url(#clipPath1712)" />
    <path
       id="path867"
       d="m -23.832358,44.264241 c -0.01603,-0.143581 -0.09048,-0.835731 -0.16544,-1.538111 -0.07496,-0.702381 -0.14507,-1.277056 -0.155794,-1.277056 -0.01072,0 -0.02807,0.05073 -0.03854,0.112741 -0.01048,0.06201 -0.02839,0.118515 -0.03981,0.125571 -0.01142,0.0071 -0.08829,-0.152185 -0.170826,-0.35387 l -0.150067,-0.3667 0.01857,-1.219371 c 0.01022,-0.670654 0.02643,-1.37524 0.03603,-1.565747 l 0.01746,-0.346376 0.227448,-0.181165 0.227448,-0.181165 0.05243,0.08622 c 0.02884,0.04742 0.05964,0.07902 0.06845,0.07022 0.0088,-0.0088 0.02626,-0.117687 0.03879,-0.241959 0.01253,-0.124272 0.036,-0.248675 0.05217,-0.276452 0.02048,-0.03519 0.02965,1.080902 0.03025,3.681887 4.71e-4,2.052814 -0.0037,3.732389 -0.0093,3.732389 -0.0056,0 -0.02325,-0.117475 -0.03928,-0.261055 z m 13.9629739,-3.040945 c 0,-1.603963 0.0045,-2.911004 0.01002,-2.904537 0.0055,0.0065 0.151559,0.23256 0.324555,0.502427 l 0.31454,0.490668 v 1.422713 c 0,1.319287 -0.0043,1.446722 -0.05902,1.752998 -0.03246,0.181658 -0.06265,0.334021 -0.06709,0.338585 -0.0044,0.0046 -0.01731,-0.139523 -0.0286,-0.320192 -0.01129,-0.18067 -0.02997,-0.317754 -0.04152,-0.304632 -0.01155,0.01312 -0.113386,0.449309 -0.226305,0.969304 -0.11292,0.519994 -0.210092,0.950736 -0.215939,0.957203 -0.0058,0.0065 -0.01063,-1.300574 -0.01063,-2.904537 z m -11.2136299,1.56163 c -0.01035,-0.01035 -0.01882,-0.874622 -0.01882,-1.920609 v -1.901793 l 0.07056,-0.103832 0.07055,-0.103832 v 0.09122 c 0,0.100169 0.02929,0.115607 0.08713,0.04592 0.03332,-0.04015 0.0412,-0.03453 0.06929,0.04939 0.0259,0.07735 0.04807,0.09631 0.121085,0.10353 l 0.08938,0.0088 v -0.1791 -0.179141 l 0.155222,-0.153294 0.155223,-0.153294 v 1.929577 c 0,1.867555 -0.0017,1.928075 -0.05161,1.882869 -0.02839,-0.02569 -0.05831,-0.04671 -0.0665,-0.04671 -0.0082,0 -0.02299,0.08717 -0.0329,0.193714 -0.01208,0.130005 -0.04206,0.236747 -0.09113,0.324556 -0.06428,0.115005 -0.08456,0.130841 -0.167572,0.130841 -0.0738,0 -0.108332,-0.01951 -0.157995,-0.08925 l -0.06355,-0.08925 -0.04227,0.08925 c -0.04047,0.08546 -0.08577,0.110763 -0.126102,0.07044 z m 0.968402,-0.0085 c 0.02297,-0.01453 0.1214,-0.04797 0.218722,-0.07431 0.09732,-0.02634 0.17695,-0.05769 0.17695,-0.06966 0,-0.01197 -0.06201,-0.04236 -0.137792,-0.06753 -0.07579,-0.02517 -0.161005,-0.07142 -0.189378,-0.102769 -0.05658,-0.06252 -0.05403,-0.06613 0.109371,-0.154568 0.09576,-0.05182 0.08088,-0.08418 -0.05,-0.108734 -0.0906,-0.01699 -0.09909,-0.02695 -0.09909,-0.116088 v -0.0975 h 0.534348 0.534348 l 0.0089,0.07761 c 0.0088,0.07661 0.01183,0.07772 0.233744,0.08596 0.188811,0.007 0.239657,0.01967 0.3175,0.07905 0.0802,0.06117 0.09269,0.08755 0.09269,0.19583 0,0.116823 0.0093,0.132193 0.139504,0.231397 0.07673,0.05844 0.140227,0.115787 0.141111,0.127429 8.83e-4,0.01164 -0.465118,0.02097 -1.03556,0.02073 -0.655225,-2.83e-4 -1.021783,-0.01016 -0.995394,-0.02685 z m 12.8812349,-0.184388 c -0.14755,-0.164209 -0.207282,-0.211667 -0.266413,-0.211667 -0.06629,0 -0.112326,-0.05242 -0.353243,-0.402166 -0.152362,-0.221192 -0.358202,-0.519642 -0.457422,-0.663223 l -0.180401,-0.261055 h 0.435833 0.435833 l 0.667014,0.857972 c 0.366858,0.471884 0.6670145,0.865584 0.6670145,0.874889 0,0.0093 -0.1705554,0.01692 -0.3790115,0.01692 h -0.379012 z m 2.78266,0.165408 c 0,-0.0099 0.071122,-0.09905 0.1580493,-0.198057 0.2182024,-0.248537 0.1914928,-0.305882 -0.065443,-0.140505 -0.3037374,0.1955 -0.3745049,0.224492 -0.5441623,0.222929 -0.2000563,-0.0018 -0.3448154,-0.04268 -0.5303342,-0.149617 -0.1802319,-0.103888 -0.2436859,-0.20094 -0.2892462,-0.4424 -0.072564,-0.384573 0.012531,-0.649861 0.3224307,-1.005197 0.2721557,-0.312058 0.374842,-0.468795 0.4428426,-0.675939 0.052207,-0.159033 0.091099,-0.217935 0.2396589,-0.362963 0.1646151,-0.1607 0.1769832,-0.181447 0.1723824,-0.289168 l -0.00496,-0.116047 0.1411112,0.0055 0.1411111,0.0055 v -0.127738 c 0,-0.139638 0.056741,-0.207854 0.1728902,-0.207854 0.1559695,0 0.1959206,-0.04311 0.3379179,-0.364611 0.075966,-0.171997 0.1466763,-0.312723 0.1571354,-0.312723 0.010459,0 0.027384,0.0381 0.037612,0.08467 0.010228,0.04657 0.036395,0.08467 0.058149,0.08467 0.040518,0 0.044229,-0.01094 0.097784,-0.288417 0.063955,-0.331353 0.2618737,-0.611969 0.57889,-0.820769 0.098973,-0.06519 0.1894722,-0.168292 0.3258106,-0.371189 0.1144736,-0.170358 0.2337689,-0.312101 0.3030943,-0.360126 0.1466319,-0.101581 0.1630454,-0.159299 0.091375,-0.321322 -0.086021,-0.194466 -0.074507,-0.271658 0.081129,-0.543874 0.076578,-0.133939 0.1671128,-0.33691 0.2011886,-0.451048 0.054565,-0.182764 0.059387,-0.241685 0.040426,-0.493888 -0.011842,-0.157502 -0.024126,-0.375267 -0.027299,-0.483923 -0.00888,-0.304166 -0.00644,-0.296333 -0.092417,-0.296333 -0.056931,0 -0.1120115,-0.0375 -0.207266,-0.141111 -0.1133168,-0.123258 -0.1436771,-0.141084 -0.2399643,-0.140899 -0.5662718,0.0011 -1.3194742,0.391694 -1.6269124,0.843689 -0.1094833,0.160963 -0.1105772,0.161677 -0.2828688,0.184532 -0.178884,0.02373 -0.2984427,0.11391 -0.4042898,0.304944 -0.079907,0.144217 -0.082118,0.15898 -0.080504,0.537601 0.00161,0.377345 -1.128e-4,0.389055 -0.056444,0.381 -0.053114,-0.0076 -0.059316,-0.03255 -0.072215,-0.290534 -0.00776,-0.155222 -0.026811,-0.302599 -0.042333,-0.327504 -0.015522,-0.02491 -0.080615,-0.07804 -0.144651,-0.11808 -0.064036,-0.04004 -0.1436379,-0.107387 -0.1768935,-0.149665 -0.094524,-0.120167 -0.1555637,-0.366179 -0.1569681,-0.632632 -0.00121,-0.229482 0.00453,-0.251953 0.1296662,-0.508 0.072012,-0.147343 0.1401247,-0.299647 0.1513609,-0.338452 0.066049,-0.22811 0.1638215,-0.340742 0.5205027,-0.599607 0.4959506,-0.359942 0.5838046,-0.420671 0.7897781,-0.54593 l 0.1814615,-0.110352 0.2983163,0.0054 c 0.1640738,0.003 0.4370516,0.02519 0.6066175,0.04939 0.1695659,0.0242 0.3293378,0.04399 0.3550491,0.04399 0.025711,0 0.08779,-0.05715 0.1379522,-0.127 0.050162,-0.06985 0.1081744,-0.127 0.1289154,-0.127 0.020741,0 0.1501708,0.0563 0.287622,0.125106 0.216432,0.108347 0.2631308,0.145182 0.3485911,0.274966 0.055043,0.08359 0.1953624,0.226947 0.317314,0.32418 0.23669328,0.188718 0.32648368,0.284346 0.39802508,0.423901 0.028077,0.05477 0.1020789,0.120318 0.1896344,0.167972 0.2397963,0.130513 0.2835961,0.300119 0.1371417,0.531054 -0.090489,0.142686 -0.081442,0.183393 0.04098,0.184389 0.045612,3.73e-4 0.050603,0.01532 0.035468,0.106266 -0.079161,0.475645 -0.08375,0.61145 -0.033122,0.980327 l 0.050409,0.367284 -0.077485,0.211667 c -0.046896,0.128105 -0.081413,0.286843 -0.087433,0.402094 -0.015729,0.301085 -0.097835,0.412776 -0.4071594,0.553873 -0.31601048,0.144146 -0.39699978,0.264434 -0.53782898,0.798804 -0.1742265,0.661092 -0.3909509,1.029105 -1.1907241,2.021933 -0.1540513,0.191237 -0.2733712,0.354426 -0.2651551,0.362642 0.00822,0.0082 0.1586659,-0.01998 0.3343331,-0.06265 0.2461627,-0.0598 0.4294003,-0.08273 0.7991727,-0.1 0.2638778,-0.01233 0.6530792,-0.03384 0.86489228,-0.04781 0.4352968,-0.02871 0.4886636,-0.04976 0.8002189,-0.315603 l 0.1693333,-0.144487 0.024831,0.135327 c 0.013657,0.07443 0.027312,0.138398 0.030345,0.142153 0.00303,0.0038 0.1252093,-0.03071 0.2715026,-0.07658 0.3685052,-0.115551 0.3734551,-0.106232 0.1776597,0.33447 l -0.1552248,0.349386 0.019235,0.245881 c 0.02579,0.329667 -0.018541,0.426878 -0.3517271,0.771289 -0.3180455,0.32876 -0.351952,0.402756 -0.3262015,0.711886 0.020761,0.24924 0.00402,0.352063 -0.057309,0.352063 -0.052203,0 -0.071233,-0.07159 -0.083907,-0.315652 -0.00909,-0.174977 -0.1246076,-0.678382 -0.1649279,-0.718702 -0.020359,-0.02036 -0.4408726,0.09545 -0.62605378,0.172414 -0.2061239,0.08567 -0.3073358,0.08876 -0.5006417,0.01529 -0.2845762,-0.108162 -0.6757433,-0.04776 -1.1038852,0.170443 l -0.278082,0.141727 0.1030743,-0.184314 c 0.06925,-0.123831 0.090467,-0.184315 0.064654,-0.184315 -0.071447,0 -0.5275614,0.165144 -0.6695372,0.242417 -0.1721615,0.0937 -0.3801556,0.294255 -0.4527508,0.436553 l -0.053859,0.105573 0.06968,0.01749 c 0.1170517,0.02938 0.079423,0.06498 -0.1491381,0.141095 -0.216918,0.07224 -0.3174038,0.0896 -0.3174038,0.05484 z m 3.85535498,-7.258317 c 0.017184,-0.134678 0.026208,-0.250662 0.020053,-0.257742 -0.00616,-0.0071 -0.053646,0.01 -0.1055354,0.03793 -0.1078901,0.0581 -0.167566,0.165394 -0.1409135,0.253349 0.025373,0.08373 0.1545646,0.251303 0.1768359,0.229369 0.010074,-0.0099 0.032376,-0.128231 0.04956,-0.26291 z M -16.979121,42.476432 c -0.107614,-0.05384 -0.288673,-0.166125 -0.402352,-0.249529 -0.113679,-0.0834 -0.210219,-0.148254 -0.214534,-0.144112 -0.0043,0.0041 0.0056,0.0428 0.02196,0.08591 0.05356,0.140882 -0.0018,0.116239 -0.195968,-0.08728 -0.502677,-0.526794 -0.74078,-1.084937 -0.745341,-1.747169 -0.0029,-0.422127 0.05927,-0.717044 0.218701,-1.037314 0.113487,-0.227978 0.118095,-0.23287 0.227761,-0.241809 0.09407,-0.0077 0.149414,-0.04315 0.346797,-0.222351 0.129177,-0.117275 0.228421,-0.219673 0.220543,-0.227552 -0.0079,-0.0079 -0.09215,9.88e-4 -0.187263,0.0197 -0.09512,0.01871 -0.180304,0.02666 -0.189305,0.01766 -0.0323,-0.03229 0.146032,-0.184051 0.329679,-0.280554 0.785183,-0.412603 1.835031,-0.258232 2.472479,0.363555 0.50082,0.488516 0.633594,1.21655 0.394142,2.161184 -0.07626,0.300824 -0.231309,0.751525 -0.265901,0.772903 -0.01168,0.0072 -0.05731,-0.02452 -0.101396,-0.07053 -0.0943,-0.09843 -0.128188,-0.103671 -0.175934,-0.02722 -0.02888,0.04624 -0.06581,0.05644 -0.204344,0.05644 -0.093,0 -0.169094,0.0084 -0.169094,0.01877 0,0.01032 0.0762,0.09812 0.169333,0.195113 0.09313,0.09699 0.169333,0.187928 0.169333,0.202088 0,0.03467 -0.105022,0.126447 -0.225777,0.197304 -0.158619,0.09307 -0.471355,0.194456 -0.790223,0.256172 -0.502109,0.09718 -0.48575,0.09745 -0.703292,-0.01139 z m 0.948024,-1.09887 c 0.47424,-0.23139 0.75198,-0.796287 0.661344,-1.345111 -0.163429,-0.989601 -1.243803,-1.395709 -1.906706,-0.716722 -0.679506,0.695993 -0.376142,1.91616 0.534964,2.151686 0.222761,0.05758 0.473122,0.02592 0.710398,-0.08985 z m 3.331099,0.955813 c -0.08438,-0.01025 -0.104121,-0.02314 -0.09284,-0.06062 0.01078,-0.03581 0.214033,-0.935973 0.214136,-0.948366 1.1e-5,-0.0013 0.123836,-0.0032 0.275167,-0.0043 0.362105,-0.0026 0.551526,-0.07317 0.762431,-0.284077 0.224667,-0.224666 0.345913,-0.529354 0.387577,-0.973961 0.04513,-0.481595 -0.192071,-0.935745 -0.592639,-1.134685 -0.229016,-0.11374 -0.457503,-0.148924 -0.698615,-0.107578 -0.512502,0.08788 -0.851073,0.397207 -0.965331,0.881939 -0.05354,0.22713 -0.05375,0.381754 -8.58e-4,0.632555 0.07786,0.369226 0.197731,0.550829 0.564428,0.855128 0.07551,0.06266 0.07764,0.07179 0.06155,0.263706 -0.02223,0.265215 -0.219195,0.673277 -0.324973,0.673277 -0.05099,0 -0.458299,-0.460536 -0.614444,-0.694733 -0.773811,-1.160614 -0.554818,-2.268482 0.624743,-3.160513 l 0.19872,-0.15028 0.30928,-0.0081 0.30928,-0.0081 -0.136611,-0.08467 c -0.306099,-0.189709 -0.295834,-0.201051 0.144154,-0.159279 0.685609,0.06509 1.167002,0.258119 1.515203,0.607564 0.347729,0.34897 0.485989,0.714571 0.514654,1.360895 0.02585,0.582838 -0.06211,1.052067 -0.282497,1.506931 -0.221304,0.456768 -0.659541,0.813902 -1.162236,0.947146 -0.168936,0.04478 -0.797414,0.07593 -1.010281,0.05008 z m 4.0725359,-1.560017 -0.267966,-0.01577 -0.0333,-0.225777 c -0.01832,-0.124178 -0.03426,-0.267053 -0.03542,-0.3175 l -0.0021,-0.09172 h 0.581255 c 0.543364,0 0.586625,-0.0038 0.663648,-0.05867 0.244277,-0.173941 0.215768,-0.45707 -0.06914,-0.6866 l -0.108344,-0.08729 -0.511766,-0.01411 -0.511767,-0.01411 -0.177167,-0.295617 c -0.09744,-0.16259 -0.177167,-0.305465 -0.177167,-0.3175 0,-0.01204 0.393041,-0.02188 0.873423,-0.02188 h 0.873424 l 0.163743,0.136364 c 0.552416,0.46005 0.725726,0.843321 0.532339,1.177254 -0.106429,0.183776 -0.455671,0.52589 -0.726149,0.711326 l -0.216116,0.148167 -0.291721,-0.0054 c -0.160446,-0.003 -0.412306,-0.0125 -0.559688,-0.02117 z M -23.613607,39.825845 c 0,-0.113465 0.01004,-0.133537 0.09172,-0.183332 0.05045,-0.03075 0.104423,-0.06138 0.119945,-0.06806 0.01552,-0.0067 -0.0021,-0.03669 -0.03921,-0.0667 l -0.06743,-0.05456 0.195029,-0.07453 c 0.19414,-0.07418 0.198565,-0.07452 0.970542,-0.07294 l 0.775512,0.0016 -0.183444,0.05775 c -0.100895,0.03176 -0.189605,0.06367 -0.197134,0.0709 -0.0075,0.0072 0.01613,0.03564 0.05258,0.06313 l 0.06627,0.04998 -0.186632,0.07932 -0.186632,0.07932 v 0.122766 0.122766 h -0.705555 -0.705556 V 39.82584 Z m -2.000504,-4.225863 c -0.0018,-1.967442 0.0056,-3.577167 0.01635,-3.577167 0.01079,0 0.05511,0.034 0.09848,0.07555 0.04337,0.04155 0.08536,0.06906 0.09329,0.06112 0.0079,-0.0079 0.02934,-0.213137 0.04756,-0.455999 l 0.03313,-0.441566 0.347843,-0.585142 0.347843,-0.585141 v 1.445364 c 0,0.794951 0.0074,1.445365 0.01637,1.445365 0.009,0 0.307466,-0.282322 0.663246,-0.627383 l 0.646874,-0.627382 0.246044,-0.0767 c 0.135323,-0.04218 0.249579,-0.07316 0.2539,-0.06884 0.0043,0.0043 -0.0057,0.0811 -0.02223,0.170621 -0.01655,0.08952 -0.0247,0.168149 -0.01812,0.174732 0.0066,0.0066 0.109963,-0.102611 0.229733,-0.242652 0.11977,-0.14004 0.224555,-0.254619 0.232855,-0.254619 0.0083,0 0.04007,0.03175 0.07059,0.07056 0.03052,0.03881 0.06628,0.07056 0.07945,0.07056 0.01317,0 0.136008,-0.06472 0.272971,-0.143816 0.335332,-0.19366 0.378067,-0.212386 0.271688,-0.119049 -0.04978,0.04368 -0.77045,0.69537 -1.601478,1.448198 l -1.510959,1.368778 -1.33e-4,1.059506 c -9.9e-5,0.786712 -0.01129,1.146401 -0.04347,1.397 -0.02384,0.185622 -0.04675,0.349074 -0.05091,0.363228 -0.0042,0.01415 -0.03714,-0.147772 -0.07327,-0.359834 -0.03614,-0.212061 -0.07514,-0.385567 -0.08667,-0.385567 -0.01154,0 -0.02899,0.04128 -0.03879,0.09172 -0.0098,0.05045 -0.03857,0.186088 -0.06394,0.301425 l -0.04612,0.209702 -0.06614,-0.130151 c -0.08001,-0.157438 -0.12348,-0.190866 -0.12348,-0.09496 0,0.104964 -0.195861,2.508075 -0.208433,2.557372 -0.0059,0.02328 -0.01227,-1.567392 -0.01407,-3.534834 z m 2.03343,2.975077 c 0.0052,-0.01294 0.05968,-0.158993 0.121122,-0.324555 l 0.111714,-0.301022 0.297508,-0.0011 0.297508,-0.0011 -0.127,-0.07651 -0.127,-0.07651 0.910167,-0.0074 c 0.500591,-0.0041 1.319741,-0.0041 1.820333,0 l 0.910167,0.0074 -0.747889,0.108583 c -0.411339,0.05972 -0.776973,0.115201 -0.812521,0.123288 -0.03843,0.0087 -0.08702,0.05859 -0.119858,0.122955 -0.06148,0.120505 -0.02525,0.108604 -0.585299,0.19226 -0.19055,0.02846 -0.354514,0.05981 -0.364363,0.06966 -0.0099,0.0099 0.0033,0.04131 0.02915,0.06991 0.04437,0.04903 0.04294,0.05388 -0.02502,0.08484 -0.08445,0.03848 -1.603938,0.04738 -1.588718,0.0093 z m 17.0462918,-1.212107 c -0.050127,-0.632025 -0.090758,-1.171361 -0.09029,-1.198525 4.69e-4,-0.02716 -0.01055,-0.04939 -0.02448,-0.04939 -0.01393,0 -0.03443,0.169866 -0.04555,0.377481 -0.01112,0.207615 -0.02888,0.391503 -0.03947,0.40864 -0.01059,0.01714 -0.08535,-0.114647 -0.166118,-0.292853 l -0.1468649,-0.323974 v -0.992022 -0.992022 l -0.130468,-0.228551 c -0.07176,-0.125703 -0.156952,-0.273001 -0.189321,-0.327329 l -0.05885,-0.09878 0.125821,0.100753 c 0.0692,0.05541 0.313146,0.250435 0.542099,0.433378 l 0.416278,0.332626 -1.975e-4,1.443399 c -1.411e-4,1.0338 -0.012422,1.599169 -0.043272,1.99232 -0.02369,0.301907 -0.04647,0.552318 -0.050622,0.55647 -0.00415,0.0042 -0.048562,-0.509562 -0.098689,-1.141587 z m -14.0284178,-2.743692 -0.002,-2.610556 0.131854,0.232834 c 0.07252,0.128058 0.140414,0.232833 0.150876,0.232833 0.01046,0 0.03032,-0.07921 0.04413,-0.17602 l 0.0251,-0.176019 0.275167,0.347171 0.275167,0.347172 v 1.349551 1.349551 l 0.627944,0.02005 c 0.588007,0.01878 0.638266,0.02462 0.790223,0.09182 0.08925,0.03947 0.162265,0.07955 0.16225,0.08907 -1.4e-5,0.0095 -0.06613,0.04421 -0.146924,0.07708 -0.08079,0.03287 -0.150198,0.07097 -0.154233,0.08467 -0.004,0.01369 0.113934,0.113795 0.262154,0.222451 0.14822,0.108655 0.275536,0.20708 0.282926,0.218722 0.0074,0.01164 -0.391561,0.02117 -0.886557,0.02117 h -0.899993 l -0.09651,-0.132282 c -0.05308,-0.07275 -0.104145,-0.143477 -0.113481,-0.15716 -0.01584,-0.02322 -0.414889,0.197385 -0.502248,0.277657 -0.0217,0.01994 -0.08094,0.230767 -0.131664,0.468515 l -0.09222,0.43227 z m 6.103082,2.280822 c -0.0132,-0.02043 -0.02811,-1.036467 -0.03314,-2.257848 l -0.0091,-2.220693 0.08391,-0.04339 c 0.07772,-0.04019 0.08906,-0.03934 0.15376,0.01155 l 0.06985,0.05495 0.285425,-0.288529 0.285424,-0.288529 3.53e-4,2.20537 c 3.19e-4,1.985181 -0.0041,2.20708 -0.04429,2.2225 -0.09172,0.0352 -0.119965,0.01574 -0.138778,-0.09561 -0.02452,-0.145101 -0.06099,-0.166588 -0.0845,-0.04978 -0.03695,0.183528 -0.04223,0.190747 -0.139561,0.190747 h -0.09324 l -0.02013,-0.25727 c -0.01107,-0.141499 -0.02979,-0.246274 -0.0416,-0.232834 -0.01181,0.01344 -0.06978,0.259387 -0.128816,0.546548 -0.05904,0.287161 -0.110537,0.526131 -0.11444,0.531044 -0.0039,0.0049 -0.01789,-0.0078 -0.03109,-0.02822 z m -3.114326,-2.14912 v -2.050813 l 0.204611,4.94e-4 0.204611,4.93e-4 0.105834,0.177818 0.105833,0.177817 v 0.372023 c 0,0.392023 0.01718,0.436924 0.122626,0.320412 0.03839,-0.04242 0.04699,-0.119063 0.04828,-0.430389 0.0013,-0.305112 0.01194,-0.403477 0.05487,-0.505778 0.05297,-0.126232 0.0533,-0.11518 0.05487,1.827846 l 0.0016,1.954845 -0.101456,0.04838 c -0.09771,0.04659 -0.102947,0.04634 -0.141811,-0.0068 -0.04299,-0.05879 -0.03897,-0.05986 -0.223419,0.0599 -0.05231,0.03396 -0.0622,0.02851 -0.110278,-0.06076 -0.04678,-0.08686 -0.126589,-0.134155 -0.129766,-0.0769 -6.47e-4,0.01164 -0.0451,0.07091 -0.09878,0.131703 l -0.0976,0.110533 z m -5.516122,1.370956 c -0.247627,-0.337512 -0.662211,-0.900995 -0.921297,-1.252184 l -0.471064,-0.638526 0.258075,-0.256006 0.258074,-0.256006 0.686219,0.81779 0.686218,0.817791 -0.03454,0.154353 c -0.019,0.08489 -0.03758,0.154352 -0.04128,0.154352 -0.0037,0 -0.06129,-0.03098 -0.127958,-0.06885 -0.06667,-0.03787 -0.131466,-0.06252 -0.143992,-0.05478 -0.01253,0.0077 -0.02277,0.08927 -0.02277,0.181175 0,0.129729 0.02589,0.231924 0.115779,0.456945 0.202582,0.507156 0.222203,0.55796 0.215421,0.557781 -0.0037,-8.5e-5 -0.209249,-0.276321 -0.456877,-0.613833 z m 6.778976,0.494064 c 0.117705,-0.08228 0.115182,-0.105833 -0.01134,-0.105833 -0.09814,0 -0.100884,-0.0025 -0.05645,-0.05161 0.06124,-0.06766 0.05951,-0.0815 -0.02385,-0.190787 -0.04853,-0.06362 -0.07056,-0.128334 -0.07056,-0.207275 v -0.114772 h 0.477903 0.477903 l 0.0089,0.07761 c 0.0079,0.06866 0.04716,0.09619 0.340542,0.238795 l 0.331611,0.161183 v 0.128094 0.128094 h -0.78277 -0.782769 z m 5.945308,-0.324569 c -0.09516,-0.110434 -0.149562,-0.14509 -0.308868,-0.196767 -0.10635,-0.0345 -0.196533,-0.05955 -0.200408,-0.05568 -0.0039,0.0039 0.0055,0.06275 0.02077,0.130844 0.0153,0.06809 0.02411,0.141276 0.01958,0.162639 -0.0045,0.02136 -0.322561,-0.440427 -0.706736,-1.026198 l -0.6985,-1.065039 v -0.931399 c 0,-0.512492 0.01077,-0.91934 0.02395,-0.904588 0.01317,0.01475 0.283049,0.412773 0.599722,0.884504 l 0.57577,0.857693 0.01411,-1.204256 0.01411,-1.204256 0.180306,0.181942 c 0.16496,0.166456 0.18148,0.194152 0.194091,0.325397 0.01308,0.136113 0.04453,0.184879 0.06999,0.108508 0.009,-0.02711 0.02776,-0.0276 0.0835,-0.0022 0.07133,0.0325 0.07198,0.03594 0.0904,0.479445 0.02148,0.517245 0.04818,0.829583 0.06638,0.776479 0.007,-0.02042 0.02898,-0.141067 0.04885,-0.268111 0.03174,-0.202916 0.03652,-0.02947 0.03937,1.427065 0.0018,0.91193 5.6e-5,1.658049 -0.0038,1.658042 -0.0039,-8e-6 -0.05903,-0.06033 -0.122561,-0.134056 z m 1.2867269,-0.01093 c -0.256721,-0.162673 -0.537954,-0.457392 -0.645565,-0.676522 -0.129203,-0.263097 -0.174544,-0.512371 -0.191942,-1.055257 -0.02794,-0.871988 0.117411,-1.533447 0.431869,-1.96528 0.0524,-0.07196 0.126554,-0.151331 0.164783,-0.17638 l 0.06951,-0.04554 -0.05544,0.129331 c -0.03049,0.07113 -0.05544,0.135968 -0.05544,0.144081 0,0.0081 0.131616,-0.110415 0.292481,-0.263395 0.160865,-0.152981 0.366757,-0.322596 0.457539,-0.376924 l 0.165059,-0.09878 h 0.909839 c 0.9894872,0 1.0089388,0.003 0.944682,0.143993 -0.01879,0.04123 -0.02816,0.08097 -0.02082,0.0883 0.0073,0.0073 0.1697359,0.04903 0.3608906,0.09267 l 0.3475539,0.07933 -0.9319755,0.0025 -0.931975,0.0025 -0.178577,0.105642 c -0.522772,0.309258 -0.850711,0.717977 -0.979522,1.220803 -0.07565,0.295327 -0.04455,0.8117 0.06969,1.157111 0.04877,0.147461 0.136108,0.357011 0.194074,0.465667 l 0.105392,0.197555 0.656167,0.0076 0.656167,0.0076 v 0.422813 0.422813 h -0.756606 c -0.621564,0 -0.766384,-0.0074 -0.811389,-0.04144 -0.09082,-0.06869 -0.12457,-0.05429 -0.09712,0.04144 0.01336,0.04657 0.02199,0.08455 0.0192,0.0844 -0.0028,-1.41e-4 -0.08764,-0.05258 -0.18853,-0.116509 z M -21.892051,34.339284 v -2.001532 l 0.189078,-0.170649 c 0.103993,-0.09386 0.192898,-0.16683 0.197566,-0.162162 0.0047,0.0047 0.02934,0.163307 0.05484,0.352529 0.02549,0.189221 0.05378,0.336609 0.06286,0.327527 0.0091,-0.0091 0.03607,-0.171313 0.05997,-0.360513 l 0.04346,-0.344002 0.09123,-0.0088 0.09123,-0.0088 v 2.18901 2.189011 h -0.109748 c -0.101689,0 -0.110935,-0.0067 -0.125907,-0.09172 -0.09813,-0.556961 -0.142154,-0.756344 -0.159725,-0.723309 -0.01139,0.02141 -0.02914,0.15322 -0.03945,0.29292 -0.01031,0.1397 -0.02628,0.314325 -0.03549,0.388056 l -0.01674,0.134056 h -0.151587 -0.151586 z m 9.27621,1.715252 c -0.06857,-0.08761 -0.06984,-0.08797 -0.101816,-0.02822 -0.02919,0.05454 -0.05592,0.0605 -0.271275,0.0605 h -0.238897 v -2.257778 c 0,-1.241778 0.0056,-2.257778 0.01236,-2.257778 0.0068,0 0.0534,0.05715 0.103562,0.127 0.09853,0.137197 0.13808,0.158069 0.13808,0.07286 0,-0.119287 0.02945,-0.14342 0.174995,-0.14342 0.116999,0 0.143224,0.0095 0.155495,0.05645 0.02104,0.08046 0.05443,0.06983 0.08861,-0.02822 0.01986,-0.05698 0.04845,-0.08467 0.08743,-0.08467 h 0.05791 v 2.286 2.286 h -0.06851 c -0.04328,0 -0.09408,-0.03268 -0.137947,-0.08872 z"
       style="fill:#000000;stroke-width:0.0282222" />
    <path
       inkscape:label="KF 2"
       sodipodi:nodetypes="cssccsccscccccssssccccscsssssccccsssssssssssssscsscsssscscsssssssccsssscsssssccscscssscccsscsccscsssscsssscsssscsscccccsccccsccccccsssccccccccccsscscccsssccscssssscsscssccssccsscccssccccccccscsssccsscsccccccsscscccc"
       style="fill:#000000;stroke-width:0.0282222"
       d="m -26.560228,15.811567 c -0.01603,-0.143581 -0.09048,-0.835731 -0.16544,-1.538111 -0.07496,-0.702381 -0.14507,-1.277056 -0.155794,-1.277056 -0.01072,0 -0.02807,0.05073 -0.03854,0.112741 -0.01048,0.06201 -0.02839,0.118515 -0.03981,0.125571 -0.01142,0.0071 -0.08829,-0.152185 -0.170826,-0.35387 l -0.150067,-0.3667 0.01857,-1.219371 c 0.01022,-0.670654 0.02643,-1.3752396 0.03603,-1.5657466 l 0.01746,-0.346376 0.227448,-0.181165 0.227448,-0.181165 0.05243,0.08622 c 0.02884,0.04742 0.05964,0.07902 0.06845,0.07022 0.0088,-0.0088 0.02626,-0.117687 0.03879,-0.241959 0.01253,-0.124272 0.036,-0.248675 0.05217,-0.276452 0.02048,-0.03519 0.02965,1.080902 0.03025,3.6818866 4.71e-4,2.052814 -0.0037,3.732389 -0.0093,3.732389 -0.0056,0 -0.02325,-0.117475 -0.03928,-0.261055 z m 19.3816418,-1.506795 c 0,-0.0099 0.071122,-0.09905 0.1580493,-0.198057 0.2182024,-0.248537 0.1914928,-0.305882 -0.065443,-0.140505 -0.3037374,0.1955 -0.3745049,0.224492 -0.5441623,0.222929 -0.2000563,-0.0018 -0.3448154,-0.04268 -0.5303342,-0.149617 -0.1802319,-0.103888 -0.2436859,-0.20094 -0.2892462,-0.4424 -0.072564,-0.384573 0.012531,-0.649861 0.3224307,-1.005197 0.2721557,-0.312058 0.374842,-0.468795 0.4428426,-0.675939 0.052207,-0.159033 0.091099,-0.217935 0.2396589,-0.362963 0.1646151,-0.1607 0.1769832,-0.181447 0.1723824,-0.289168 l -0.00496,-0.116047 0.1411112,0.0055 0.1411111,0.0055 V 11.03107 c 0,-0.139638 0.056741,-0.207854 0.1728902,-0.207854 0.1559695,0 0.1959206,-0.04311 0.3379179,-0.364611 0.075966,-0.171997 0.1466763,-0.312723 0.1571354,-0.312723 0.010459,0 0.027384,0.0381 0.037612,0.08467 0.010228,0.04657 0.036395,0.08467 0.058149,0.08467 0.040518,0 0.044229,-0.01094 0.097784,-0.288417 0.063955,-0.3313526 0.2618737,-0.6119686 0.57889,-0.8207686 0.098973,-0.06519 0.1894722,-0.168292 0.3258106,-0.371189 0.1144736,-0.170358 0.2337689,-0.312101 0.3030943,-0.360126 0.1466319,-0.101581 0.1630454,-0.159299 0.091375,-0.321322 -0.086021,-0.194466 -0.074507,-0.271658 0.081129,-0.543874 0.076578,-0.133939 0.1671128,-0.33691 0.2011886,-0.451048 0.054565,-0.182764 0.059387,-0.241685 0.040426,-0.493888 -0.011842,-0.157502 -0.024126,-0.375267 -0.027299,-0.483923 -0.00888,-0.304166 -0.00644,-0.296333 -0.092417,-0.296333 -0.056931,0 -0.1120115,-0.0375 -0.207266,-0.141111 -0.1133168,-0.123258 -0.1436771,-0.141084 -0.2399643,-0.140899 -0.5662718,0.0011 -1.3194742,0.391694 -1.6269124,0.843689 -0.1094833,0.160963 -0.1105772,0.161677 -0.2828688,0.184532 -0.178884,0.02373 -0.2984427,0.11391 -0.4042898,0.304944 -0.079907,0.144217 -0.082118,0.15898 -0.080504,0.537601 0.00161,0.377345 -1.128e-4,0.389055 -0.056444,0.381 -0.053114,-0.0076 -0.059316,-0.03255 -0.072215,-0.290534 -0.00776,-0.155222 -0.026811,-0.302599 -0.042333,-0.327504 -0.015522,-0.02491 -0.080615,-0.07804 -0.144651,-0.11808 -0.064036,-0.04004 -0.1436379,-0.107387 -0.1768935,-0.149665 -0.094524,-0.120167 -0.1555637,-0.366179 -0.1569681,-0.632632 -0.00121,-0.229482 0.00453,-0.251953 0.1296662,-0.508 0.072012,-0.147343 0.1401247,-0.299647 0.1513609,-0.338452 0.066049,-0.22811 0.1638215,-0.340742 0.5205028,-0.599607 0.4959506,-0.359942 0.5838046,-0.420671 0.7897781,-0.54593 l 0.1814614,-0.110352 0.2983163,0.0054 c 0.1640738,0.003 0.4370516,0.02519 0.6066175,0.04939 0.1695659,0.0242 0.3293378,0.04399 0.3550491,0.04399 0.025711,0 0.08779,-0.05715 0.1379522,-0.127 0.050162,-0.06985 0.1081744,-0.127 0.1289154,-0.127 0.020741,0 0.1501708,0.0563 0.287622,0.125106 0.216432,0.108347 0.2631308,0.145182 0.3485911,0.274966 0.055043,0.08359 0.1953624,0.226947 0.317314,0.32418 0.2366933,0.188718 0.3264837,0.284346 0.3980251,0.423901 0.028077,0.05477 0.1020789,0.120318 0.1896344,0.167972 0.2397963,0.130513 0.2835961,0.300119 0.1371417,0.531054 -0.090489,0.142686 -0.081442,0.183393 0.04098,0.184389 0.045612,3.73e-4 0.050603,0.01532 0.035468,0.106266 -0.079161,0.475645 -0.08375,0.61145 -0.033122,0.980327 l 0.050409,0.367284 -0.077485,0.211667 c -0.046896,0.128105 -0.081413,0.286843 -0.087433,0.402094 -0.015729,0.301085 -0.097835,0.412776 -0.4071594,0.553873 -0.3160105,0.144146 -0.3969998,0.264434 -0.537829,0.798804 -0.1742265,0.6610916 -0.3909509,1.0291046 -1.1907241,2.0219326 -0.1540513,0.191237 -0.2733712,0.354426 -0.2651551,0.362642 0.00822,0.0082 0.1586659,-0.01998 0.3343331,-0.06265 0.2461627,-0.0598 0.4294003,-0.08273 0.7991727,-0.1 0.2638778,-0.01233 0.6530792,-0.03384 0.8648923,-0.04781 0.4352968,-0.02871 0.4886636,-0.04976 0.8002189,-0.315603 l 0.1693333,-0.144487 0.024831,0.135327 c 0.013657,0.07443 0.027312,0.138398 0.030345,0.142153 0.00303,0.0038 0.1252093,-0.03071 0.2715026,-0.07658 0.3685052,-0.115551 0.3734551,-0.106232 0.1776597,0.33447 l -0.1552248,0.349386 0.019235,0.245881 c 0.02579,0.329667 -0.018541,0.426878 -0.3517271,0.771289 -0.3180455,0.32876 -0.351952,0.402756 -0.3262015,0.711886 0.020761,0.24924 0.00402,0.352063 -0.057309,0.352063 -0.052203,0 -0.071233,-0.07159 -0.083907,-0.315652 -0.00909,-0.174977 -0.1246076,-0.678382 -0.1649279,-0.718702 -0.020359,-0.02036 -0.4408726,0.09545 -0.6260538,0.172414 -0.2061239,0.08567 -0.3073358,0.08876 -0.5006417,0.01529 -0.2845762,-0.108162 -0.6757433,-0.04776 -1.1038852,0.170443 l -0.278082,0.141727 0.1030743,-0.184314 c 0.06925,-0.123831 0.090467,-0.184315 0.064654,-0.184315 -0.071447,0 -0.5275613,0.165144 -0.6695371,0.242417 -0.1721615,0.0937 -0.3801556,0.294255 -0.4527508,0.436553 l -0.053859,0.105573 0.06968,0.01749 c 0.1170517,0.02938 0.079423,0.06498 -0.1491381,0.141095 -0.216918,0.07224 -0.3174038,0.0896 -0.3174038,0.05484 z m 3.855355,-7.2583166 c 0.017184,-0.134678 0.026208,-0.250662 0.020053,-0.257742 -0.00616,-0.0071 -0.053646,0.01 -0.1055354,0.03793 -0.1078901,0.0581 -0.167566,0.165394 -0.1409135,0.253349 0.025373,0.08373 0.1545646,0.251303 0.1768359,0.229369 0.010074,-0.0099 0.032376,-0.128231 0.04956,-0.26291 z M -26.341477,11.373171 c 0,-0.113465 0.01004,-0.133537 0.09172,-0.183332 0.05045,-0.03075 0.104423,-0.06138 0.119945,-0.06806 0.01552,-0.0067 -0.0021,-0.03669 -0.03921,-0.0667 l -0.06743,-0.05456 0.195029,-0.07453 c 0.19414,-0.07418 0.198565,-0.07452 0.970543,-0.07294 l 0.775511,0.0016 -0.183444,0.05775 c -0.100895,0.03176 -0.189605,0.06367 -0.197134,0.0709 -0.0075,0.0072 0.01613,0.03564 0.05258,0.06313 l 0.06627,0.04998 -0.186632,0.07932 -0.186632,0.07932 v 0.122766 0.122766 h -0.705555 -0.705556 v -0.127415 z m -2.000504,-4.2258626 c -0.0018,-1.967442 0.0056,-3.577167 0.01635,-3.577167 0.01079,0 0.05511,0.034 0.09848,0.07555 0.04337,0.04155 0.08536,0.06906 0.09329,0.06112 0.0079,-0.0079 0.02934,-0.213137 0.04756,-0.455999 l 0.03313,-0.441566 0.347843,-0.585142 0.347843,-0.585141 v 1.445364 c 0,0.794951 0.0074,1.445365 0.01637,1.445365 0.009,0 0.307466,-0.282322 0.663246,-0.627383 l 0.646874,-0.627382 0.246045,-0.0767 c 0.135323,-0.04218 0.249579,-0.07316 0.2539,-0.06884 0.0043,0.0043 -0.0057,0.0811 -0.02223,0.170621 -0.01655,0.08952 -0.0247,0.168149 -0.01812,0.174732 0.0066,0.0066 0.109963,-0.102611 0.229733,-0.242652 0.11977,-0.14004 0.224555,-0.254619 0.232855,-0.254619 0.0083,0 0.04007,0.03175 0.07059,0.07056 0.03052,0.03881 0.06628,0.07056 0.07945,0.07056 0.01317,0 0.136008,-0.06472 0.272971,-0.143816 0.335332,-0.19366 0.378067,-0.212386 0.271688,-0.119049 -0.04978,0.04368 -0.77045,0.69537 -1.601478,1.448198 l -1.510959,1.368778 -1.33e-4,1.059506 c -9.9e-5,0.786712 -0.01129,1.146401 -0.04347,1.397 -0.02384,0.185622 -0.04675,0.349074 -0.05091,0.363228 -0.0042,0.01415 -0.03714,-0.147772 -0.07327,-0.359834 -0.03614,-0.212061 -0.07514,-0.385567 -0.08667,-0.385567 -0.01154,0 -0.02899,0.04128 -0.03879,0.09172 -0.0098,0.05045 -0.03857,0.186088 -0.06394,0.301425 l -0.04612,0.209702 -0.06614,-0.130151 c -0.08001,-0.157438 -0.12348,-0.190866 -0.12348,-0.09496 0,0.104964 -0.195861,2.5080746 -0.208433,2.5573716 -0.0059,0.02328 -0.01227,-1.5673916 -0.01407,-3.5348336 z m 2.03343,2.9750766 c 0.0052,-0.01294 0.05968,-0.1589926 0.121122,-0.3245546 l 0.111714,-0.301022 0.297508,-0.0011 0.297508,-0.0011 -0.127,-0.07651 -0.126999,-0.07651 0.910167,-0.0074 c 0.500591,-0.0041 1.319741,-0.0041 1.820333,0 l 0.910167,0.0074 -0.747889,0.108583 c -0.411339,0.05972 -0.776973,0.115201 -0.812521,0.123288 -0.03843,0.0087 -0.08702,0.05859 -0.119858,0.122955 -0.06148,0.120505 -0.02525,0.108604 -0.585299,0.19226 -0.19055,0.02846 -0.354514,0.05981 -0.364363,0.06966 -0.0099,0.0099 0.0033,0.04131 0.02915,0.06991 0.04437,0.04903 0.04294,0.05388 -0.02502,0.08484 -0.08445,0.03848 -1.603938,0.04738 -1.588718,0.0093 z m 0.490508,-2.4531406 c -0.247627,-0.337512 -0.662211,-0.900995 -0.921297,-1.252184 l -0.471064,-0.638526 0.258076,-0.256006 0.258074,-0.256006 0.686219,0.81779 0.686218,0.817791 -0.03454,0.154353 c -0.019,0.08489 -0.03758,0.154352 -0.04128,0.154352 -0.0037,0 -0.06129,-0.03098 -0.127958,-0.06885 -0.06667,-0.03787 -0.131466,-0.06252 -0.143992,-0.05478 -0.01253,0.0077 -0.02277,0.08927 -0.02277,0.181175 0,0.129729 0.02589,0.231924 0.115779,0.456945 0.202582,0.507156 0.222203,0.55796 0.215421,0.557781 -0.0037,-8.5e-5 -0.209249,-0.276321 -0.456877,-0.613833 z"
       id="path869" />
    <path
       sodipodi:nodetypes="ssscccccccccssssscssccccccccscsssccccsccccccssccccccccsccc"
       d="m 3.0816414,-6.0160541 c -0.01474,0 -0.01819,0.069816 -0.02394,0.1268228 -0.0057,0.057006 -0.01374,0.1069036 -0.01778,0.1109404 -0.004,0.00404 -0.01806,-0.010486 -0.03129,-0.032239 l -0.02418,-0.039588 -0.104303,0.083205 -0.104302,0.083205 -0.0081,0.1588248 c -0.0044,0.08739 -0.01762,0.4105893 -0.01636,0.7182672 l -0.0085,0.5592054 0.06875,0.1683069 c 0.03786,0.092518 0.07322,0.1656374 0.07846,0.1623804 0.0052,-0.00324 0.01345,-0.029158 0.01825,-0.057603 0.0048,-0.028446 0.01262,-0.051677 0.01754,-0.051677 0.0049,0 0.0372,0.263557 0.07159,0.5857555 0.03439,0.3221988 0.0685,0.6396035 0.07586,0.7054664 0.0073,0.065864 0.01544,0.1197114 0.01801,0.1197114 0.0026,0 0.0045,-0.7703159 0.0043,-1.7119892 -2.43e-4,-1.1931322 0.0047,-1.6889947 -0.01399,-1.6889947 z m 0.787959,0.310064 -0.417684,0.00332 0.05832,0.035084 0.05832,0.035084 -0.136543,4.734e-4 -0.136541,4.734e-4 -0.0512,0.1382012 c -0.02818,0.075947 -0.05308,0.1429327 -0.05547,0.1488685 -0.007,0.017468 0.689959,0.013385 0.728698,-0.00427 0.03118,-0.014202 0.03197,-0.016385 0.01162,-0.038876 -0.01186,-0.01312 -0.01806,-0.027461 -0.01351,-0.032002 0.0045,-0.00452 0.07971,-0.018947 0.167121,-0.032002 0.256908,-0.038375 0.240378,-0.032905 0.26858,-0.088183 0.01506,-0.029526 0.03737,-0.052427 0.055,-0.056418 0.01631,-0.00371 0.183954,-0.02926 0.372645,-0.056655 l 0.343014,-0.04978 -0.417448,-0.00332 c -0.229634,-0.00188 -1.064538,-4.37e-5 -0.834898,0 z m -0.113073,0.6966954 c -0.354125,-7.293e-4 -0.356126,-6.055e-4 -0.445183,0.033425 l -0.08961,0.034135 0.03106,0.025127 c 0.01702,0.013766 0.02513,0.027506 0.01801,0.03058 -0.0071,0.00306 -0.03185,0.017185 -0.05499,0.031291 -0.03747,0.022842 -0.0422,0.031868 -0.0422,0.083916 v 0.058552 h 0.323576 0.323813 v -0.056418 -0.056181 l 0.08558,-0.036506 0.08558,-0.036269 -0.03035,-0.022994 c -0.01672,-0.01261 -0.02762,-0.025618 -0.02418,-0.02892 0.0034,-0.00332 0.04427,-0.017907 0.09055,-0.032476 l 0.08415,-0.02655 z"
       inkscape:label="F"
       style="display:inline;fill:#000000;stroke-width:0.0129462"
       id="path881" />
    <path
       d="m 1.704404,-7.137468 -0.1595353,0.2683431 -0.1595357,0.2683426 -0.01517,0.2026791 c -0.00836,0.1114065 -0.018184,0.2054558 -0.021808,0.2090797 -0.00362,0.00362 -0.02301,-0.00891 -0.042909,-0.027973 -0.019895,-0.01906 -0.040088,-0.034611 -0.045038,-0.034611 -0.00493,0 -0.00841,0.7383612 -0.00759,1.640873 8.716e-4,0.9025121 0.00367,1.6321139 0.00639,1.6214348 0.00577,-0.022615 0.09553,-1.12502 0.09553,-1.1731694 0,-0.043996 0.019954,-0.028601 0.056656,0.043615 l 0.030344,0.059737 0.021335,-0.096243 c 0.011638,-0.052907 0.024661,-0.1150584 0.029156,-0.138201 0.0045,-0.023138 0.012486,-0.042193 0.01778,-0.042193 0.00529,0 0.023244,0.079801 0.039826,0.1770778 0.016574,0.097278 0.031734,0.1714791 0.033661,0.1649881 0.00193,-0.00649 0.012294,-0.081499 0.02323,-0.1666473 0.014762,-0.1149556 0.020101,-0.2798681 0.020147,-0.6407514 v -0.4861932 l 0.6931402,-0.6277135 c 0.3812115,-0.3453398 0.7117887,-0.6444192 0.734623,-0.6644567 0.048799,-0.042817 0.029138,-0.034079 -0.1246888,0.054759 -0.062829,0.036285 -0.1191213,0.065901 -0.1251631,0.065901 -0.00605,0 -0.022505,-0.014675 -0.036505,-0.032478 -0.014,-0.017803 -0.02867,-0.032239 -0.032478,-0.032239 -0.00381,0 -0.051732,0.05239 -0.1066739,0.1166295 -0.054941,0.06424 -0.1024595,0.1144418 -0.105488,0.1114143 -0.00303,-0.00303 7.34e-4,-0.03906 0.0083,-0.080123 0.00759,-0.041065 0.012165,-0.076254 0.010193,-0.078227 -0.00197,-0.00197 -0.054317,0.012179 -0.1163932,0.031528 l -0.1128359,0.035083 -0.2967899,0.2877811 c -0.1632046,0.1582875 -0.3000088,0.2880182 -0.3041377,0.2880182 -0.00413,0 -0.00759,-0.2983716 -0.00759,-0.6630342 z m 0.3041377,1.6638673 -0.1182891,0.1175777 -0.1182887,0.1173409 0.2159545,0.2929958 c 0.1188484,0.1610986 0.3090713,0.4195522 0.4226632,0.5743769 0.1135932,0.1548246 0.2078567,0.2815786 0.2095549,0.2816176 0.00312,8.21e-5 -0.00592,-0.023372 -0.098852,-0.2560158 -0.041235,-0.1032224 -0.053099,-0.1500439 -0.053099,-0.209554 0,-0.042161 0.00468,-0.079436 0.010427,-0.082968 0.00574,-0.00353 0.035556,0.00776 0.066137,0.025129 0.030583,0.017372 0.057091,0.031528 0.05879,0.031528 0.0017,0 0.010014,-0.031936 0.018725,-0.070878 l 0.015881,-0.070879 -0.3148054,-0.3750161 z"
       inkscape:label="K"
       style="fill:#000000;stroke-width:0.0129462"
       id="path890" />
    <path
       id="path900"
       d="m 3.6396496,-2.462288 c 0,-0.00201 0.014425,-0.02009 0.032056,-0.040171 0.044257,-0.05041 0.03884,-0.062041 -0.013273,-0.028498 -0.061605,0.039652 -0.075959,0.045533 -0.11037,0.045215 -0.040577,-3.649e-4 -0.069938,-0.00865 -0.1075653,-0.030346 -0.036556,-0.021071 -0.049426,-0.040756 -0.058667,-0.08973 -0.014717,-0.078001 0.00254,-0.1318085 0.065397,-0.2038798 0.0552,-0.063293 0.076028,-0.095083 0.08982,-0.1370978 0.010592,-0.032256 0.018477,-0.044203 0.048609,-0.073618 0.033388,-0.032594 0.035897,-0.036802 0.034964,-0.058651 l -0.00102,-0.023537 0.028621,0.00111 0.028621,0.00111 v -0.025908 c 0,-0.028322 0.011508,-0.042158 0.035067,-0.042158 0.031636,0 0.039738,-0.00875 0.068538,-0.073952 0.015409,-0.034885 0.029749,-0.063428 0.031871,-0.063428 0.00212,0 0.00556,0.00773 0.00762,0.017173 0.00207,0.00945 0.00738,0.017173 0.011794,0.017173 0.00822,0 0.00897,-0.00223 0.019833,-0.058499 0.01297,-0.067207 0.053114,-0.1241229 0.1174137,-0.1664729 0.020073,-0.013223 0.03843,-0.034133 0.066083,-0.075287 0.023218,-0.034552 0.047414,-0.063302 0.061476,-0.073042 0.029741,-0.020604 0.03307,-0.03231 0.018533,-0.065172 -0.017447,-0.039442 -0.015113,-0.055099 0.016456,-0.1103116 0.015532,-0.027166 0.033895,-0.068334 0.040807,-0.091484 0.011068,-0.037069 0.012046,-0.04902 0.0082,-0.1001728 -0.0024,-0.031946 -0.00489,-0.076114 -0.00553,-0.098152 -0.0018,-0.061692 -0.00129,-0.060104 -0.018746,-0.060104 -0.011547,0 -0.022719,-0.0076 -0.042039,-0.028621 -0.022984,-0.025 -0.029142,-0.028615 -0.048671,-0.028578 -0.1148545,2.231e-4 -0.2676233,0.079445 -0.3299796,0.1711217 -0.022206,0.032648 -0.022428,0.032792 -0.057373,0.037428 -0.036282,0.00481 -0.060532,0.023103 -0.082001,0.06185 -0.016207,0.029251 -0.016656,0.032245 -0.016327,0.1090393 3.246e-4,0.076535 -2.29e-5,0.07891 -0.011448,0.077276 -0.010771,-0.00155 -0.012031,-0.00659 -0.014646,-0.058928 -0.00158,-0.031483 -0.00544,-0.061375 -0.00859,-0.066426 -0.00315,-0.00506 -0.01635,-0.015829 -0.029339,-0.02395 -0.012989,-0.00812 -0.029133,-0.021781 -0.035879,-0.030356 -0.019172,-0.024373 -0.031552,-0.07427 -0.031837,-0.1283141 -2.435e-4,-0.046545 9.123e-4,-0.051103 0.0263,-0.1030355 0.014606,-0.029885 0.028421,-0.060776 0.030699,-0.068647 0.013397,-0.046266 0.033227,-0.069111 0.1055716,-0.1216158 0.1005916,-0.073005 0.1184107,-0.085323 0.1601873,-0.1107286 l 0.036805,-0.022382 0.060506,0.0011 c 0.033279,6.1e-4 0.088645,0.00511 0.1230378,0.01002 0.034392,0.00491 0.066798,0.00893 0.072013,0.00893 0.00522,0 0.017806,-0.011592 0.027981,-0.025759 0.010179,-0.014167 0.02194,-0.025758 0.026148,-0.025758 0.00421,0 0.030458,0.011419 0.058337,0.025375 0.043898,0.021975 0.05337,0.029447 0.070704,0.05577 0.011164,0.016954 0.039625,0.046031 0.06436,0.065752 0.048007,0.038277 0.066219,0.057673 0.080729,0.085978 0.00569,0.011108 0.020704,0.024403 0.038463,0.034069 0.048637,0.026472 0.05752,0.060871 0.027816,0.1077114 -0.018353,0.02894 -0.016518,0.037198 0.00831,0.037399 0.00926,7.56e-5 0.010263,0.00311 0.0072,0.021554 -0.016056,0.096473 -0.016987,0.1240178 -0.00671,0.1988356 l 0.010221,0.074495 -0.015716,0.042932 c -0.00951,0.025983 -0.016513,0.058178 -0.017733,0.081555 -0.00319,0.061068 -0.019844,0.083722 -0.082583,0.1123396 -0.064095,0.029237 -0.080522,0.053634 -0.1090855,0.1620181 -0.035338,0.1340862 -0.079295,0.2087288 -0.2415096,0.4100998 -0.031245,0.038788 -0.055446,0.071887 -0.05378,0.073554 0.00166,0.00166 0.032181,-0.00405 0.067811,-0.012707 0.049928,-0.012129 0.087093,-0.01678 0.1620929,-0.020283 0.053521,-0.0025 0.1324613,-0.00686 0.1754224,-0.0097 0.088289,-0.00582 0.099114,-0.010094 0.162305,-0.064012 l 0.034345,-0.029306 0.00504,0.027448 c 0.00277,0.015096 0.00553,0.028071 0.00615,0.028833 6.1e-4,7.683e-4 0.025396,-0.00623 0.055067,-0.015532 0.074742,-0.023437 0.075746,-0.021547 0.036035,0.06784 l -0.031483,0.070865 0.0039,0.049871 c 0.00523,0.066865 -0.00376,0.086582 -0.07134,0.1564372 -0.064508,0.066681 -0.071385,0.081689 -0.066162,0.1443889 0.00421,0.050553 8.095e-4,0.071407 -0.011624,0.071407 -0.010592,0 -0.014447,-0.01452 -0.017019,-0.064023 -0.00184,-0.03549 -0.025274,-0.1375934 -0.033452,-0.1457713 -0.00414,-0.00414 -0.089421,0.019359 -0.1269799,0.03497 -0.041807,0.017376 -0.062336,0.018002 -0.1015427,0.0031 -0.057719,-0.021938 -0.1370582,-0.00969 -0.2238962,0.03457 l -0.056402,0.028746 0.020905,-0.037384 c 0.014047,-0.025116 0.018349,-0.037384 0.013112,-0.037384 -0.014492,0 -0.1070029,0.033495 -0.1357994,0.049168 -0.034919,0.019004 -0.077105,0.059683 -0.091829,0.088545 l -0.010924,0.021412 0.014133,0.00355 c 0.023742,0.00596 0.016109,0.013179 -0.03025,0.028618 -0.043996,0.014652 -0.064378,0.018173 -0.064378,0.011123 z m 0.7819652,-1.4721733 c 0.00349,-0.027316 0.00531,-0.05084 0.00407,-0.052277 -0.00125,-0.00144 -0.010882,0.00204 -0.021406,0.0077 -0.021883,0.011784 -0.033987,0.033546 -0.028581,0.051385 0.00514,0.016984 0.031349,0.050971 0.035867,0.046522 0.00205,-0.00201 0.00656,-0.026009 0.010051,-0.053324 z"
       style="fill:#000000;stroke-width:0.0057242"
       sodipodi:nodetypes="ccscsssssccccsssssssssssssscsscsssscscsssssssccsssscsssssccscscssscccsscsccscsssscsssscsssscsscccccsccc"
       inkscape:label="2" />
    <path
       d="M 2.4080904,1.3541858 2.212203,1.6842685 2.0156795,2.0149877 1.9965996,2.2642989 c -0.010285,0.1371116 -0.022251,0.2531192 -0.026712,0.2575796 -0.00445,0.00445 -0.028297,-0.011512 -0.05279,-0.03498 -0.024486,-0.023459 -0.04924,-0.042612 -0.055331,-0.042612 -0.00607,0 -0.01055,0.9091804 -0.00954,2.0199301 0.00107,1.1107501 0.00492,2.0082695 0.00828,1.9951265 0.00711,-0.027831 0.1176587,-1.384457 0.1176587,-1.443716 0,-0.054148 0.024152,-0.034819 0.069324,0.05406 l 0.037524,0.07314 0.026076,-0.1182947 c 0.014328,-0.065115 0.030721,-0.1419661 0.036253,-0.1704479 0.00554,-0.028477 0.015108,-0.051515 0.021624,-0.051515 0.00651,0 0.028564,0.09779 0.048973,0.2175116 0.020398,0.1197233 0.038969,0.211508 0.04134,0.2035194 0.00238,-0.00798 0.015161,-0.1006341 0.028621,-0.2054274 0.018169,-0.1414802 0.024749,-0.3444874 0.024805,-0.7886378 v -0.598476 l 0.852864,-0.772102 C 3.6347332,2.4339368 4.041851,2.0657247 4.069954,2.0410635 c 0.060059,-0.052696 0.036043,-0.04192 -0.1532757,0.067416 -0.077326,0.044658 -0.1464756,0.080772 -0.1539118,0.080772 -0.00745,0 -0.027926,-0.017523 -0.045155,-0.039431 -0.01723,-0.021911 -0.03538,-0.040068 -0.040068,-0.040068 -0.00468,0 -0.063398,0.064674 -0.1310154,0.143736 -0.067619,0.079062 -0.1260164,0.1411022 -0.129743,0.1373756 -0.00373,-0.00373 8.628e-4,-0.048677 0.01018,-0.099215 0.00934,-0.05054 0.014519,-0.093606 0.012082,-0.096034 -0.00242,-0.00241 -0.066701,0.014982 -0.1430998,0.038795 L 3.1572994,2.2776576 2.7916004,2.6319087 C 2.5907394,2.826718 2.4227151,2.9861594 2.4176335,2.9861594 c -0.00508,0 -0.00954,-0.3671838 -0.00954,-0.8159856 z m 1.6949352,1.3801159 c -0.018141,0 -0.022179,0.086295 -0.029255,0.1564557 -0.00701,0.070158 -0.016653,0.1311351 -0.021625,0.1361033 -0.00492,0.00497 -0.022514,-0.012664 -0.038795,-0.039431 L 3.983457,2.9384573 3.8549848,3.0408537 3.7271487,3.14325 3.7169642,3.3391375 c -0.00542,0.1075543 -0.021903,0.5053684 -0.020352,0.8840374 l -0.01018,0.6881503 0.084586,0.2066993 c 0.046595,0.1138649 0.090223,0.2043481 0.096673,0.2003396 0.0064,-0.00399 0.016352,-0.036224 0.02226,-0.071233 0.00591,-0.03501 0.015569,-0.063601 0.021625,-0.063601 0.00603,0 0.045442,0.3246822 0.087768,0.721222 0.042324,0.3965401 0.084433,0.7870779 0.093491,0.8681373 0.00899,0.081061 0.019098,0.1475519 0.02226,0.1475519 0.00318,0 0.00532,-0.9481149 0.00509,-2.1070622 C 4.1198861,3.3449534 4.1260252,2.734301 4.1030112,2.734301 Z m 0.9698973,0.3815991 -0.5138866,0.00445 0.071867,0.043249 0.071867,0.042612 -0.1685396,6.513e-4 -0.1679034,6.513e-4 -0.062964,0.1704472 c -0.034682,0.093471 -0.06511,0.1758624 -0.068052,0.1831677 -0.00861,0.021498 0.8490804,0.01664 0.8967578,-0.00509 0.038374,-0.01748 0.039037,-0.020655 0.013993,-0.048336 -0.014595,-0.016147 -0.022137,-0.033844 -0.016534,-0.039432 0.00554,-0.00556 0.098485,-0.023365 0.2060635,-0.039431 0.3161846,-0.04723 0.295374,-0.040087 0.3300829,-0.1081205 0.018536,-0.036337 0.046355,-0.064412 0.068052,-0.069324 0.020071,-0.00456 0.2263266,-0.036245 0.4585547,-0.069961 L 6.614584,3.1203788 6.1006974,3.1159288 c -0.2826178,-0.00232 -1.3103983,-5.39e-5 -1.0277729,0 z M 2.7826933,3.4020999 2.6370503,3.5464706 2.4914073,3.6914789 2.7572546,4.05209 C 2.903525,4.2503589 3.1376999,4.5681361 3.2775011,4.7586839 3.4173032,4.9492312 3.5329903,5.1052548 3.5350804,5.105303 3.5389204,5.1054039 3.5279704,5.076806 3.4136047,4.790484 3.3628547,4.6634446 3.3480967,4.6055095 3.3480967,4.5322685 c 0,-0.051889 0.00565,-0.098048 0.012723,-0.1023966 0.00707,-0.00434 0.04377,0.00979 0.081409,0.031163 0.037639,0.02138 0.070413,0.038796 0.072503,0.038796 0.00208,0 0.012169,-0.039205 0.022895,-0.087132 L 3.5573387,4.3255689 3.1700157,3.863834 Z M 4.9336395,3.9732262 C 4.4978064,3.9723144 4.4956501,3.9726725 4.3860449,4.0145661 l -0.1106637,0.041976 0.038796,0.031163 c 0.020948,0.016941 0.030387,0.033741 0.021625,0.037524 -0.00874,0.00376 -0.038936,0.021437 -0.067416,0.038796 -0.046115,0.028113 -0.052152,0.038975 -0.052152,0.1030328 v 0.071867 H 4.614369 5.0131396 v -0.069324 -0.069324 l 0.1055757,-0.044521 0.1049394,-0.045155 -0.03689,-0.027984 c -0.020577,-0.015519 -0.034126,-0.03155 -0.029893,-0.035616 0.00419,-0.00409 0.054342,-0.022136 0.1112999,-0.040068 L 5.371843,3.9744987 Z m 0.4445626,0.5819385 c -0.00518,0 -0.019909,0.014358 -0.032436,0.031802 -0.012519,0.017435 -0.027919,0.031802 -0.034344,0.031802 -0.0064,0 -0.046075,-0.00477 -0.088404,-0.010812 -0.042328,-0.00604 -0.1110459,-0.011979 -0.1520036,-0.012723 l -0.074412,-0.00127 -0.045155,0.027984 c -0.051417,0.031268 -0.073358,0.046254 -0.1971594,0.1361033 -0.089037,0.06462 -0.1132552,0.09252 -0.1297431,0.1494598 -0.0028,0.00969 -0.020183,0.047808 -0.03816,0.084587 -0.031244,0.063915 -0.032102,0.069279 -0.031802,0.1265637 3.583e-4,0.066513 0.015201,0.128367 0.038796,0.1583634 0.0083,0.010563 0.028535,0.026894 0.044519,0.03689 0.015985,0.00999 0.031739,0.023663 0.035615,0.029893 0.00388,0.00622 0.00885,0.04266 0.010812,0.081408 0.00323,0.064414 0.00455,0.070597 0.017808,0.072503 0.014066,0.00201 0.014387,-5.535e-4 0.013993,-0.094764 -3.907e-4,-0.094513 3.907e-4,-0.098195 0.020352,-0.1341947 0.026422,-0.047686 0.05647,-0.070401 0.1011242,-0.076321 0.043008,-0.00571 0.043267,-0.00562 0.070597,-0.045791 0.076744,-0.112829 0.2644118,-0.2102407 0.4057666,-0.2105154 0.024035,-4.54e-5 0.031498,0.00421 0.059784,0.03498 0.023778,0.025872 0.037941,0.03498 0.052152,0.03498 0.021486,0 0.020681,-0.00154 0.022895,0.074412 7.814e-4,0.027122 0.00404,0.080886 0.00699,0.1202048 0.00474,0.062955 0.00344,0.07776 -0.01018,0.1233827 -0.00851,0.028492 -0.031126,0.079138 -0.050243,0.1125707 -0.038853,0.067951 -0.041824,0.087561 -0.020352,0.1361033 0.01789,0.040444 0.013716,0.054776 -0.022895,0.080135 -0.017308,0.011994 -0.047109,0.047151 -0.075685,0.089675 -0.034033,0.050649 -0.056704,0.076582 -0.081409,0.092856 -0.079137,0.052121 -0.1284094,0.1220783 -0.1443722,0.2047913 -0.013365,0.069253 -0.014052,0.071868 -0.024167,0.071868 -0.00543,0 -0.012082,-0.00935 -0.014628,-0.020986 -0.00253,-0.011615 -0.00693,-0.020987 -0.00954,-0.020987 -0.00261,0 -0.019831,0.035293 -0.038796,0.078227 -0.035445,0.080246 -0.045653,0.090947 -0.084587,0.090947 -0.028994,0 -0.043248,0.016659 -0.043248,0.051515 v 0.031802 l -0.03498,-0.00127 -0.035616,-0.00127 0.00127,0.029254 c 0.00114,0.02689 -0.00154,0.031751 -0.042612,0.071867 -0.037085,0.036202 -0.046748,0.051248 -0.059784,0.090948 -0.016975,0.05171 -0.042727,0.090643 -0.1106636,0.1685396 -0.077361,0.088699 -0.098884,0.1545853 -0.080772,0.2505834 0.011367,0.060274 0.027513,0.084731 0.072503,0.1106636 0.046309,0.026702 0.082348,0.037075 0.1322877,0.037524 0.042351,3.908e-4 0.059649,-0.00716 0.1354672,-0.055967 0.064137,-0.041283 0.071005,-0.027061 0.016535,0.03498 -0.0217,0.024715 -0.039431,0.047135 -0.039431,0.049609 0,0.00869 0.025353,0.00468 0.0795,-0.013351 0.057056,-0.019001 0.066109,-0.02828 0.036887,-0.035615 l -0.01717,-0.00445 0.013351,-0.026076 c 0.01812,-0.03552 0.070232,-0.085367 0.1132068,-0.1087566 0.035442,-0.01929 0.1494318,-0.061056 0.1672676,-0.061056 0.00645,0 7.489e-4,0.015516 -0.016537,0.046428 l -0.025441,0.045791 0.069324,-0.03498 c 0.1068743,-0.054472 0.2043507,-0.069612 0.2753872,-0.042612 0.048253,0.01834 0.073838,0.017569 0.1252913,-0.00381 0.046225,-0.019212 0.1507243,-0.048344 0.1558193,-0.043249 0.010064,0.010064 0.039075,0.1356729 0.04134,0.1793514 0.00317,0.060925 0.00795,0.078864 0.020987,0.078864 0.015302,0 0.019173,-0.025551 0.013993,-0.087769 -0.00641,-0.077166 0.00264,-0.096012 0.082045,-0.1780794 0.083172,-0.085972 0.094203,-0.109778 0.087768,-0.1920715 l -0.00509,-0.061692 0.038795,-0.087133 c 0.048854,-0.1100005 0.047449,-0.1121497 -0.044538,-0.083304 -0.036517,0.011439 -0.066666,0.020026 -0.067416,0.019079 -7.49e-4,-9.444e-4 -0.00422,-0.017037 -0.00763,-0.035616 l -0.00636,-0.033708 -0.041976,0.036251 c -0.077771,0.066359 -0.09168,0.071065 -0.2003394,0.078227 -0.052874,0.0035 -0.1497333,0.009 -0.2156033,0.012081 -0.092305,0.0043 -0.1382555,0.00986 -0.1997037,0.024803 -0.043851,0.010652 -0.081273,0.017943 -0.083315,0.015901 -0.00206,-0.00206 0.027688,-0.042573 0.066143,-0.090311 0.1996428,-0.2478336 0.2541557,-0.3399582 0.297647,-0.5049825 0.035154,-0.1333923 0.055312,-0.1630846 0.1341962,-0.1990674 0.077215,-0.035222 0.097197,-0.06349 0.1011231,-0.138648 0.0015,-0.028769 0.010563,-0.068509 0.02226,-0.1004879 L 5.82018,5.4252343 5.807457,5.3336503 C 5.794806,5.2415703 5.795959,5.2075229 5.815737,5.0887909 5.819497,5.0660919 5.818247,5.0628089 5.806837,5.0627139 5.77628,5.0624667 5.774074,5.0519019 5.796657,5.0162859 5.833206,4.9586379 5.8228,4.9165799 5.762941,4.8839987 5.741085,4.8720927 5.722245,4.8556947 5.71524,4.8420227 5.697382,4.8071867 5.675108,4.7835557 5.616024,4.7364469 5.585581,4.7121749 5.550263,4.6759049 5.536524,4.6550389 5.515192,4.6226419 5.503418,4.6133959 5.449391,4.5863509 5.41508,4.5691739 5.38334,4.5551869 5.378159,4.5551869 Z m 0.3790548,0.6767021 c 0.00154,0.00177 -7.816e-4,0.030616 -0.00508,0.064236 -0.00429,0.033618 -0.00956,0.06367 -0.012082,0.066144 -0.00556,0.00547 -0.038196,-0.036337 -0.04452,-0.057239 -0.00666,-0.021953 0.0087,-0.049098 0.035616,-0.063599 0.012957,-0.00696 0.024535,-0.011308 0.026078,-0.00954 z"
       inkscape:label="KF2"
       style="display:inline;fill:#f9f9f9;fill-opacity:1;stroke-width:0.0159332"
       id="path905" />
  </g>
  <g
     inkscape:groupmode="layer"
     id="layer2"
     inkscape:label="Overlay"
     style="display:none">
    <circle
       style="display:inline;opacity:0.1;fill:url(#linearGradient1158);fill-opacity:1;stroke:#414548;stroke-width:0.0077439;stroke-opacity:1"
       id="path29"
       cx="4.2333336"
       cy="4.2333331"
       r="3.9648747"
       inkscape:label="Circle silhouette"
       inkscape:highlight-color="4278255615"
       clip-path="none"
       inkscape:export-xdpi="96"
       inkscape:export-ydpi="96"
       sodipodi:insensitive="true" />
  </g>
</svg>
