<?xml version="1.0" encoding="UTF-8" standalone="no"?>
<svg
   xmlns:dc="http://purl.org/dc/elements/1.1/"
   xmlns:cc="http://creativecommons.org/ns#"
   xmlns:rdf="http://www.w3.org/1999/02/22-rdf-syntax-ns#"
   xmlns:svg="http://www.w3.org/2000/svg"
   xmlns="http://www.w3.org/2000/svg"
   xmlns:xlink="http://www.w3.org/1999/xlink"
   xmlns:sodipodi="http://sodipodi.sourceforge.net/DTD/sodipodi-0.dtd"
   xmlns:inkscape="http://www.inkscape.org/namespaces/inkscape"
   enable-background="new"
   width="32"
   height="32"
   viewBox="0 0 8.4666666 8.4666669"
   version="1.1"
   id="svg8"
   inkscape:version="1.0.1 (3bc2e813f5, 2020-09-07)"
   sodipodi:docname="MicrosoftTeams.svg">
  <defs
     id="defs2">
    <linearGradient
       gradientTransform="matrix(0.0077439,0,0,0.0077439,-0.05678487,-0.08653876)"
       gradientUnits="userSpaceOnUse"
       y2="813.84167"
       x2="170"
       y1="301.84164"
       x1="938"
       id="linearGradient1158"
       xlink:href="#linearGradient1156"
       inkscape:collect="always" />
    <linearGradient
       id="linearGradient1156"
       inkscape:collect="always">
      <stop
         id="stop1152"
         offset="0"
         style="stop-color:#333333;stop-opacity:1" />
      <stop
         id="stop1154"
         offset="1"
         style="stop-color:#252525;stop-opacity:1" />
    </linearGradient>
    <mask
       id="mask862"
       maskUnits="userSpaceOnUse">
      <rect
         inkscape:export-ydpi="96"
         inkscape:export-xdpi="96"
         style="display:inline;opacity:1;fill:url(#radialGradient866);fill-opacity:1;stroke:none;stroke-width:4.34110594;stroke-opacity:1"
         id="rect864"
         width="30"
         height="30.000025"
         x="1"
         y="0.9999876"
         inkscape:label="Faded mask" />
    </mask>
    <radialGradient
       r="15"
       fy="16.600925"
       fx="-3.1699476"
       cy="16.600925"
       cx="-3.1699476"
       gradientTransform="matrix(1.2438841,1.2021521,-1.0766625,1.1139429,29.163729,-6.6607255)"
       gradientUnits="userSpaceOnUse"
       id="radialGradient866"
       xlink:href="#linearGradient1961"
       inkscape:collect="always" />
    <linearGradient
       id="linearGradient1961"
       inkscape:collect="always">
      <stop
         id="stop1957"
         offset="0"
         style="stop-color:#696969;stop-opacity:1" />
      <stop
         id="stop1959"
         offset="1"
         style="stop-color:#ffffff;stop-opacity:0" />
    </linearGradient>
  </defs>
  <sodipodi:namedview
     inkscape:document-rotation="0"
     inkscape:guide-bbox="true"
     showguides="true"
     inkscape:snap-object-midpoints="true"
     units="px"
     inkscape:pagecheckerboard="true"
     inkscape:window-maximized="1"
     inkscape:window-y="30"
     inkscape:window-x="0"
     inkscape:window-height="1020"
     inkscape:window-width="1920"
     showgrid="true"
     inkscape:current-layer="layer1"
     inkscape:document-units="px"
     inkscape:cy="28.340039"
     inkscape:cx="-1512.6787"
     inkscape:zoom="0.175"
     inkscape:pageshadow="2"
     inkscape:pageopacity="0.0"
     borderopacity="1.0"
     bordercolor="#666666"
     pagecolor="#ffffff"
     id="base"
     inkscape:snap-nodes="false"
     inkscape:snap-others="true"
     inkscape:snap-global="true">
    <inkscape:grid
       type="xygrid"
       id="grid945"
       units="px"
       spacingx="0.26458334"
       spacingy="0.26458334"
       empspacing="8" />
    <sodipodi:guide
       position="8.2020834,8.2020837"
       orientation="0,1"
       id="guide1116"
       inkscape:locked="false" />
    <sodipodi:guide
       position="8.2020834,8.2020837"
       orientation="1,0"
       id="guide1118"
       inkscape:locked="false" />
    <sodipodi:guide
       position="0.26458334,0"
       orientation="1,0"
       id="guide1120"
       inkscape:locked="false" />
    <sodipodi:guide
       position="0.26458334,0.26458334"
       orientation="0,1"
       id="guide1122"
       inkscape:locked="false" />
    <sodipodi:guide
       position="0.52916667,0"
       orientation="0,1"
       id="guide1126"
       inkscape:locked="false" />
  </sodipodi:namedview>
  <metadata
     id="metadata5">
    <rdf:RDF>
      <cc:Work
         rdf:about="">
        <dc:format>image/svg+xml</dc:format>
        <dc:type
           rdf:resource="http://purl.org/dc/dcmitype/StillImage" />
        <dc:title />
      </cc:Work>
    </rdf:RDF>
  </metadata>
  <g
     style="display:inline"
     inkscape:label="Main"
     id="layer1"
     inkscape:groupmode="layer">
    <rect
       inkscape:label="Background"
       y="0.26458016"
       x="0.2645832"
       height="7.9375067"
       width="7.9375"
       id="rect922"
       style="display:inline;opacity:1;fill:#3d458c;fill-opacity:1;stroke:none;stroke-width:1.14858;stroke-opacity:1"
       inkscape:export-xdpi="96"
       inkscape:export-ydpi="96" />
    <rect
       clip-path="none"
       inkscape:export-ydpi="96"
       inkscape:export-xdpi="96"
       style="display:inline;opacity:0.214286;fill:#000000;fill-opacity:1;stroke:none;stroke-width:1.14858;stroke-opacity:1"
       id="rect943"
       width="7.9375"
       height="7.9375067"
       x="0.26458332"
       y="0.26458016"
       inkscape:label="Opaque mask"
       sodipodi:insensitive="true" />
    <path
       style="display:inline;fill:#f4f4f4;fill-opacity:1;stroke-width:0.0230597"
       d="M 3.2691006,6.0714415 C 2.5047104,5.919009 1.8690418,5.7851721 1.8565042,5.7740268 1.8427264,5.761779 1.8361926,5.1437058 1.8399888,4.2113362 l 0.00628,-1.542428 1.3940865,-0.2763995 C 4.0071036,2.240489 4.6537031,2.1157458 4.6772445,2.1153017 c 0.040476,-7.705e-4 0.042801,0.1143235 0.042801,2.1190102 0,1.6828357 -0.0063,2.1192473 -0.030573,2.1170489 C 4.6726541,6.3498239 4.0334872,6.2238754 3.2690968,6.0714415 Z M 3.3748732,4.4318195 V 3.7487882 l 0.269035,-0.015499 0.2690347,-0.015499 v -0.173343 -0.173343 l -0.1650895,0.012785 c -0.0908,0.00703 -0.3742031,0.023035 -0.6297853,0.035561 -0.2555829,0.012526 -0.5004654,0.027776 -0.5441831,0.033894 l -0.079488,0.011119 v 0.1512069 0.1512067 h 0.2445773 0.2445762 v 0.6739933 0.6739931 h 0.195662 0.1956607 z M 4.9462794,5.5267426 4.8667923,5.5049602 V 4.7228775 3.9407978 h 0.404539 0.4045392 l -0.0071,0.6833097 c -0.00803,0.7722514 -0.00341,0.7534158 -0.2101692,0.8561166 -0.1155669,0.057402 -0.3837481,0.081753 -0.5123198,0.046521 z M 5.8206412,4.6939038 V 4.1582156 h 0.4035517 0.4035515 v 0.3829553 c 0,0.3541158 -0.00404,0.3893558 -0.053733,0.4679431 C 6.4935824,5.1363269 6.3203849,5.2042612 6.0402962,5.2184584 L 5.820641,5.2295893 Z M 6.0143871,3.8913622 C 5.8223118,3.7762972 5.7612413,3.5682378 5.875671,3.4187761 6.055519,3.1838691 6.3737422,3.1778009 6.5650891,3.4056299 6.6361772,3.4902713 6.6357733,3.6958893 6.564351,3.7815781 6.4289006,3.9440844 6.1839987,3.9929714 6.0143867,3.8913634 Z M 5.0547197,3.7136238 C 4.8801949,3.6582901 4.8667923,3.6349839 4.8667923,3.3868055 c 0,-0.2016222 0.00486,-0.2250591 0.055029,-0.2656854 C 5.095215,2.9807273 5.3493389,2.9999188 5.506018,3.1652406 5.666323,3.3343874 5.58509,3.607218 5.3456387,3.7038949 c -0.1180731,0.047673 -0.1661714,0.049281 -0.290919,0.00973 z"
       id="path867" />
  </g>
  <g
     style="display:none"
     sodipodi:insensitive="true"
     inkscape:label="Overlay"
     id="layer2"
     inkscape:groupmode="layer">
    <circle
       sodipodi:insensitive="true"
       inkscape:export-ydpi="96"
       inkscape:export-xdpi="96"
       clip-path="none"
       inkscape:highlight-color="4278255615"
       inkscape:label="Circle silhouette"
       r="3.9648747"
       cy="4.2333331"
       cx="4.2333336"
       id="path29"
       style="display:inline;opacity:0.1;fill:url(#linearGradient1158);fill-opacity:1;stroke:#414548;stroke-width:0.0077439;stroke-opacity:1" />
  </g>
</svg>
