<?xml version="1.0" encoding="UTF-8" standalone="no"?>
<!-- Created with Inkscape (http://www.inkscape.org/) -->

<svg
   xmlns:dc="http://purl.org/dc/elements/1.1/"
   xmlns:cc="http://creativecommons.org/ns#"
   xmlns:rdf="http://www.w3.org/1999/02/22-rdf-syntax-ns#"
   xmlns:svg="http://www.w3.org/2000/svg"
   xmlns="http://www.w3.org/2000/svg"
   xmlns:xlink="http://www.w3.org/1999/xlink"
   xmlns:sodipodi="http://sodipodi.sourceforge.net/DTD/sodipodi-0.dtd"
   xmlns:inkscape="http://www.inkscape.org/namespaces/inkscape"
   sodipodi:docname="SaintsRowTheThird.svg"
   inkscape:version="0.92.4 5da689c313, 2019-01-14"
   id="svg8"
   version="1.1"
   viewBox="0 0 8.4666666 8.4666669"
   height="32"
   width="32">
  <defs
     id="defs2">
    <linearGradient
       inkscape:collect="always"
       xlink:href="#linearGradient1156"
       id="linearGradient1158"
       x1="938"
       y1="301.84164"
       x2="170"
       y2="813.84167"
       gradientUnits="userSpaceOnUse"
       gradientTransform="matrix(0.0077439,0,0,0.0077439,-0.05678487,-0.08653876)" />
    <linearGradient
       inkscape:collect="always"
       id="linearGradient1156">
      <stop
         style="stop-color:#333333;stop-opacity:1"
         offset="0"
         id="stop1152" />
      <stop
         style="stop-color:#252525;stop-opacity:1"
         offset="1"
         id="stop1154" />
    </linearGradient>
    <mask
       maskUnits="userSpaceOnUse"
       id="mask862">
      <rect
         inkscape:label="Faded mask"
         y="0.9999876"
         x="1"
         height="30.000025"
         width="30"
         id="rect864"
         style="display:inline;opacity:1;fill:url(#radialGradient866);fill-opacity:1;stroke:none;stroke-width:4.34110594;stroke-opacity:1"
         inkscape:export-xdpi="96"
         inkscape:export-ydpi="96" />
    </mask>
    <radialGradient
       inkscape:collect="always"
       xlink:href="#linearGradient1961"
       id="radialGradient866"
       gradientUnits="userSpaceOnUse"
       gradientTransform="matrix(1.2438841,1.2021521,-1.0766625,1.1139429,29.163729,-6.6607255)"
       cx="-3.1699476"
       cy="16.600925"
       fx="-3.1699476"
       fy="16.600925"
       r="15" />
    <linearGradient
       inkscape:collect="always"
       id="linearGradient1961">
      <stop
         style="stop-color:#696969;stop-opacity:1"
         offset="0"
         id="stop1957" />
      <stop
         style="stop-color:#ffffff;stop-opacity:0"
         offset="1"
         id="stop1959" />
    </linearGradient>
    <radialGradient
       inkscape:collect="always"
       xlink:href="#linearGradient1961"
       id="radialGradient866-7"
       gradientUnits="userSpaceOnUse"
       gradientTransform="matrix(0.32911101,0.31806942,-0.28486696,0.29473073,7.7162368,-1.7623169)"
       cx="-3.1699476"
       cy="16.600925"
       fx="-3.1699476"
       fy="16.600925"
       r="15" />
    <clipPath
       clipPathUnits="userSpaceOnUse"
       id="clipPath2349">
      <rect
         sodipodi:insensitive="true"
         inkscape:label="Opaque mask"
         y="0.99998802"
         x="0.99999994"
         height="30.000025"
         width="30"
         id="rect2351"
         style="display:inline;opacity:1;fill:#808080;fill-opacity:1;stroke:none;stroke-width:4.34110641;stroke-opacity:1"
         inkscape:export-xdpi="96"
         inkscape:export-ydpi="96" />
    </clipPath>
  </defs>
  <sodipodi:namedview
     id="base"
     pagecolor="#ffffff"
     bordercolor="#666666"
     borderopacity="1.0"
     inkscape:pageopacity="0.0"
     inkscape:pageshadow="2"
     inkscape:zoom="15.839192"
     inkscape:cx="16.742722"
     inkscape:cy="13.427893"
     inkscape:document-units="px"
     inkscape:current-layer="svg8"
     showgrid="true"
     inkscape:window-width="1366"
     inkscape:window-height="712"
     inkscape:window-x="0"
     inkscape:window-y="26"
     inkscape:window-maximized="1"
     inkscape:pagecheckerboard="true"
     units="px"
     inkscape:snap-object-midpoints="true"
     showguides="true"
     inkscape:guide-bbox="true"
     inkscape:snap-nodes="false">
    <inkscape:grid
       type="xygrid"
       id="grid945"
       units="px"
       spacingx="0.26458334"
       spacingy="0.26458334"
       empspacing="8" />
    <sodipodi:guide
       position="8.2020834,8.2020837"
       orientation="0,1"
       id="guide1116"
       inkscape:locked="false" />
    <sodipodi:guide
       position="8.2020834,8.2020837"
       orientation="1,0"
       id="guide1118"
       inkscape:locked="false" />
    <sodipodi:guide
       position="0.26458334,0"
       orientation="1,0"
       id="guide1120"
       inkscape:locked="false" />
    <sodipodi:guide
       position="0.26458334,0.26458334"
       orientation="0,1"
       id="guide1122"
       inkscape:locked="false" />
    <sodipodi:guide
       position="0.52916667,0"
       orientation="0,1"
       id="guide1126"
       inkscape:locked="false" />
  </sodipodi:namedview>
  <metadata
     id="metadata5">
    <rdf:RDF>
      <cc:Work
         rdf:about="">
        <dc:format>image/svg+xml</dc:format>
        <dc:type
           rdf:resource="http://purl.org/dc/dcmitype/StillImage" />
        <dc:title />
      </cc:Work>
    </rdf:RDF>
  </metadata>
  <rect
     inkscape:export-ydpi="96"
     inkscape:export-xdpi="96"
     style="display:inline;opacity:1;fill:#5e35b1;fill-opacity:1;stroke:none;stroke-width:1.14858425;stroke-opacity:1"
     id="rect922"
     width="7.9375"
     height="7.9375067"
     x="0.2645832"
     y="0.26458016"
     inkscape:label="Square"
     sodipodi:insensitive="true" />
  <g
     inkscape:groupmode="layer"
     id="layer2"
     inkscape:label="Background"
     sodipodi:insensitive="true" />
  <g
     inkscape:groupmode="layer"
     id="layer4"
     inkscape:label="Shadow"
     sodipodi:insensitive="true"
     style="display:inline">
    <rect
       inkscape:export-ydpi="96"
       inkscape:export-xdpi="96"
       style="display:none;opacity:1;fill:url(#radialGradient866-7);fill-opacity:1;stroke:none;stroke-width:1.14858425;stroke-opacity:1"
       id="rect864-5"
       width="7.9375"
       height="7.9375067"
       x="0.26458335"
       y="0.26458016"
       inkscape:label="Faded mask"
       sodipodi:insensitive="true" />
    <path
       style="display:inline;opacity:0.37373735;fill:#1a1a1a;fill-opacity:1;stroke-width:0.02422511"
       d="m 13.691406,6.2617188 c -0.01979,-0.019786 -0.05028,0.020731 -0.06445,0.1152343 -0.01545,0.1030674 -0.01597,0.1019511 -0.119141,0.1035157 -0.122611,0.00186 -0.540728,0.1913521 -0.55664,0.2519531 -0.0056,0.021328 -0.07397,0.074527 -0.152344,0.1191406 -0.07838,0.044613 -0.173436,0.1132332 -0.21289,0.1523437 -0.07149,0.070859 -0.0733,0.071778 -0.07422,0.3632813 V 7.6601562 L 12.46875,7.703125 11.882812,7.1191406 c -0.02743,-0.027436 -0.0581,-0.046979 -0.0957,-0.066406 -0.154208,-0.079744 -0.348433,-0.015844 -0.451171,0.1503906 -0.02863,0.046322 -0.06869,0.1611113 -0.08789,0.2539062 -0.03734,0.1804122 -0.02882,0.2232234 0.06836,0.3300782 0.0308,0.033846 0.03843,0.05789 0.02149,0.068359 -0.02619,0.016184 -0.03043,0.037931 -0.01758,0.050781 l 0.103516,0.1035156 c -0.0167,0.035114 -0.03747,0.052734 -0.0918,0.052734 -0.05387,0 -0.101365,0.022625 -0.152343,0.072266 -0.09964,0.097021 -0.314777,0.2681079 -0.408204,0.3242188 -0.04182,0.025115 -0.136791,0.084401 -0.208984,0.1308594 -0.09265,0.059618 -0.165585,0.085901 -0.248047,0.091797 -0.06425,0.00458 -0.209257,0.025332 -0.3242186,0.046875 -0.1981085,0.037124 -0.3829554,0.038117 -0.5585938,0 C 9.3815537,8.7176688 9.333076,8.7250929 9.2871094,8.75 9.2551724,8.76731 9.2374254,8.782347 9.2421874,8.787109 l 0.027344,0.029297 c 0.00237,0.00672 0.00781,0.011454 0.00781,0.019531 0,0.020364 0.021603,0.054806 0.050781,0.083984 l 0.023437,0.021484 0.8476566,0.8496094 c -0.05435,-2.548e-4 -0.125643,0.014717 -0.142578,0.00586 L 10.009766,9.75 C 9.9737459,9.7139811 9.8956264,9.6912502 9.6894531,9.6445312 9.5272828,9.6077839 9.4869575,9.5908025 9.4492188,9.5703125 L 9.3457031,9.4667969 C 9.295889,9.4169827 9.1997381,9.3933038 9.1542969,9.4335938 9.1203114,9.463743 9.0783215,9.4599693 8.8378906,9.4042969 8.686132,9.3691586 8.5000196,9.3201313 8.4238281,9.2949219 8.3476366,9.2697086 8.2703594,9.2480469 8.2519531,9.2480469 c -0.06364,0 -0.1618894,0.2971496 -0.1621093,0.4902343 v 0.1132813 l 0.3144531,0.3144535 c -0.00383,0.01075 -0.00627,0.0099 -0.00977,0.02148 C 8.3263609,10.412593 8.3162709,10.41664 7.9648395,10.33984 7.6838692,10.27843 7.6662092,10.2763 7.6464801,10.3164 c -0.026075,0.05298 -0.201096,0.05511 -0.2675782,0.01758 l -0.044922,-0.04492 c -0.014642,-0.01466 -0.043002,-0.01569 -0.1113282,-0.0078 -0.1009209,0.01161 -0.2190448,-0.0083 -0.5,-0.08594 C 6.6826827,10.18428 6.5794552,10.13472 6.4941361,10.085946 6.3793658,10.020296 6.2562913,9.9799712 6.0214844,9.9277344 5.7127484,9.8590679 5.6836358,9.8575975 4.9707031,9.8535156 c -0.5783146,-0.00333 -0.740908,0.00195 -0.7714843,0.027344 -0.026986,0.022367 -0.03081,0.031682 -0.00977,0.052734 l 0.025391,0.023437 2.984375,2.9843744 c -0.043768,0.0013 -0.045321,8.9e-5 -0.1015626,0.002 -0.2599581,0.0086 -0.4755683,0.01873 -0.4785156,0.02149 -0.00296,0.0027 0.026861,0.09141 0.066406,0.197265 0.03956,0.105857 0.072217,0.211144 0.072266,0.232422 0,0.0074 0.00121,0.01293 0.00586,0.01758 l 0.3203125,0.320313 c -0.014264,0.08207 -0.022322,0.08943 -0.125,0.103516 -0.06093,0.0084 -0.1685263,0.01563 -0.2382813,0.01562 -0.069755,0 -0.1595365,0.0073 -0.2011719,0.01563 -0.064403,0.01288 -0.076172,0.02472 -0.076172,0.08594 0,0.08909 -0.085509,0.212891 -0.1464844,0.212891 -0.024968,0 -0.052308,0.01205 -0.060547,0.02539 -0.020641,0.03341 -0.1939821,0.0299 -0.2324219,0 l -0.015625,-0.01563 c -0.037852,-0.03784 -0.2280687,-0.02137 -0.2636718,0.02734 -0.025383,0.0347 -0.041531,0.03724 -0.1035156,0.01563 -0.050865,-0.01771 -0.1390858,-0.01759 -0.2753907,-0.002 -0.1096856,0.01262 -0.2118479,0.02139 -0.2285156,0.02148 -0.017991,1.1e-4 -0.031313,0.03328 -0.03125,0.08008 v 0.07813 l 2.9804687,2.980469 c 0.036822,0.09672 0.072266,0.196433 0.072266,0.214844 0,0.01503 0.00838,0.03182 0.019531,0.04297 l 1.5761719,1.576172 c -0.02877,0.0068 -0.051298,0.366253 -0.037109,0.611328 0.029952,0.517791 0.2406891,0.949672 0.6816405,1.390625 l 0.982422,0.982421 C 10.796246,22.06055 10.225634,21.778395 9.7734344,21.390634 9.6801674,21.310654 9.6013481,21.253627 9.5976531,21.263681 c -0.015605,0.04248 0.1814588,0.459132 0.3085938,0.652344 0.1085231,0.164917 0.2170261,0.301009 0.3359381,0.419922 l 1.123046,1.123046 c -0.183047,0.0078 -0.36662,0.0038 -0.558593,-0.02734 -0.125107,-0.02022 -0.233621,-0.03005 -0.240235,-0.02344 -0.0099,0.0099 0.0659,0.09325 0.164063,0.191406 l 42.759765,42.761719 c 0.110287,0.110287 0.250356,0.236415 0.332032,0.294922 0.359848,0.257886 0.82879,0.417173 1.300781,0.451172 l 1.048828,1.048828 c 0.142299,0.142299 0.339035,0.256563 0.546875,0.3125 0.270123,0.07272 0.605712,0.02989 0.876953,-0.113281 0.08515,-0.04494 0.225864,-0.15627 0.332031,-0.261719 0.391451,-0.388841 0.504591,-0.874214 0.341797,-1.324219 l 1.320313,1.320313 0.0039,0.0039 c 0.202507,0.201146 0.400565,0.321142 0.623047,0.375 0.404901,0.098 0.833917,-0.01573 1.113281,-0.294922 0.183383,-0.183383 0.240235,-0.313035 0.240234,-0.539062 0,-0.221443 -0.05354,-0.344547 -0.24414,-0.535157 l -0.0332,-0.03125 -0.726563,-0.728515 c 0.03712,-0.0031 0.06204,-0.0078 0.115235,-0.0098 0.20965,-0.0079 0.276481,-0.0012 0.419921,0.04492 0.0969,0.03115 0.196908,0.08426 0.294922,0.144531 l 0.609375,0.609375 0.302735,-0.01172 c 0.497858,-0.01852 1.010582,-0.188581 1.390625,-0.460938 0.154318,-0.110589 0.51523,-0.467154 0.49414,-0.488281 l -0.539062,-0.539063 c 0.492668,-0.176403 0.894527,-0.488885 1.195312,-0.949218 0.128164,-0.196159 0.327505,-0.615182 0.3125,-0.65625 l -0.451171,-0.451172 c 0.213566,-0.309653 0.332625,-0.6272 0.353515,-0.988282 0.01361,-0.237581 -0.0076,-0.587791 -0.03516,-0.615234 l -0.002,-0.002 -0.572266,-0.572266 c 0.03448,-0.180826 0.05846,-0.365355 0.05859,-0.558593 1.13e-4,-0.174429 0.0088,-0.223487 0.03711,-0.234376 0.02003,-0.0076 0.03516,-0.03201 0.03516,-0.05469 0,-0.06607 0.0751,-0.131137 0.15625,-0.134766 0.03515,-0.0016 0.04995,-0.0029 0.04687,-0.0059 l -0.07031,-0.07031 c 0.0064,-0.0081 0.01869,-0.01199 0.03516,-0.01367 l 0.111328,0.111328 0.05469,0.0039 c 0.03844,0.0023 0.07445,-0.0264 0.121094,-0.09375 0.06164,-0.08911 0.132279,-0.116889 0.175781,-0.07813 l 0.01953,0.01953 0.0059,0.0078 c 0.02268,0.02268 0.08969,0.04477 0.193359,0.0625 0.199143,0.03402 0.242187,0.02776 0.242187,-0.03906 0,-0.02532 0.01065,-0.04492 0.02539,-0.04492 0.01474,0 0.212505,0.03295 0.4375,0.07422 0.224995,0.04142 0.425316,0.07017 0.445313,0.0625 0.02003,-0.0076 0.03516,-0.03273 0.03516,-0.05469 0,-0.02192 0.04,-0.138153 0.08789,-0.257813 0.06297,-0.157417 0.07971,-0.2249 0.06055,-0.244141 l -0.24414,-0.24414 c 0.0015,7.6e-4 0.0044,0.0012 0.0059,0.002 l 0.179688,0.179687 c 0.01739,0.01739 0.03125,0.02244 0.03125,0 0,-0.03477 0.104089,-0.03461 0.138671,0 0.03364,0.03326 0.133332,0.01858 0.146485,-0.02148 0.0027,-0.0083 0.0017,-0.01619 -0.0039,-0.02148 L 65.267617,57.9921 c -0.0083,-0.01328 -0.0041,-0.02755 -0.01758,-0.04102 -0.02495,-0.02495 -0.02668,-0.04374 -0.0098,-0.06445 0.02117,-0.0257 0.01656,-0.05372 -0.0059,-0.07617 h -0.002 L 64.78125,57.359375 v -0.002 c 0.02459,-0.03286 0.04878,-0.07755 0.07227,-0.09766 0.03087,-0.02642 0.02927,-0.04429 0.04492,-0.06641 l 1.21289,1.212891 0.0039,0.0039 c 0.162785,0.162785 0.417698,0.358912 0.515625,0.396485 0.03288,0.01247 0.127561,-0.107532 0.277344,-0.355469 l 0.05273,-0.08789 -0.685547,-0.685547 c -0.03633,-0.07987 -0.07092,-0.15964 -0.08789,-0.246093 -0.01663,-0.08413 -0.04123,-0.176842 -0.05469,-0.205079 -0.02971,-0.06236 -0.0152,-0.09898 0.02148,-0.123046 l 0.576172,0.576172 c 0.01323,0.01323 0.07334,0.02344 0.136719,0.02344 0.06128,0 0.08552,0.01731 0.121093,0.0293 l 0.117188,0.117187 c 0.0678,0.0678 0.295183,0.09465 0.832031,0.107422 0.281688,0.0068 0.563801,0.01783 0.626953,0.02539 0.107754,0.01361 0.117646,0.01176 0.140625,-0.04883 0.01361,-0.03553 0.02344,-0.149667 0.02344,-0.253906 v -0.189454 l -0.265625,-0.265625 c 0.09669,0.0075 0.208013,0.01402 0.265625,0.02148 0.156661,0.02041 0.207511,0.02005 0.214843,-0.002 0.02117,-0.06338 0.111703,-0.125968 0.160157,-0.109375 0.02683,0.0091 0.167378,0.01802 0.310546,0.01953 l 0.259766,0.0039 v -0.08008 c 5.7e-5,-0.03515 -0.0062,-0.06115 -0.01758,-0.07227 l -2.626953,-2.626953 c 0.0412,-0.01577 0.05432,-0.03162 0.02344,-0.0625 -0.02192,-0.02192 -0.01726,-0.03977 0.01563,-0.07617 0.02381,-0.02608 0.03604,-0.05813 0.02734,-0.07227 -0.0087,-0.01436 0.01302,-0.0378 0.05078,-0.05273 0.03742,-0.01474 0.0971,-0.04383 0.132813,-0.0625 0.03319,-0.01733 0.06569,-0.02251 0.07617,-0.01367 h 0.002 l 0.002,0.0039 c 0.02381,0.02381 0.344241,-0.05056 0.419922,-0.09766 0.0381,-0.02381 0.05178,-0.04885 0.04297,-0.08203 -0.0072,-0.02683 -0.01329,-0.06344 -0.01367,-0.08203 -5.7e-5,-0.006 -0.0022,-0.01185 -0.0059,-0.01563 l -0.205078,-0.205078 c 0.0043,-0.0034 0.0065,-0.0031 0.01172,-0.0078 0.09664,-0.08674 0.516084,-0.14833 0.792969,-0.117187 0.144982,0.01625 0.218144,0.0086 0.519531,-0.05664 0.313436,-0.06799 0.40901,-0.101614 0.869141,-0.310547 0.283956,-0.128919 0.524346,-0.234375 0.535156,-0.234375 0.01096,0 0.03419,-0.01708 0.05078,-0.03711 0.01663,-0.02003 0.04872,-0.03711 0.07227,-0.03711 0.02343,0 0.06622,-0.0192 0.0957,-0.04297 0.04112,-0.03326 0.04933,-0.04243 0.0293,-0.0625 L 70.560547,52.640625 27.800781,9.8808594 c -0.03058,-0.025384 -0.19317,-0.030654 -0.771484,-0.027344 -0.712933,0.00408 -0.742047,0.00554 -1.050781,0.074219 -0.234807,0.052237 -0.357876,0.094533 -0.472657,0.1601566 -0.08532,0.04878 -0.188547,0.09638 -0.228515,0.107421 -0.273316,0.07547 -0.387125,0.09551 -0.486328,0.08594 L 23.773438,9.2636719 C 23.764289,9.2545254 23.756324,9.25 23.748047,9.25 c -0.01838,0 -0.09568,0.019712 -0.171875,0.044922 -0.0443,0.01465 -0.151809,0.039055 -0.242188,0.0625 L 22.753906,8.7773438 C 22.746876,8.7703136 22.73228,8.7605071 22.712891,8.75 22.666928,8.7251073 22.618434,8.7176306 22.568359,8.7285156 22.459014,8.7522401 22.343745,8.7554321 22.226562,8.75 L 20.603516,7.1269531 C 20.495415,7.0188624 20.34068,6.9866531 20.212891,7.0527344 20.072783,7.125187 19.968387,7.3290286 19.9375,7.5273438 L 19.414062,7.0039062 c -0.03945,-0.039111 -0.13451,-0.1077302 -0.21289,-0.1523437 -0.03836,-0.021833 -0.06433,-0.043063 -0.0918,-0.064453 l -0.07422,-0.074219 C 18.972813,6.6505398 18.725985,6.5444651 18.578125,6.5078125 L 18.333984,6.2636719 c -0.02236,-0.022352 -0.04492,0.00713 -0.04492,0.09375 0,0.096262 -0.0062,0.1093594 -0.04297,0.09375 -0.07469,-0.031669 -0.136215,-0.025228 -0.144532,0.015625 -0.0019,0.00952 0.0028,0.020353 0.01563,0.033203 L 18.8125,7.1953125 c -8.47e-4,0.036405 0.0018,0.057205 -0.002,0.095703 -0.01126,0.1140019 -0.01319,0.1508475 0.0039,0.1679688 l 0.05859,0.058594 c 0.0015,0.018904 4.31e-4,0.036593 -0.04102,0.097656 -0.06712,0.098918 -0.08047,0.2141629 -0.03516,0.2988281 0.007,0.013002 0.01358,0.023351 0.02148,0.03125 l 1.097657,1.0976563 c -4.45e-4,0.1457836 -0.03441,0.2133181 -0.216797,0.3144531 -0.237273,0.1315742 -0.343051,0.2408614 -0.376953,0.390625 L 18.013672,8.4394531 C 17.951222,8.3770035 17.878363,8.330298 17.798828,8.296875 L 15.966797,6.4648438 c -0.0094,0.00125 -0.05166,0.067891 -0.09375,0.1503906 -0.04249,0.083274 -0.180847,0.350133 -0.306641,0.59375 -0.182109,0.3526794 -0.234984,0.4780006 -0.257812,0.6132812 -0.0026,0.015146 -0.0018,0.026679 -0.0039,0.041016 l -1.416022,-1.416016 c -0.0019,-0.00194 -0.0093,0.0016 -0.01172,0 z"
       id="path890"
       inkscape:connector-curvature="0"
       inkscape:label="Shadow"
       transform="scale(0.26458334)"
       clip-path="url(#clipPath2349)" />
  </g>
  <g
     inkscape:groupmode="layer"
     id="layer3"
     inkscape:label="Logo"
     style="opacity:1">
    <path
       inkscape:label="Logo"
       inkscape:connector-curvature="0"
       id="path862"
       d="M 3.6930435,6.8021017 C 3.6110852,6.7800414 3.536059,6.7232805 3.5046991,6.6596096 3.483348,6.6162586 3.4836757,6.5452933 3.505428,6.50273 3.525156,6.46412 3.59548,6.3958092 3.6373019,6.3746304 c 0.094982,-0.048097 0.1573829,-0.041198 0.1890643,0.020901 0.037402,0.073314 0.013404,0.1558427 -0.054254,0.1865754 -0.040856,0.018556 -0.065096,0.015799 -0.091285,-0.010391 -0.020114,-0.020116 -0.0222,-0.025422 -0.020144,-0.051279 0.00279,-0.034988 -0.00715,-0.037949 -0.025834,-0.00771 -0.019266,0.031174 -0.023298,0.06762 -0.010794,0.097549 0.013943,0.033366 0.026541,0.046374 0.062652,0.064689 0.086277,0.043752 0.2104363,-0.012126 0.2627053,-0.1182287 0.011857,-0.024071 0.014721,-0.040486 0.014721,-0.084365 0,-0.047566 -0.00251,-0.059772 -0.019753,-0.096162 C 3.9201664,6.3251197 3.8766645,6.2804279 3.8279409,6.2565893 3.7966238,6.241265 3.7815442,6.2382703 3.7252415,6.2361852 3.669774,6.234151 3.6520477,6.2360541 3.6140989,6.2482604 3.5369723,6.2730607 3.4514373,6.3380979 3.4000898,6.410986 l -0.025638,0.036395 -0.08012,-0.00299 C 3.1617005,6.4394139 3.0278697,6.3950402 2.9267324,6.3225629 2.8859029,6.2933043 2.7902526,6.1987735 2.795831,6.1931953 c 0.00175,-0.00175 0.030254,0.00124 0.063355,0.00659 0.1143774,0.018551 0.2185666,0.011262 0.3314852,-0.02319 0.061996,-0.018912 0.161345,-0.058639 0.161345,-0.064515 0,-0.00277 -0.019469,-0.00509 -0.043265,-0.00514 C 3.2472814,6.1067458 3.0884625,6.0905282 3.0305608,6.0785208 2.9627227,6.0644566 2.9168855,6.0478157 2.854366,6.0145549 2.7543467,5.9613493 2.6876645,5.8995792 2.6211924,5.798565 2.5875546,5.7474444 2.5352972,5.637018 2.5394259,5.6257785 c 9.776e-4,-0.00266 0.021971,0.012465 0.046648,0.033626 0.1506526,0.1291845 0.3511012,0.2167098 0.5355681,0.2338541 0.024474,0.00226 0.044498,0.00254 0.044498,6.216e-4 0,-0.00192 -0.043986,-0.02714 -0.097746,-0.056008 C 2.929215,5.763136 2.8358977,5.6992317 2.761087,5.6274262 2.6341401,5.5055795 2.5738464,5.3875763 2.5655877,5.2448067 c -0.00379,-0.065462 0.0021,-0.1632618 0.00982,-0.1632494 0.00235,4e-6 0.013941,0.02154 0.025773,0.047854 0.1090723,0.2425933 0.3884328,0.4869761 0.72225,0.6318194 0.1824456,0.079164 0.4313929,0.2169195 0.5413554,0.2995616 0.090518,0.068029 0.1883324,0.1782211 0.2273371,0.2561048 0.064273,0.1283404 0.034557,0.2730108 -0.079312,0.3861201 -0.028087,0.027902 -0.065197,0.057069 -0.087731,0.068959 -0.071766,0.03787 -0.1605611,0.04942 -0.2320333,0.03018 z M 4.6187657,6.8019102 C 4.5599005,6.7876617 4.5074313,6.7561797 4.453857,6.7029628 4.3399884,6.5898536 4.3102721,6.4451831 4.3745453,6.3168428 4.4135499,6.2389591 4.5113646,6.1287666 4.6018824,6.0607379 4.7118449,5.9780959 4.9607922,5.84034 5.1432378,5.761177 5.364231,5.6652877 5.5728092,5.518856 5.7096672,5.3635168 5.7674134,5.2979727 5.8360529,5.1948248 5.8654877,5.129357 c 0.011832,-0.026315 0.023429,-0.047849 0.025773,-0.047854 0.00772,-1.24e-5 0.013603,0.097787 0.00982,0.1632494 -0.00826,0.1427702 -0.068552,0.2607728 -0.1954994,0.3826201 -0.074811,0.071805 -0.168128,0.1357092 -0.3073065,0.2104456 -0.05376,0.028869 -0.097746,0.054076 -0.097746,0.056014 0,0.00192 0.020024,0.00164 0.044498,-6.216e-4 0.184467,-0.017144 0.3849155,-0.1046696 0.5355683,-0.2338541 0.024676,-0.021161 0.045715,-0.036152 0.046751,-0.033316 0.00397,0.010866 -0.048844,0.1215715 -0.082757,0.1734723 -0.097778,0.1496424 -0.2342279,0.2428273 -0.4084815,0.2789597 -0.057902,0.012007 -0.2167206,0.02823 -0.2781913,0.028417 -0.023796,7.23e-5 -0.043265,0.00237 -0.043265,0.00514 0,0.00588 0.099349,0.0456 0.161345,0.064515 0.1129185,0.034451 0.2171078,0.041735 0.3314853,0.02319 0.033102,-0.00537 0.061612,-0.00833 0.063355,-0.00659 0.00558,0.00559 -0.090072,0.1001073 -0.1309014,0.129367 -0.1005527,0.072059 -0.2358736,0.116911 -0.3675983,0.1218411 l -0.08012,0.00299 -0.025638,-0.036395 C 5.0152286,6.3380985 4.9296933,6.2730612 4.8525668,6.2482616 c -0.037949,-0.0122 -0.055675,-0.014126 -0.1111427,-0.012075 -0.056303,0.00209 -0.071382,0.00509 -0.1026993,0.020404 -0.048724,0.02384 -0.092226,0.068528 -0.1164375,0.119617 -0.017246,0.03639 -0.019753,0.048595 -0.019753,0.096162 0,0.043882 0.00286,0.060296 0.014721,0.084365 0.037607,0.076341 0.1210039,0.1335603 0.1946637,0.1335603 0.039934,0 0.087361,-0.018585 0.1092463,-0.042808 0.032904,-0.036418 0.037274,-0.091691 0.010654,-0.1347633 -0.018689,-0.030242 -0.028617,-0.027275 -0.025834,0.00771 0.00206,0.025851 -3.21e-5,0.031163 -0.020144,0.051279 -0.026189,0.02619 -0.050429,0.028948 -0.091285,0.010391 -0.067658,-0.030733 -0.091656,-0.1132607 -0.054254,-0.1865754 0.041635,-0.081613 0.1578448,-0.065725 0.2631969,0.035983 0.057319,0.055336 0.073343,0.088069 0.073343,0.1498203 0,0.059803 -0.015355,0.094081 -0.063877,0.1426034 C 4.8390509,6.7978497 4.725895,6.8278394 4.6187648,6.801909 Z M 4.2088375,6.2038465 C 4.1694334,6.1521762 4.0706814,6.0566017 4.0089977,6.0104362 3.9147258,5.9398806 3.8386711,5.8956781 3.4802087,5.7031057 3.2965732,5.6044534 3.2469514,5.5746089 3.1346815,5.4952944 2.8471601,5.2921708 2.71128,5.0635264 2.7110989,4.7825354 c -3.21e-5,-0.046154 -0.00208,-0.059387 -0.00965,-0.062292 -0.00529,-0.00203 -0.00961,-0.0091 -0.00961,-0.015714 0,-0.016878 -0.020027,-0.033084 -0.042167,-0.034118 -0.015115,-7.346e-4 -0.015944,-0.00141 -0.0043,-0.00367 0.018315,-0.0035 0.018996,-0.021116 8.193e-4,-0.021116 -0.011165,0 -0.01222,-0.0017 -0.00588,-0.00931 0.00425,-0.00514 0.00674,-0.014398 0.00555,-0.020613 -0.00179,-0.00931 -0.00782,-0.010979 -0.03418,-0.00946 -0.044969,0.0026 -0.053664,0.012719 -0.035786,0.041644 0.00767,0.012403 0.020305,0.023783 0.028088,0.025292 l 0.014152,0.00277 -0.014482,8.476e-4 c -0.010172,6.216e-4 -0.01971,-0.00668 -0.032048,-0.024523 -0.01881,-0.027191 -0.04127,-0.03392 -0.051602,-0.015454 -0.00376,0.00672 -0.022541,0.013284 -0.05296,0.018505 -0.05269,0.00904 -0.063627,0.00726 -0.063627,-0.01038 0,-0.00667 -0.00321,-0.012132 -0.00713,-0.012132 -0.00392,0 -0.055836,0.00896 -0.1153695,0.019912 -0.059534,0.010951 -0.1125705,0.018257 -0.1178597,0.016223 -0.00529,-0.00203 -0.00962,-0.00847 -0.00962,-0.014313 0,-0.00584 -0.010364,-0.036525 -0.02303,-0.068187 -0.016662,-0.041645 -0.021093,-0.0595 -0.016024,-0.064569 0.00507,-0.00509 0.00701,-0.00475 0.00701,0.00119 0,0.00961 0.038979,0.00339 0.045788,-0.00732 0.00227,-0.00356 0.012261,-0.00492 0.022204,-0.00305 0.00994,0.00192 0.033016,3.227e-4 0.051273,-0.0035 C 2.277487,4.501478 2.289471,4.487822 2.297224,4.444748 2.301154,4.422942 2.300334,4.420564 2.290044,4.42375 2.283654,4.42573 2.257409,4.43173 2.231714,4.437091 2.173294,4.449274 2.148329,4.461959 2.143296,4.482013 2.138996,4.499146 2.121398,4.517922 2.121398,4.505378 c 0,-0.0092 -0.02729,-0.00939 -0.036436,-2.419e-4 -0.00885,0.00885 -0.035436,0.0052 -0.038909,-0.00537 -0.00145,-0.00441 0.00223,-0.00801 0.00819,-0.00801 0.00596,0 0.021339,-0.00804 0.034184,-0.017873 0.012845,-0.00983 0.074343,-0.043481 0.1366595,-0.074779 l 0.1133037,-0.05691 0.023693,-0.0665 c 0.013031,-0.036576 0.029156,-0.072869 0.035834,-0.080653 l 0.012141,-0.014155 0.044743,0.048069 0.044743,0.048075 6.4e-6,-0.027015 c 6.4e-6,-0.020461 -0.0031,-0.028682 -0.01281,-0.033875 -0.020184,-0.010804 -0.015429,-0.023648 0.022433,-0.060616 0.019389,-0.018929 0.035253,-0.037695 0.035253,-0.041701 0,-0.00401 -0.010255,-0.017844 -0.02279,-0.03075 -0.024144,-0.024863 -0.025765,-0.043634 -0.00551,-0.063882 0.00664,-0.00664 0.00755,-0.0119 0.00299,-0.017375 -0.012276,-0.014793 0.00834,-0.032152 0.038189,-0.032152 0.033081,0 0.049456,0.01707 0.050231,0.052364 2.927e-4,0.013347 0.00346,0.034135 0.00704,0.046199 0.00694,0.023393 3.634e-4,0.038955 -0.016452,0.038955 -0.011488,0 -0.011278,0.00922 4.34e-4,0.018935 0.0051,0.00424 0.012491,0.024049 0.016438,0.044052 0.01089,0.055183 0.024852,0.09463 0.040392,0.1141191 0.00771,0.00967 0.019796,0.026778 0.026846,0.038011 0.0543,0.086505 0.085292,0.1070355 0.098574,0.065301 0.028327,-0.089005 0.070641,-0.2752405 0.091014,-0.4005804 0.0113,-0.069519 0.031306,-0.2228487 0.031486,-0.2413071 3.19e-5,-0.00324 -0.02841,-0.00417 -0.065338,-0.00214 -0.049211,0.00271 -0.06723,0.00612 -0.072814,0.013751 -0.00408,0.00558 -0.011605,0.010148 -0.016723,0.010148 -0.01177,0 -0.037354,0.034092 -0.037354,0.049777 0,0.00651 0.011537,0.041443 0.025638,0.077626 0.014101,0.036183 0.025638,0.067899 0.025638,0.07048 0,0.0026 -0.014726,0.00998 -0.032724,0.01646 -0.036814,0.013239 -0.043912,0.00932 -0.044093,-0.024343 -1.615e-4,-0.029315 -0.036166,-0.09722 -0.064344,-0.1213399 -0.017829,-0.015261 -0.025488,-0.026929 -0.025488,-0.038828 0,-0.019151 -0.015076,-0.023294 -0.024365,-0.0067 -0.00531,0.00948 -0.00609,0.00948 -0.00973,0 -0.0041,-0.010699 -0.032817,-0.01368 -0.060445,-0.00628 -0.0117,0.00314 -0.014421,0.00839 -0.014421,0.027867 0,0.022722 -9.38e-4,0.023823 -0.017626,0.020656 -0.00969,-0.00184 -0.020996,-0.00793 -0.025114,-0.013522 -0.00412,-0.0056 -0.00893,-0.00873 -0.010693,-0.00697 -0.00176,0.00176 -0.00651,0.027326 -0.010544,0.056807 -0.01539,0.1123993 -0.053383,0.1889445 -0.1341441,0.2702621 -0.043008,0.043306 -0.1115199,0.096136 -0.1376935,0.1061794 -0.0087,0.00333 -0.033547,-0.028671 -0.073177,-0.094271 L 2.063773,4.1281873 2.103135,4.1038903 c 0.09035,-0.055765 0.1477735,-0.1329766 0.1652927,-0.2222468 0.00437,-0.022258 0.010855,-0.04658 0.014414,-0.054048 0.011204,-0.023508 0.0042,-0.037478 -0.019956,-0.039786 -0.014876,-0.00142 -0.023659,0.00114 -0.027506,0.00801 -0.00311,0.00555 -0.013974,0.010101 -0.024145,0.010101 -0.029697,0 -0.050748,0.010469 -0.047626,0.023684 0.0015,0.00636 -8.871e-4,0.024713 -0.00532,0.040778 -0.00741,0.026886 -0.00932,0.028849 -0.024072,0.024675 -0.015759,-0.00446 -0.015779,-0.00454 -0.00118,-0.00518 0.012298,-5.299e-4 0.014499,-0.00367 0.012819,-0.018265 -0.00171,-0.014861 -0.00505,-0.017626 -0.021257,-0.017626 -0.018278,0 -0.01924,0.00133 -0.019463,0.02694 -1.312e-4,0.014817 -0.00229,0.028998 -0.00481,0.031514 -0.00251,0.00254 -0.00457,-0.00542 -0.00457,-0.017647 0,-0.012221 -0.00346,-0.025681 -0.00769,-0.029911 -0.011143,-0.011143 -0.041508,-0.00953 -0.046104,0.00245 -0.00616,0.016062 -0.00453,0.053604 0.00294,0.067561 0.00606,0.011324 0.01118,0.012318 0.045485,0.0088 0.02651,-0.00271 0.037335,-0.00181 0.034454,0.00283 -0.00231,0.00373 -0.018642,0.0068 -0.036292,0.0068 -0.036976,0 -0.056886,0.00852 -0.056886,0.02432 0,0.029072 -0.051079,0.038751 -0.226635,0.042938 -0.074528,0.00175 -0.1491759,0.00492 -0.1658843,0.00703 -0.028512,0.00356 -0.030777,0.00277 -0.036855,-0.013228 -0.00356,-0.00937 -0.00648,-0.039593 -0.00648,-0.067169 v -0.050136 l 0.044523,-0.00251 c 0.044549,-0.00251 0.060938,-0.00844 0.047072,-0.017009 -0.00529,-0.00327 -0.00423,-0.00874 0.00373,-0.019298 0.010057,-0.013334 0.018707,-0.015287 0.090892,-0.020531 0.043877,-0.00319 0.08194,-0.00588 0.084584,-0.00599 0.00264,-1.08e-4 0.00481,-0.00485 0.00481,-0.010538 0,-0.00846 -0.00494,-0.00968 -0.027241,-0.00671 -0.014983,0.002 -0.064737,0.00531 -0.110565,0.00736 -0.045828,0.00205 -0.1077135,0.00689 -0.1375225,0.01076 -0.04145,0.00538 -0.054796,0.00525 -0.056738,-5.82e-4 -0.00559,-0.016772 -0.030034,-0.033203 -0.042862,-0.028812 -0.00707,0.00242 -0.043845,0.00474 -0.081726,0.00514 l -0.068875,7.459e-4 -2.76e-5,-0.020831 c -1.66e-5,-0.012381 0.00322,-0.020851 0.00798,-0.02088 0.00441,-2.56e-5 0.031756,-0.00278 0.060777,-0.00612 0.036064,-0.00415 0.058998,-0.00389 0.072456,7.967e-4 0.0164,0.00572 0.021039,0.00502 0.027755,-0.00416 0.010025,-0.013711 0.066143,-0.017775 0.07099,-0.00514 0.00378,0.00985 0.058549,0.011424 0.064464,0.00185 0.00218,-0.00353 0.00936,-0.00641 0.015966,-0.00641 0.016133,0 0.038515,-0.032701 0.038515,-0.056272 0,-0.016198 0.00299,-0.019638 0.02003,-0.023046 0.011016,-0.0022 0.035131,-0.00401 0.053587,-0.00401 0.018456,0 0.046747,-0.00181 0.062868,-0.00402 0.028144,-0.00386 0.029475,-0.00501 0.033539,-0.029065 0.00271,-0.01601 0.00144,-0.028409 -0.0035,-0.034364 -0.0061,-0.00735 -0.00589,-0.00993 0.001,-0.012215 0.00814,-0.0027 0.056331,-0.00901 0.074432,-0.00975 0.011145,-4.531e-4 0.010043,-0.022708 -0.0016,-0.032374 -0.00653,-0.00542 -0.012181,-0.00593 -0.017626,-0.00158 -0.00441,0.00352 -0.037576,0.00776 -0.07371,0.00942 -0.057166,0.00263 -0.065701,0.00169 -0.065721,-0.00722 -1.29e-5,-0.00563 -0.00858,-0.033157 -0.019047,-0.061165 -0.010463,-0.028008 -0.018385,-0.051518 -0.017603,-0.052244 7.798e-4,-7.289e-4 0.057695,-0.00319 0.1264756,-0.00546 0.1218978,-0.00404 0.1254269,-0.0038 0.1398128,0.00961 0.013277,0.012368 0.015844,0.012775 0.025571,0.00405 0.00595,-0.00533 0.020997,-0.011588 0.033447,-0.013896 0.033072,-0.00613 0.045996,0.010278 0.043422,0.055135 -0.00164,0.028601 -0.00446,0.035435 -0.017237,0.041777 -0.01204,0.00598 -0.02067,0.00568 -0.040742,-0.0014 -0.030356,-0.010711 -0.036921,-0.00784 -0.036921,0.01616 0,0.028299 0.014028,0.035045 0.071411,0.034339 0.043764,-5.38e-4 0.052141,0.00112 0.058716,0.011653 0.00711,0.011386 0.013269,0.011982 0.084588,0.00818 0.060562,-0.00323 0.081463,-0.00684 0.098284,-0.016967 0.021315,-0.012836 0.021405,-0.012836 0.038458,-1.534e-4 0.0094,0.00699 0.018014,0.018913 0.019141,0.026491 0.00112,0.00758 0.00545,0.013589 0.00961,0.013357 0.00416,-2.311e-4 0.039293,-0.00389 0.078071,-0.00813 0.065663,-0.00718 0.070379,-0.00862 0.068667,-0.021031 -0.00214,-0.015476 0.00754,-0.024636 0.032284,-0.030546 0.00983,-0.00235 0.017626,-0.0086 0.017626,-0.014135 0,-0.00686 0.00379,-0.00872 0.01228,-0.00603 0.00675,0.00214 0.014135,8.928e-4 0.016402,-0.00277 0.00227,-0.00367 0.01086,-0.00667 0.019095,-0.00667 0.012774,0 0.015329,0.00375 0.017405,0.025507 0.00159,0.016661 -4.038e-4,0.026594 -0.00574,0.028642 -0.015177,0.00582 -0.0083,0.016356 0.010681,0.016356 0.010368,0 0.020743,0.00306 0.023056,0.0068 0.00231,0.00374 0.010694,0.00927 0.018624,0.012287 0.00793,0.00302 0.019328,0.015828 0.025329,0.028473 0.010517,0.022162 0.011882,0.022856 0.037838,0.019232 0.01481,-0.00207 0.03529,-0.00641 0.045511,-0.00964 0.010221,-0.00323 0.034472,-0.00588 0.053893,-0.00588 h 0.03531 l -0.00411,-0.1230536 c -0.00364,-0.1089437 -0.00605,-0.1289713 -0.021009,-0.1746606 -0.014895,-0.045506 -0.03342,-0.073436 -0.049011,-0.073898 -0.00264,-7.84e-5 -0.00481,0.00563 -0.00481,0.012676 0,0.018923 -0.012555,0.015679 -0.038907,-0.010053 -0.015063,-0.014708 -0.034606,-0.025717 -0.054752,-0.030843 -0.028775,-0.00732 -0.031589,-0.00977 -0.034533,-0.030007 -0.00294,-0.020201 -0.00534,-0.022303 -0.028843,-0.025241 -0.022184,-0.00277 -0.025652,-0.00536 -0.025737,-0.019229 -7.24e-5,-0.011662 -0.00399,-0.016582 -0.014421,-0.018072 -0.00961,-0.00137 -0.014323,0.00126 -0.014323,0.00801 0,0.011659 -0.00558,0.012072 -0.044867,0.00332 -0.046211,-0.010292 -0.044299,-0.00769 -0.03502,-0.047611 0.00825,-0.035471 0.00813,-0.036178 -0.00667,-0.041808 -0.00828,-0.00315 -0.026003,-0.0066 -0.039376,-0.00766 l -0.024315,-0.00194 -0.00708,0.032048 c -0.00675,0.030562 -0.00803,0.032004 -0.027427,0.031103 -0.01988,-9.21e-4 -0.026738,0.00585 -0.013935,0.013764 0.010643,0.00658 0.00731,0.013557 -0.010314,0.021586 -0.012974,0.00591 -0.01588,0.010813 -0.01296,0.02186 0.00259,0.00978 -2.019e-4,0.017258 -0.00892,0.023887 -0.00964,0.00733 -0.018111,0.035005 -0.035274,0.115213 -0.012424,0.058062 -0.025304,0.108282 -0.028623,0.1116008 -0.00831,0.00831 -0.076854,-0.00758 -0.081166,-0.018814 -0.00185,-0.00483 0.00453,-0.046311 0.014195,-0.092172 0.020403,-0.09684 0.019876,-0.098592 -0.032922,-0.1095528 -0.019118,-0.00397 -0.03476,-0.00881 -0.03476,-0.010768 0,-0.00196 0.00826,-0.0019 0.018351,1.181e-4 0.025994,0.0052 0.052154,-0.022538 0.052154,-0.055297 0,-0.01678 -0.0028,-0.023685 -0.00961,-0.023685 -0.00529,0 -0.00961,0.00377 -0.00961,0.00839 0,0.00462 -0.00418,0.013988 -0.0093,0.020831 -0.0089,0.011912 -0.00913,0.011792 -0.00544,-0.00283 0.00446,-0.017663 -0.017639,-0.038835 -0.040783,-0.039072 -0.011196,-1.151e-4 -0.014686,0.00475 -0.018165,0.025348 l -0.00431,0.02549 -0.015485,-0.018403 c -0.00852,-0.010122 -0.015485,-0.022829 -0.015485,-0.028237 0,-0.017308 -0.016374,-0.027059 -0.059995,-0.035729 -0.043668,-0.00868 -0.048074,-0.011808 -0.035018,-0.024863 0.00578,-0.00578 0.00489,-0.010473 -0.00383,-0.020107 -0.00626,-0.00691 -0.00949,-0.01562 -0.00718,-0.019353 0.00232,-0.00376 -0.00383,-0.00998 -0.013793,-0.013945 -0.00989,-0.00394 -0.025721,-0.011206 -0.035173,-0.016153 -0.00945,-0.00494 -0.018774,-0.00642 -0.020718,-0.00328 -0.00435,0.00704 -0.091119,-0.01259 -0.1113947,-0.025209 -0.010074,-0.00627 -0.01363,-0.013179 -0.011305,-0.021965 0.00186,-0.00705 0.00343,-0.016841 0.00348,-0.021758 6.99e-5,-0.00714 0.00816,-0.00809 0.040147,-0.00472 0.022033,0.00232 0.048165,0.00599 0.058072,0.00816 0.014746,0.00322 0.018659,0.00146 0.021578,-0.0097 0.00196,-0.0075 0.00756,-0.01364 0.012433,-0.01364 0.0171,0 0.00867,-0.018254 -0.010362,-0.022433 -0.010576,-0.00232 -0.019273,-0.00616 -0.019327,-0.00852 -5.12e-5,-0.00236 -0.00276,-0.00851 -0.00602,-0.013657 -0.00507,-0.00801 -0.00782,-0.00764 -0.019131,0.00259 -0.012052,0.010907 -0.014194,0.011072 -0.024427,0.00189 -0.025567,-0.022945 -0.1365523,-0.039465 -0.2098118,-0.031229 -0.038358,0.00431 -0.058084,0.00214 -0.1378222,-0.015154 -0.082934,-0.01799 -0.1079162,-0.026933 -0.2296585,-0.08221 -0.075133,-0.034113 -0.1389478,-0.062024 -0.141813,-0.062024 -0.00286,0 -0.0088,-0.00433 -0.013189,-0.00961 -0.00439,-0.00529 -0.013075,-0.00961 -0.019303,-0.00961 -0.00623,0 -0.017709,-0.00517 -0.025512,-0.011488 -0.012834,-0.010392 -0.013209,-0.0123 -0.00393,-0.019997 0.00809,-0.00672 0.051128,-0.00828 0.2041404,-0.0074 0.1886301,0.00108 0.1961646,0.00162 0.277851,0.019788 0.062126,0.013821 0.094638,0.024782 0.1250079,0.042145 0.022574,0.012906 0.049698,0.025856 0.060273,0.028776 0.074336,0.020529 0.1056479,0.025938 0.1323499,0.022866 0.025058,-0.00288 0.030279,-0.00159 0.032828,0.00816 0.00438,0.016745 0.071079,0.017545 0.079246,9.493e-4 0.00522,-0.010611 0.010196,-0.010259 0.084536,0.00599 0.092983,0.02032 0.095473,0.019441 0.1135087,-0.040116 0.00614,-0.02027 0.014703,-0.036855 0.019033,-0.036855 0.00433,0 0.015247,0.0058 0.024259,0.01289 0.013807,0.010861 0.055016,0.023145 0.094417,0.028145 0.00535,6.781e-4 0.012577,0.00299 0.016061,0.00515 0.00348,0.00215 0.013962,0.00246 0.023288,6.724e-4 0.012513,-0.00239 0.01763,-0.00785 0.019534,-0.020818 0.00388,-0.026394 -3.735e-4,-0.032455 -0.022674,-0.032374 -0.011163,3.84e-5 -0.059235,-0.00847 -0.1068261,-0.018922 C 2.2404526,2.6228715 2.1878142,2.6125666 2.1710692,2.61042 l -0.030445,-0.0039 3.84e-5,-0.030052 c 5.82e-5,-0.051087 0.025962,-0.129401 0.0428,-0.129401 0.00487,0 0.025337,0.00545 0.045496,0.012121 0.020159,0.00667 0.069504,0.019728 0.1096568,0.029025 0.063614,0.01473 0.074332,0.015727 0.083324,0.00775 0.015516,-0.013757 0.053421,2.625e-4 0.058414,0.021605 0.00344,0.014711 0.010279,0.017504 0.083479,0.034091 0.073538,0.016664 0.085344,0.021763 0.091563,0.039542 0.00285,0.00815 0.071386,0.00663 0.103748,-0.00231 0.013706,-0.00379 0.026048,-0.00575 0.027427,-0.00437 0.00282,0.00282 -0.029041,0.1515244 -0.033399,0.1558821 -0.0039,0.0039 -0.048507,-0.030785 -0.048507,-0.037715 0,-0.00311 -0.00409,-0.00565 -0.00908,-0.00565 -0.005,0 -0.010093,-0.00303 -0.01133,-0.00675 -0.00124,-0.00371 -0.013736,-0.00934 -0.027775,-0.012506 -0.019353,-0.00436 -0.029013,-0.00348 -0.039947,0.00369 -0.013344,0.00874 -0.015212,0.014933 -0.017518,0.05806 -0.00131,0.024413 -0.018392,0.042171 -0.04469,0.046446 -0.013679,0.00223 -0.026014,0.00747 -0.027411,0.011664 -0.00311,0.00934 0.036629,0.017673 0.061036,0.012791 0.016008,-0.0032 0.01743,-0.00185 0.0174,0.016592 l -3.21e-5,0.020079 0.076915,0.017607 c 0.080795,0.018494 0.1216747,0.022338 0.1280399,0.012039 0.00244,-0.00394 0.00964,-0.00394 0.020024,0 0.00892,0.00339 0.028592,0.00616 0.043721,0.00616 h 0.027507 l 0.023776,-0.052879 c 0.029905,-0.066441 0.054552,-0.1051916 0.1023861,-0.1608932 0.025744,-0.029978 0.037758,-0.049415 0.037639,-0.060894 -3.028e-4,-0.029779 -0.013488,-0.097577 -0.020647,-0.1062034 -0.00381,-0.00459 -0.011329,-0.02315 -0.016698,-0.041229 -0.00537,-0.018079 -0.012049,-0.032872 -0.014842,-0.032872 -0.00279,0 -0.0088,-0.00696 -0.013351,-0.015457 -0.00532,-0.00993 -0.016272,-0.016957 -0.030642,-0.019654 -0.045142,-0.00847 -0.065686,-0.051785 -0.045535,-0.096011 0.0041,-0.00899 0.00597,-0.017836 0.00415,-0.019649 -0.00181,-0.00181 -0.024635,0.00581 -0.050715,0.016931 -0.1087932,0.046409 -0.1308823,0.05172 -0.2332964,0.056099 -0.078991,0.00338 -0.1009145,0.00649 -0.1228865,0.017442 l -0.026743,0.013331 -0.019726,-0.015438 c -0.01085,-0.00849 -0.019726,-0.020998 -0.019726,-0.027793 0,-0.00679 -0.00361,-0.01247 -0.00801,-0.012611 -0.00441,-1.413e-4 2.725e-4,-0.00474 0.010394,-0.010228 0.012162,-0.00659 0.025208,-0.00849 0.038457,-0.00562 0.046471,0.010085 0.095124,0.010215 0.1475402,3.927e-4 0.030417,-0.0057 0.069214,-0.011356 0.086214,-0.012569 0.021818,-0.00156 0.041125,-0.00878 0.065638,-0.024554 0.019101,-0.012292 0.043781,-0.027786 0.054845,-0.034431 0.024719,-0.014846 0.082038,-0.06031 0.1083998,-0.08598 0.013488,-0.013134 0.025965,-0.019041 0.040218,-0.019041 0.015921,0 0.022008,-0.00354 0.026519,-0.015401 0.00322,-0.00847 0.00865,-0.017126 0.012059,-0.019235 0.00341,-0.00211 0.00466,-0.00975 0.00276,-0.016983 -0.00441,-0.016854 -0.031575,-0.015015 -0.028727,0.00194 0.00112,0.00665 -0.00214,0.011217 -0.00801,0.011217 -0.011361,0 -0.013204,-0.010017 -0.00301,-0.016322 0.00449,-0.00277 0.00254,-0.00905 -0.00561,-0.018005 -0.025711,-0.028272 -0.028071,-0.039602 -0.018191,-0.087336 0.00508,-0.024552 0.015437,-0.054667 0.023011,-0.066923 0.027183,-0.043983 0.078779,-0.06135 0.1195799,-0.040251 0.025378,0.013123 0.037246,0.027403 0.059892,0.072062 0.01533,0.030232 0.019386,0.046509 0.01945,0.078056 6.86e-5,0.033695 -0.00148,0.039258 -0.010035,0.035976 -0.00649,-0.00249 -0.016947,0.00359 -0.029162,0.01697 -0.017589,0.019257 -0.018265,0.021714 -0.00885,0.032117 0.00561,0.0062 0.021983,0.012847 0.036391,0.014779 0.027902,0.00374 0.040231,-0.00431 0.101472,-0.066248 l 0.022433,-0.02269 2.422e-4,-0.077399 c 2.423e-4,-0.077127 3.13e-4,-0.077465 0.019229,-0.096213 0.010439,-0.010348 0.035948,-0.028472 0.056687,-0.040276 0.020737,-0.011804 0.038917,-0.026079 0.040399,-0.031722 0.00421,-0.016034 0.1147197,-0.065859 0.1471607,-0.06635 0.027297,-4.139e-4 0.02745,-5.451e-4 0.031539,-0.027815 0.00593,-0.039523 0.022012,-0.043135 0.022012,-0.00494 0,0.025471 0.00147,0.028702 0.011217,0.024571 0.019761,-0.00838 0.036392,-0.00654 0.038589,0.00427 0.00154,0.0076 -0.013173,0.018116 -0.053308,0.038092 -0.037053,0.018442 -0.057306,0.032499 -0.061064,0.042381 -0.00309,0.00813 -0.00958,0.014787 -0.014412,0.014787 -0.013217,0 -0.054933,0.043093 -0.059559,0.061524 -0.00223,0.00888 -0.00206,0.036391 3.735e-4,0.061126 0.00414,0.041966 0.00354,0.045203 -0.00882,0.048438 -0.017021,0.00445 -0.016706,0.00792 0.00341,0.037559 0.01776,0.026171 0.021377,0.056608 0.00939,0.079009 -0.017273,0.032275 -0.046217,0.00445 -0.074246,-0.071378 -0.00904,-0.024449 -0.013001,-0.029057 -0.019997,-0.023251 -0.0048,0.00398 -0.00873,0.010389 -0.00873,0.014236 0,0.00385 -0.013996,0.020079 -0.031102,0.03607 -0.017106,0.015992 -0.039844,0.042055 -0.050531,0.057919 -0.010686,0.015863 -0.025294,0.034121 -0.032463,0.040573 -0.00784,0.00705 -0.014693,0.023785 -0.017194,0.041969 -0.00479,0.034784 -0.00716,0.039243 -0.028837,0.054077 -0.018441,0.012621 -0.029532,0.052123 -0.035427,0.1261736 -0.00496,0.062283 0.00123,0.07324 0.059608,0.1056147 0.07822,0.043375 0.1038961,0.07652 0.1038961,0.1341192 0,0.051913 -0.022867,0.1383854 -0.063377,0.2396622 l -0.013573,0.033932 0.046002,-0.00188 0.046002,-0.00188 0.056955,-0.1346008 c 0.031325,-0.074031 0.058944,-0.1365658 0.061376,-0.1389674 0.00243,-0.0024 0.056264,0.063049 0.1196275,0.1454451 0.077427,0.1006836 0.1226983,0.154022 0.1380506,0.1626505 0.058906,0.033107 0.3771531,0.096733 0.4838421,0.096733 0.1066889,0 0.4249365,-0.063626 0.483842,-0.096733 0.015353,-0.00863 0.060624,-0.061967 0.1380507,-0.1626505 0.063364,-0.082396 0.1171963,-0.1478468 0.1196275,-0.1454451 0.00243,0.0024 0.03005,0.064937 0.061376,0.1389674 l 0.056955,0.1346008 0.046002,0.00188 0.046002,0.00188 -0.013573,-0.033932 C 5.1310936,2.7483705 5.1082264,2.6618977 5.1082264,2.6099851 c 0,-0.057599 0.025676,-0.090744 0.1038961,-0.1341192 0.058382,-0.032374 0.064566,-0.043332 0.059608,-0.1056147 -0.00589,-0.07405 -0.016987,-0.113553 -0.035427,-0.1261736 -0.021675,-0.014835 -0.024053,-0.019293 -0.028837,-0.054077 -0.0025,-0.018184 -0.00936,-0.034915 -0.017194,-0.041969 -0.00717,-0.00645 -0.021777,-0.024709 -0.032463,-0.040573 -0.010686,-0.015864 -0.033425,-0.041927 -0.05053,-0.057919 -0.017106,-0.015992 -0.031102,-0.032223 -0.031102,-0.03607 0,-0.00385 -0.00393,-0.010254 -0.00873,-0.014236 -0.007,-0.00581 -0.010959,-0.0012 -0.019997,0.023251 -0.028029,0.075827 -0.056973,0.1036534 -0.074246,0.071379 -0.011988,-0.022401 -0.00837,-0.052837 0.00939,-0.079009 0.020116,-0.029642 0.020431,-0.033108 0.00341,-0.037559 -0.01237,-0.00324 -0.012959,-0.00647 -0.00882,-0.048438 0.00244,-0.024734 0.0026,-0.052241 3.735e-4,-0.061126 -0.00463,-0.01843 -0.046343,-0.061524 -0.059559,-0.061524 -0.00484,0 -0.01132,-0.00665 -0.014412,-0.014787 -0.00376,-0.00988 -0.024011,-0.02394 -0.061064,-0.042381 -0.040135,-0.019976 -0.054853,-0.030493 -0.053308,-0.038091 0.0022,-0.010809 0.018828,-0.012649 0.038589,-0.00427 0.00974,0.00413 0.011217,8.984e-4 0.011217,-0.024571 0,-0.038192 0.016085,-0.034581 0.022012,0.00494 0.00409,0.027267 0.00424,0.027402 0.031539,0.027815 0.032441,4.946e-4 0.1429501,0.050315 0.1471606,0.06635 0.00148,0.00564 0.019662,0.019918 0.0404,0.031722 0.020738,0.011804 0.046247,0.029928 0.056686,0.040276 0.018915,0.018748 0.018982,0.019085 0.019229,0.096213 l 2.523e-4,0.077399 0.022433,0.02269 c 0.061241,0.061941 0.07357,0.069991 0.1014721,0.066248 0.014408,-0.00193 0.030784,-0.00858 0.036391,-0.014779 0.00941,-0.010403 0.00874,-0.012861 -0.00885,-0.032117 -0.012216,-0.013375 -0.022673,-0.01946 -0.029162,-0.01697 -0.00855,0.00328 -0.010104,-0.00228 -0.010035,-0.035977 1.211e-4,-0.059284 0.03639,-0.1279069 0.079342,-0.1501183 0.040801,-0.021099 0.092397,-0.00373 0.1195798,0.04025 0.00757,0.012256 0.017929,0.042371 0.023011,0.066923 0.00988,0.047735 0.00752,0.059064 -0.018191,0.087337 -0.00814,0.00895 -0.010098,0.01523 -0.00561,0.018005 0.010201,0.0063 0.00836,0.016322 -0.00301,0.016322 -0.00587,0 -0.00913,-0.00457 -0.00801,-0.011217 0.00285,-0.01696 -0.02432,-0.018799 -0.028727,-0.00194 -0.00189,0.00723 -6.441e-4,0.014874 0.00276,0.016983 0.00341,0.00211 0.00884,0.010764 0.012059,0.019235 0.00451,0.011866 0.010599,0.015401 0.026519,0.015401 0.014254,0 0.026731,0.00591 0.040218,0.019041 0.026362,0.02567 0.08368,0.071133 0.1083998,0.08598 0.011064,0.00665 0.035745,0.022139 0.054845,0.034431 0.024513,0.015775 0.04382,0.022998 0.065638,0.024555 0.017,0.00121 0.055797,0.00687 0.086214,0.012569 0.052416,0.00982 0.1010695,0.00969 0.1475403,-3.927e-4 0.013249,-0.00288 0.026296,-9.662e-4 0.038457,0.00562 0.010123,0.00549 0.0148,0.010086 0.010394,0.010228 -0.00441,1.414e-4 -0.00801,0.00582 -0.00801,0.012612 0,0.0068 -0.00888,0.019302 -0.019727,0.027793 L 5.9725216,2.3809718 5.9457787,2.367641 C 5.9238071,2.3566886 5.9018841,2.3535768 5.8228928,2.3501995 5.7204787,2.3458203 5.6983895,2.3405094 5.5895964,2.2941008 5.5635157,2.2829755 5.5406943,2.2753563 5.538881,2.2771695 c -0.00181,0.00181 5.76e-5,0.010655 0.00415,0.019649 0.010374,0.022769 0.0093,0.055131 -0.0024,0.071821 -0.00541,0.00773 -0.021995,0.017697 -0.036843,0.022146 -0.033602,0.010068 -0.052929,0.031266 -0.065304,0.071629 -0.00527,0.017199 -0.012708,0.035031 -0.016523,0.039627 -0.00721,0.00868 -0.020355,0.076568 -0.020631,0.1065119 -1.111e-4,0.011744 0.010948,0.029974 0.034984,0.057686 0.049003,0.056497 0.071068,0.090734 0.1020195,0.1582999 l 0.026789,0.05848 h 0.027513 c 0.015132,0 0.034809,-0.00277 0.043727,-0.00616 0.01038,-0.00394 0.017585,-0.00394 0.020024,0 0.00637,0.010299 0.047245,0.00646 0.1280399,-0.012039 l 0.076915,-0.017606 -3.21e-5,-0.020079 c -3.21e-5,-0.018437 0.00139,-0.019793 0.0174,-0.016592 0.024407,0.00488 0.064151,-0.00345 0.061036,-0.012791 -0.0014,-0.00419 -0.013732,-0.00944 -0.027411,-0.011664 -0.026298,-0.00427 -0.043385,-0.022033 -0.04469,-0.046446 -0.00231,-0.043126 -0.00417,-0.049316 -0.017518,-0.05806 -0.010934,-0.00716 -0.020594,-0.00806 -0.039947,-0.00369 -0.014039,0.00316 -0.026537,0.00879 -0.027775,0.012506 -0.00124,0.00371 -0.00634,0.00675 -0.011331,0.00675 -0.005,0 -0.00908,0.00254 -0.00908,0.00565 0,0.00693 -0.044608,0.041613 -0.048507,0.037715 -0.00436,-0.00436 -0.036218,-0.1530622 -0.033399,-0.1558821 0.00138,-0.00138 0.013721,5.877e-4 0.027427,0.00437 0.013706,0.00379 0.041798,0.00727 0.062425,0.00774 0.035623,8.193e-4 0.043488,-0.00264 0.051237,-0.022563 9.38e-4,-0.00241 0.037633,-0.012507 0.081543,-0.022433 0.073322,-0.016574 0.080142,-0.019355 0.083585,-0.034071 0.005,-0.021343 0.042898,-0.035362 0.058414,-0.021605 0.00899,0.00797 0.019711,0.00698 0.083324,-0.00775 0.040152,-0.0093 0.089498,-0.022359 0.1096569,-0.029025 0.020159,-0.00667 0.040632,-0.012121 0.045496,-0.012121 0.016838,0 0.042741,0.078314 0.042802,0.129401 l 3.84e-5,0.030052 -0.030445,0.0039 c -0.016745,0.00215 -0.069383,0.012452 -0.1169746,0.022899 -0.047591,0.010448 -0.095663,0.018963 -0.106826,0.018922 -0.022303,-8.07e-5 -0.026548,0.00598 -0.022674,0.032374 0.0019,0.012973 0.00702,0.018426 0.019534,0.020818 0.00932,0.00178 0.019804,0.00148 0.023288,-6.724e-4 0.00348,-0.00215 0.010711,-0.00447 0.016061,-0.00515 0.039401,-0.005 0.08061,-0.017284 0.094417,-0.028145 0.00901,-0.00709 0.019929,-0.01289 0.02426,-0.01289 0.00433,0 0.012895,0.016585 0.019033,0.036855 0.018035,0.059557 0.020526,0.060437 0.1135086,0.040116 0.074339,-0.016246 0.079313,-0.016599 0.084536,-0.00599 0.00817,0.016595 0.074868,0.015794 0.079246,-9.493e-4 0.00255,-0.00975 0.00777,-0.011045 0.032828,-0.00816 0.026702,0.00307 0.058014,-0.00234 0.1323499,-0.022866 0.010575,-0.00292 0.037699,-0.01587 0.060273,-0.028777 0.030369,-0.017363 0.062882,-0.028324 0.1250078,-0.042145 0.081686,-0.018172 0.089221,-0.018709 0.2778511,-0.019788 0.1530124,-8.759e-4 0.1960492,6.837e-4 0.2041403,0.0074 0.00927,0.0077 0.0089,0.00961 -0.00393,0.019997 -0.0078,0.00632 -0.019283,0.011488 -0.025512,0.011488 -0.00623,0 -0.014915,0.00433 -0.019303,0.00961 -0.00439,0.00529 -0.010324,0.00961 -0.013189,0.00961 -0.00286,0 -0.06668,0.027911 -0.1418113,0.062024 -0.1217425,0.055276 -0.1467244,0.06422 -0.2296586,0.08221 -0.079738,0.017297 -0.099464,0.019466 -0.1378223,0.015154 -0.073259,-0.00824 -0.184245,0.00828 -0.2098118,0.031229 -0.010233,0.00918 -0.012375,0.00902 -0.024427,-0.00189 -0.011306,-0.010231 -0.014064,-0.010606 -0.019131,-0.00259 -0.00325,0.00515 -0.00596,0.011294 -0.00602,0.013657 -5.13e-5,0.00236 -0.00875,0.0062 -0.019327,0.00852 -0.01903,0.00418 -0.027462,0.022433 -0.010362,0.022433 0.00488,0 0.010472,0.00614 0.012434,0.01364 0.00292,0.011167 0.00683,0.012926 0.021579,0.0097 0.00991,-0.00216 0.036039,-0.00584 0.058071,-0.00816 0.031988,-0.00337 0.040078,-0.00242 0.040147,0.00472 5.13e-5,0.00492 0.00162,0.014707 0.00348,0.021758 0.00233,0.00879 -0.00123,0.015696 -0.011305,0.021965 -0.020276,0.012618 -0.1070409,0.032253 -0.1113948,0.025209 -0.00194,-0.00314 -0.011266,-0.00167 -0.020718,0.00328 -0.00945,0.00494 -0.025279,0.012215 -0.035173,0.016153 -0.00997,0.00397 -0.016117,0.010186 -0.013794,0.013946 0.00231,0.00374 -9.21e-4,0.012441 -0.00718,0.019353 -0.00872,0.00963 -0.00961,0.014326 -0.00383,0.020107 0.013056,0.013056 0.00865,0.016183 -0.035018,0.024864 -0.043621,0.00867 -0.059995,0.018421 -0.059995,0.035729 0,0.00541 -0.00697,0.018115 -0.015485,0.028237 l -0.015486,0.018404 -0.00431,-0.02549 c -0.00348,-0.020593 -0.00697,-0.025463 -0.018165,-0.025348 -0.023145,2.382e-4 -0.045243,0.021409 -0.040783,0.039073 0.00369,0.014616 0.00346,0.014736 -0.00544,0.00283 -0.00511,-0.00684 -0.0093,-0.016217 -0.0093,-0.020831 0,-0.00462 -0.00433,-0.00839 -0.00961,-0.00839 -0.00681,0 -0.00961,0.0069 -0.00961,0.023685 0,0.032759 0.02616,0.060496 0.052154,0.055297 0.010093,-0.00202 0.018351,-0.00207 0.018351,-1.181e-4 0,0.00196 -0.015642,0.0068 -0.03476,0.010768 -0.052799,0.010961 -0.053325,0.012713 -0.032922,0.1095529 0.00966,0.04586 0.01605,0.087338 0.014195,0.092172 -0.00431,0.011237 -0.072855,0.027125 -0.081166,0.018814 -0.00332,-0.00332 -0.016199,-0.053539 -0.028623,-0.1116008 -0.017162,-0.08022 -0.025635,-0.1078964 -0.035272,-0.1152255 -0.00872,-0.00663 -0.011507,-0.014102 -0.00892,-0.023886 0.00292,-0.011046 1.28e-5,-0.015949 -0.01296,-0.02186 -0.017623,-0.00803 -0.020957,-0.015008 -0.010315,-0.021586 0.012804,-0.00791 0.00595,-0.014687 -0.013935,-0.013764 -0.019402,9.041e-4 -0.020673,-5.4e-4 -0.027427,-0.031103 l -0.00708,-0.032048 -0.024315,0.00194 c -0.013373,0.00107 -0.031093,0.00451 -0.039376,0.00766 -0.014807,0.00563 -0.01492,0.00634 -0.00667,0.041808 0.00928,0.039918 0.011191,0.037319 -0.03502,0.047611 -0.039286,0.00875 -0.044867,0.00834 -0.044867,-0.00332 0,-0.00675 -0.00471,-0.00939 -0.014322,-0.00801 -0.010424,0.00149 -0.01435,0.00641 -0.014421,0.018072 -8.59e-5,0.013865 -0.00355,0.016456 -0.025737,0.019229 -0.023503,0.00294 -0.025905,0.00504 -0.028843,0.025241 -0.00294,0.02024 -0.00576,0.022686 -0.034533,0.030007 -0.020146,0.00513 -0.039689,0.016135 -0.054752,0.030843 -0.026352,0.025731 -0.038907,0.028976 -0.038907,0.010053 0,-0.00705 -0.00216,-0.012755 -0.00481,-0.012676 -0.015591,4.624e-4 -0.034115,0.028393 -0.049011,0.073898 -0.014956,0.045689 -0.017365,0.065717 -0.021009,0.1746606 l -0.00411,0.1230537 h 0.03531 c 0.01942,0 0.043673,0.00264 0.053893,0.00588 0.010221,0.00323 0.0307,0.00757 0.045511,0.00964 0.025956,0.00362 0.027322,0.00293 0.037838,-0.019232 0.006,-0.012645 0.017399,-0.025458 0.025329,-0.028473 0.00793,-0.00302 0.016311,-0.00854 0.018624,-0.012287 0.00231,-0.00374 0.012688,-0.0068 0.023056,-0.0068 0.018981,0 0.025859,-0.010532 0.010682,-0.016356 -0.00533,-0.00205 -0.00732,-0.01198 -0.00574,-0.028642 0.00209,-0.021762 0.00464,-0.025507 0.017413,-0.025507 0.00823,0 0.016827,0.003 0.019095,0.00667 0.00227,0.00367 0.00965,0.00492 0.016402,0.00277 0.00849,-0.0027 0.01228,-8.363e-4 0.01228,0.00603 0,0.00553 0.0078,0.011788 0.017626,0.014135 0.02474,0.00591 0.034421,0.01507 0.032284,0.030546 -0.00171,0.012406 0.003,0.013851 0.068666,0.021031 0.038778,0.00424 0.07391,0.0079 0.078071,0.00813 0.00416,2.312e-4 0.00849,-0.00578 0.00961,-0.013357 0.00112,-0.00758 0.00974,-0.019499 0.019141,-0.026491 0.017053,-0.012683 0.017142,-0.012683 0.038458,1.534e-4 0.016822,0.01013 0.037722,0.013738 0.098284,0.016967 0.07132,0.0038 0.077477,0.00321 0.084588,-0.00818 0.00658,-0.010529 0.014953,-0.012191 0.058716,-0.011653 0.057383,7.063e-4 0.071411,-0.00604 0.071411,-0.034339 0,-0.023997 -0.00656,-0.02687 -0.036921,-0.016159 -0.020072,0.00708 -0.028703,0.00738 -0.040742,0.0014 -0.012777,-0.00634 -0.015597,-0.013176 -0.017237,-0.041777 -0.00257,-0.044857 0.010351,-0.061268 0.043423,-0.055135 0.012449,0.00231 0.0275,0.00856 0.033447,0.013896 0.00973,0.00873 0.012294,0.00832 0.02557,-0.00405 0.014386,-0.013402 0.017915,-0.013645 0.1398128,-0.00961 0.06878,0.00228 0.125694,0.00474 0.1264756,0.00546 7.797e-4,7.289e-4 -0.00714,0.024236 -0.017603,0.052244 -0.010463,0.028008 -0.019034,0.055532 -0.019047,0.061165 -1.92e-5,0.00891 -0.00856,0.00985 -0.065721,0.00722 -0.036134,-0.00166 -0.069303,-0.0059 -0.07371,-0.00942 -0.00545,-0.00435 -0.011092,-0.00385 -0.017626,0.00158 -0.011646,0.00967 -0.012747,0.031921 -0.0016,0.032374 0.0181,7.346e-4 0.066296,0.00705 0.074432,0.00975 0.00689,0.00229 0.0071,0.00487 0.001,0.012215 -0.00494,0.00596 -0.00621,0.018354 -0.0035,0.034364 0.00406,0.024053 0.0054,0.025207 0.033543,0.029065 0.016122,0.00221 0.044412,0.00402 0.062868,0.00402 0.018456,0 0.04257,0.0018 0.053587,0.00401 0.017039,0.00341 0.02003,0.00685 0.02003,0.023046 0,0.023571 0.022382,0.056272 0.038515,0.056272 0.0066,0 0.013787,0.00288 0.015966,0.00641 0.00591,0.00957 0.060684,0.008 0.064464,-0.00185 0.00485,-0.012633 0.060965,-0.00857 0.07099,0.00514 0.00672,0.00918 0.011355,0.00988 0.027755,0.00416 0.013458,-0.00469 0.036392,-0.00494 0.072456,-7.967e-4 0.029021,0.00334 0.05637,0.00609 0.060777,0.00612 0.00476,3.21e-5 0.008,0.0085 0.00798,0.02088 l -2.56e-5,0.020831 -0.068875,-7.459e-4 c -0.037881,-4.098e-4 -0.074658,-0.00272 -0.081726,-0.00514 -0.012827,-0.00439 -0.037271,0.012039 -0.042862,0.028812 -0.00194,0.00583 -0.015288,0.00596 -0.056738,5.82e-4 -0.029809,-0.00387 -0.091694,-0.00871 -0.1375226,-0.01076 -0.045828,-0.00205 -0.095582,-0.00536 -0.110565,-0.00736 -0.022295,-0.00298 -0.027241,-0.00176 -0.027241,0.00671 0,0.00569 0.00216,0.01043 0.00481,0.010538 0.00264,1.08e-4 0.040707,0.0028 0.084584,0.00599 0.072185,0.00524 0.080835,0.0072 0.090892,0.020531 0.00796,0.010555 0.00902,0.01603 0.00373,0.019298 -0.013866,0.00857 0.00253,0.014492 0.047072,0.017009 l 0.044523,0.00251 v 0.050136 c 0,0.027575 -0.00292,0.057801 -0.00648,0.067169 -0.00608,0.015985 -0.00834,0.016799 -0.036855,0.013228 -0.016709,-0.00209 -0.091356,-0.00526 -0.1658842,-0.00704 -0.1755577,-0.00418 -0.226637,-0.013861 -0.226637,-0.042938 0,-0.01581 -0.019911,-0.02432 -0.056886,-0.02432 -0.01765,0 -0.033981,-0.00305 -0.036292,-0.0068 -0.00288,-0.00463 0.00794,-0.00554 0.034454,-0.00283 0.034305,0.0035 0.039424,0.00254 0.045485,-0.0088 0.00747,-0.013957 0.0091,-0.051498 0.00294,-0.067561 -0.0046,-0.011978 -0.034961,-0.01359 -0.046104,-0.00245 -0.00423,0.00423 -0.00769,0.01769 -0.00769,0.029911 0,0.012221 -0.00206,0.020162 -0.00457,0.017647 -0.00251,-0.00254 -0.00468,-0.016697 -0.00481,-0.031514 -2.22e-4,-0.025609 -0.00119,-0.02694 -0.019463,-0.02694 -0.016212,0 -0.019547,0.00276 -0.021257,0.017626 -0.00168,0.0146 5.249e-4,0.017736 0.012819,0.018265 0.014602,6.272e-4 0.014583,7.119e-4 -0.00118,0.00518 -0.01475,0.00418 -0.016664,0.00221 -0.024072,-0.024675 -0.00442,-0.016065 -0.00682,-0.034415 -0.00532,-0.040778 0.00312,-0.013215 -0.017929,-0.023684 -0.047626,-0.023684 -0.010171,0 -0.021036,-0.00454 -0.024145,-0.010101 -0.00385,-0.00688 -0.012631,-0.00943 -0.027507,-0.00801 -0.024154,0.00231 -0.03116,0.016278 -0.019956,0.039786 0.00356,0.00747 0.010046,0.03179 0.014414,0.054048 0.01752,0.08927 0.074943,0.1664797 0.1652926,0.2222472 l 0.039362,0.024297 -0.013981,0.023145 c -0.03963,0.065602 -0.064476,0.097611 -0.073177,0.094272 C 6.2895864,4.2356652 6.2210742,4.1828309 6.1780662,4.1395279 6.097305,4.0582103 6.0593118,3.9816646 6.0439222,3.8692654 c -0.00403,-0.029481 -0.00878,-0.055044 -0.010544,-0.056807 -0.00176,-0.00176 -0.00657,0.00137 -0.010693,0.00697 -0.00412,0.0056 -0.01542,0.011682 -0.025114,0.013523 -0.016687,0.00317 -0.017626,0.00207 -0.017626,-0.020656 0,-0.019472 -0.00272,-0.024731 -0.014421,-0.027867 -0.026949,-0.00722 -0.055292,-0.00432 -0.06122,0.00628 -0.00531,0.00948 -0.00609,0.00948 -0.00973,0 -0.0066,-0.017189 -0.02359,-0.012366 -0.02359,0.0067 0,0.0119 -0.00766,0.023568 -0.025488,0.038828 -0.028179,0.02412 -0.064187,0.092024 -0.064344,0.1213399 -1.818e-4,0.03366 -0.00728,0.037582 -0.044093,0.024342 -0.017998,-0.00647 -0.032724,-0.013878 -0.032724,-0.01646 0,-0.0026 0.011537,-0.034299 0.025638,-0.070479 0.014101,-0.036183 0.025638,-0.071115 0.025638,-0.077626 0,-0.015685 -0.025583,-0.049777 -0.037354,-0.049777 -0.00512,0 -0.012644,-0.00457 -0.016725,-0.010148 -0.010398,-0.014219 -0.1382348,-0.022002 -0.138157,-0.00841 1.01e-4,0.018015 0.01956,0.1646996 0.031992,0.2411911 0.019887,0.1223547 0.062487,0.3094376 0.090512,0.3974929 0.013283,0.041735 0.044274,0.021207 0.098574,-0.065301 0.00705,-0.011233 0.019131,-0.028338 0.026846,-0.038011 0.01554,-0.019489 0.029503,-0.058936 0.040392,-0.114119 0.00394,-0.019997 0.011344,-0.03982 0.016438,-0.044052 0.01171,-0.00972 0.011921,-0.018935 4.34e-4,-0.018935 -0.016818,0 -0.023389,-0.015562 -0.016452,-0.038955 0.00358,-0.012064 0.00674,-0.032852 0.00704,-0.046199 7.798e-4,-0.035293 0.017149,-0.052364 0.050231,-0.052364 0.029845,0 0.050465,0.017364 0.038189,0.032152 -0.00455,0.00548 -0.00364,0.010742 0.00299,0.017381 0.020249,0.020252 0.018628,0.039023 -0.00551,0.063881 -0.012534,0.012906 -0.022789,0.026744 -0.022789,0.03075 0,0.00401 0.015863,0.022772 0.035253,0.041701 0.037863,0.036966 0.042618,0.049815 0.022433,0.060615 -0.00971,0.0052 -0.012817,0.013414 -0.01281,0.033875 l 6.4e-6,0.027015 0.044743,-0.048069 0.044743,-0.048069 0.012141,0.014155 c 0.00668,0.00778 0.022803,0.04408 0.035833,0.080652 l 0.023693,0.066501 0.1133037,0.056909 c 0.062317,0.031298 0.1238138,0.064951 0.1366595,0.07478 0.012846,0.00983 0.028228,0.017873 0.034184,0.017873 0.00596,0 0.00964,0.00362 0.00819,0.00801 -0.00348,0.010544 -0.030059,0.0142 -0.038909,0.00537 -0.00915,-0.00915 -0.036436,-0.00896 -0.036436,2.424e-4 0,0.012544 -0.017597,-0.00623 -0.021898,-0.023365 -0.00503,-0.020054 -0.029998,-0.032739 -0.088418,-0.044922 -0.025695,-0.00537 -0.051944,-0.011363 -0.05833,-0.013341 -0.010297,-0.00316 -0.01111,-7.911e-4 -0.00718,0.020997 0.00775,0.043069 0.019737,0.056725 0.056566,0.06445 0.018257,0.00384 0.04133,0.00542 0.051273,0.0035 0.00994,-0.00192 0.019935,-5.346e-4 0.022204,0.00305 0.00681,0.010696 0.045788,0.016929 0.045788,0.00732 0,-0.00593 0.00194,-0.00626 0.00701,-0.00119 0.00507,0.00509 6.385e-4,0.022924 -0.016024,0.06457 -0.012665,0.03166 -0.023028,0.062344 -0.023028,0.068186 0,0.00584 -0.00433,0.012284 -0.00962,0.014313 -0.00529,0.00203 -0.058326,-0.00526 -0.1178597,-0.016223 -0.059534,-0.010956 -0.1114498,-0.019918 -0.1153695,-0.019918 -0.00392,0 -0.00713,0.00548 -0.00713,0.012132 0,0.017635 -0.010938,0.019421 -0.063627,0.01038 -0.03042,-0.0052 -0.049196,-0.011776 -0.05296,-0.018505 -0.010332,-0.01846 -0.032792,-0.011731 -0.051602,0.01546 -0.012337,0.017839 -0.021876,0.025134 -0.032048,0.024523 l -0.014482,-8.476e-4 0.014152,-0.00277 c 0.00778,-0.00153 0.020424,-0.012889 0.028088,-0.025292 0.017879,-0.028931 0.00918,-0.039045 -0.035786,-0.041645 -0.02636,-0.00153 -0.032386,1.413e-4 -0.03418,0.00946 -0.0012,0.00622 0.0013,0.015494 0.00554,0.020613 0.00634,0.00764 0.00528,0.00931 -0.00588,0.00931 -0.018178,0 -0.017497,0.017584 8.193e-4,0.021116 0.010975,0.00209 0.00968,0.00299 -0.00542,0.00367 -0.02147,9.606e-4 -0.041054,0.017748 -0.041054,0.035231 0,0.006 -0.00433,0.012573 -0.00961,0.014601 -0.00757,0.00288 -0.00962,0.016138 -0.00965,0.062292 C 5.755384,5.0636372 5.6195043,5.2922815 5.331983,5.4954051 5.2197116,5.574614 5.1700899,5.6044585 4.9864543,5.7031108 4.5657968,5.9290954 4.4904666,5.9750898 4.3840482,6.0709242 4.3426658,6.1081896 4.2804287,6.1744484 4.2491296,6.2145589 l -0.016249,0.020822 z m 0.08655,-0.2255704 C 4.3873019,5.9102774 4.517574,5.8306883 4.6563637,5.7577392 4.8954959,5.6320495 5.0396453,5.5270923 5.2281355,5.3414249 5.4139028,5.1584398 5.4683551,5.063514 5.4778815,4.9060485 5.4838732,4.8070096 5.4731919,4.7451649 5.4129817,4.530274 5.3639995,4.3554574 5.3144786,4.116633 5.3033357,4.001485 5.3012857,3.980335 5.2984157,3.959298 5.2969557,3.954738 5.2909857,3.936086 5.2844977,3.7885975 5.2844977,3.6713944 c 0,-0.1495027 0.00487,-0.2106287 0.025842,-0.3241647 0.018833,-0.101969 0.018431,-0.094111 0.00461,-0.089927 -0.00617,0.00186 -0.025638,0.00514 -0.043265,0.00726 -0.017626,0.00213 -0.036374,0.00506 -0.041662,0.00651 -0.00529,0.00145 -0.028362,0.00536 -0.051277,0.00868 -0.022914,0.00332 -0.1080012,0.016544 -0.1890822,0.029378 -0.081081,0.012835 -0.1589572,0.024774 -0.1730582,0.026533 -0.014101,0.00176 -0.029244,0.00437 -0.03365,0.00581 -0.00441,0.00144 -0.00801,2.433e-4 -0.00801,-0.00266 0,-0.0029 0.042342,-0.027778 0.094094,-0.055282 l 0.094091,-0.050012 -0.053048,-0.050274 -0.053048,-0.050274 H 4.2333325 3.6096323 l -0.053048,0.050274 -0.053048,0.050274 0.094094,0.050008 c 0.051752,0.027504 0.094094,0.052381 0.094094,0.055282 0,0.0029 -0.00361,0.0041 -0.00801,0.00266 -0.00441,-0.00144 -0.019549,-0.00406 -0.03365,-0.00581 -0.014101,-0.00176 -0.091978,-0.013696 -0.1730588,-0.026531 -0.081081,-0.012834 -0.1661679,-0.026054 -0.1890822,-0.029378 -0.022914,-0.00332 -0.045989,-0.00723 -0.051277,-0.00868 -0.00529,-0.00145 -0.024036,-0.00438 -0.041662,-0.00651 -0.017626,-0.00213 -0.037095,-0.0054 -0.043265,-0.00726 -0.013827,-0.00418 -0.01423,-0.012042 0.00461,0.089927 0.020969,0.1135359 0.025842,0.174662 0.025842,0.3241647 0,0.1172032 -0.00648,0.2646936 -0.012458,0.2833438 -0.00146,0.00458 -0.00433,0.025597 -0.00638,0.046747 -0.011145,0.115148 -0.060666,0.3539724 -0.1096481,0.528789 -0.0608,0.2169963 -0.07093,0.276591 -0.064615,0.3801548 0.00437,0.071647 0.03026,0.1592449 0.062855,0.2126533 0.03223,0.05281 0.086901,0.1171511 0.1718119,0.2021997 0.1982194,0.1985411 0.339087,0.302397 0.5865667,0.4324512 0.1459827,0.076716 0.2846299,0.1621758 0.3789581,0.233584 0.023359,0.017686 0.045716,0.03018 0.049682,0.027767 0.00397,-0.00243 0.029367,-0.020777 0.056446,-0.040808 z M 4.2207495,5.927941 C 4.2186995,5.924611 4.1839185,5.899587 4.1434565,5.872294 L 4.0698886,5.822677 V 5.5322077 5.2417385 h 0.1634439 0.1634439 v 0.2906732 0.2906732 l -0.056084,0.037147 c -0.030846,0.020432 -0.066594,0.04538 -0.07944,0.055443 -0.024577,0.019257 -0.034356,0.022218 -0.040504,0.012273 z m -0.3111,-0.1968436 c -0.029965,-0.016307 -0.074671,-0.040797 -0.099348,-0.054426 -0.024677,-0.013629 -0.067022,-0.036932 -0.0941,-0.05177 l -0.049233,-0.026987 -0.00205,-0.136016 -0.00205,-0.1360155 -0.01838,-0.019172 c -0.023266,-0.024269 -0.066097,-0.042775 -0.1212019,-0.052369 -0.0237,-0.00412 -0.04309,-0.00865 -0.04309,-0.010052 0,-0.00141 0.1110456,-0.00254 0.2467682,-0.00254 H 3.973733 v 0.2595873 c 0,0.142773 -0.00216,0.25955 -0.00481,0.2595037 -0.00264,-4.46e-5 -0.029324,-0.013426 -0.059288,-0.029727 z M 4.4929198,5.501323 V 5.2417357 H 4.739688 c 0.1357226,0 0.2467682,0.00113 0.2467682,0.00254 0,0.00141 -0.019391,0.00592 -0.04309,0.010052 -0.055105,0.00959 -0.097936,0.028106 -0.1212019,0.052369 l -0.01838,0.019172 -0.00205,0.1360155 -0.00205,0.136016 -0.052095,0.02862 c -0.028652,0.015742 -0.065228,0.035898 -0.081281,0.044798 -0.07865,0.043583 -0.1655731,0.089586 -0.1692675,0.089586 -0.00227,0 -0.00414,-0.1168144 -0.00414,-0.2595873 z M 3.8176892,5.0579052 c -0.0024,-0.00237 0.00794,-0.00846 0.022968,-0.013471 0.031121,-0.010369 0.06569,-0.034525 0.075416,-0.052697 0.00431,-0.00806 0.0066,-0.1458745 0.0066,-0.397963 4.3e-6,-0.3597602 -7.685e-4,-0.3869806 -0.011538,-0.4056387 -0.010389,-0.018003 -0.036811,-0.034943 -0.08481,-0.054381 -0.011104,-0.00452 0.071552,-0.00612 0.2692017,-0.00531 l 0.2852256,0.00119 v 0.028846 0.02884 l -0.1185769,0.00356 c -0.065217,0.00198 -0.119224,0.00412 -0.1200147,0.0048 -7.855e-4,6.781e-4 -0.00584,0.00975 -0.011217,0.020144 -0.014138,0.027343 -0.014743,0.7323573 -6.555e-4,0.7660696 0.010819,0.025891 0.054164,0.059147 0.084518,0.064842 0.011892,0.0022 0.020034,0.00662 0.018094,0.00976 -0.00407,0.00659 -0.4086469,0.00791 -0.4152089,0.00136 z M 4.7870878,4.9746535 C 4.7222401,4.9264656 4.6259182,4.8548359 4.5730393,4.815477 4.5201605,4.7761181 4.4256996,4.7059931 4.3631262,4.6596439 4.3005527,4.6132947 4.2493564,4.5709314 4.2493564,4.5655035 c 0,-0.00868 0.023463,-0.00982 0.1945698,-0.00941 0.1316191,3.131e-4 0.2047183,-0.00203 0.2259371,-0.00726 0.1100455,-0.027089 0.1755825,-0.09534 0.1755825,-0.1828494 0,-0.056449 -0.037108,-0.1065552 -0.1035258,-0.1397827 -0.025089,-0.01255 -0.050517,-0.022823 -0.056506,-0.022823 -0.017005,0 -0.018073,-0.00435 -0.00985,-0.040181 l 0.00769,-0.03353 0.041039,0.00153 c 0.048251,0.00175 0.086246,0.00954 0.1564109,0.031959 0.072078,0.023037 0.1044625,0.040661 0.1404728,0.076449 0.042647,0.042385 0.057837,0.077362 0.058035,0.1336462 2.826e-4,0.08023 -0.042319,0.1395646 -0.1318134,0.1835874 -0.069742,0.03431 -0.1216112,0.047968 -0.2306974,0.06075 -0.03257,0.00384 -0.048048,0.00492 -0.1116079,0.00801 -0.024209,0.00119 -0.024924,0.00175 -0.012819,0.010691 0.00705,0.0052 0.048873,0.035971 0.092939,0.068379 0.044066,0.032412 0.1451587,0.1070999 0.224651,0.1659747 0.1467033,0.1086544 0.1988703,0.1409846 0.2683879,0.1663318 0.021288,0.00776 0.037149,0.01663 0.035248,0.019709 -0.0019,0.00305 -0.072093,0.00559 -0.1559794,0.00559 H 4.9049929 Z M 3.7921474,4.4107288 c -5.933e-4,-5.351e-4 -0.019823,-0.00288 -0.042737,-0.0052 -0.022914,-0.00232 -0.045989,-0.00537 -0.051276,-0.00672 -0.00529,-0.00136 -0.022594,-0.00424 -0.038458,-0.00639 -0.05484,-0.00741 -0.1380012,-0.029338 -0.1890822,-0.049855 l -0.051277,-0.020602 -0.00178,-0.095645 c -0.00107,-0.057391 7.685e-4,-0.098196 0.0046,-0.1020223 0.00423,-0.00424 0.00771,-0.00226 0.010335,0.00591 0.020566,0.063848 0.055978,0.1012087 0.134443,0.1418423 0.068655,0.035553 0.1477307,0.057228 0.2530023,0.069348 0.019389,0.0022 0.037601,0.00631 0.040471,0.00907 0.00287,0.00277 0.00431,0.017658 0.0032,0.033124 l -0.00201,0.028111 h -0.034178 c -0.018798,0 -0.034662,-4.339e-4 -0.035253,-9.606e-4 z M 4.19433,4.3997667 c -0.00191,-0.00497 -0.00257,-0.021625 -0.00146,-0.037011 0.00185,-0.025834 0.00348,-0.028128 0.021235,-0.029976 0.057243,-0.00596 0.1497864,-0.043334 0.1842378,-0.074397 0.036005,-0.032468 0.049711,-0.060334 0.049711,-0.1010765 0,-0.044306 -0.010945,-0.068898 -0.039881,-0.089618 -0.03439,-0.024625 -0.067118,-0.036717 -0.1355018,-0.050058 -0.099427,-0.019398 -0.118996,-0.021952 -0.2220101,-0.028982 -0.085263,-0.00581 -0.1295188,-0.00948 -0.1538295,-0.012742 -0.012338,-0.00164 -0.035413,-0.00458 -0.051276,-0.00654 -0.015864,-0.00192 -0.036054,-0.0048 -0.044867,-0.00634 -0.00881,-0.00153 -0.029003,-0.00458 -0.044867,-0.00674 C 3.6668467,3.9441726 3.5614203,3.9031723 3.515453,3.8628124 3.4665985,3.8199177 3.4418395,3.7469408 3.4539374,3.6814967 3.4786415,3.5478601 3.6208645,3.466629 3.8725918,3.4423809 c 0.06076,-0.00585 0.2652925,-0.00618 0.3204597,-5.168e-4 0.068737,0.00706 0.170645,0.030419 0.2261583,0.05184 0.05639,0.02176 0.069744,0.023025 0.086164,0.00816 0.00606,-0.00549 0.012949,-0.00804 0.015307,-0.00569 0.00703,0.00703 0.00507,0.200847 -0.00203,0.200847 -0.00348,0 -0.010829,-0.010816 -0.016337,-0.024036 C 4.4520974,3.5524728 4.2222879,3.4857552 3.9288778,3.5065187 3.7469218,3.5193952 3.6313903,3.57299 3.6182771,3.6506059 c -0.00481,0.028466 0.00742,0.065563 0.029284,0.088837 0.033444,0.0356 0.1437486,0.067159 0.2877261,0.082322 0.019389,0.00204 0.048232,0.00509 0.064096,0.00677 0.015864,0.00168 0.050475,0.00466 0.076915,0.00662 0.2533999,0.018785 0.3620545,0.045772 0.4688539,0.1164485 0.053983,0.035723 0.083291,0.112677 0.069933,0.1836179 -0.02604,0.1382949 -0.1340289,0.2218614 -0.332533,0.2573311 -0.030596,0.00548 -0.062182,0.011363 -0.070191,0.013098 -0.00898,0.00192 -0.015892,-3.023e-4 -0.018031,-0.00588 z M 2.4244342,4.480213 c 0.00429,-0.00356 0.022232,-0.00854 0.039858,-0.01112 0.017626,-0.0026 0.037816,-0.0069 0.044867,-0.00961 0.011192,-0.00429 0.00956,-0.0063 -0.012819,-0.01585 -0.014101,-0.00602 -0.046272,-0.020715 -0.071492,-0.03266 -0.025219,-0.011945 -0.0519,-0.021715 -0.059289,-0.021715 -0.014131,0 -0.015176,0.00249 -0.016077,0.038384 -4.239e-4,0.01694 -0.00333,0.022376 -0.011992,0.022433 -0.013416,8.76e-5 -0.023586,0.013957 -0.023724,0.032355 -9.36e-5,0.01242 0.0024,0.012838 0.051379,0.00863 0.028313,-0.00243 0.054992,-0.00732 0.059289,-0.010849 z M 6.1466552,4.459894 C 6.1427252,4.452544 6.1346112,4.447356 6.1286262,4.44835 6.1201962,4.44976 6.1176172,4.44507 6.1171832,4.42772 6.1162847,4.391749 6.1152432,4.389262 6.1011062,4.389262 c -0.00739,0 -0.034069,0.00977 -0.059289,0.021715 -0.02522,0.011945 -0.057391,0.026642 -0.071492,0.03266 -0.022384,0.00955 -0.024011,0.011561 -0.012819,0.01585 0.00705,0.00271 0.027241,0.00702 0.044867,0.00961 0.017626,0.0026 0.035645,0.00766 0.040042,0.011273 0.0044,0.00362 0.030355,0.0084 0.057686,0.010617 0.043614,0.00356 0.049937,0.00271 0.051697,-0.00685 0.0011,-0.00599 -0.00121,-0.016895 -0.00514,-0.024241 z M 2.6838204,4.4101801 c 0.014982,-0.00865 0.027241,-0.019641 0.027241,-0.024427 0,-0.0048 -0.011829,-0.018212 -0.026286,-0.029829 -0.014458,-0.011618 -0.037698,-0.040667 -0.051647,-0.064547 -0.013948,-0.023885 -0.027856,-0.041882 -0.030907,-0.039995 -0.014152,0.00875 -0.013126,0.04226 0.0027,0.088109 0.00902,0.026139 0.016406,0.058186 0.016406,0.071208 0,0.022585 8.193e-4,0.023478 0.017626,0.019444 0.00969,-0.00232 0.029885,-0.011312 0.044867,-0.019958 z M 5.845338,4.410574 c 0,-0.012957 0.00738,-0.044945 0.016406,-0.071086 C 5.87757,4.293639 5.878596,4.260126 5.864444,4.251379 5.861394,4.249519 5.847486,4.267494 5.833537,4.291373 5.819589,4.315258 5.796348,4.344302 5.781891,4.35592 5.767434,4.367537 5.755605,4.380963 5.755605,4.385749 c 0,0.012708 0.053646,0.042797 0.084927,0.047634 0.00264,4.136e-4 0.00481,-0.00985 0.00481,-0.022811 z M 2.4418594,4.3258779 c 0,-0.00311 -0.00555,-0.01251 -0.012343,-0.020834 -0.011139,-0.013657 -0.012769,-0.014036 -0.01671,-0.0039 -0.00636,0.016336 0.00107,0.030445 0.016032,0.030445 0.00716,6e-7 0.013021,-0.00254 0.013021,-0.0057 z m 3.6126762,-0.0039 c 0.00203,-0.00531 0.00172,-0.014663 -6.781e-4,-0.020834 -0.00394,-0.01012 -0.00557,-0.00974 -0.01671,0.0039 -0.00679,0.00832 -0.012343,0.017698 -0.012343,0.020834 0,0.00968 0.025819,0.00628 0.02973,-0.0039 z M 1.7143739,3.8157656 c 0.1350819,-0.00568 0.1698534,-0.0098 0.1698534,-0.020133 0,-0.00988 -0.014357,-0.011583 -0.076915,-0.00914 -0.022914,8.984e-4 -0.045365,0.00464 -0.049891,0.00832 -0.00538,0.00438 -0.03573,0.00523 -0.087705,0.00245 -0.081066,-0.00433 -0.092153,-0.00181 -0.084107,0.019159 0.00261,0.0068 0.00919,0.00879 0.021399,0.00646 0.0097,-0.00184 0.058012,-0.00505 0.1073656,-0.00712 z m 5.1661086,-0.00666 c 0,-0.012161 -0.00366,-0.012624 -0.08173,-0.010351 -0.049474,0.00144 -0.084889,-1.877e-4 -0.089734,-0.00412 -0.00745,-0.00605 -0.068503,-0.010995 -0.1089545,-0.00882 -0.021599,0.00116 -0.02447,0.019855 -0.0032,0.020858 0.00793,3.745e-4 0.070665,0.00428 0.1394081,0.00867 0.1490654,0.00953 0.1442151,0.00974 0.1442151,-0.00624 z M 3.1491945,2.86539 c 0.0087,-0.046463 0.010843,-0.078517 0.00524,-0.078517 -0.00593,0 -0.07803,0.085557 -0.07803,0.092597 0,0.00195 0.015634,0.00355 0.034743,0.00355 0.032829,0 0.034926,-9.719e-4 0.038045,-0.017626 z m 2.2410643,0.014079 c 0,-0.00704 -0.072097,-0.092597 -0.078029,-0.092597 -0.0056,0 -0.00346,0.032055 0.00524,0.078517 0.00312,0.016655 0.00522,0.017626 0.038045,0.017626 0.019109,0 0.034744,-0.00159 0.034744,-0.00355 z M 2.1662482,3.1930952 c 0,-0.00852 0.00174,-0.00895 0.00961,-0.00242 0.00529,0.00439 0.00961,0.00907 0.00961,0.010399 0,0.00133 -0.00433,0.00242 -0.00961,0.00242 -0.00529,0 -0.00961,-0.00468 -0.00961,-0.010399 z m 4.1149401,0.00798 c 0,-0.00133 0.00433,-0.00601 0.00961,-0.010399 0.00787,-0.00653 0.00961,-0.0061 0.00961,0.00242 0,0.00572 -0.00433,0.010399 -0.00961,0.010399 -0.00529,0 -0.00961,-0.00109 -0.00961,-0.00242 z M 4.1929856,2.910257 c -0.03935,-0.075905 -0.043256,-0.096772 -0.02772,-0.1480784 0.015311,-0.050562 0.028298,-0.1272954 0.022997,-0.135873 -0.00207,-0.00335 -0.010744,-0.00608 -0.019282,-0.00608 -0.011699,0 -0.016501,0.00434 -0.019493,0.017626 -0.016771,0.074469 -0.035185,0.1158944 -0.071296,0.1603914 -0.060138,0.074105 -0.1376285,0.06705 -0.1528173,-0.013913 -0.0054,-0.028786 0.010941,-0.076283 0.031102,-0.090405 0.029504,-0.020666 0.055204,-0.010146 0.076352,0.031254 l 0.00941,0.018425 0.013303,-0.018682 c 0.015841,-0.022246 0.041863,-0.096471 0.036731,-0.1047727 -0.00198,-0.00321 -0.013633,-0.00772 -0.025887,-0.010016 -0.012254,-0.0023 -0.023732,-0.00653 -0.025507,-0.0094 -0.00322,-0.0052 0.00274,-0.00764 0.03782,-0.015486 0.017347,-0.00388 0.018224,-0.00563 0.01497,-0.029897 -0.00475,-0.035443 -0.031302,-0.073041 -0.063849,-0.090428 -0.022864,-0.012214 -0.037075,-0.014548 -0.088582,-0.014548 -0.055612,0 -0.064902,0.00181 -0.099348,0.019373 -0.046616,0.023766 -0.075759,0.063512 -0.087207,0.1189368 -0.00431,0.020874 -0.0099,0.037954 -0.012428,0.037954 -0.00253,0 -0.020355,-0.017421 -0.039623,-0.038714 C 3.616446,2.4926806 3.5948659,2.3907695 3.6404671,2.2943459 3.6952526,2.1785024 3.8100479,2.1482093 3.9473444,2.2133651 c 0.1067193,0.050645 0.1892493,0.1790542 0.2046143,0.3183614 0.00426,0.038617 0.00529,0.040521 0.023023,0.042545 l 0.018564,0.00212 -0.00438,-0.043781 C 4.1824944,2.4658328 4.1610507,2.3945702 4.1301148,2.3363564 4.0473888,2.1806865 4.0374466,2.1473358 4.0505706,2.0695279 c 0.00604,-0.035793 0.019914,-0.068835 0.068097,-0.1621481 0.033283,-0.064457 0.069712,-0.135221 0.080953,-0.1572539 0.011241,-0.022033 0.022357,-0.040059 0.024703,-0.040059 0.00235,0 0.03918,0.067383 0.081855,0.1497395 0.086929,0.1677608 0.1007533,0.2079282 0.094547,0.2747045 -0.00483,0.051957 -0.018309,0.087726 -0.061349,0.1627885 -0.047825,0.083407 -0.069664,0.1486871 -0.080694,0.2412036 l -0.0044,0.036855 h 0.019082 c 0.018791,0 0.019148,-6.385e-4 0.023386,-0.042009 0.014195,-0.1385292 0.095692,-0.266868 0.2025749,-0.3190037 0.1490269,-0.072693 0.2778278,-0.027585 0.3214511,0.112577 0.028048,0.090119 0.00289,0.1763551 -0.076449,0.2620515 -0.019177,0.020713 -0.036781,0.03766 -0.039119,0.03766 -0.00234,0 -0.00759,-0.017577 -0.011676,-0.03906 -0.016915,-0.089005 -0.087683,-0.1404968 -0.1929197,-0.1403719 -0.064316,7.62e-5 -0.1135098,0.028865 -0.1367532,0.080029 -0.019157,0.042168 -0.016389,0.051897 0.017168,0.060347 0.032881,0.00828 0.032887,0.016387 1.93e-5,0.022554 -0.012254,0.0023 -0.023624,0.00635 -0.025267,0.00901 -0.00427,0.00691 0.022902,0.085014 0.037134,0.1067352 l 0.011984,0.018289 0.00956,-0.018708 c 0.015204,-0.029752 0.027932,-0.041142 0.04598,-0.041142 0.070026,0 0.088843,0.126863 0.023443,0.1580502 -0.019325,0.00922 -0.026378,0.00962 -0.049116,0.00281 -0.052313,-0.015674 -0.1052327,-0.088444 -0.1271877,-0.174897 -0.011305,-0.044517 -0.012811,-0.04685 -0.030253,-0.04685 -0.018055,0 -0.018317,5.229e-4 -0.016046,0.031965 0.00127,0.017581 0.00803,0.052192 0.015027,0.076915 0.019561,0.069136 0.020105,0.08071 0.00571,0.1216543 -0.013526,0.038484 -0.051062,0.1059678 -0.058941,0.1059678 -0.00238,0 -0.015929,-0.022354 -0.030093,-0.049674 z"
       style="display:inline;fill:#f9f9f9;fill-opacity:1;stroke-width:0.00640956" />
  </g>
  <g
     inkscape:groupmode="layer"
     id="layer1"
     inkscape:label="Overlay"
     sodipodi:insensitive="true"
     style="display:none">
    <circle
       style="display:inline;opacity:0.1;fill:url(#linearGradient1158);fill-opacity:1;stroke:#414548;stroke-width:0.0077439;stroke-opacity:1"
       id="path29"
       cx="4.2333336"
       cy="4.2333331"
       r="3.9648747"
       inkscape:label="Circle silhouette"
       inkscape:highlight-color="4278255615"
       clip-path="none"
       inkscape:export-xdpi="96"
       inkscape:export-ydpi="96"
       sodipodi:insensitive="true" />
  </g>
</svg>
