<?xml version="1.0" encoding="UTF-8" standalone="no"?>
<svg
   enable-background="new"
   width="32"
   height="32"
   viewBox="0 0 8.4666666 8.4666669"
   version="1.1"
   id="svg8"
   inkscape:version="1.1 (c4e8f9ed74, 2021-05-24)"
   sodipodi:docname="VisualStudioPreview.svg"
   xmlns:inkscape="http://www.inkscape.org/namespaces/inkscape"
   xmlns:sodipodi="http://sodipodi.sourceforge.net/DTD/sodipodi-0.dtd"
   xmlns:xlink="http://www.w3.org/1999/xlink"
   xmlns="http://www.w3.org/2000/svg"
   xmlns:svg="http://www.w3.org/2000/svg"
   xmlns:rdf="http://www.w3.org/1999/02/22-rdf-syntax-ns#"
   xmlns:cc="http://creativecommons.org/ns#"
   xmlns:dc="http://purl.org/dc/elements/1.1/">
  <defs
     id="defs2">
    <linearGradient
       gradientTransform="matrix(0.0077439,0,0,0.0077439,-0.05678487,-0.08653876)"
       gradientUnits="userSpaceOnUse"
       y2="813.84167"
       x2="170"
       y1="301.84164"
       x1="938"
       id="linearGradient1158"
       xlink:href="#linearGradient1156"
       inkscape:collect="always" />
    <linearGradient
       id="linearGradient1156"
       inkscape:collect="always">
      <stop
         id="stop1152"
         offset="0"
         style="stop-color:#333333;stop-opacity:1" />
      <stop
         id="stop1154"
         offset="1"
         style="stop-color:#252525;stop-opacity:1" />
    </linearGradient>
    <mask
       id="mask862"
       maskUnits="userSpaceOnUse">
      <rect
         inkscape:export-ydpi="96"
         inkscape:export-xdpi="96"
         style="display:inline;opacity:1;fill:url(#radialGradient866);fill-opacity:1;stroke:none;stroke-width:4.34110594;stroke-opacity:1"
         id="rect864"
         width="30"
         height="30.000025"
         x="1"
         y="0.9999876"
         inkscape:label="Faded mask" />
    </mask>
    <radialGradient
       r="15"
       fy="16.600925"
       fx="-3.1699476"
       cy="16.600925"
       cx="-3.1699476"
       gradientTransform="matrix(1.2438841,1.2021521,-1.0766625,1.1139429,29.163729,-6.6607255)"
       gradientUnits="userSpaceOnUse"
       id="radialGradient866"
       xlink:href="#linearGradient1961"
       inkscape:collect="always" />
    <linearGradient
       id="linearGradient1961"
       inkscape:collect="always">
      <stop
         id="stop1957"
         offset="0"
         style="stop-color:#696969;stop-opacity:1" />
      <stop
         id="stop1959"
         offset="1"
         style="stop-color:#ffffff;stop-opacity:0" />
    </linearGradient>
    <clipPath
       clipPathUnits="userSpaceOnUse"
       id="clipPath9293">
      <path
         id="path9295"
         style="display:inline;fill:#f9f9f9;fill-opacity:1;stroke-width:0.0133928"
         d="m 5.5174928,1.6706991 c -0.04788,-0.00288 -0.1019863,7.673e-4 -0.120406,0.00827 l -0.03359,0.013953 0.2340943,0.2340942 V 2.6913086 L 5.1009807,2.1946981 C 5.0892597,2.1829782 5.0742686,2.17692 5.0549887,2.16886 4.9998488,2.1458201 4.954301,2.1447226 4.9092612,2.1652426 4.88393,2.1767925 3.794691,3.3652566 3.5150309,3.6865968 L 3.4747232,3.7331055 2.9388388,3.2948894 C 2.6443488,3.0537193 2.3857801,2.8397661 2.3636801,2.8194662 c -0.1079,-0.09912 -0.1641262,-0.096075 -0.4557862,0.026355 -0.12523,0.05256 -0.2408686,0.1044985 -0.2573486,0.1152384 -0.03103,0.020201 -0.084789,0.1122971 -0.083199,0.1426271 1.2e-4,0.00217 8.493e-4,0.00343 0.00155,0.00414 L 4.3320354,5.8709595 C 4.4961805,6.0503549 4.872182,6.4663964 4.900476,6.4946941 l 0.00672,0.00672 0.4552693,0.4625039 -0.025839,-0.00413 0.00206,0.00206 -0.013948,-0.0062 -3.5201985,-3.5201984 c -0.09952,-0.09953 -0.1282828,-0.1032251 -0.1736329,-0.079065 -0.06558,0.03494 -0.063562,0.00345 -0.063562,0.9761678 0,0.8127701 -0.00103,0.9229445 0.03514,0.9591146 L 1.837614,5.5267945 C 1.823203,5.5413225 1.74927,5.6226275 1.74718,5.6234295 1.701056,5.6411225 1.657744,5.6318395 1.6226398,5.6053425 l -0.060461,-0.060461 0.00982,0.040308 c 0.00866,0.03517 0.020518,0.061353 0.044958,0.085783 L 130.02824,134.08122 c 0.036,0.037 0.10186,0.07 0.22686,0.123 0.109,0.046 0.2281,0.095 0.2651,0.108 l 3.26699,1.07797 c 0.027,0.012 0.0728,0.017 0.13384,0.015 0.092,-0.004 0.10784,-0.0109 0.68885,-0.29094 0.616,-0.297 0.65438,-0.32023 0.70538,-0.42323 0.025,-0.051 0.0259,-0.10402 0.0289,-1.92702 0.004,-1.854 0.009,-1.95416 -0.0594,-2.02416 l -0.0248,-0.0248 L 6.8750326,2.3295736 c -0.00761,-0.00787 -0.016259,-0.015225 -0.025839,-0.024805 l -0.00465,-0.00465 C 6.8040835,2.2596581 6.6666383,2.1880077 6.2001385,1.9631877 5.6428783,1.6946377 5.5989128,1.6755991 5.5174928,1.6706991 Z" />
    </clipPath>
  </defs>
  <sodipodi:namedview
     inkscape:document-rotation="0"
     inkscape:guide-bbox="true"
     showguides="true"
     inkscape:snap-object-midpoints="true"
     units="px"
     inkscape:pagecheckerboard="true"
     inkscape:window-maximized="1"
     inkscape:window-y="30"
     inkscape:window-x="0"
     inkscape:window-height="1020"
     inkscape:window-width="1920"
     showgrid="true"
     inkscape:current-layer="layer1"
     inkscape:document-units="px"
     inkscape:cy="17.96875"
     inkscape:cx="16.026786"
     inkscape:zoom="22.4"
     inkscape:pageshadow="2"
     inkscape:pageopacity="0.0"
     borderopacity="1.0"
     bordercolor="#666666"
     pagecolor="#ffffff"
     id="base"
     inkscape:snap-global="true">
    <inkscape:grid
       type="xygrid"
       id="grid945"
       units="px"
       spacingx="0.26458334"
       spacingy="0.26458334"
       empspacing="8" />
    <sodipodi:guide
       position="8.2020834,8.2020837"
       orientation="0,1"
       id="guide1116"
       inkscape:locked="false" />
    <sodipodi:guide
       position="8.2020834,8.2020837"
       orientation="1,0"
       id="guide1118"
       inkscape:locked="false" />
    <sodipodi:guide
       position="0.26458334,0"
       orientation="1,0"
       id="guide1120"
       inkscape:locked="false" />
    <sodipodi:guide
       position="0.26458334,0.26458334"
       orientation="0,1"
       id="guide1122"
       inkscape:locked="false" />
    <sodipodi:guide
       position="0.52916667,0"
       orientation="0,1"
       id="guide1126"
       inkscape:locked="false" />
  </sodipodi:namedview>
  <metadata
     id="metadata5">
    <rdf:RDF>
      <cc:Work
         rdf:about="">
        <dc:format>image/svg+xml</dc:format>
        <dc:type
           rdf:resource="http://purl.org/dc/dcmitype/StillImage" />
        <dc:title />
      </cc:Work>
    </rdf:RDF>
  </metadata>
  <g
     style="display:inline"
     inkscape:label="Main"
     id="layer1"
     inkscape:groupmode="layer">
    <rect
       inkscape:label="Background"
       y="0.26458016"
       x="0.2645832"
       height="7.9375067"
       width="7.9375"
       id="rect922"
       style="display:inline;opacity:1;fill:#8438ff;fill-opacity:1;stroke:none;stroke-width:1.14858;stroke-opacity:1"
       inkscape:export-xdpi="96"
       inkscape:export-ydpi="96" />
    <rect
       clip-path="url(#clipPath9293)"
       inkscape:export-ydpi="96"
       inkscape:export-xdpi="96"
       style="display:inline;opacity:0.214286;fill:#000000;fill-opacity:1;stroke:none;stroke-width:1.14858;stroke-opacity:1"
       id="rect943"
       width="7.9375"
       height="7.9375067"
       x="0.26458332"
       y="0.26458016"
       inkscape:label="Opaque mask"
       sodipodi:insensitive="true" />
    <path
       inkscape:label="Logo"
       style="display:none;opacity:1;fill:#f9f9f9;fill-opacity:1;stroke-width:0.264583"
       sodipodi:nodetypes="ccccccssccssssssc"
       inkscape:connector-curvature="0"
       id="path844"
       d="m 2.4130034,2.3811971 0.21431,-0.2645569 h 3.175 l 0.248711,0.2645569 m 0.44185,0.060907 -0.36777,-0.4445 c -0.0714,-0.090011 -0.17991,-0.1455208 -0.30427,-0.1455208 h -3.175001 c -0.12435,0 -0.23283,0.055589 -0.30692,0.1455208 l -0.36512,0.4445265 c -0.0767,0.089879 -0.12171,0.2037027 -0.12171,0.3360208 v 3.3072917 c 0,0.2922323 0.23692,0.5291402 0.529171,0.5291402 h 3.70416 c 0.29226,0 0.529169,-0.2369079 0.529169,-0.5291402 V 2.7781514 c 0,-0.1323181 -0.045,-0.2460625 -0.121709,-0.3360208 z" />
    <path
       style="display:inline;fill:#f9f9f9;fill-opacity:1;stroke-width:0.0133928"
       d="m 5.3768429,6.9789199 -0.040179,-0.019245 0.042826,0.0073 C 5.4430819,6.9778089 5.5324248,6.9299029 5.5685726,6.865585 L 5.5978243,6.81354 V 4.3328086 1.8520834 L 5.5685731,1.8000381 C 5.5378657,1.7454016 5.4564248,1.6951419 5.3960514,1.6935698 l -0.032601,-8.371e-4 0.033482,-0.013626 c 0.018415,-0.0075 0.072657,-0.011267 0.1205359,-0.00839 0.081418,0.0049 0.1256266,0.023828 0.6828809,0.2923748 0.4705294,0.2267567 0.606248,0.2978622 0.6453827,0.3381313 0.097917,0.1007543 0.092051,-0.035781 0.088167,2.0522089 -0.0034,1.8234043 -0.00421,1.8758972 -0.029426,1.9267498 -0.05126,0.103312 -0.089186,0.126076 -0.7047601,0.4230016 -0.5815845,0.2805309 -0.597336,0.2871852 -0.6889424,0.2910432 -0.06137,0.0026 -0.1076268,-0.00269 -0.1339281,-0.015297 z M 4.9074535,6.501438 C 4.8923709,6.4937066 4.1842232,5.7169914 3.3337945,4.7754055 2.4833664,3.83382 1.7744962,3.0559892 1.758528,3.0468928 1.69873,3.0128288 1.6095667,3.0357228 1.5822407,3.0921558 c -0.00762,0.015731 -0.014256,0.020826 -0.014756,0.011326 -0.00159,-0.03033 0.051948,-0.1222671 0.082971,-0.1424749 0.01648,-0.010734 0.1324166,-0.062522 0.2576402,-0.1150846 0.291666,-0.1224274 0.3474561,-0.1256815 0.4553564,-0.02656 0.022098,0.020301 0.2811225,0.2342359 0.5756096,0.4754126 l 0.5354309,0.4385029 0.040461,-0.046492 C 3.7946089,3.3654512 4.883771,2.1766866 4.9091027,2.1651447 c 0.04504,-0.020523 0.090712,-0.019374 0.1458514,0.00367 0.088536,0.036993 0.087513,0.028232 0.087513,0.74934 V 3.5673204 L 4.6804141,3.9459651 C 4.4262848,4.1542196 4.2183612,4.3287567 4.2183612,4.3338258 c 0,0.00506 0.2079236,0.1796496 0.4620529,0.3879569 L 5.1424676,5.1005236 V 5.7548086 6.409094 L 5.0984806,6.457092 C 5.0631716,6.495619 5.0426946,6.506117 4.9946858,6.510294 4.9617918,6.513154 4.9225368,6.509174 4.9074538,6.501444 Z M 2.1089896,5.9016904 C 2.0721587,5.8880631 1.9529589,5.8392398 1.8441,5.7931975 1.6356002,5.705012 1.5938455,5.6730509 1.5721563,5.5850388 l -0.0099,-0.040179 0.036834,0.043528 c 0.037034,0.043761 0.091684,0.056699 0.1480854,0.035058 0.01214,-0.00466 0.2480217,-0.2579261 0.5241815,-0.5628167 0.2761595,-0.3048912 0.5075392,-0.550991 0.5141768,-0.5468885 0.033947,0.020978 0.5092429,0.557391 0.5029323,0.5676011 -0.010786,0.017455 -0.939946,0.7809067 -0.9826115,0.8073738 -0.058409,0.036236 -0.1225846,0.040461 -0.1968652,0.012975 z M 1.6268473,5.3082538 c -0.060932,-0.0362 -0.059416,-0.011313 -0.059416,-0.9754456 0,-0.9727225 -0.00203,-0.9414409 0.06355,-0.9763813 0.065503,-0.034896 0.09603,-0.011344 0.3558451,0.2744929 L 2.2362216,3.9052954 V 4.3331485 4.761002 L 2.0203084,4.9989132 c -0.118753,0.1308519 -0.2317548,0.2543469 -0.251116,0.2744337 -0.040777,0.042306 -0.1038541,0.057774 -0.1423451,0.034907 z"
       id="path226" />
  </g>
  <g
     style="display:none"
     sodipodi:insensitive="true"
     inkscape:label="Overlay"
     id="layer2"
     inkscape:groupmode="layer">
    <circle
       sodipodi:insensitive="true"
       inkscape:export-ydpi="96"
       inkscape:export-xdpi="96"
       clip-path="none"
       inkscape:highlight-color="4278255615"
       inkscape:label="Circle silhouette"
       r="3.9648747"
       cy="4.2333331"
       cx="4.2333336"
       id="path29"
       style="display:inline;opacity:0.1;fill:url(#linearGradient1158);fill-opacity:1;stroke:#414548;stroke-width:0.0077439;stroke-opacity:1" />
  </g>
</svg>
