<?xml version="1.0" encoding="UTF-8" standalone="no"?>
<!-- Created with Inkscape (http://www.inkscape.org/) -->

<svg
   xmlns:dc="http://purl.org/dc/elements/1.1/"
   xmlns:cc="http://creativecommons.org/ns#"
   xmlns:rdf="http://www.w3.org/1999/02/22-rdf-syntax-ns#"
   xmlns:svg="http://www.w3.org/2000/svg"
   xmlns="http://www.w3.org/2000/svg"
   xmlns:xlink="http://www.w3.org/1999/xlink"
   xmlns:sodipodi="http://sodipodi.sourceforge.net/DTD/sodipodi-0.dtd"
   xmlns:inkscape="http://www.inkscape.org/namespaces/inkscape"
   sodipodi:docname="VisualStudioCode.svg"
   inkscape:version="0.92.4 5da689c313, 2019-01-14"
   id="svg8"
   version="1.1"
   viewBox="0 0 8.4666666 8.4666669"
   height="32"
   width="32">
  <defs
     id="defs2">
    <linearGradient
       inkscape:collect="always"
       xlink:href="#linearGradient1156"
       id="linearGradient1158"
       x1="938"
       y1="301.84164"
       x2="170"
       y2="813.84167"
       gradientUnits="userSpaceOnUse"
       gradientTransform="matrix(0.0077439,0,0,0.0077439,-0.05678487,-0.08653876)" />
    <linearGradient
       inkscape:collect="always"
       id="linearGradient1156">
      <stop
         style="stop-color:#333333;stop-opacity:1"
         offset="0"
         id="stop1152" />
      <stop
         style="stop-color:#252525;stop-opacity:1"
         offset="1"
         id="stop1154" />
    </linearGradient>
    <mask
       maskUnits="userSpaceOnUse"
       id="mask862">
      <rect
         inkscape:label="Faded mask"
         y="0.9999876"
         x="1"
         height="30.000025"
         width="30"
         id="rect864"
         style="display:inline;opacity:1;fill:url(#radialGradient866);fill-opacity:1;stroke:none;stroke-width:4.34110594;stroke-opacity:1"
         inkscape:export-xdpi="96"
         inkscape:export-ydpi="96" />
    </mask>
    <radialGradient
       inkscape:collect="always"
       xlink:href="#linearGradient1961"
       id="radialGradient866"
       gradientUnits="userSpaceOnUse"
       gradientTransform="matrix(1.2438841,1.2021521,-1.0766625,1.1139429,29.163729,-6.6607255)"
       cx="-3.1699476"
       cy="16.600925"
       fx="-3.1699476"
       fy="16.600925"
       r="15" />
    <linearGradient
       inkscape:collect="always"
       id="linearGradient1961">
      <stop
         style="stop-color:#696969;stop-opacity:1"
         offset="0"
         id="stop1957" />
      <stop
         style="stop-color:#ffffff;stop-opacity:0"
         offset="1"
         id="stop1959" />
    </linearGradient>
    <radialGradient
       inkscape:collect="always"
       xlink:href="#linearGradient1961"
       id="radialGradient866-7"
       gradientUnits="userSpaceOnUse"
       gradientTransform="matrix(0.32911101,0.31806942,-0.28486696,0.29473073,7.7162368,-1.7623169)"
       cx="-3.1699476"
       cy="16.600925"
       fx="-3.1699476"
       fy="16.600925"
       r="15" />
    <filter
       color-interpolation-filters="sRGB"
       filterUnits="userSpaceOnUse"
       height="236.149"
       width="298.822"
       y="40.5225"
       x="-21.4896"
       id="filter0_d">
      <feFlood
         id="feFlood950"
         result="BackgroundImageFix"
         flood-opacity="0" />
      <feColorMatrix
         id="feColorMatrix952"
         values="0 0 0 0 0 0 0 0 0 0 0 0 0 0 0 0 0 0 127 0"
         type="matrix"
         in="SourceAlpha" />
      <feOffset
         id="feOffset954" />
      <feGaussianBlur
         id="feGaussianBlur956"
         stdDeviation="10.6667" />
      <feColorMatrix
         id="feColorMatrix958"
         values="0 0 0 0 0 0 0 0 0 0 0 0 0 0 0 0 0 0 0.25 0"
         type="matrix" />
      <feBlend
         id="feBlend960"
         result="effect1_dropShadow"
         in2="BackgroundImageFix"
         mode="overlay" />
      <feBlend
         id="feBlend962"
         result="shape"
         in2="effect1_dropShadow"
         in="SourceGraphic"
         mode="normal" />
    </filter>
    <filter
       color-interpolation-filters="sRGB"
       filterUnits="userSpaceOnUse"
       height="297.347"
       width="122.667"
       y="-20.6735"
       x="154.667"
       id="filter1_d">
      <feFlood
         id="feFlood965"
         result="BackgroundImageFix"
         flood-opacity="0" />
      <feColorMatrix
         id="feColorMatrix967"
         values="0 0 0 0 0 0 0 0 0 0 0 0 0 0 0 0 0 0 127 0"
         type="matrix"
         in="SourceAlpha" />
      <feOffset
         id="feOffset969" />
      <feGaussianBlur
         id="feGaussianBlur971"
         stdDeviation="10.6667" />
      <feColorMatrix
         id="feColorMatrix973"
         values="0 0 0 0 0 0 0 0 0 0 0 0 0 0 0 0 0 0 0.25 0"
         type="matrix" />
      <feBlend
         id="feBlend975"
         result="effect1_dropShadow"
         in2="BackgroundImageFix"
         mode="overlay" />
      <feBlend
         id="feBlend977"
         result="shape"
         in2="effect1_dropShadow"
         in="SourceGraphic"
         mode="normal" />
    </filter>
    <linearGradient
       gradientUnits="userSpaceOnUse"
       y2="255.34"
       x2="127.844"
       y1="0.659988"
       x1="127.844"
       id="paint0_linear">
      <stop
         id="stop980"
         stop-color="white" />
      <stop
         id="stop982"
         stop-opacity="0"
         stop-color="white"
         offset="1" />
    </linearGradient>
    <clipPath
       clipPathUnits="userSpaceOnUse"
       id="clipPath1636">
      <rect
         sodipodi:insensitive="true"
         inkscape:label="Opaque mask"
         y="0.99998802"
         x="0.99999994"
         height="30.000025"
         width="30"
         id="rect1638"
         style="display:inline;opacity:1;fill:#808080;fill-opacity:1;stroke:none;stroke-width:4.34110689;stroke-opacity:1"
         inkscape:export-xdpi="96"
         inkscape:export-ydpi="96" />
    </clipPath>
  </defs>
  <sodipodi:namedview
     id="base"
     pagecolor="#ffffff"
     bordercolor="#666666"
     borderopacity="1.0"
     inkscape:pageopacity="0.0"
     inkscape:pageshadow="2"
     inkscape:zoom="16"
     inkscape:cx="8.9011828"
     inkscape:cy="17.316378"
     inkscape:document-units="px"
     inkscape:current-layer="layer4"
     showgrid="true"
     inkscape:window-width="1366"
     inkscape:window-height="712"
     inkscape:window-x="0"
     inkscape:window-y="26"
     inkscape:window-maximized="1"
     inkscape:pagecheckerboard="true"
     units="px"
     inkscape:snap-object-midpoints="true"
     showguides="true"
     inkscape:guide-bbox="true"
     inkscape:snap-global="true">
    <inkscape:grid
       type="xygrid"
       id="grid945"
       units="px"
       spacingx="0.26458334"
       spacingy="0.26458334"
       empspacing="8" />
    <sodipodi:guide
       position="8.2020834,8.2020837"
       orientation="0,1"
       id="guide1116"
       inkscape:locked="false" />
    <sodipodi:guide
       position="8.2020834,8.2020837"
       orientation="1,0"
       id="guide1118"
       inkscape:locked="false" />
    <sodipodi:guide
       position="0.26458334,0"
       orientation="1,0"
       id="guide1120"
       inkscape:locked="false" />
    <sodipodi:guide
       position="0.26458334,0.26458334"
       orientation="0,1"
       id="guide1122"
       inkscape:locked="false" />
    <sodipodi:guide
       position="0.52916667,0"
       orientation="0,1"
       id="guide1126"
       inkscape:locked="false" />
  </sodipodi:namedview>
  <metadata
     id="metadata5">
    <rdf:RDF>
      <cc:Work
         rdf:about="">
        <dc:format>image/svg+xml</dc:format>
        <dc:type
           rdf:resource="http://purl.org/dc/dcmitype/StillImage" />
        <dc:title />
      </cc:Work>
    </rdf:RDF>
  </metadata>
  <rect
     inkscape:export-ydpi="96"
     inkscape:export-xdpi="96"
     style="display:inline;opacity:1;fill:#24aaf2;fill-opacity:1;stroke:none;stroke-width:1.14858425;stroke-opacity:1"
     id="rect922"
     width="7.9375"
     height="7.9375067"
     x="0.2645832"
     y="0.26458016"
     inkscape:label="Square"
     sodipodi:insensitive="true" />
  <g
     inkscape:groupmode="layer"
     id="layer2"
     inkscape:label="Background"
     sodipodi:insensitive="true" />
  <g
     inkscape:groupmode="layer"
     id="layer4"
     inkscape:label="Shadow"
     style="display:inline">
    <path
       style="display:inline;opacity:0.22727272;fill:#000000;fill-opacity:1;stroke-width:0.07520606"
       d="m 19.830078,6.4238281 c -0.121829,0.00213 -0.243721,0.022155 -0.359375,0.060547 -0.02884,0.0096 -0.05779,0.019458 -0.08594,0.03125 -0.05633,0.023622 -0.111448,0.051681 -0.164063,0.083984 -0.02627,0.016139 -0.05099,0.034479 -0.07617,0.052734 -0.02517,0.018293 -0.05032,0.038226 -0.07422,0.058594 -0.0088,0.00748 -0.01677,0.015652 -0.02539,0.023437 C 19.03037,6.7476021 19.01406,6.7612541 19,6.7753901 L 11.408203,13.697266 8.0996094,11.189453 C 7.7917412,10.955886 7.3621203,10.974422 7.0761719,11.234375 L 6.015625,12.199219 C 5.6752135,12.508683 5.6646435,13.03769 5.986328,13.359375 l 0.027344,0.02539 2.736328,2.736329 -2.7363281,2.49414 c -0.3396133,0.309676 -0.348649,0.838842 -0.027344,1.160157 l 42.7617191,42.759765 0.02734,0.02734 1.060547,0.964844 c 0.285951,0.259993 0.71751,0.278421 1.02539,0.04492 l 3.306641,-2.509766 7.59375,6.923828 c 0.01387,0.01387 0.02861,0.02583 0.04297,0.03906 l 0.02539,0.02539 c 0.02392,0.02037 0.0489,0.0385 0.07422,0.05664 0.05042,0.03666 0.103513,0.06969 0.158203,0.09766 0.02733,0.01406 0.05369,0.02735 0.08203,0.03906 h 0.002 c 0.02816,0.01209 0.05526,0.0218 0.08398,0.03125 0.289175,0.09596 0.611344,0.08142 0.898437,-0.05664 l 3.966797,-1.908203 c 0.416795,-0.200425 0.681641,-0.621544 0.681641,-1.083985 v -0.002 -0.04687 -12.833984 -0.04687 -0.002 c 0,-0.324601 -0.129629,-0.629629 -0.351563,-0.851563 L 24.664062,8.6835938 c -0.09426,-0.094258 -0.20388,-0.174629 -0.328124,-0.234375 L 20.369141,6.5410156 C 20.196909,6.4581911 20.012824,6.4207709 19.830078,6.4238281 Z"
       id="path1483"
       inkscape:connector-curvature="0"
       inkscape:label="Shadow"
       transform="scale(0.26458334)"
       clip-path="url(#clipPath1636)" />
    <rect
       inkscape:export-ydpi="96"
       inkscape:export-xdpi="96"
       style="display:none;opacity:1;fill:url(#radialGradient866-7);fill-opacity:1;stroke:none;stroke-width:1.14858425;stroke-opacity:1"
       id="rect864-5"
       width="7.9375"
       height="7.9375067"
       x="0.26458335"
       y="0.26458016"
       inkscape:label="Faded mask"
       sodipodi:insensitive="true" />
  </g>
  <g
     inkscape:groupmode="layer"
     id="layer3"
     inkscape:label="Logo"
     style="opacity:1">
    <path
       inkscape:label="VSC"
       inkscape:connector-curvature="0"
       id="path1235"
       d="m 5.2464561,1.6995279 c -0.032234,5.628e-4 -0.064267,0.00601 -0.094867,0.016168 -0.00763,0.00254 -0.015212,0.00535 -0.022658,0.00847 -0.014903,0.00625 -0.029412,0.013685 -0.043333,0.022232 -0.00695,0.00427 -0.013821,0.00885 -0.020483,0.01368 -0.00666,0.00484 -0.013146,0.00996 -0.01947,0.015349 -0.00233,0.00198 -0.00449,0.0042 -0.00677,0.00626 -4.79e-5,3.97e-5 -1.104e-4,7.96e-5 -1.531e-4,1.19e-4 -0.00385,0.0035 -0.00782,0.00695 -0.01154,0.01069 L 3.0182411,3.6241869 2.1431836,2.9603543 C 2.0617268,2.8985563 1.9478047,2.9036237 1.8721475,2.9724028 L 1.5914732,3.2275439 c -0.092541,0.084128 -0.092651,0.2296394 -2.553e-4,0.3139026 L 2.3500724,4.2333383 1.5912179,4.9252694 c -0.092417,0.08427 -0.092307,0.2297729 2.553e-4,0.3139032 l 0.2806743,0.2551409 c 0.075658,0.068789 0.1895781,0.073833 0.2710361,0.012049 L 3.0182411,4.84253 5.027189,6.6742198 c 0.0037,0.0037 0.00762,0.00709 0.011468,0.010571 0.00233,0.00213 0.0046,0.00441 0.00699,0.00645 0.00633,0.00541 0.012804,0.010546 0.01947,0.015389 0.013339,0.0097 0.027309,0.01824 0.041779,0.025653 0.00723,0.0037 0.014577,0.00709 0.022035,0.010223 1.08e-5,4.5e-6 2.77e-5,-4.8e-6 3.98e-5,0 0.00745,0.00313 0.014979,0.00594 0.022618,0.00847 0.076511,0.025396 0.1617263,0.021375 0.2376911,-0.015156 L 6.4386812,6.2311785 C 6.5489578,6.1781493 6.6190482,6.0666398 6.6190482,5.9442858 V 5.9435219 5.9313209 2.5353624 2.5231568 2.5224332 c 0,-0.1223587 -0.070091,-0.2338638 -0.180367,-0.2868928 L 5.38928,1.7308523 C 5.3437105,1.7089383 5.2948076,1.698719 5.2464561,1.6995279 Z M 5.3455594,3.076939 V 5.3897239 L 3.8212429,4.2333319 Z"
       style="display:inline;fill:#f9f9f9;fill-opacity:1;stroke-width:0.01989827" />
  </g>
  <g
     inkscape:groupmode="layer"
     id="layer1"
     inkscape:label="Overlay"
     sodipodi:insensitive="true"
     style="display:none">
    <circle
       style="display:inline;opacity:0.1;fill:url(#linearGradient1158);fill-opacity:1;stroke:#414548;stroke-width:0.0077439;stroke-opacity:1"
       id="path29"
       cx="4.2333336"
       cy="4.2333331"
       r="3.9648747"
       inkscape:label="Circle silhouette"
       inkscape:highlight-color="4278255615"
       clip-path="none"
       inkscape:export-xdpi="96"
       inkscape:export-ydpi="96"
       sodipodi:insensitive="true" />
  </g>
</svg>
