<?xml version="1.0" encoding="UTF-8" standalone="no"?>
<!-- Created with Inkscape (http://www.inkscape.org/) -->

<svg
   xmlns:dc="http://purl.org/dc/elements/1.1/"
   xmlns:cc="http://creativecommons.org/ns#"
   xmlns:rdf="http://www.w3.org/1999/02/22-rdf-syntax-ns#"
   xmlns:svg="http://www.w3.org/2000/svg"
   xmlns="http://www.w3.org/2000/svg"
   xmlns:xlink="http://www.w3.org/1999/xlink"
   xmlns:sodipodi="http://sodipodi.sourceforge.net/DTD/sodipodi-0.dtd"
   xmlns:inkscape="http://www.inkscape.org/namespaces/inkscape"
   enable-background="new"
   width="32"
   height="32"
   viewBox="0 0 8.4666666 8.4666669"
   version="1.1"
   id="svg8"
   inkscape:version="0.92.4 5da689c313, 2019-01-14"
   sodipodi:docname="WindowsRemoteDesktop.svg">
  <defs
     id="defs2">
    <linearGradient
       inkscape:collect="always"
       xlink:href="#linearGradient1156"
       id="linearGradient1158"
       x1="938"
       y1="301.84164"
       x2="170"
       y2="813.84167"
       gradientUnits="userSpaceOnUse"
       gradientTransform="matrix(0.0077439,0,0,0.0077439,-0.05678487,-0.08653876)" />
    <linearGradient
       inkscape:collect="always"
       id="linearGradient1156">
      <stop
         style="stop-color:#333333;stop-opacity:1"
         offset="0"
         id="stop1152" />
      <stop
         style="stop-color:#252525;stop-opacity:1"
         offset="1"
         id="stop1154" />
    </linearGradient>
    <mask
       maskUnits="userSpaceOnUse"
       id="mask862">
      <rect
         inkscape:label="Faded mask"
         y="0.9999876"
         x="1"
         height="30.000025"
         width="30"
         id="rect864"
         style="display:inline;opacity:1;fill:url(#radialGradient866);fill-opacity:1;stroke:none;stroke-width:4.34110594;stroke-opacity:1"
         inkscape:export-xdpi="96"
         inkscape:export-ydpi="96" />
    </mask>
    <radialGradient
       inkscape:collect="always"
       xlink:href="#linearGradient1961"
       id="radialGradient866"
       gradientUnits="userSpaceOnUse"
       gradientTransform="matrix(1.2438841,1.2021521,-1.0766625,1.1139429,29.163729,-6.6607255)"
       cx="-3.1699476"
       cy="16.600925"
       fx="-3.1699476"
       fy="16.600925"
       r="15" />
    <linearGradient
       inkscape:collect="always"
       id="linearGradient1961">
      <stop
         style="stop-color:#696969;stop-opacity:1"
         offset="0"
         id="stop1957" />
      <stop
         style="stop-color:#ffffff;stop-opacity:0"
         offset="1"
         id="stop1959" />
    </linearGradient>
    <clipPath
       clipPathUnits="userSpaceOnUse"
       id="clipPath1118">
      <rect
         sodipodi:insensitive="true"
         inkscape:label="Opaque mask"
         y="0.99998802"
         x="0.99999994"
         height="30.000025"
         width="30"
         id="rect1120"
         style="display:inline;opacity:1;fill:#808080;fill-opacity:1;stroke:none;stroke-width:4.34110641;stroke-opacity:1"
         inkscape:export-xdpi="96"
         inkscape:export-ydpi="96" />
    </clipPath>
  </defs>
  <sodipodi:namedview
     id="base"
     pagecolor="#ffffff"
     bordercolor="#666666"
     borderopacity="1.0"
     inkscape:pageopacity="0.0"
     inkscape:pageshadow="2"
     inkscape:zoom="11.2"
     inkscape:cx="4.1629068"
     inkscape:cy="16.455555"
     inkscape:document-units="px"
     inkscape:current-layer="layer1"
     showgrid="true"
     inkscape:window-width="1366"
     inkscape:window-height="712"
     inkscape:window-x="0"
     inkscape:window-y="26"
     inkscape:window-maximized="1"
     inkscape:pagecheckerboard="true"
     units="px"
     inkscape:snap-object-midpoints="true"
     showguides="true"
     inkscape:guide-bbox="true"
     inkscape:snap-nodes="false">
    <inkscape:grid
       type="xygrid"
       id="grid945"
       units="px"
       spacingx="0.26458334"
       spacingy="0.26458334"
       empspacing="8" />
    <sodipodi:guide
       position="8.2020834,8.2020837"
       orientation="0,1"
       id="guide1116"
       inkscape:locked="false" />
    <sodipodi:guide
       position="8.2020834,8.2020837"
       orientation="1,0"
       id="guide1118"
       inkscape:locked="false" />
    <sodipodi:guide
       position="0.26458334,0"
       orientation="1,0"
       id="guide1120"
       inkscape:locked="false" />
    <sodipodi:guide
       position="0.26458334,0.26458334"
       orientation="0,1"
       id="guide1122"
       inkscape:locked="false" />
    <sodipodi:guide
       position="0.52916667,0"
       orientation="0,1"
       id="guide1126"
       inkscape:locked="false" />
  </sodipodi:namedview>
  <metadata
     id="metadata5">
    <rdf:RDF>
      <cc:Work
         rdf:about="">
        <dc:format>image/svg+xml</dc:format>
        <dc:type
           rdf:resource="http://purl.org/dc/dcmitype/StillImage" />
        <dc:title />
      </cc:Work>
    </rdf:RDF>
  </metadata>
  <g
     inkscape:groupmode="layer"
     id="layer1"
     inkscape:label="Main"
     style="display:inline">
    <rect
       inkscape:export-ydpi="96"
       inkscape:export-xdpi="96"
       style="display:inline;opacity:1;fill:#00e676;fill-opacity:1;stroke:none;stroke-width:1.14858425;stroke-opacity:1"
       id="rect922"
       width="7.9375"
       height="7.9375067"
       x="0.2645832"
       y="0.26458016"
       inkscape:label="Background" />
    <path
       style="display:inline;opacity:0.21499999;stroke-width:0.86110407"
       d="M 8.25,7.3886719 C 7.4356471,7.3727767 6.6754828,8.0131537 6.5527344,8.8183594 c -0.034507,0.1994003 -0.023312,0.402368 -0.025391,0.6035156 9.44e-5,3.348608 -3.308e-4,6.696314 0,10.044922 0.00275,0.44294 0.1891696,0.880575 0.5019531,1.193359 L 492.35938,505.99023 c 0.0212,0.0212 0.0437,0.0436 0.0664,0.0625 0.32126,0.29382 0.75635,0.45666 1.19141,0.44532 h 0.82422 l 3.44531,3.44531 h 6.88867 v -1.72266 l -1.72266,-1.72265 h 6.0293 c 0.81438,0.0159 1.57443,-0.62446 1.69727,-1.42969 h -0.002 c 0,0 0,-0.002 0,-0.002 0.0336,-0.19878 0.0233,-0.39919 0.0254,-0.59961 v -10.02344 c 0.009,-0.45914 -0.18964,-0.90253 -0.50976,-1.22266 L 24.960938,7.890625 C 24.713261,7.642948 24.394201,7.4676059 24.042969,7.4140625 L 23.871094,7.3925781 23.75,7.3886719 25.472656,9.1113281 V 10.833984 L 23.75,9.1113281 H 9.9726562 Z"
       id="path986"
       inkscape:connector-curvature="0"
       transform="scale(0.26458334)"
       clip-path="url(#clipPath1118)" />
    <path
       inkscape:connector-curvature="0"
       id="path835"
       d="M 2.1828294,1.9549956 C 1.9673652,1.95079 1.7662693,2.1201708 1.7337921,2.3332148 c -0.00913,0.052758 -0.00608,0.1061932 -0.00663,0.1594135 2.5e-5,0.885986 -5e-5,1.7719724 3.75e-5,2.6579582 7.759e-4,0.125094 0.056538,0.248347 0.1496626,0.3318085 0.085006,0.077729 0.2003405,0.1206405 0.3154509,0.1179409 0.528451,0 1.0569019,0 1.5853529,0 0,0.1518892 0,0.3037784 0,0.4556676 -0.1518892,0 -0.3037784,0 -0.4556676,0 0,0.1518892 0,0.3037784 0,0.4556676 0.6075568,0 1.2151135,0 1.8226703,0 0,-0.1518892 0,-0.3037784 0,-0.4556676 -0.1518892,0 -0.3037784,0 -0.4556676,0 0,-0.1518892 0,-0.3037784 0,-0.4556676 0.5316122,0 1.0632243,0 1.5948365,0 0.2154642,0.00421 0.4165601,-0.1651752 0.4490373,-0.3782192 0.00913,-0.052758 0.00608,-0.1061932 0.00663,-0.1594134 0,-0.8840134 0,-1.7680268 0,-2.6520402 C 6.7437106,2.1951989 6.5743298,1.994103 6.3612858,1.9616257 l -0.045216,-0.00549 -0.032232,-0.00114 M 2.1828294,2.4106631 c 1.3670027,0 2.7340054,0 4.1010081,0 0,0.9113351 0,1.8226703 0,2.7340054 -1.3670027,0 -2.7340054,0 -4.1010081,0 M 4.9168347,2.6384969 C 4.6510287,2.904303 4.3852226,3.1701091 4.1194166,3.4359152 4.3852226,3.7017212 4.6510287,3.9675273 4.9168347,4.2333333 5.0231571,4.1270109 5.1294796,4.0206885 5.235802,3.9143661 5.0763184,3.7548825 4.9168347,3.5953988 4.7573511,3.4359152 4.9168347,3.2764315 5.0763184,3.1169478 5.235802,2.9574641 M 3.5498321,3.3219982 C 3.4435097,3.4283207 3.3371873,3.5346431 3.2308649,3.6409656 3.3903485,3.8004492 3.5498322,3.9599329 3.7093158,4.1194165 3.5498322,4.2789001 3.3903485,4.4383838 3.2308649,4.5978674 3.3371873,4.7041898 3.4435097,4.8105122 3.5498321,4.9168346 3.8156382,4.6510286 4.0814442,4.3852225 4.3472503,4.1194165"
       style="display:inline;fill:#f9f9f9;stroke-width:0.22783379" />
  </g>
  <g
     inkscape:groupmode="layer"
     id="layer2"
     inkscape:label="Overlay"
     sodipodi:insensitive="true"
     style="display:none">
    <circle
       style="display:inline;opacity:0.38500001;fill:url(#linearGradient1158);fill-opacity:1;stroke:#414548;stroke-width:0.0077439;stroke-opacity:1"
       id="path29"
       cx="4.2333336"
       cy="4.2333331"
       r="3.9648747"
       inkscape:label="Circle silhouette"
       inkscape:highlight-color="4278255615"
       clip-path="none"
       inkscape:export-xdpi="96"
       inkscape:export-ydpi="96"
       sodipodi:insensitive="true" />
  </g>
</svg>
